<?xml version="1.0" encoding="utf-8"?>
<svg version="1.1" xmlns:xlink="http://www.w3.org/1999/xlink" width="100px" height="115px" xmlns="http://www.w3.org/2000/svg">
  <defs>
    <mask fill="white" id="clip50">
      <path d="M 220 370  C 192.25 370  170 347.75  170 320  L 170 305  C 170 277.25  192.25 255  220 255  L 220 255  C 247.75 255  270 277.25  270 305  L 270 320  C 270 347.75  247.75 370  220 370  " fill-rule="evenodd" />
    </mask>
  </defs>
  <g transform="matrix(1 0 0 1 -170 -255 )">
    <path d="M 170 255  L 270 255  L 270 370  L 170 370  L 170 255  " fill-rule="nonzero" fill="#cccccc" stroke="none" mask="url(#clip50)" />
    <path d="M 177 262  L 263 262  L 263 363  L 177 363  L 177 262  " fill-rule="nonzero" fill="#ffffff" stroke="none" mask="url(#clip50)" />
    <path d="M 229.5 287.25  C 225.3 287.25  222 283.95  222 279.75  C 222 275.55  225.3 272.25  229.5 272.25  C 233.7 272.25  237 275.55  237 279.75  C 237 283.95  233.7 287.25  229.5 287.25  " fill-rule="nonzero" fill="#cccccc" stroke="none" mask="url(#clip50)" />
    <path d="M 180 361  L 180 308.2  L 200.25 284.2  L 228.6 303.4  L 244.8 298.6  L 261 303.4  L 261 361  L 180 361  " fill-rule="nonzero" fill="#169bd5" stroke="none" mask="url(#clip50)" />
  </g>
</svg>