<?xml version="1.0" encoding="utf-8"?>
<svg version="1.1" xmlns:xlink="http://www.w3.org/1999/xlink" width="1680px" height="26px" preserveAspectRatio="xMinYMid meet" viewBox="346 401  1680 24" xmlns="http://www.w3.org/2000/svg">
  <g transform="matrix(0.987688340595138 -0.156434465040231 0.156434465040231 0.987688340595139 -50.0058060074485 190.615990871922 )">
    <path d="M 362.9 408.8  L 359 412.5  L 362.9 416.2  L 366.7 412.5  L 362.9 408.8  Z M 362.9 414.8  L 360.4 412.5  L 362.9 410.2  L 365.3 412.5  L 362.9 414.8  Z M 2009.1 416.2  L 2013 412.5  L 2009.1 408.8  L 2005.3 412.5  L 2009.1 416.2  Z M 2009.1 410.2  L 2011.6 412.5  L 2009.1 414.8  L 2006.7 412.5  L 2009.1 410.2  Z " fill-rule="nonzero" fill="#d9001b" stroke="none" transform="matrix(0.98869481970038 0.149941833714385 -0.149941833714385 0.98869481970038 75.2589502425328 -173.167627911668 )" />
    <path d="M 365 412.5  L 2007 412.5  " stroke-width="1" stroke="#d9001b" fill="none" transform="matrix(0.98869481970038 0.149941833714385 -0.149941833714385 0.98869481970038 75.2589502425328 -173.167627911668 )" />
  </g>
</svg>