<?xml version="1.0" encoding="utf-8"?>
<svg version="1.1" xmlns:xlink="http://www.w3.org/1999/xlink" width="340px" height="6px" preserveAspectRatio="xMinYMid meet" viewBox="1772 459  340 4" xmlns="http://www.w3.org/2000/svg">
  <g transform="matrix(0.997564050259825 -0.0697564737441252 0.0697564737441022 0.997564050259825 -27.4271200006108 136.590044841312 )">
    <path d="M 1778.9 457.8  L 1775 461.5  L 1778.9 465.2  L 1782.7 461.5  L 1778.9 457.8  Z M 1778.9 463.8  L 1776.4 461.5  L 1778.9 459.2  L 1781.3 461.5  L 1778.9 463.8  Z M 2106.1 465.2  L 2110 461.5  L 2106.1 457.8  L 2102.3 461.5  L 2106.1 465.2  Z M 2106.1 459.2  L 2108.6 461.5  L 2106.1 463.8  L 2103.7 461.5  L 2106.1 459.2  Z " fill-rule="nonzero" fill="#d9001b" stroke="none" transform="matrix(0.997335297827365 0.0729541205662926 -0.0729541205662926 0.997335297827365 38.8445106116876 -140.483619147352 )" />
    <path d="M 1781 461.5  L 2104 461.5  " stroke-width="1" stroke="#d9001b" fill="none" transform="matrix(0.997335297827365 0.0729541205662926 -0.0729541205662926 0.997335297827365 38.8445106116876 -140.483619147352 )" />
  </g>
</svg>