<?xml version="1.0" encoding="utf-8"?>
<svg version="1.1" xmlns:xlink="http://www.w3.org/1999/xlink" width="22px" height="20px" preserveAspectRatio="xMinYMid meet" viewBox="1550 445  22 18" xmlns="http://www.w3.org/2000/svg">
  <g transform="matrix(0.992546151641323 0.121869343405148 -0.121869343405138 0.992546151641327 66.9641391938274 -186.853997900599 )">
    <path d="M 1561.9 424.8  L 1558 428.5  L 1561.9 432.2  L 1565.7 428.5  L 1561.9 424.8  Z M 1561.9 430.8  L 1559.4 428.5  L 1561.9 426.2  L 1564.3 428.5  L 1561.9 430.8  Z M 1988.1 432.2  L 1992 428.5  L 1988.1 424.8  L 1984.3 428.5  L 1988.1 432.2  Z M 1988.1 426.2  L 1990.6 428.5  L 1988.1 430.8  L 1985.7 428.5  L 1988.1 426.2  Z " fill-rule="nonzero" fill="#d9001b" stroke="none" transform="matrix(0.993034485056827 -0.117824070070265 0.117824070070265 0.993034485056827 -38.1238250009762 212.122447527871 )" />
    <path d="M 1564 428.5  L 1986 428.5  " stroke-width="1" stroke="#d9001b" fill="none" transform="matrix(0.993034485056827 -0.117824070070265 0.117824070070265 0.993034485056827 -38.1238250009762 212.122447527871 )" />
  </g>
</svg>