<?xml version="1.0" encoding="utf-8"?>
<svg version="1.1" xmlns:xlink="http://www.w3.org/1999/xlink" width="622px" height="10px" preserveAspectRatio="xMinYMid meet" viewBox="1346 479  622 8" xmlns="http://www.w3.org/2000/svg">
  <g transform="matrix(0.997564050259824 -0.0697564737441251 0.0697564737441325 0.997564050259823 -29.6560080989436 116.763040718521 )">
    <path d="M 1353.9 479.8  L 1350 483.5  L 1353.9 487.2  L 1357.7 483.5  L 1353.9 479.8  Z M 1353.9 485.8  L 1351.4 483.5  L 1353.9 481.2  L 1356.3 483.5  L 1353.9 485.8  Z M 1959.1 487.2  L 1963 483.5  L 1959.1 479.8  L 1955.3 483.5  L 1959.1 487.2  Z M 1959.1 481.2  L 1961.6 483.5  L 1959.1 485.8  L 1956.7 483.5  L 1959.1 481.2  Z " fill-rule="nonzero" fill="#d9001b" stroke="none" transform="matrix(0.997762020787532 0.0668651618855555 -0.0668651618855555 0.997762020787532 36.03651833712 -109.680077714194 )" />
    <path d="M 1356 483.5  L 1957 483.5  " stroke-width="1" stroke="#d9001b" fill="none" transform="matrix(0.997762020787532 0.0668651618855555 -0.0668651618855555 0.997762020787532 36.03651833712 -109.680077714194 )" />
  </g>
</svg>