<?xml version="1.0" encoding="utf-8"?>
<svg version="1.1" xmlns:xlink="http://www.w3.org/1999/xlink" width="138px" height="6px" preserveAspectRatio="xMinYMid meet" viewBox="1874 437  138 4" xmlns="http://www.w3.org/2000/svg">
  <g transform="matrix(0.997564050259826 -0.0697564737441254 0.0697564737441023 0.997564050259825 -25.8900416285035 136.606210420773 )">
    <path d="M 1880.9 434.8  L 1877 438.5  L 1880.9 442.2  L 1884.7 438.5  L 1880.9 434.8  Z M 1880.9 440.8  L 1878.4 438.5  L 1880.9 436.2  L 1883.3 438.5  L 1880.9 440.8  Z M 2006.1 442.2  L 2010 438.5  L 2006.1 434.8  L 2002.3 438.5  L 2006.1 442.2  Z M 2006.1 436.2  L 2008.6 438.5  L 2006.1 440.8  L 2003.7 438.5  L 2006.1 436.2  Z " fill-rule="nonzero" fill="#d9001b" stroke="none" transform="matrix(0.997759869631202 0.0668972537069091 -0.0668972537069091 0.997759869631202 33.6881391222385 -129.03251541266 )" />
    <path d="M 1883 438.5  L 2004 438.5  " stroke-width="1" stroke="#d9001b" fill="none" transform="matrix(0.997759869631202 0.0668972537069091 -0.0668972537069091 0.997759869631202 33.6881391222385 -129.03251541266 )" />
  </g>
</svg>