<?xml version="1.0" encoding="utf-8"?>
<svg version="1.1" xmlns:xlink="http://www.w3.org/1999/xlink" width="12px" height="12px" viewBox="600 607.5  12 12" xmlns="http://www.w3.org/2000/svg">
  <path d="M 606 607.5  C 609.36 607.5  612 610.14  612 613.5  C 612 616.86  609.36 619.5  606 619.5  C 602.64 619.5  600 616.86  600 613.5  C 600 610.14  602.64 607.5  606 607.5  Z " fill-rule="nonzero" fill="#f0f0f0" stroke="none" />
  <path d="M 606 608  C 609.08 608  611.5 610.42  611.5 613.5  C 611.5 616.58  609.08 619  606 619  C 602.92 619  600.5 616.58  600.5 613.5  C 600.5 610.42  602.92 608  606 608  Z " stroke-width="1" stroke="#797979" fill="none" />
  <path d="M 606 616.5  C 604.32 616.5  603 615.18  603 613.5  C 603 611.82  604.32 610.5  606 610.5  C 607.68 610.5  609 611.82  609 613.5  C 609 615.18  607.68 616.5  606 616.5  " fill-rule="nonzero" fill="#797979" stroke="none" />
</svg>