<?xml version="1.0" encoding="utf-8"?>
<svg version="1.1" xmlns:xlink="http://www.w3.org/1999/xlink" width="12px" height="12px" viewBox="736 607.5  12 12" xmlns="http://www.w3.org/2000/svg">
  <path d="M 742 607.5  C 745.36 607.5  748 610.14  748 613.5  C 748 616.86  745.36 619.5  742 619.5  C 738.64 619.5  736 616.86  736 613.5  C 736 610.14  738.64 607.5  742 607.5  Z " fill-rule="nonzero" fill="#f0f0f0" stroke="none" />
  <path d="M 742 608  C 745.08 608  747.5 610.42  747.5 613.5  C 747.5 616.58  745.08 619  742 619  C 738.92 619  736.5 616.58  736.5 613.5  C 736.5 610.42  738.92 608  742 608  Z " stroke-width="1" stroke="#797979" fill="none" />
  <path d="M 742 616.5  C 740.32 616.5  739 615.18  739 613.5  C 739 611.82  740.32 610.5  742 610.5  C 743.68 610.5  745 611.82  745 613.5  C 745 615.18  743.68 616.5  742 616.5  " fill-rule="nonzero" fill="#797979" stroke="none" />
</svg>