<?xml version="1.0" encoding="utf-8"?>
<svg version="1.1" xmlns:xlink="http://www.w3.org/1999/xlink" width="12px" height="12px" viewBox="600 649.5  12 12" xmlns="http://www.w3.org/2000/svg">
  <path d="M 606 649.5  C 609.36 649.5  612 652.14  612 655.5  C 612 658.86  609.36 661.5  606 661.5  C 602.64 661.5  600 658.86  600 655.5  C 600 652.14  602.64 649.5  606 649.5  Z " fill-rule="nonzero" fill="#ffffff" stroke="none" />
  <path d="M 606 650  C 609.08 650  611.5 652.42  611.5 655.5  C 611.5 658.58  609.08 661  606 661  C 602.92 661  600.5 658.58  600.5 655.5  C 600.5 652.42  602.92 650  606 650  Z " stroke-width="1" stroke="#797979" fill="none" />
  <path d="M 606 658.5  C 604.32 658.5  603 657.18  603 655.5  C 603 653.82  604.32 652.5  606 652.5  C 607.68 652.5  609 653.82  609 655.5  C 609 657.18  607.68 658.5  606 658.5  " fill-rule="nonzero" fill="#797979" stroke="none" />
</svg>