<?xml version="1.0" encoding="utf-8"?>
<svg version="1.1" xmlns:xlink="http://www.w3.org/1999/xlink" width="12px" height="12px" viewBox="600 773.5  12 12" xmlns="http://www.w3.org/2000/svg">
  <path d="M 606 773.5  C 609.36 773.5  612 776.14  612 779.5  C 612 782.86  609.36 785.5  606 785.5  C 602.64 785.5  600 782.86  600 779.5  C 600 776.14  602.64 773.5  606 773.5  Z " fill-rule="nonzero" fill="#ffffff" stroke="none" />
  <path d="M 606 774  C 609.08 774  611.5 776.42  611.5 779.5  C 611.5 782.58  609.08 785  606 785  C 602.92 785  600.5 782.58  600.5 779.5  C 600.5 776.42  602.92 774  606 774  Z " stroke-width="1" stroke="#797979" fill="none" />
  <path d="M 606 782.5  C 604.32 782.5  603 781.18  603 779.5  C 603 777.82  604.32 776.5  606 776.5  C 607.68 776.5  609 777.82  609 779.5  C 609 781.18  607.68 782.5  606 782.5  " fill-rule="nonzero" fill="#797979" stroke="none" />
</svg>