<?xml version="1.0" encoding="utf-8"?>
<svg version="1.1" xmlns:xlink="http://www.w3.org/1999/xlink" width="12px" height="12px" viewBox="736 649.5  12 12" xmlns="http://www.w3.org/2000/svg">
  <path d="M 742 649.5  C 745.36 649.5  748 652.14  748 655.5  C 748 658.86  745.36 661.5  742 661.5  C 738.64 661.5  736 658.86  736 655.5  C 736 652.14  738.64 649.5  742 649.5  Z " fill-rule="nonzero" fill="#f0f0f0" stroke="none" />
  <path d="M 742 650  C 745.08 650  747.5 652.42  747.5 655.5  C 747.5 658.58  745.08 661  742 661  C 738.92 661  736.5 658.58  736.5 655.5  C 736.5 652.42  738.92 650  742 650  Z " stroke-width="1" stroke="#797979" fill="none" />
  <path d="M 742 658.5  C 740.32 658.5  739 657.18  739 655.5  C 739 653.82  740.32 652.5  742 652.5  C 743.68 652.5  745 653.82  745 655.5  C 745 657.18  743.68 658.5  742 658.5  " fill-rule="nonzero" fill="#797979" stroke="none" />
</svg>