<?xml version="1.0" encoding="utf-8"?>
<svg version="1.1" xmlns:xlink="http://www.w3.org/1999/xlink" width="12px" height="12px" viewBox="736 686.5  12 12" xmlns="http://www.w3.org/2000/svg">
  <path d="M 742 686.5  C 745.36 686.5  748 689.14  748 692.5  C 748 695.86  745.36 698.5  742 698.5  C 738.64 698.5  736 695.86  736 692.5  C 736 689.14  738.64 686.5  742 686.5  Z " fill-rule="nonzero" fill="#ffffff" stroke="none" />
  <path d="M 742 687  C 745.08 687  747.5 689.42  747.5 692.5  C 747.5 695.58  745.08 698  742 698  C 738.92 698  736.5 695.58  736.5 692.5  C 736.5 689.42  738.92 687  742 687  Z " stroke-width="1" stroke="#797979" fill="none" />
  <path d="M 742 695.5  C 740.32 695.5  739 694.18  739 692.5  C 739 690.82  740.32 689.5  742 689.5  C 743.68 689.5  745 690.82  745 692.5  C 745 694.18  743.68 695.5  742 695.5  " fill-rule="nonzero" fill="#797979" stroke="none" />
</svg>