<?xml version="1.0" encoding="utf-8"?>
<svg version="1.1" xmlns:xlink="http://www.w3.org/1999/xlink" width="12px" height="12px" viewBox="600 686.5  12 12" xmlns="http://www.w3.org/2000/svg">
  <path d="M 606 686.5  C 609.36 686.5  612 689.14  612 692.5  C 612 695.86  609.36 698.5  606 698.5  C 602.64 698.5  600 695.86  600 692.5  C 600 689.14  602.64 686.5  606 686.5  Z " fill-rule="nonzero" fill="#f0f0f0" stroke="none" />
  <path d="M 606 687  C 609.08 687  611.5 689.42  611.5 692.5  C 611.5 695.58  609.08 698  606 698  C 602.92 698  600.5 695.58  600.5 692.5  C 600.5 689.42  602.92 687  606 687  Z " stroke-width="1" stroke="#797979" fill="none" />
  <path d="M 606 695.5  C 604.32 695.5  603 694.18  603 692.5  C 603 690.82  604.32 689.5  606 689.5  C 607.68 689.5  609 690.82  609 692.5  C 609 694.18  607.68 695.5  606 695.5  " fill-rule="nonzero" fill="#797979" stroke="none" />
</svg>