<?xml version="1.0" encoding="utf-8"?>
<svg version="1.1" xmlns:xlink="http://www.w3.org/1999/xlink" width="12px" height="12px" viewBox="736 721.5  12 12" xmlns="http://www.w3.org/2000/svg">
  <path d="M 742 721.5  C 745.36 721.5  748 724.14  748 727.5  C 748 730.86  745.36 733.5  742 733.5  C 738.64 733.5  736 730.86  736 727.5  C 736 724.14  738.64 721.5  742 721.5  Z " fill-rule="nonzero" fill="#ffffff" stroke="none" />
  <path d="M 742 722  C 745.08 722  747.5 724.42  747.5 727.5  C 747.5 730.58  745.08 733  742 733  C 738.92 733  736.5 730.58  736.5 727.5  C 736.5 724.42  738.92 722  742 722  Z " stroke-width="1" stroke="#797979" fill="none" />
  <path d="M 742 730.5  C 740.32 730.5  739 729.18  739 727.5  C 739 725.82  740.32 724.5  742 724.5  C 743.68 724.5  745 725.82  745 727.5  C 745 729.18  743.68 730.5  742 730.5  " fill-rule="nonzero" fill="#797979" stroke="none" />
</svg>