<?xml version="1.0" encoding="utf-8"?>
<svg version="1.1" xmlns:xlink="http://www.w3.org/1999/xlink" width="8px" height="8px" xmlns="http://www.w3.org/2000/svg">
  <g transform="matrix(1 0 0 1 -298 -89 )">
    <path d="M 302 89  C 304.24 89  306 90.76  306 93  C 306 95.24  304.24 97  302 97  C 299.76 97  298 95.24  298 93  C 298 90.76  299.76 89  302 89  Z " fill-rule="nonzero" fill="#ffffff" stroke="none" />
    <path d="M 302 89.5  C 303.96 89.5  305.5 91.04  305.5 93  C 305.5 94.96  303.96 96.5  302 96.5  C 300.04 96.5  298.5 94.96  298.5 93  C 298.5 91.04  300.04 89.5  302 89.5  Z " stroke-width="1" stroke="#02a7f0" fill="none" />
  </g>
</svg>