<?xml version="1.0" encoding="utf-8"?>
<svg version="1.1" xmlns:xlink="http://www.w3.org/1999/xlink" width="8px" height="8px" xmlns="http://www.w3.org/2000/svg">
  <g transform="matrix(1 0 0 1 -299 -113 )">
    <path d="M 303 113  C 305.24 113  307 114.76  307 117  C 307 119.24  305.24 121  303 121  C 300.76 121  299 119.24  299 117  C 299 114.76  300.76 113  303 113  Z " fill-rule="nonzero" fill="#ffffff" stroke="none" />
    <path d="M 303 113.5  C 304.96 113.5  306.5 115.04  306.5 117  C 306.5 118.96  304.96 120.5  303 120.5  C 301.04 120.5  299.5 118.96  299.5 117  C 299.5 115.04  301.04 113.5  303 113.5  Z " stroke-width="1" stroke="#797979" fill="none" />
  </g>
</svg>