<?xml version="1.0" encoding="utf-8"?>
<svg version="1.1" xmlns:xlink="http://www.w3.org/1999/xlink" width="24px" height="22px" preserveAspectRatio="xMinYMid meet" viewBox="778 219  24 20" xmlns="http://www.w3.org/2000/svg">
  <g transform="matrix(-0.766044443118976 -0.642787609686536 0.642787609686541 -0.766044443118981 1247.97674744577 912.226389126609 )">
    <path d="M 493.9 333.8  L 490 337.5  L 493.9 341.2  L 497.7 337.5  L 493.9 333.8  Z M 493.9 339.8  L 491.4 337.5  L 493.9 335.2  L 496.3 337.5  L 493.9 339.8  Z M 827.1 341.2  L 831 337.5  L 827.1 333.8  L 823.3 337.5  L 827.1 341.2  Z M 827.1 335.2  L 829.6 337.5  L 827.1 339.8  L 824.7 337.5  L 827.1 335.2  Z " fill-rule="nonzero" fill="#d9001b" stroke="none" transform="matrix(0.766691183209268 -0.642016066457198 0.642016066457198 0.766691183209268 -62.5799489390257 502.793337561851 )" />
    <path d="M 496 337.5  L 825 337.5  " stroke-width="1" stroke="#d9001b" fill="none" transform="matrix(0.766691183209268 -0.642016066457198 0.642016066457198 0.766691183209268 -62.5799489390257 502.793337561851 )" />
  </g>
</svg>