<?xml version="1.0" encoding="utf-8"?>
<svg version="1.1" xmlns:xlink="http://www.w3.org/1999/xlink" width="31px" height="31px" xmlns="http://www.w3.org/2000/svg">
  <g transform="matrix(1 0 0 1 -952 -382 )">
    <path d="M 967.5 382  C 976.18 382  983 388.82  983 397.5  C 983 406.18  976.18 413  967.5 413  C 958.82 413  952 406.18  952 397.5  C 952 388.82  958.82 382  967.5 382  Z " fill-rule="nonzero" fill="#ffffff" stroke="none" />
    <path d="M 967.5 382.5  C 975.9 382.5  982.5 389.1  982.5 397.5  C 982.5 405.9  975.9 412.5  967.5 412.5  C 959.1 412.5  952.5 405.9  952.5 397.5  C 952.5 389.1  959.1 382.5  967.5 382.5  Z " stroke-width="1" stroke="#797979" fill="none" />
  </g>
</svg>