<?xml version="1.0" encoding="utf-8"?>
<svg version="1.1" xmlns:xlink="http://www.w3.org/1999/xlink" width="282px" height="228px" xmlns="http://www.w3.org/2000/svg">
  <g transform="matrix(1 0 0 1 -20 -20 )">
    <path d="M 20 20  L 302 20  L 302 248  L 20 248  L 20 20  " fill-rule="nonzero" fill="#cccccc" stroke="none" />
    <path d="M 36 36  L 286 36  L 286 232  L 36 232  L 36 36  " fill-rule="nonzero" fill="#ffffff" stroke="none" />
    <path d="M 183.74 88.4  C 174.164 88.4  166.64 80.876  166.64 71.3  C 166.64 61.724  174.164 54.2  183.74 54.2  C 193.316 54.2  200.84 61.724  200.84 71.3  C 200.84 80.876  193.316 88.4  183.74 88.4  " fill-rule="nonzero" fill="#cccccc" stroke="none" />
    <path d="M 42 227  L 42 125.25  L 101.75 79  L 185.4 137.255319148936  L 233.2 106.75  L 281 137.255319148936  L 281 227  L 42 227  " fill-rule="nonzero" fill="#169bd5" stroke="none" />
  </g>
</svg>