<?xml version="1.0" encoding="utf-8"?>
<svg version="1.1" xmlns:xlink="http://www.w3.org/1999/xlink" width="293px" height="483px" xmlns="http://www.w3.org/2000/svg">
  <g transform="matrix(1 0 0 1 -253 -1827 )">
    <path d="M 253 1827  L 546 1827  L 546 2310  L 253 2310  L 253 1827  " fill-rule="nonzero" fill="#cccccc" stroke="none" />
    <path d="M 274 1848  L 525 1848  L 525 2289  L 274 2289  L 274 1848  " fill-rule="nonzero" fill="#ffffff" stroke="none" />
    <path d="M 427.335 1943.4  C 415.029 1943.4  405.36 1933.731  405.36 1921.425  C 405.36 1909.119  415.029 1899.45  427.335 1899.45  C 439.641 1899.45  449.31 1909.119  449.31 1921.425  C 449.31 1933.731  439.641 1943.4  427.335 1943.4  " fill-rule="nonzero" fill="#cccccc" stroke="none" />
    <path d="M 282 2282  L 282 2047.7  L 341 1941.2  L 423.6 2026.4  L 470.8 2005.1  L 518 2026.4  L 518 2282  L 282 2282  " fill-rule="nonzero" fill="#169bd5" stroke="none" />
  </g>
</svg>