<?xml version="1.0" encoding="utf-8"?>
<svg version="1.1" xmlns:xlink="http://www.w3.org/1999/xlink" width="22px" height="20px" preserveAspectRatio="xMinYMid meet" viewBox="860 471  22 18" xmlns="http://www.w3.org/2000/svg">
  <g transform="matrix(0.999390827019099 -0.0348994967025003 0.0348994967025024 0.999390827019099 -16.2211687508368 30.6898646587104 )">
    <path d="M 872.9 494.8  L 869 498.5  L 872.9 502.2  L 876.7 498.5  L 872.9 494.8  Z M 872.9 500.8  L 870.4 498.5  L 872.9 496.2  L 875.3 498.5  L 872.9 500.8  Z M 1977.1 502.2  L 1981 498.5  L 1977.1 494.8  L 1973.3 498.5  L 1977.1 502.2  Z M 1977.1 496.2  L 1979.6 498.5  L 1977.1 500.8  L 1974.7 498.5  L 1977.1 496.2  Z " fill-rule="nonzero" fill="#d9001b" stroke="none" transform="matrix(0.999454199731203 0.033034870056668 -0.033034870056668 0.999454199731203 17.245648106285 -46.8026083967566 )" />
    <path d="M 875 498.5  L 1975 498.5  " stroke-width="1" stroke="#d9001b" fill="none" transform="matrix(0.999454199731203 0.033034870056668 -0.033034870056668 0.999454199731203 17.245648106285 -46.8026083967566 )" />
  </g>
</svg>