<?xml version="1.0" encoding="utf-8"?>
<svg version="1.1" xmlns:xlink="http://www.w3.org/1999/xlink" width="12px" height="12px" viewBox="210 69.5  12 12" xmlns="http://www.w3.org/2000/svg">
  <path d="M 216 69.5  C 219.36 69.5  222 72.14  222 75.5  C 222 78.86  219.36 81.5  216 81.5  C 212.64 81.5  210 78.86  210 75.5  C 210 72.14  212.64 69.5  216 69.5  Z " fill-rule="nonzero" fill="#ffffff" stroke="none" />
  <path d="M 216 70  C 219.08 70  221.5 72.42  221.5 75.5  C 221.5 78.58  219.08 81  216 81  C 212.92 81  210.5 78.58  210.5 75.5  C 210.5 72.42  212.92 70  216 70  Z " stroke-width="1" stroke="#797979" fill="none" />
  <path d="M 216 78.5  C 214.32 78.5  213 77.18  213 75.5  C 213 73.82  214.32 72.5  216 72.5  C 217.68 72.5  219 73.82  219 75.5  C 219 77.18  217.68 78.5  216 78.5  " fill-rule="nonzero" fill="#797979" stroke="none" />
</svg>