<?xml version="1.0" encoding="utf-8"?>
<svg version="1.1" xmlns:xlink="http://www.w3.org/1999/xlink" width="12px" height="12px" viewBox="110 69.5  12 12" xmlns="http://www.w3.org/2000/svg">
  <path d="M 116 69.5  C 119.36 69.5  122 72.14  122 75.5  C 122 78.86  119.36 81.5  116 81.5  C 112.64 81.5  110 78.86  110 75.5  C 110 72.14  112.64 69.5  116 69.5  Z " fill-rule="nonzero" fill="#f0f0f0" stroke="none" />
  <path d="M 116 70  C 119.08 70  121.5 72.42  121.5 75.5  C 121.5 78.58  119.08 81  116 81  C 112.92 81  110.5 78.58  110.5 75.5  C 110.5 72.42  112.92 70  116 70  Z " stroke-width="1" stroke="#797979" fill="none" />
  <path d="M 116 78.5  C 114.32 78.5  113 77.18  113 75.5  C 113 73.82  114.32 72.5  116 72.5  C 117.68 72.5  119 73.82  119 75.5  C 119 77.18  117.68 78.5  116 78.5  " fill-rule="nonzero" fill="#797979" stroke="none" />
</svg>