<?xml version="1.0" encoding="utf-8"?>
<svg version="1.1" xmlns:xlink="http://www.w3.org/1999/xlink" width="12px" height="12px" viewBox="207 63.5  12 12" xmlns="http://www.w3.org/2000/svg">
  <path d="M 213 63.5  C 216.36 63.5  219 66.14  219 69.5  C 219 72.86  216.36 75.5  213 75.5  C 209.64 75.5  207 72.86  207 69.5  C 207 66.14  209.64 63.5  213 63.5  Z " fill-rule="nonzero" fill="#f0f0f0" stroke="none" />
  <path d="M 213 64  C 216.08 64  218.5 66.42  218.5 69.5  C 218.5 72.58  216.08 75  213 75  C 209.92 75  207.5 72.58  207.5 69.5  C 207.5 66.42  209.92 64  213 64  Z " stroke-width="1" stroke="#797979" fill="none" />
  <path d="M 213 72.5  C 211.32 72.5  210 71.18  210 69.5  C 210 67.82  211.32 66.5  213 66.5  C 214.68 66.5  216 67.82  216 69.5  C 216 71.18  214.68 72.5  213 72.5  " fill-rule="nonzero" fill="#797979" stroke="none" />
</svg>