<?xml version="1.0" encoding="utf-8"?>
<svg version="1.1" xmlns:xlink="http://www.w3.org/1999/xlink" width="12px" height="12px" viewBox="310 69.5  12 12" xmlns="http://www.w3.org/2000/svg">
  <path d="M 316 69.5  C 319.36 69.5  322 72.14  322 75.5  C 322 78.86  319.36 81.5  316 81.5  C 312.64 81.5  310 78.86  310 75.5  C 310 72.14  312.64 69.5  316 69.5  Z " fill-rule="nonzero" fill="#ffffff" stroke="none" />
  <path d="M 316 70  C 319.08 70  321.5 72.42  321.5 75.5  C 321.5 78.58  319.08 81  316 81  C 312.92 81  310.5 78.58  310.5 75.5  C 310.5 72.42  312.92 70  316 70  Z " stroke-width="1" stroke="#797979" fill="none" />
  <path d="M 316 78.5  C 314.32 78.5  313 77.18  313 75.5  C 313 73.82  314.32 72.5  316 72.5  C 317.68 72.5  319 73.82  319 75.5  C 319 77.18  317.68 78.5  316 78.5  " fill-rule="nonzero" fill="#797979" stroke="none" />
</svg>