<?xml version="1.0" encoding="utf-8"?>
<svg version="1.1" xmlns:xlink="http://www.w3.org/1999/xlink" width="12px" height="12px" viewBox="1225 488.5  12 12" xmlns="http://www.w3.org/2000/svg">
  <path d="M 1231 488.5  C 1234.36 488.5  1237 491.14  1237 494.5  C 1237 497.86  1234.36 500.5  1231 500.5  C 1227.64 500.5  1225 497.86  1225 494.5  C 1225 491.14  1227.64 488.5  1231 488.5  Z " fill-rule="nonzero" fill="#ffffff" stroke="none" />
  <path d="M 1231 489  C 1234.08 489  1236.5 491.42  1236.5 494.5  C 1236.5 497.58  1234.08 500  1231 500  C 1227.92 500  1225.5 497.58  1225.5 494.5  C 1225.5 491.42  1227.92 489  1231 489  Z " stroke-width="1" stroke="#797979" fill="none" />
  <path d="M 1231 497.5  C 1229.32 497.5  1228 496.18  1228 494.5  C 1228 492.82  1229.32 491.5  1231 491.5  C 1232.68 491.5  1234 492.82  1234 494.5  C 1234 496.18  1232.68 497.5  1231 497.5  " fill-rule="nonzero" fill="#797979" stroke="none" />
</svg>