<?xml version="1.0" encoding="utf-8"?>
<svg version="1.1" xmlns:xlink="http://www.w3.org/1999/xlink" width="282px" height="6px" preserveAspectRatio="xMinYMid meet" viewBox="1752 491  282 4" xmlns="http://www.w3.org/2000/svg">
  <g transform="matrix(0.998629534754575 -0.0523359562429441 0.052335956242928 0.998629534754578 -23.2073357181739 99.7476045338862 )">
    <path d="M 1757 489.5  A 3 3 0 0 0 1754 492.5 A 3 3 0 0 0 1757 495.5 A 3 3 0 0 0 1760 492.5 A 3 3 0 0 0 1757 489.5 Z M 2028 489.5  A 3 3 0 0 0 2025 492.5 A 3 3 0 0 0 2028 495.5 A 3 3 0 0 0 2031 492.5 A 3 3 0 0 0 2028 489.5 Z " fill-rule="nonzero" fill="#d9001b" stroke="none" transform="matrix(0.998414925747175 0.056281755882901 -0.056281755882901 0.998414925747175 30.7185177957995 -105.732573938874 )" />
    <path d="M 1755 492.5  L 2030 492.5  " stroke-width="1" stroke="#d9001b" fill="none" transform="matrix(0.998414925747175 0.056281755882901 -0.056281755882901 0.998414925747175 30.7185177957995 -105.732573938874 )" />
  </g>
</svg>