<?xml version="1.0" encoding="utf-8"?>
<svg version="1.1" xmlns:xlink="http://www.w3.org/1999/xlink" width="300px" height="170px" xmlns="http://www.w3.org/2000/svg">
  <g transform="matrix(1 0 0 1 -526 -349 )">
    <path d="M 526 349  L 826 349  L 826 519  L 526 519  L 526 349  " fill-rule="nonzero" fill="#cccccc" stroke="none" />
    <path d="M 538 361  L 814 361  L 814 507  L 538 507  L 538 361  " fill-rule="nonzero" fill="#ffffff" stroke="none" />
    <path d="M 694.75 400  C 687.61 400  682 394.39  682 387.25  C 682 380.11  687.61 374.5  694.75 374.5  C 701.89 374.5  707.5 380.11  707.5 387.25  C 707.5 394.39  701.89 400  694.75 400  " fill-rule="nonzero" fill="#cccccc" stroke="none" />
    <path d="M 543 503  L 543 427.65  L 609.75 393.4  L 703.2 456.42  L 756.6 413.95  L 810 456.42  L 810 503  L 543 503  " fill-rule="nonzero" fill="#169bd5" stroke="none" />
  </g>
</svg>