<?xml version="1.0" encoding="utf-8"?>
<svg version="1.1" xmlns:xlink="http://www.w3.org/1999/xlink" width="12px" height="12px" viewBox="676 315.5  12 12" xmlns="http://www.w3.org/2000/svg">
  <path d="M 682 315.5  C 685.36 315.5  688 318.14  688 321.5  C 688 324.86  685.36 327.5  682 327.5  C 678.64 327.5  676 324.86  676 321.5  C 676 318.14  678.64 315.5  682 315.5  Z " fill-rule="nonzero" fill="#f0f0f0" stroke="none" />
  <path d="M 682 316  C 685.08 316  687.5 318.42  687.5 321.5  C 687.5 324.58  685.08 327  682 327  C 678.92 327  676.5 324.58  676.5 321.5  C 676.5 318.42  678.92 316  682 316  Z " stroke-width="1" stroke="#797979" fill="none" />
  <path d="M 682 324.5  C 680.32 324.5  679 323.18  679 321.5  C 679 319.82  680.32 318.5  682 318.5  C 683.68 318.5  685 319.82  685 321.5  C 685 323.18  683.68 324.5  682 324.5  " fill-rule="nonzero" fill="#797979" stroke="none" />
</svg>