<?xml version="1.0" encoding="utf-8"?>
<svg version="1.1" xmlns:xlink="http://www.w3.org/1999/xlink" width="68px" height="64px" xmlns="http://www.w3.org/2000/svg">
  <g transform="matrix(1 0 0 1 -1655 -1551 )">
    <path d="M 1689 1551  C 1708.04 1551  1723 1565.08  1723 1583  C 1723 1600.92  1708.04 1615  1689 1615  C 1669.96 1615  1655 1600.92  1655 1583  C 1655 1565.08  1669.96 1551  1689 1551  Z " fill-rule="nonzero" fill="#ffffff" stroke="none" />
    <path d="M 1689 1551.5  C 1707.76 1551.5  1722.5 1565.36  1722.5 1583  C 1722.5 1600.64  1707.76 1614.5  1689 1614.5  C 1670.24 1614.5  1655.5 1600.64  1655.5 1583  C 1655.5 1565.36  1670.24 1551.5  1689 1551.5  Z " stroke-width="1" stroke="#797979" fill="none" />
  </g>
</svg>