<?xml version="1.0" encoding="utf-8"?>
<svg version="1.1" xmlns:xlink="http://www.w3.org/1999/xlink" width="81px" height="81px" xmlns="http://www.w3.org/2000/svg">
  <g transform="matrix(1 0 0 1 -33 -27 )">
    <path d="M 73.5 27  C 96.18 27  114 44.82  114 67.5  C 114 90.18  96.18 108  73.5 108  C 50.82 108  33 90.18  33 67.5  C 33 44.82  50.82 27  73.5 27  Z " fill-rule="nonzero" fill="#ffffff" stroke="none" />
    <path d="M 73.5 27.5  C 95.9 27.5  113.5 45.1  113.5 67.5  C 113.5 89.9  95.9 107.5  73.5 107.5  C 51.1 107.5  33.5 89.9  33.5 67.5  C 33.5 45.1  51.1 27.5  73.5 27.5  Z " stroke-width="1" stroke="#797979" fill="none" />
  </g>
</svg>