<?xml version="1.0" encoding="utf-8"?>
<svg version="1.1" xmlns:xlink="http://www.w3.org/1999/xlink" width="77px" height="75px" xmlns="http://www.w3.org/2000/svg">
  <g transform="matrix(1 0 0 1 -1447 -2846 )">
    <path d="M 1485.5 2846  C 1507.06 2846  1524 2862.5  1524 2883.5  C 1524 2904.5  1507.06 2921  1485.5 2921  C 1463.94 2921  1447 2904.5  1447 2883.5  C 1447 2862.5  1463.94 2846  1485.5 2846  Z " fill-rule="nonzero" fill="#ffffff" stroke="none" />
    <path d="M 1485.5 2846.5  C 1506.78 2846.5  1523.5 2862.78  1523.5 2883.5  C 1523.5 2904.22  1506.78 2920.5  1485.5 2920.5  C 1464.22 2920.5  1447.5 2904.22  1447.5 2883.5  C 1447.5 2862.78  1464.22 2846.5  1485.5 2846.5  Z " stroke-width="1" stroke="#797979" fill="none" />
  </g>
</svg>