<?xml version="1.0" encoding="utf-8"?>
<svg version="1.1" xmlns:xlink="http://www.w3.org/1999/xlink" width="58px" height="56px" xmlns="http://www.w3.org/2000/svg">
  <g transform="matrix(1 0 0 1 -391 -946 )">
    <path d="M 420 946  C 436.24 946  449 958.32  449 974  C 449 989.68  436.24 1002  420 1002  C 403.76 1002  391 989.68  391 974  C 391 958.32  403.76 946  420 946  Z " fill-rule="nonzero" fill="#ffffff" stroke="none" />
    <path d="M 420 946.5  C 435.96 946.5  448.5 958.6  448.5 974  C 448.5 989.4  435.96 1001.5  420 1001.5  C 404.04 1001.5  391.5 989.4  391.5 974  C 391.5 958.6  404.04 946.5  420 946.5  Z " stroke-width="1" stroke="#797979" fill="none" />
  </g>
</svg>