<?xml version="1.0" encoding="utf-8"?>
<svg version="1.1" xmlns:xlink="http://www.w3.org/1999/xlink" width="295px" height="19px" xmlns="http://www.w3.org/2000/svg">
  <g transform="matrix(1 0 0 1 -1703 -632 )">
    <path d="M 1715 638.5  A 3 3 0 0 0 1712 641.5 A 3 3 0 0 0 1715 644.5 A 3 3 0 0 0 1718 641.5 A 3 3 0 0 0 1715 638.5 Z M 1986 638.5  A 3 3 0 0 0 1983 641.5 A 3 3 0 0 0 1986 644.5 A 3 3 0 0 0 1989 641.5 A 3 3 0 0 0 1986 638.5 Z " fill-rule="nonzero" fill="#d9001b" stroke="none" />
    <path d="M 1713 641.5  L 1988 641.5  " stroke-width="1" stroke="#d9001b" fill="none" />
  </g>
</svg>