<?xml version="1.0" encoding="utf-8"?>
<svg version="1.1" xmlns:xlink="http://www.w3.org/1999/xlink" width="22px" height="22px" preserveAspectRatio="xMinYMid meet" viewBox="1974 639  22 20" xmlns="http://www.w3.org/2000/svg">
  <g transform="matrix(-0.998629534754572 0.052335956242943 -0.0523359562429482 -0.998629534754572 4001.2456620895 1193.22369491348 )">
    <path d="M 1715 638.5  A 3 3 0 0 0 1712 641.5 A 3 3 0 0 0 1715 644.5 A 3 3 0 0 0 1718 641.5 A 3 3 0 0 0 1715 638.5 Z M 1986 638.5  A 3 3 0 0 0 1983 641.5 A 3 3 0 0 0 1986 644.5 A 3 3 0 0 0 1989 641.5 A 3 3 0 0 0 1986 638.5 Z " fill-rule="nonzero" fill="#d9001b" stroke="none" transform="matrix(0.998414925747175 0.056281755882901 -0.056281755882901 0.998414925747175 39.037926303733 -103.132564128121 )" />
    <path d="M 1713 641.5  L 1988 641.5  " stroke-width="1" stroke="#d9001b" fill="none" transform="matrix(0.998414925747175 0.056281755882901 -0.056281755882901 0.998414925747175 39.037926303733 -103.132564128121 )" />
  </g>
</svg>