<?xml version="1.0" encoding="utf-8"?>
<svg version="1.1" xmlns:xlink="http://www.w3.org/1999/xlink" width="972px" height="19px" xmlns="http://www.w3.org/2000/svg">
  <g transform="matrix(1 0 0 1 -1062 -410 )">
    <path d="M 1074 416.5  A 3 3 0 0 0 1071 419.5 A 3 3 0 0 0 1074 422.5 A 3 3 0 0 0 1077 419.5 A 3 3 0 0 0 1074 416.5 Z M 2022 416.5  A 3 3 0 0 0 2019 419.5 A 3 3 0 0 0 2022 422.5 A 3 3 0 0 0 2025 419.5 A 3 3 0 0 0 2022 416.5 Z " fill-rule="nonzero" fill="#d9001b" stroke="none" />
    <path d="M 1072 419.5  L 2024 419.5  " stroke-width="1" stroke="#d9001b" fill="none" />
  </g>
</svg>