<?xml version="1.0" encoding="utf-8"?>
<svg version="1.1" xmlns:xlink="http://www.w3.org/1999/xlink" width="22px" height="20px" preserveAspectRatio="xMinYMid meet" viewBox="1038 1353  22 18" xmlns="http://www.w3.org/2000/svg">
  <g transform="matrix(0.998629534754572 0.0523359562429485 -0.0523359562429392 0.998629534754577 72.7191904453371 -53.0338444345869 )">
    <path d="M 1048 1336.5  A 3 3 0 0 0 1045 1339.5 A 3 3 0 0 0 1048 1342.5 A 3 3 0 0 0 1051 1339.5 A 3 3 0 0 0 1048 1336.5 Z M 2019 1336.5  A 3 3 0 0 0 2016 1339.5 A 3 3 0 0 0 2019 1342.5 A 3 3 0 0 0 2022 1339.5 A 3 3 0 0 0 2019 1336.5 Z " fill-rule="nonzero" fill="#d9001b" stroke="none" transform="matrix(0.998895259615037 -0.0469921303901884 0.0469921303901884 0.998895259615037 -61.2518392773159 73.5422316990121 )" />
    <path d="M 1046 1339.5  L 2021 1339.5  " stroke-width="1" stroke="#d9001b" fill="none" transform="matrix(0.998895259615037 -0.0469921303901884 0.0469921303901884 0.998895259615037 -61.2518392773159 73.5422316990121 )" />
  </g>
</svg>