<?xml version="1.0" encoding="utf-8"?>
<svg version="1.1" xmlns:xlink="http://www.w3.org/1999/xlink" width="79px" height="79px" xmlns="http://www.w3.org/2000/svg">
  <g transform="matrix(1 0 0 1 -1230 -503 )">
    <path d="M 1269.5 503  C 1291.62 503  1309 520.38  1309 542.5  C 1309 564.62  1291.62 582  1269.5 582  C 1247.38 582  1230 564.62  1230 542.5  C 1230 520.38  1247.38 503  1269.5 503  Z " fill-rule="nonzero" fill="#ffffff" stroke="none" />
    <path d="M 1269.5 503.5  C 1291.34 503.5  1308.5 520.66  1308.5 542.5  C 1308.5 564.34  1291.34 581.5  1269.5 581.5  C 1247.66 581.5  1230.5 564.34  1230.5 542.5  C 1230.5 520.66  1247.66 503.5  1269.5 503.5  Z " stroke-width="1" stroke="#797979" fill="none" />
  </g>
</svg>