<?xml version="1.0" encoding="utf-8"?>
<svg version="1.1" xmlns:xlink="http://www.w3.org/1999/xlink" width="22px" height="22px" preserveAspectRatio="xMinYMid meet" viewBox="1702 269  22 20" xmlns="http://www.w3.org/2000/svg">
  <g transform="matrix(-1 0 0 -1 3426 558 )">
    <path d="M 990 276.5  A 3 3 0 0 0 987 279.5 A 3 3 0 0 0 990 282.5 A 3 3 0 0 0 993 279.5 A 3 3 0 0 0 990 276.5 Z M 1714 276.5  A 3 3 0 0 0 1711 279.5 A 3 3 0 0 0 1714 282.5 A 3 3 0 0 0 1717 279.5 A 3 3 0 0 0 1714 276.5 Z " fill-rule="nonzero" fill="#d9001b" stroke="none" transform="matrix(0.999999056576628 -0.00137362507771515 0.00137362507771515 0.999999056576628 -0.382652700822518 1.85740479190338 )" />
    <path d="M 988 279.5  L 1716 279.5  " stroke-width="1" stroke="#d9001b" fill="none" transform="matrix(0.999999056576628 -0.00137362507771515 0.00137362507771515 0.999999056576628 -0.382652700822518 1.85740479190338 )" />
  </g>
</svg>