<?xml version="1.0" encoding="utf-8"?>
<svg version="1.1" xmlns:xlink="http://www.w3.org/1999/xlink" width="12px" height="12px" viewBox="735 691.5  12 12" xmlns="http://www.w3.org/2000/svg">
  <path d="M 741 691.5  C 744.36 691.5  747 694.14  747 697.5  C 747 700.86  744.36 703.5  741 703.5  C 737.64 703.5  735 700.86  735 697.5  C 735 694.14  737.64 691.5  741 691.5  Z " fill-rule="nonzero" fill="#f0f0f0" stroke="none" />
  <path d="M 741 692  C 744.08 692  746.5 694.42  746.5 697.5  C 746.5 700.58  744.08 703  741 703  C 737.92 703  735.5 700.58  735.5 697.5  C 735.5 694.42  737.92 692  741 692  Z " stroke-width="1" stroke="#797979" fill="none" />
  <path d="M 741 700.5  C 739.32 700.5  738 699.18  738 697.5  C 738 695.82  739.32 694.5  741 694.5  C 742.68 694.5  744 695.82  744 697.5  C 744 699.18  742.68 700.5  741 700.5  " fill-rule="nonzero" fill="#797979" stroke="none" />
</svg>