<?xml version="1.0" encoding="utf-8"?>
<svg version="1.1" xmlns:xlink="http://www.w3.org/1999/xlink" width="12px" height="12px" viewBox="951 857.5  12 12" xmlns="http://www.w3.org/2000/svg">
  <path d="M 957 857.5  C 960.36 857.5  963 860.14  963 863.5  C 963 866.86  960.36 869.5  957 869.5  C 953.64 869.5  951 866.86  951 863.5  C 951 860.14  953.64 857.5  957 857.5  Z " fill-rule="nonzero" fill="#ffffff" stroke="none" />
  <path d="M 957 858  C 960.08 858  962.5 860.42  962.5 863.5  C 962.5 866.58  960.08 869  957 869  C 953.92 869  951.5 866.58  951.5 863.5  C 951.5 860.42  953.92 858  957 858  Z " stroke-width="1" stroke="#797979" fill="none" />
  <path d="M 957 866.5  C 955.32 866.5  954 865.18  954 863.5  C 954 861.82  955.32 860.5  957 860.5  C 958.68 860.5  960 861.82  960 863.5  C 960 865.18  958.68 866.5  957 866.5  " fill-rule="nonzero" fill="#797979" stroke="none" />
</svg>