<?xml version="1.0" encoding="utf-8"?>
<svg version="1.1" xmlns:xlink="http://www.w3.org/1999/xlink" width="12px" height="12px" viewBox="599 733.5  12 12" xmlns="http://www.w3.org/2000/svg">
  <path d="M 605 733.5  C 608.36 733.5  611 736.14  611 739.5  C 611 742.86  608.36 745.5  605 745.5  C 601.64 745.5  599 742.86  599 739.5  C 599 736.14  601.64 733.5  605 733.5  Z " fill-rule="nonzero" fill="#f0f0f0" stroke="none" />
  <path d="M 605 734  C 608.08 734  610.5 736.42  610.5 739.5  C 610.5 742.58  608.08 745  605 745  C 601.92 745  599.5 742.58  599.5 739.5  C 599.5 736.42  601.92 734  605 734  Z " stroke-width="1" stroke="#797979" fill="none" />
  <path d="M 605 742.5  C 603.32 742.5  602 741.18  602 739.5  C 602 737.82  603.32 736.5  605 736.5  C 606.68 736.5  608 737.82  608 739.5  C 608 741.18  606.68 742.5  605 742.5  " fill-rule="nonzero" fill="#797979" stroke="none" />
</svg>