<?xml version="1.0" encoding="utf-8"?>
<svg version="1.1" xmlns:xlink="http://www.w3.org/1999/xlink" width="12px" height="12px" viewBox="735 733.5  12 12" xmlns="http://www.w3.org/2000/svg">
  <path d="M 741 733.5  C 744.36 733.5  747 736.14  747 739.5  C 747 742.86  744.36 745.5  741 745.5  C 737.64 745.5  735 742.86  735 739.5  C 735 736.14  737.64 733.5  741 733.5  Z " fill-rule="nonzero" fill="#f0f0f0" stroke="none" />
  <path d="M 741 734  C 744.08 734  746.5 736.42  746.5 739.5  C 746.5 742.58  744.08 745  741 745  C 737.92 745  735.5 742.58  735.5 739.5  C 735.5 736.42  737.92 734  741 734  Z " stroke-width="1" stroke="#797979" fill="none" />
  <path d="M 741 742.5  C 739.32 742.5  738 741.18  738 739.5  C 738 737.82  739.32 736.5  741 736.5  C 742.68 736.5  744 737.82  744 739.5  C 744 741.18  742.68 742.5  741 742.5  " fill-rule="nonzero" fill="#797979" stroke="none" />
</svg>