<?xml version="1.0" encoding="utf-8"?>
<svg version="1.1" xmlns:xlink="http://www.w3.org/1999/xlink" width="12px" height="12px" viewBox="723 856.5  12 12" xmlns="http://www.w3.org/2000/svg">
  <path d="M 729 856.5  C 732.36 856.5  735 859.14  735 862.5  C 735 865.86  732.36 868.5  729 868.5  C 725.64 868.5  723 865.86  723 862.5  C 723 859.14  725.64 856.5  729 856.5  Z " fill-rule="nonzero" fill="#f0f0f0" stroke="none" />
  <path d="M 729 857  C 732.08 857  734.5 859.42  734.5 862.5  C 734.5 865.58  732.08 868  729 868  C 725.92 868  723.5 865.58  723.5 862.5  C 723.5 859.42  725.92 857  729 857  Z " stroke-width="1" stroke="#797979" fill="none" />
  <path d="M 729 865.5  C 727.32 865.5  726 864.18  726 862.5  C 726 860.82  727.32 859.5  729 859.5  C 730.68 859.5  732 860.82  732 862.5  C 732 864.18  730.68 865.5  729 865.5  " fill-rule="nonzero" fill="#797979" stroke="none" />
</svg>