<?xml version="1.0" encoding="utf-8"?>
<svg version="1.1" xmlns:xlink="http://www.w3.org/1999/xlink" width="12px" height="12px" viewBox="599 770.5  12 12" xmlns="http://www.w3.org/2000/svg">
  <path d="M 605 770.5  C 608.36 770.5  611 773.14  611 776.5  C 611 779.86  608.36 782.5  605 782.5  C 601.64 782.5  599 779.86  599 776.5  C 599 773.14  601.64 770.5  605 770.5  Z " fill-rule="nonzero" fill="#f0f0f0" stroke="none" />
  <path d="M 605 771  C 608.08 771  610.5 773.42  610.5 776.5  C 610.5 779.58  608.08 782  605 782  C 601.92 782  599.5 779.58  599.5 776.5  C 599.5 773.42  601.92 771  605 771  Z " stroke-width="1" stroke="#797979" fill="none" />
  <path d="M 605 779.5  C 603.32 779.5  602 778.18  602 776.5  C 602 774.82  603.32 773.5  605 773.5  C 606.68 773.5  608 774.82  608 776.5  C 608 778.18  606.68 779.5  605 779.5  " fill-rule="nonzero" fill="#797979" stroke="none" />
</svg>