<?xml version="1.0" encoding="utf-8"?>
<svg version="1.1" xmlns:xlink="http://www.w3.org/1999/xlink" width="12px" height="12px" viewBox="861 805.5  12 12" xmlns="http://www.w3.org/2000/svg">
  <path d="M 867 805.5  C 870.36 805.5  873 808.14  873 811.5  C 873 814.86  870.36 817.5  867 817.5  C 863.64 817.5  861 814.86  861 811.5  C 861 808.14  863.64 805.5  867 805.5  Z " fill-rule="nonzero" fill="#f0f0f0" stroke="none" />
  <path d="M 867 806  C 870.08 806  872.5 808.42  872.5 811.5  C 872.5 814.58  870.08 817  867 817  C 863.92 817  861.5 814.58  861.5 811.5  C 861.5 808.42  863.92 806  867 806  Z " stroke-width="1" stroke="#797979" fill="none" />
  <path d="M 867 814.5  C 865.32 814.5  864 813.18  864 811.5  C 864 809.82  865.32 808.5  867 808.5  C 868.68 808.5  870 809.82  870 811.5  C 870 813.18  868.68 814.5  867 814.5  " fill-rule="nonzero" fill="#797979" stroke="none" />
</svg>