<?xml version="1.0" encoding="utf-8"?>
<svg version="1.1" xmlns:xlink="http://www.w3.org/1999/xlink" width="12px" height="12px" viewBox="599 807.5  12 12" xmlns="http://www.w3.org/2000/svg">
  <path d="M 605 807.5  C 608.36 807.5  611 810.14  611 813.5  C 611 816.86  608.36 819.5  605 819.5  C 601.64 819.5  599 816.86  599 813.5  C 599 810.14  601.64 807.5  605 807.5  Z " fill-rule="nonzero" fill="#ffffff" stroke="none" />
  <path d="M 605 808  C 608.08 808  610.5 810.42  610.5 813.5  C 610.5 816.58  608.08 819  605 819  C 601.92 819  599.5 816.58  599.5 813.5  C 599.5 810.42  601.92 808  605 808  Z " stroke-width="1" stroke="#797979" fill="none" />
  <path d="M 605 816.5  C 603.32 816.5  602 815.18  602 813.5  C 602 811.82  603.32 810.5  605 810.5  C 606.68 810.5  608 811.82  608 813.5  C 608 815.18  606.68 816.5  605 816.5  " fill-rule="nonzero" fill="#797979" stroke="none" />
</svg>