<?xml version="1.0" encoding="utf-8"?>
<svg version="1.1" xmlns:xlink="http://www.w3.org/1999/xlink" width="300px" height="272px" xmlns="http://www.w3.org/2000/svg">
  <g transform="matrix(1 0 0 1 -1955 -372 )">
    <path d="M 1955 372  L 2255 372  L 2255 644  L 1955 644  L 1955 372  " fill-rule="nonzero" fill="#cccccc" stroke="none" />
    <path d="M 1974 391  L 2236 391  L 2236 625  L 1974 625  L 1974 391  " fill-rule="nonzero" fill="#ffffff" stroke="none" />
    <path d="M 2131.4 453.6  C 2119.976 453.6  2111 444.624  2111 433.2  C 2111 421.776  2119.976 412.8  2131.4 412.8  C 2142.824 412.8  2151.8 421.776  2151.8 433.2  C 2151.8 444.624  2142.824 453.6  2131.4 453.6  " fill-rule="nonzero" fill="#cccccc" stroke="none" />
    <path d="M 1981 618  L 1981 497  L 2043 442  L 2129.8 498.32  L 2179.4 475  L 2229 498.32  L 2229 618  L 1981 618  " fill-rule="nonzero" fill="#169bd5" stroke="none" />
  </g>
</svg>