<?xml version="1.0" encoding="utf-8"?>
<svg version="1.1" xmlns:xlink="http://www.w3.org/1999/xlink" width="24px" height="22px" preserveAspectRatio="xMinYMid meet" viewBox="1604 683  24 20" xmlns="http://www.w3.org/2000/svg">
  <g transform="matrix(-0.529919264233206 -0.848048096156433 0.848048096156426 -0.529919264233204 1884.65220036446 2430.67977350241 )">
    <path d="M 1491.9 759.8  L 1488 763.5  L 1491.9 767.2  L 1495.7 763.5  L 1491.9 759.8  Z M 1491.9 765.8  L 1489.4 763.5  L 1491.9 761.2  L 1494.3 763.5  L 1491.9 765.8  Z M 1653.1 767.2  L 1657 763.5  L 1653.1 759.8  L 1649.3 763.5  L 1653.1 767.2  Z M 1653.1 761.2  L 1655.6 763.5  L 1653.1 765.8  L 1650.7 763.5  L 1653.1 761.2  Z " fill-rule="nonzero" fill="#d9001b" stroke="none" transform="matrix(0.523170980976067 -0.852227742252351 0.852227742252351 0.523170980976067 99.1377512054648 1704.1870807166 )" />
    <path d="M 1494 763.5  L 1651 763.5  " stroke-width="1" stroke="#d9001b" fill="none" transform="matrix(0.523170980976067 -0.852227742252351 0.852227742252351 0.523170980976067 99.1377512054648 1704.1870807166 )" />
  </g>
</svg>