<?xml version="1.0" encoding="utf-8"?>
<svg version="1.1" xmlns:xlink="http://www.w3.org/1999/xlink" width="12px" height="12px" viewBox="438 260.5  12 12" xmlns="http://www.w3.org/2000/svg">
  <path d="M 444 260.5  C 447.36 260.5  450 263.14  450 266.5  C 450 269.86  447.36 272.5  444 272.5  C 440.64 272.5  438 269.86  438 266.5  C 438 263.14  440.64 260.5  444 260.5  Z " fill-rule="nonzero" fill="#f0f0f0" stroke="none" />
  <path d="M 444 261  C 447.08 261  449.5 263.42  449.5 266.5  C 449.5 269.58  447.08 272  444 272  C 440.92 272  438.5 269.58  438.5 266.5  C 438.5 263.42  440.92 261  444 261  Z " stroke-width="1" stroke="#797979" fill="none" />
  <path d="M 444 269.5  C 442.32 269.5  441 268.18  441 266.5  C 441 264.82  442.32 263.5  444 263.5  C 445.68 263.5  447 264.82  447 266.5  C 447 268.18  445.68 269.5  444 269.5  " fill-rule="nonzero" fill="#797979" stroke="none" />
</svg>