<?xml version="1.0" encoding="utf-8"?>
<svg version="1.1" xmlns:xlink="http://www.w3.org/1999/xlink" width="12px" height="12px" viewBox="350 260.5  12 12" xmlns="http://www.w3.org/2000/svg">
  <path d="M 356 260.5  C 359.36 260.5  362 263.14  362 266.5  C 362 269.86  359.36 272.5  356 272.5  C 352.64 272.5  350 269.86  350 266.5  C 350 263.14  352.64 260.5  356 260.5  Z " fill-rule="nonzero" fill="#f0f0f0" stroke="none" />
  <path d="M 356 261  C 359.08 261  361.5 263.42  361.5 266.5  C 361.5 269.58  359.08 272  356 272  C 352.92 272  350.5 269.58  350.5 266.5  C 350.5 263.42  352.92 261  356 261  Z " stroke-width="1" stroke="#797979" fill="none" />
  <path d="M 356 269.5  C 354.32 269.5  353 268.18  353 266.5  C 353 264.82  354.32 263.5  356 263.5  C 357.68 263.5  359 264.82  359 266.5  C 359 268.18  357.68 269.5  356 269.5  " fill-rule="nonzero" fill="#797979" stroke="none" />
</svg>