<?xml version="1.0" encoding="utf-8"?>
<svg version="1.1" xmlns:xlink="http://www.w3.org/1999/xlink" width="12px" height="12px" viewBox="2102 342.5  12 12" xmlns="http://www.w3.org/2000/svg">
  <path d="M 2108 342.5  C 2111.36 342.5  2114 345.14  2114 348.5  C 2114 351.86  2111.36 354.5  2108 354.5  C 2104.64 354.5  2102 351.86  2102 348.5  C 2102 345.14  2104.64 342.5  2108 342.5  Z " fill-rule="nonzero" fill="#f0f0f0" stroke="none" />
  <path d="M 2108 343  C 2111.08 343  2113.5 345.42  2113.5 348.5  C 2113.5 351.58  2111.08 354  2108 354  C 2104.92 354  2102.5 351.58  2102.5 348.5  C 2102.5 345.42  2104.92 343  2108 343  Z " stroke-width="1" stroke="#797979" fill="none" />
  <path d="M 2108 351.5  C 2106.32 351.5  2105 350.18  2105 348.5  C 2105 346.82  2106.32 345.5  2108 345.5  C 2109.68 345.5  2111 346.82  2111 348.5  C 2111 350.18  2109.68 351.5  2108 351.5  " fill-rule="nonzero" fill="#797979" stroke="none" />
</svg>