<?xml version="1.0" encoding="utf-8"?>
<svg version="1.1" xmlns:xlink="http://www.w3.org/1999/xlink" width="12px" height="12px" viewBox="2094 617.5  12 12" xmlns="http://www.w3.org/2000/svg">
  <path d="M 2100 617.5  C 2103.36 617.5  2106 620.14  2106 623.5  C 2106 626.86  2103.36 629.5  2100 629.5  C 2096.64 629.5  2094 626.86  2094 623.5  C 2094 620.14  2096.64 617.5  2100 617.5  Z " fill-rule="nonzero" fill="#ffffff" stroke="none" />
  <path d="M 2100 618  C 2103.08 618  2105.5 620.42  2105.5 623.5  C 2105.5 626.58  2103.08 629  2100 629  C 2096.92 629  2094.5 626.58  2094.5 623.5  C 2094.5 620.42  2096.92 618  2100 618  Z " stroke-width="1" stroke="#797979" fill="none" />
  <path d="M 2100 626.5  C 2098.32 626.5  2097 625.18  2097 623.5  C 2097 621.82  2098.32 620.5  2100 620.5  C 2101.68 620.5  2103 621.82  2103 623.5  C 2103 625.18  2101.68 626.5  2100 626.5  " fill-rule="nonzero" fill="#797979" stroke="none" />
</svg>