<?xml version="1.0" encoding="utf-8"?>
<svg version="1.1" xmlns:xlink="http://www.w3.org/1999/xlink" width="12px" height="12px" viewBox="1515 572.5  12 12" xmlns="http://www.w3.org/2000/svg">
  <path d="M 1521 572.5  C 1524.36 572.5  1527 575.14  1527 578.5  C 1527 581.86  1524.36 584.5  1521 584.5  C 1517.64 584.5  1515 581.86  1515 578.5  C 1515 575.14  1517.64 572.5  1521 572.5  Z " fill-rule="nonzero" fill="#f0f0f0" stroke="none" />
  <path d="M 1521 573  C 1524.08 573  1526.5 575.42  1526.5 578.5  C 1526.5 581.58  1524.08 584  1521 584  C 1517.92 584  1515.5 581.58  1515.5 578.5  C 1515.5 575.42  1517.92 573  1521 573  Z " stroke-width="1" stroke="#797979" fill="none" />
  <path d="M 1521 581.5  C 1519.32 581.5  1518 580.18  1518 578.5  C 1518 576.82  1519.32 575.5  1521 575.5  C 1522.68 575.5  1524 576.82  1524 578.5  C 1524 580.18  1522.68 581.5  1521 581.5  " fill-rule="nonzero" fill="#797979" stroke="none" />
</svg>