<?xml version="1.0" encoding="utf-8"?>
<svg version="1.1" xmlns:xlink="http://www.w3.org/1999/xlink" width="378px" height="10px" preserveAspectRatio="xMinYMid meet" viewBox="1676 587  378 8" xmlns="http://www.w3.org/2000/svg">
  <g transform="matrix(0.998629534754573 -0.0523359562429441 0.0523359562429506 0.998629534754577 -28.3746324568622 98.4165033531359 )">
    <path d="M 1684.9 586.8  L 1681 590.5  L 1684.9 594.2  L 1688.7 590.5  L 1684.9 586.8  Z M 1684.9 592.8  L 1682.4 590.5  L 1684.9 588.2  L 1687.3 590.5  L 1684.9 592.8  Z M 2045.1 594.2  L 2049 590.5  L 2045.1 586.8  L 2041.3 590.5  L 2045.1 594.2  Z M 2045.1 588.2  L 2047.6 590.5  L 2045.1 592.8  L 2042.7 590.5  L 2045.1 588.2  Z " fill-rule="nonzero" fill="#d9001b" stroke="none" transform="matrix(0.998970664743534 0.0453608970574979 -0.0453608970574979 0.998970664743534 28.7053199657607 -83.9902505432907 )" />
    <path d="M 1687 590.5  L 2043 590.5  " stroke-width="1" stroke="#d9001b" fill="none" transform="matrix(0.998970664743534 0.0453608970574979 -0.0453608970574979 0.998970664743534 28.7053199657607 -83.9902505432907 )" />
  </g>
</svg>