<?xml version="1.0" encoding="utf-8"?>
<svg version="1.1" xmlns:xlink="http://www.w3.org/1999/xlink" width="22px" height="22px" preserveAspectRatio="xMinYMid meet" viewBox="2036 589  22 20" xmlns="http://www.w3.org/2000/svg">
  <g transform="matrix(-0.998629534754582 0.0523359562429488 -0.0523359562429384 -0.998629534754572 4122.54389543215 1090.04738888867 )">
    <path d="M 1684.9 586.8  L 1681 590.5  L 1684.9 594.2  L 1688.7 590.5  L 1684.9 586.8  Z M 1684.9 592.8  L 1682.4 590.5  L 1684.9 588.2  L 1687.3 590.5  L 1684.9 592.8  Z M 2045.1 594.2  L 2049 590.5  L 2045.1 586.8  L 2041.3 590.5  L 2045.1 594.2  Z M 2045.1 588.2  L 2047.6 590.5  L 2045.1 592.8  L 2042.7 590.5  L 2045.1 588.2  Z " fill-rule="nonzero" fill="#d9001b" stroke="none" transform="matrix(0.998970664743534 0.0453608970574979 -0.0453608970574979 0.998970664743534 28.7053199657607 -83.9902505432907 )" />
    <path d="M 1687 590.5  L 2043 590.5  " stroke-width="1" stroke="#d9001b" fill="none" transform="matrix(0.998970664743534 0.0453608970574979 -0.0453608970574979 0.998970664743534 28.7053199657607 -83.9902505432907 )" />
  </g>
</svg>