<?xml version="1.0" encoding="utf-8"?>
<svg version="1.1" xmlns:xlink="http://www.w3.org/1999/xlink" width="17px" height="17px" xmlns="http://www.w3.org/2000/svg">
  <g transform="matrix(1 0 0 1 -1602 -195 )">
    <path d="M 1610.5 195  C 1615.26 195  1619 198.74  1619 203.5  C 1619 208.26  1615.26 212  1610.5 212  C 1605.74 212  1602 208.26  1602 203.5  C 1602 198.74  1605.74 195  1610.5 195  Z " fill-rule="nonzero" fill="#ffffff" stroke="none" />
    <path d="M 1610.5 195.5  C 1614.98 195.5  1618.5 199.02  1618.5 203.5  C 1618.5 207.98  1614.98 211.5  1610.5 211.5  C 1606.02 211.5  1602.5 207.98  1602.5 203.5  C 1602.5 199.02  1606.02 195.5  1610.5 195.5  Z " stroke-width="1" stroke="#797979" fill="none" />
  </g>
</svg>