<?xml version="1.0" encoding="utf-8"?>
<svg version="1.1" xmlns:xlink="http://www.w3.org/1999/xlink" width="38px" height="38px" xmlns="http://www.w3.org/2000/svg">
  <g transform="matrix(1 0 0 1 -1723 -311 )">
    <path d="M 1742 311  C 1752.64 311  1761 319.36  1761 330  C 1761 340.64  1752.64 349  1742 349  C 1731.36 349  1723 340.64  1723 330  C 1723 319.36  1731.36 311  1742 311  Z " fill-rule="nonzero" fill="#ffffff" stroke="none" />
    <path d="M 1742 311.5  C 1752.36 311.5  1760.5 319.64  1760.5 330  C 1760.5 340.36  1752.36 348.5  1742 348.5  C 1731.64 348.5  1723.5 340.36  1723.5 330  C 1723.5 319.64  1731.64 311.5  1742 311.5  Z " stroke-width="1" stroke="#797979" fill="none" />
  </g>
</svg>