<?xml version="1.0" encoding="utf-8"?>
<svg version="1.1" xmlns:xlink="http://www.w3.org/1999/xlink" width="1638px" height="19px" xmlns="http://www.w3.org/2000/svg">
  <g transform="matrix(1 0 0 1 -404 -196 )">
    <path d="M 416 202.5  A 3 3 0 0 0 413 205.5 A 3 3 0 0 0 416 208.5 A 3 3 0 0 0 419 205.5 A 3 3 0 0 0 416 202.5 Z M 416 203.5  A 2 2 0 0 1 418 205.5 A 2 2 0 0 1 416 207.5 A 2 2 0 0 1 414 205.5 A 2 2 0 0 1 416 203.5 Z M 2030 202.5  A 3 3 0 0 0 2027 205.5 A 3 3 0 0 0 2030 208.5 A 3 3 0 0 0 2033 205.5 A 3 3 0 0 0 2030 202.5 Z M 2030 203.5  A 2 2 0 0 1 2032 205.5 A 2 2 0 0 1 2030 207.5 A 2 2 0 0 1 2028 205.5 A 2 2 0 0 1 2030 203.5 Z " fill-rule="nonzero" fill="#d9001b" stroke="none" />
    <path d="M 418 205.5  L 2028 205.5  " stroke-width="1" stroke="#d9001b" fill="none" />
  </g>
</svg>