<?xml version="1.0" encoding="utf-8"?>
<svg version="1.1" xmlns:xlink="http://www.w3.org/1999/xlink" width="12px" height="12px" viewBox="2078 1374.5  12 12" xmlns="http://www.w3.org/2000/svg">
  <path d="M 2084 1374.5  C 2087.36 1374.5  2090 1377.14  2090 1380.5  C 2090 1383.86  2087.36 1386.5  2084 1386.5  C 2080.64 1386.5  2078 1383.86  2078 1380.5  C 2078 1377.14  2080.64 1374.5  2084 1374.5  Z " fill-rule="nonzero" fill="#f0f0f0" stroke="none" />
  <path d="M 2084 1375  C 2087.08 1375  2089.5 1377.42  2089.5 1380.5  C 2089.5 1383.58  2087.08 1386  2084 1386  C 2080.92 1386  2078.5 1383.58  2078.5 1380.5  C 2078.5 1377.42  2080.92 1375  2084 1375  Z " stroke-width="1" stroke="#797979" fill="none" />
  <path d="M 2084 1383.5  C 2082.32 1383.5  2081 1382.18  2081 1380.5  C 2081 1378.82  2082.32 1377.5  2084 1377.5  C 2085.68 1377.5  2087 1378.82  2087 1380.5  C 2087 1382.18  2085.68 1383.5  2084 1383.5  " fill-rule="nonzero" fill="#797979" stroke="none" />
</svg>