<?xml version="1.0" encoding="utf-8"?>
<svg version="1.1" xmlns:xlink="http://www.w3.org/1999/xlink" width="12px" height="12px" viewBox="2189 1286.5  12 12" xmlns="http://www.w3.org/2000/svg">
  <path d="M 2195 1286.5  C 2198.36 1286.5  2201 1289.14  2201 1292.5  C 2201 1295.86  2198.36 1298.5  2195 1298.5  C 2191.64 1298.5  2189 1295.86  2189 1292.5  C 2189 1289.14  2191.64 1286.5  2195 1286.5  Z " fill-rule="nonzero" fill="#f0f0f0" stroke="none" />
  <path d="M 2195 1287  C 2198.08 1287  2200.5 1289.42  2200.5 1292.5  C 2200.5 1295.58  2198.08 1298  2195 1298  C 2191.92 1298  2189.5 1295.58  2189.5 1292.5  C 2189.5 1289.42  2191.92 1287  2195 1287  Z " stroke-width="1" stroke="#797979" fill="none" />
  <path d="M 2195 1295.5  C 2193.32 1295.5  2192 1294.18  2192 1292.5  C 2192 1290.82  2193.32 1289.5  2195 1289.5  C 2196.68 1289.5  2198 1290.82  2198 1292.5  C 2198 1294.18  2196.68 1295.5  2195 1295.5  " fill-rule="nonzero" fill="#797979" stroke="none" />
</svg>