<?xml version="1.0" encoding="utf-8"?>
<svg version="1.1" xmlns:xlink="http://www.w3.org/1999/xlink" width="170px" height="170px" xmlns="http://www.w3.org/2000/svg">
  <g transform="matrix(1 0 0 1 -268 -149 )">
    <path d="M 353 149  C 400.6 149  438 186.4  438 234  C 438 281.6  400.6 319  353 319  C 305.4 319  268 281.6  268 234  C 268 186.4  305.4 149  353 149  Z " fill-rule="nonzero" fill="#02a7f0" stroke="none" fill-opacity="0.368627450980392" />
    <path d="M 353 149.5  C 400.32 149.5  437.5 186.68  437.5 234  C 437.5 281.32  400.32 318.5  353 318.5  C 305.68 318.5  268.5 281.32  268.5 234  C 268.5 186.68  305.68 149.5  353 149.5  Z " stroke-width="1" stroke="#797979" fill="none" />
  </g>
</svg>