<?xml version="1.0" encoding="utf-8"?>
<svg version="1.1" xmlns:xlink="http://www.w3.org/1999/xlink" width="155px" height="88px" xmlns="http://www.w3.org/2000/svg">
  <g transform="matrix(1 0 0 1 -1322 -570 )">
    <path d="M 1322 570  L 1477 570  L 1477 658  L 1322 658  L 1322 570  " fill-rule="nonzero" fill="#cccccc" stroke="none" />
    <path d="M 1328 576  L 1471 576  L 1471 652  L 1328 652  L 1328 576  " fill-rule="nonzero" fill="#ffffff" stroke="none" />
    <path d="M 1409.2 596.4  C 1405.504 596.4  1402.6 593.496  1402.6 589.8  C 1402.6 586.104  1405.504 583.2  1409.2 583.2  C 1412.896 583.2  1415.8 586.104  1415.8 589.8  C 1415.8 593.496  1412.896 596.4  1409.2 596.4  " fill-rule="nonzero" fill="#cccccc" stroke="none" />
    <path d="M 1330 650  L 1330 610.4  L 1364.75 592.4  L 1413.4 625.473548387097  L 1441.2 603.2  L 1469 625.473548387097  L 1469 650  L 1330 650  " fill-rule="nonzero" fill="#169bd5" stroke="none" />
  </g>
</svg>