<?xml version="1.0" encoding="utf-8"?>
<svg version="1.1" xmlns:xlink="http://www.w3.org/1999/xlink" width="396px" height="6px" preserveAspectRatio="xMinYMid meet" viewBox="740 595  396 4" xmlns="http://www.w3.org/2000/svg">
  <g transform="matrix(-0.156434465040221 -0.987688340595112 0.987688340595139 -0.156434465040227 495.085588872429 1616.84303910723 )">
    <path d="M 745.9 593.8  L 742 597.5  L 745.9 601.2  L 749.7 597.5  L 745.9 593.8  Z M 745.9 599.8  L 743.4 597.5  L 745.9 595.2  L 748.3 597.5  L 745.9 599.8  Z M 1130.1 601.2  L 1134 597.5  L 1130.1 593.8  L 1126.3 597.5  L 1130.1 601.2  Z M 1130.1 595.2  L 1132.6 597.5  L 1130.1 599.8  L 1127.7 597.5  L 1130.1 595.2  Z " fill-rule="nonzero" fill="#d9001b" stroke="none" transform="matrix(-0.152724581550953 0.988268790456365 -0.988268790456365 -0.152724581550953 1671.74625979247 -238.243187971376 )" />
    <path d="M 748 597.5  L 1128 597.5  " stroke-width="1" stroke="#d9001b" fill="none" transform="matrix(-0.152724581550953 0.988268790456365 -0.988268790456365 -0.152724581550953 1671.74625979247 -238.243187971376 )" />
  </g>
</svg>