<?xml version="1.0" encoding="utf-8"?>
<svg version="1.1" xmlns:xlink="http://www.w3.org/1999/xlink" width="22px" height="22px" preserveAspectRatio="xMinYMid meet" viewBox="956 395  22 20" xmlns="http://www.w3.org/2000/svg">
  <g transform="matrix(-0.156434465040232 -0.987688340595138 0.987688340595138 -0.156434465040227 718.258349752874 1423.45058369679 )">
    <path d="M 745.9 593.8  L 742 597.5  L 745.9 601.2  L 749.7 597.5  L 745.9 593.8  Z M 745.9 599.8  L 743.4 597.5  L 745.9 595.2  L 748.3 597.5  L 745.9 599.8  Z M 1130.1 601.2  L 1134 597.5  L 1130.1 593.8  L 1126.3 597.5  L 1130.1 601.2  Z M 1130.1 595.2  L 1132.6 597.5  L 1130.1 599.8  L 1127.7 597.5  L 1130.1 595.2  Z " fill-rule="nonzero" fill="#d9001b" stroke="none" transform="matrix(-0.152724581550953 0.988268790456365 -0.988268790456365 -0.152724581550953 1671.74625979247 -238.243187971376 )" />
    <path d="M 748 597.5  L 1128 597.5  " stroke-width="1" stroke="#d9001b" fill="none" transform="matrix(-0.152724581550953 0.988268790456365 -0.988268790456365 -0.152724581550953 1671.74625979247 -238.243187971376 )" />
  </g>
</svg>