<?xml version="1.0" encoding="utf-8"?>
<svg version="1.1" xmlns:xlink="http://www.w3.org/1999/xlink" width="20px" height="20px" xmlns="http://www.w3.org/2000/svg">
  <g transform="matrix(1 0 0 1 -770 -433 )">
    <path d="M 780 433  C 785.6 433  790 437.4  790 443  C 790 448.6  785.6 453  780 453  C 774.4 453  770 448.6  770 443  C 770 437.4  774.4 433  780 433  Z " fill-rule="nonzero" fill="#ffffff" stroke="none" />
    <path d="M 780 433.5  C 785.32 433.5  789.5 437.68  789.5 443  C 789.5 448.32  785.32 452.5  780 452.5  C 774.68 452.5  770.5 448.32  770.5 443  C 770.5 437.68  774.68 433.5  780 433.5  Z " stroke-width="1" stroke="#797979" fill="none" />
  </g>
</svg>