<?xml version="1.0" encoding="utf-8"?>
<svg version="1.1" xmlns:xlink="http://www.w3.org/1999/xlink" width="22px" height="20px" preserveAspectRatio="xMinYMid meet" viewBox="718 2711  22 18" xmlns="http://www.w3.org/2000/svg">
  <g transform="matrix(0.0523359562429267 0.998629534754567 -0.998629534754563 0.0523359562429371 3407.11942243132 1849.64526818313 )">
    <path d="M 544.9 2517.8  L 541 2521.5  L 544.9 2525.2  L 548.7 2521.5  L 544.9 2517.8  Z M 544.9 2523.8  L 542.4 2521.5  L 544.9 2519.2  L 547.3 2521.5  L 544.9 2523.8  Z M 937.1 2525.2  L 941 2521.5  L 937.1 2517.8  L 933.3 2521.5  L 937.1 2525.2  Z M 937.1 2519.2  L 939.6 2521.5  L 937.1 2523.8  L 934.7 2521.5  L 937.1 2519.2  Z " fill-rule="nonzero" fill="#d9001b" stroke="none" transform="matrix(-0.0589397637077047 0.998261541007205 -0.998261541007205 -0.0589397637077047 3301.79084055708 1930.40481230264 )" />
    <path d="M 547 2521.5  L 935 2521.5  " stroke-width="1" stroke="#d9001b" fill="none" transform="matrix(-0.0589397637077047 0.998261541007205 -0.998261541007205 -0.0589397637077047 3301.79084055708 1930.40481230264 )" />
  </g>
</svg>