<?xml version="1.0" encoding="utf-8"?>
<svg version="1.1" xmlns:xlink="http://www.w3.org/1999/xlink" width="22px" height="20px" preserveAspectRatio="xMinYMid meet" viewBox="772 1469  22 18" xmlns="http://www.w3.org/2000/svg">
  <g transform="matrix(-0.156434465040229 -0.987688340595136 0.987688340595137 -0.156434465040237 -554.315181273113 2482.57011001546 )">
    <path d="M 561.9 1666.8  L 558 1670.5  L 561.9 1674.2  L 565.7 1670.5  L 561.9 1666.8  Z M 561.9 1672.8  L 559.4 1670.5  L 561.9 1668.2  L 564.3 1670.5  L 561.9 1672.8  Z M 946.1 1674.2  L 950 1670.5  L 946.1 1666.8  L 942.3 1670.5  L 946.1 1674.2  Z M 946.1 1668.2  L 948.6 1670.5  L 946.1 1672.8  L 943.7 1670.5  L 946.1 1668.2  Z " fill-rule="nonzero" fill="#d9001b" stroke="none" transform="matrix(-0.152724581550953 0.988268790456365 -0.988268790456365 -0.152724581550953 2520.05734894678 1180.47174547677 )" />
    <path d="M 564 1670.5  L 944 1670.5  " stroke-width="1" stroke="#d9001b" fill="none" transform="matrix(-0.152724581550953 0.988268790456365 -0.988268790456365 -0.152724581550953 2520.05734894678 1180.47174547677 )" />
  </g>
</svg>