<?xml version="1.0" encoding="utf-8"?>
<svg version="1.1" xmlns:xlink="http://www.w3.org/1999/xlink" width="24px" height="20px" preserveAspectRatio="xMinYMid meet" viewBox="1984 553  24 18" xmlns="http://www.w3.org/2000/svg">
  <g transform="matrix(-0.987688340595139 0.15643446504023 -0.156434465040229 -0.987688340595137 4055.34209718051 804.837655194168 )">
    <path d="M 910 475.5  A 3 3 0 0 0 907 478.5 A 3 3 0 0 0 910 481.5 A 3 3 0 0 0 913 478.5 A 3 3 0 0 0 910 475.5 Z M 2003 475.5  A 3 3 0 0 0 2000 478.5 A 3 3 0 0 0 2003 481.5 A 3 3 0 0 0 2006 478.5 A 3 3 0 0 0 2003 475.5 Z " fill-rule="nonzero" fill="#d9001b" stroke="none" transform="matrix(0.988290948118009 0.152581132083906 -0.152581132083906 0.988290948118009 90.0643057682687 -216.631637554677 )" />
    <path d="M 908 478.5  L 2005 478.5  " stroke-width="1" stroke="#d9001b" fill="none" transform="matrix(0.988290948118009 0.152581132083906 -0.152581132083906 0.988290948118009 90.0643057682687 -216.631637554677 )" />
  </g>
</svg>