<?xml version="1.0" encoding="utf-8"?>
<svg version="1.1" xmlns:xlink="http://www.w3.org/1999/xlink" width="24px" height="24px" xmlns="http://www.w3.org/2000/svg">
  <g transform="matrix(1 0 0 1 -1472 -326 )">
    <path d="M 1484 326  C 1490.72 326  1496 331.28  1496 338  C 1496 344.72  1490.72 350  1484 350  C 1477.28 350  1472 344.72  1472 338  C 1472 331.28  1477.28 326  1484 326  Z " fill-rule="nonzero" fill="#ffffff" stroke="none" />
    <path d="M 1484 326.5  C 1490.44 326.5  1495.5 331.56  1495.5 338  C 1495.5 344.44  1490.44 349.5  1484 349.5  C 1477.56 349.5  1472.5 344.44  1472.5 338  C 1472.5 331.56  1477.56 326.5  1484 326.5  Z " stroke-width="1" stroke="#797979" fill="none" />
  </g>
</svg>