<?xml version="1.0" encoding="utf-8"?>
<svg version="1.1" xmlns:xlink="http://www.w3.org/1999/xlink" width="316px" height="10px" preserveAspectRatio="xMinYMid meet" viewBox="1704 493  316 8" xmlns="http://www.w3.org/2000/svg">
  <g transform="matrix(0.998629534754573 0.0523359562429441 -0.0523359562429506 0.998629534754577 28.5627765397314 -96.7684292973865 )">
    <path d="M 1712.9 493.8  L 1709 497.5  L 1712.9 501.2  L 1716.7 497.5  L 1712.9 493.8  Z M 1712.9 499.8  L 1710.4 497.5  L 1712.9 495.2  L 1715.3 497.5  L 1712.9 499.8  Z M 2012.1 501.2  L 2016 497.5  L 2012.1 493.8  L 2008.3 497.5  L 2012.1 501.2  Z M 2012.1 495.2  L 2014.6 497.5  L 2012.1 499.8  L 2009.7 497.5  L 2012.1 495.2  Z " fill-rule="nonzero" fill="#d9001b" stroke="none" transform="matrix(0.998194218316587 -0.0600691478159835 0.0600691478159835 0.998194218316587 -26.5211326530946 112.777164194767 )" />
    <path d="M 1715 497.5  L 2010 497.5  " stroke-width="1" stroke="#d9001b" fill="none" transform="matrix(0.998194218316587 -0.0600691478159835 0.0600691478159835 0.998194218316587 -26.5211326530946 112.777164194767 )" />
  </g>
</svg>