<?xml version="1.0" encoding="utf-8"?>
<svg version="1.1" xmlns:xlink="http://www.w3.org/1999/xlink" width="22px" height="22px" preserveAspectRatio="xMinYMid meet" viewBox="1382 239  22 20" xmlns="http://www.w3.org/2000/svg">
  <g transform="matrix(0.999390827019094 -0.0348994967025 0.0348994967025026 0.999390827019097 -7.8413967165211 48.7666829788274 )">
    <path d="M 1394.9 256.8  L 1391 260.5  L 1394.9 264.2  L 1398.7 260.5  L 1394.9 256.8  Z M 1394.9 262.8  L 1392.4 260.5  L 1394.9 258.2  L 1397.3 260.5  L 1394.9 262.8  Z M 1975.1 264.2  L 1979 260.5  L 1975.1 256.8  L 1971.3 260.5  L 1975.1 264.2  Z M 1975.1 258.2  L 1977.6 260.5  L 1975.1 262.8  L 1972.7 260.5  L 1975.1 258.2  Z " fill-rule="nonzero" fill="#d9001b" stroke="none" transform="matrix(0.999177167245929 0.0405584572487848 -0.0405584572487848 0.999177167245929 11.9519513039188 -68.1266525317668 )" />
    <path d="M 1397 260.5  L 1973 260.5  " stroke-width="1" stroke="#d9001b" fill="none" transform="matrix(0.999177167245929 0.0405584572487848 -0.0405584572487848 0.999177167245929 11.9519513039188 -68.1266525317668 )" />
  </g>
</svg>