<?xml version="1.0" encoding="utf-8"?>
<svg version="1.1" xmlns:xlink="http://www.w3.org/1999/xlink" width="22px" height="22px" preserveAspectRatio="xMinYMid meet" viewBox="2004 479  22 20" xmlns="http://www.w3.org/2000/svg">
  <g transform="matrix(-0.998629534754583 -0.0523359562429437 0.0523359562429386 -0.998629534754575 4001.64622992769 1082.78679432452 )">
    <path d="M 1712.9 493.8  L 1709 497.5  L 1712.9 501.2  L 1716.7 497.5  L 1712.9 493.8  Z M 1712.9 499.8  L 1710.4 497.5  L 1712.9 495.2  L 1715.3 497.5  L 1712.9 499.8  Z M 2012.1 501.2  L 2016 497.5  L 2012.1 493.8  L 2008.3 497.5  L 2012.1 501.2  Z M 2012.1 495.2  L 2014.6 497.5  L 2012.1 499.8  L 2009.7 497.5  L 2012.1 495.2  Z " fill-rule="nonzero" fill="#d9001b" stroke="none" transform="matrix(0.998194218316587 -0.0600691478159835 0.0600691478159835 0.998194218316587 -26.5211326530946 112.777164194767 )" />
    <path d="M 1715 497.5  L 2010 497.5  " stroke-width="1" stroke="#d9001b" fill="none" transform="matrix(0.998194218316587 -0.0600691478159835 0.0600691478159835 0.998194218316587 -26.5211326530946 112.777164194767 )" />
  </g>
</svg>