<?xml version="1.0" encoding="utf-8"?>
<svg version="1.1" xmlns:xlink="http://www.w3.org/1999/xlink" width="24px" height="22px" preserveAspectRatio="xMinYMid meet" viewBox="2562 701  24 20" xmlns="http://www.w3.org/2000/svg">
  <g transform="matrix(-0.529919264233199 -0.848048096156422 0.848048096156425 -0.529919264233206 3335.04998976904 3270.64839637644 )">
    <path d="M 2449.9 778.8  L 2446 782.5  L 2449.9 786.2  L 2453.7 782.5  L 2449.9 778.8  Z M 2449.9 784.8  L 2447.4 782.5  L 2449.9 780.2  L 2452.3 782.5  L 2449.9 784.8  Z M 2611.1 786.2  L 2615 782.5  L 2611.1 778.8  L 2607.3 782.5  L 2611.1 786.2  Z M 2611.1 780.2  L 2613.6 782.5  L 2611.1 784.8  L 2608.7 782.5  L 2611.1 780.2  Z " fill-rule="nonzero" fill="#d9001b" stroke="none" transform="matrix(0.523170980976067 -0.852227742252351 0.852227742252351 0.523170980976067 539.747624327598 2529.6810091558 )" />
    <path d="M 2452 782.5  L 2609 782.5  " stroke-width="1" stroke="#d9001b" fill="none" transform="matrix(0.523170980976067 -0.852227742252351 0.852227742252351 0.523170980976067 539.747624327598 2529.6810091558 )" />
  </g>
</svg>