<?xml version="1.0" encoding="utf-8"?>
<svg version="1.1" xmlns:xlink="http://www.w3.org/1999/xlink" width="46px" height="51px" xmlns="http://www.w3.org/2000/svg">
  <g transform="matrix(1 0 0 1 -99 -564 )">
    <path d="M 99 564  L 145 564  L 145 615  L 99 615  L 99 564  " fill-rule="nonzero" fill="#cccccc" stroke="none" />
    <path d="M 102 567  L 142 567  L 142 612  L 102 612  L 102 567  " fill-rule="nonzero" fill="#ffffff" stroke="none" />
    <path d="M 126.37 578.55  C 124.438 578.55  122.92 577.032  122.92 575.1  C 122.92 573.168  124.438 571.65  126.37 571.65  C 128.302 571.65  129.82 573.168  129.82 575.1  C 129.82 577.032  128.302 578.55  126.37 578.55  " fill-rule="nonzero" fill="#cccccc" stroke="none" />
    <path d="M 103 611  L 103 587.35  L 112.5 576.6  L 125.8 585.2  L 133.4 583.05  L 141 585.2  L 141 611  L 103 611  " fill-rule="nonzero" fill="#169bd5" stroke="none" />
  </g>
</svg>