<?xml version="1.0" encoding="utf-8"?>
<svg version="1.1" xmlns:xlink="http://www.w3.org/1999/xlink" width="28px" height="28px" xmlns="http://www.w3.org/2000/svg">
  <g transform="matrix(1 0 0 1 -253 -232 )">
    <path d="M 267 232  C 274.84 232  281 238.16  281 246  C 281 253.84  274.84 260  267 260  C 259.16 260  253 253.84  253 246  C 253 238.16  259.16 232  267 232  Z " fill-rule="nonzero" fill="#ffffff" stroke="none" />
    <path d="M 267 232.5  C 274.56 232.5  280.5 238.44  280.5 246  C 280.5 253.56  274.56 259.5  267 259.5  C 259.44 259.5  253.5 253.56  253.5 246  C 253.5 238.44  259.44 232.5  267 232.5  Z " stroke-width="1" stroke="#797979" fill="none" />
  </g>
</svg>