<?xml version="1.0" encoding="utf-8"?>
<svg version="1.1" xmlns:xlink="http://www.w3.org/1999/xlink" width="24px" height="22px" preserveAspectRatio="xMinYMid meet" viewBox="1844 349  24 20" xmlns="http://www.w3.org/2000/svg">
  <g transform="matrix(-0.999390827019097 -0.0348994967025008 0.0348994967025027 -0.999390827019097 3698.34045563125 782.554772779697 )">
    <path d="M 1214 370  L 1214 365  L 1209 365  L 1209 370  L 1214 370  Z M 1213 369  L 1210 369  L 1210 366  L 1213 366  L 1213 369  Z M 1854 365  L 1854 370  L 1859 370  L 1859 365  L 1854 365  Z M 1855 366  L 1858 366  L 1858 369  L 1855 369  L 1855 366  Z " fill-rule="nonzero" fill="#d9001b" stroke="none" transform="matrix(0.999655248397695 -0.0262561297784592 0.0262561297784592 0.999655248397695 -9.12027873564739 40.4035992940036 )" />
    <path d="M 1214 367.5  L 1854 367.5  " stroke-width="1" stroke="#d9001b" fill="none" transform="matrix(0.999655248397695 -0.0262561297784592 0.0262561297784592 0.999655248397695 -9.12027873564739 40.4035992940036 )" />
  </g>
</svg>