<?xml version="1.0" encoding="utf-8"?>
<svg version="1.1" xmlns:xlink="http://www.w3.org/1999/xlink" width="269px" height="285px" xmlns="http://www.w3.org/2000/svg">
  <g transform="matrix(1 0 0 1 -33 -69 )">
    <path d="M 33 69  L 302 69  L 302 354  L 33 354  L 33 69  " fill-rule="nonzero" fill="#cccccc" stroke="none" />
    <path d="M 52 88  L 283 88  L 283 335  L 52 335  L 52 88  " fill-rule="nonzero" fill="#ffffff" stroke="none" />
    <path d="M 193.055 152.1  C 181.757 152.1  172.88 143.223  172.88 131.925  C 172.88 120.627  181.757 111.75  193.055 111.75  C 204.353 111.75  213.23 120.627  213.23 131.925  C 213.23 143.223  204.353 152.1  193.055 152.1  " fill-rule="nonzero" fill="#cccccc" stroke="none" />
    <path d="M 59 329  L 59 200.3  L 113.5 141.8  L 189.8 188.6  L 233.4 176.9  L 277 188.6  L 277 329  L 59 329  " fill-rule="nonzero" fill="#169bd5" stroke="none" />
  </g>
</svg>