<?xml version="1.0" encoding="utf-8"?>
<svg version="1.1" xmlns:xlink="http://www.w3.org/1999/xlink" width="22px" height="22px" preserveAspectRatio="xMinYMid meet" viewBox="1684 831  22 20" xmlns="http://www.w3.org/2000/svg">
  <g transform="matrix(-0.987688340595137 -0.156434465040227 0.156434465040237 -0.987688340595137 3237.57035220992 1936.80231268369 )">
    <path d="M 688 915.5  A 3 3 0 0 0 685 918.5 A 3 3 0 0 0 688 921.5 A 3 3 0 0 0 691 918.5 A 3 3 0 0 0 688 915.5 Z M 1701 915.5  A 3 3 0 0 0 1698 918.5 A 3 3 0 0 0 1701 921.5 A 3 3 0 0 0 1704 918.5 A 3 3 0 0 0 1701 915.5 Z " fill-rule="nonzero" fill="#d9001b" stroke="none" transform="matrix(0.988120335942992 -0.153682145013367 0.153682145013367 0.988120335942992 -126.966791478681 194.484793654829 )" />
    <path d="M 686 918.5  L 1703 918.5  " stroke-width="1" stroke="#d9001b" fill="none" transform="matrix(0.988120335942992 -0.153682145013367 0.153682145013367 0.988120335942992 -126.966791478681 194.484793654829 )" />
  </g>
</svg>