<?xml version="1.0" encoding="utf-8"?>
<svg version="1.1" xmlns:xlink="http://www.w3.org/1999/xlink" width="22px" height="20px" preserveAspectRatio="xMinYMid meet" viewBox="634 1029  22 18" xmlns="http://www.w3.org/2000/svg">
  <g transform="matrix(0.615661475325654 0.788010753606723 -0.788010753606723 0.615661475325651 1065.85351065873 -109.323547464362 )">
    <path d="M 485.9 703.8  L 482 707.5  L 485.9 711.2  L 489.7 707.5  L 485.9 703.8  Z M 485.9 709.8  L 483.4 707.5  L 485.9 705.2  L 488.3 707.5  L 485.9 709.8  Z M 1316.1 711.2  L 1320 707.5  L 1316.1 703.8  L 1312.3 707.5  L 1316.1 711.2  Z M 1316.1 705.2  L 1318.6 707.5  L 1316.1 709.8  L 1313.7 707.5  L 1316.1 705.2  Z " fill-rule="nonzero" fill="#d9001b" stroke="none" transform="matrix(0.612366157750799 -0.790574277877496 0.790574277877496 0.612366157750799 -210.073209731798 986.558367758934 )" />
    <path d="M 488 707.5  L 1314 707.5  " stroke-width="1" stroke="#d9001b" fill="none" transform="matrix(0.612366157750799 -0.790574277877496 0.790574277877496 0.612366157750799 -210.073209731798 986.558367758934 )" />
  </g>
</svg>