<?xml version="1.0" encoding="utf-8"?>
<svg version="1.1" xmlns:xlink="http://www.w3.org/1999/xlink" width="22px" height="22px" preserveAspectRatio="xMinYMid meet" viewBox="1276 619  22 20" xmlns="http://www.w3.org/2000/svg">
  <g transform="matrix(-0.857167300702109 -0.515038074910052 0.515038074910057 -0.857167300702109 2066.21536688519 1831.01223455086 )">
    <path d="M 571.9 827.8  L 568 831.5  L 571.9 835.2  L 575.7 831.5  L 571.9 827.8  Z M 571.9 833.8  L 569.4 831.5  L 571.9 829.2  L 574.3 831.5  L 571.9 833.8  Z M 1341.1 835.2  L 1345 831.5  L 1341.1 827.8  L 1337.3 831.5  L 1341.1 835.2  Z M 1341.1 829.2  L 1343.6 831.5  L 1341.1 833.8  L 1338.7 831.5  L 1341.1 829.2  Z " fill-rule="nonzero" fill="#d9001b" stroke="none" transform="matrix(0.85267540291892 -0.52244105625138 0.52244105625138 0.85267540291892 -293.493761164969 622.215272777364 )" />
    <path d="M 574 831.5  L 1339 831.5  " stroke-width="1" stroke="#d9001b" fill="none" transform="matrix(0.85267540291892 -0.52244105625138 0.52244105625138 0.85267540291892 -293.493761164969 622.215272777364 )" />
  </g>
</svg>