<?xml version="1.0" encoding="utf-8"?>
<svg version="1.1" xmlns:xlink="http://www.w3.org/1999/xlink" width="22px" height="20px" preserveAspectRatio="xMinYMid meet" viewBox="1674 1185  22 18" xmlns="http://www.w3.org/2000/svg">
  <g transform="matrix(-0.694658370459009 0.719339800338656 -0.719339800338648 -0.694658370459001 3714.39107582778 811.334530757412 )">
    <path d="M 1398.9 1066.8  L 1395 1070.5  L 1398.9 1074.2  L 1402.7 1070.5  L 1398.9 1066.8  Z M 1398.9 1072.8  L 1396.4 1070.5  L 1398.9 1068.2  L 1401.3 1070.5  L 1398.9 1072.8  Z M 1735.1 1074.2  L 1739 1070.5  L 1735.1 1066.8  L 1731.3 1070.5  L 1735.1 1074.2  Z M 1735.1 1068.2  L 1737.6 1070.5  L 1735.1 1072.8  L 1732.7 1070.5  L 1735.1 1068.2  Z " fill-rule="nonzero" fill="#d9001b" stroke="none" transform="matrix(0.691804018920017 0.722085313107886 -0.722085313107886 0.691804018920017 1255.93543003433 -801.583887893934 )" />
    <path d="M 1401 1070.5  L 1733 1070.5  " stroke-width="1" stroke="#d9001b" fill="none" transform="matrix(0.691804018920017 0.722085313107886 -0.722085313107886 0.691804018920017 1255.93543003433 -801.583887893934 )" />
  </g>
</svg>