<?xml version="1.0" encoding="utf-8"?>
<svg version="1.1" xmlns:xlink="http://www.w3.org/1999/xlink" width="22px" height="20px" preserveAspectRatio="xMinYMid meet" viewBox="676 1247  22 18" xmlns="http://www.w3.org/2000/svg">
  <g transform="matrix(0.0174524064372919 0.999847695156389 -0.999847695156399 0.0174524064372836 1930.81890189402 547.184410942333 )">
    <path d="M 276.9 830.8  L 273 834.5  L 276.9 838.2  L 280.7 834.5  L 276.9 830.8  Z M 276.9 836.8  L 274.4 834.5  L 276.9 832.2  L 279.3 834.5  L 276.9 836.8  Z M 1115.1 838.2  L 1119 834.5  L 1115.1 830.8  L 1111.3 834.5  L 1115.1 838.2  Z M 1115.1 832.2  L 1117.6 834.5  L 1115.1 836.8  L 1112.7 834.5  L 1115.1 832.2  Z " fill-rule="nonzero" fill="#d9001b" stroke="none" transform="matrix(-0.0220965385294762 0.999755841685867 -0.999755841685867 -0.0220965385294762 1545.67544070337 157.109495589485 )" />
    <path d="M 279 834.5  L 1113 834.5  " stroke-width="1" stroke="#d9001b" fill="none" transform="matrix(-0.0220965385294762 0.999755841685867 -0.999755841685867 -0.0220965385294762 1545.67544070337 157.109495589485 )" />
  </g>
</svg>