<?xml version="1.0" encoding="utf-8"?>
<svg version="1.1" xmlns:xlink="http://www.w3.org/1999/xlink" width="22px" height="22px" preserveAspectRatio="xMinYMid meet" viewBox="1680 279  22 20" xmlns="http://www.w3.org/2000/svg">
  <g transform="matrix(0.798635510047285 0.601815023152049 -0.601815023152049 0.79863551004729 514.431894200984 -959.474866553783 )">
    <path d="M 1653.9 163.8  L 1650 167.5  L 1653.9 171.2  L 1657.7 167.5  L 1653.9 163.8  Z M 1653.9 169.8  L 1651.4 167.5  L 1653.9 165.2  L 1656.3 167.5  L 1653.9 169.8  Z M 2055.1 171.2  L 2059 167.5  L 2055.1 163.8  L 2051.3 167.5  L 2055.1 171.2  Z M 2055.1 165.2  L 2057.6 167.5  L 2055.1 169.8  L 2052.7 167.5  L 2055.1 165.2  Z " fill-rule="nonzero" fill="#d9001b" stroke="none" transform="matrix(0.802137410385115 -0.597139493636672 0.597139493636672 0.802137410385115 266.915307256661 1140.5371747097 )" />
    <path d="M 1656 167.5  L 2053 167.5  " stroke-width="1" stroke="#d9001b" fill="none" transform="matrix(0.802137410385115 -0.597139493636672 0.597139493636672 0.802137410385115 266.915307256661 1140.5371747097 )" />
  </g>
</svg>