<?xml version="1.0" encoding="utf-8"?>
<svg version="1.1" xmlns:xlink="http://www.w3.org/1999/xlink" width="12px" height="12px" viewBox="215 151.5  12 12" xmlns="http://www.w3.org/2000/svg">
  <path d="M 221 151.5  C 224.36 151.5  227 154.14  227 157.5  C 227 160.86  224.36 163.5  221 163.5  C 217.64 163.5  215 160.86  215 157.5  C 215 154.14  217.64 151.5  221 151.5  Z " fill-rule="nonzero" fill="#ffffff" stroke="none" />
  <path d="M 221 152  C 224.08 152  226.5 154.42  226.5 157.5  C 226.5 160.58  224.08 163  221 163  C 217.92 163  215.5 160.58  215.5 157.5  C 215.5 154.42  217.92 152  221 152  Z " stroke-width="1" stroke="#797979" fill="none" />
  <path d="M 221 160.5  C 219.32 160.5  218 159.18  218 157.5  C 218 155.82  219.32 154.5  221 154.5  C 222.68 154.5  224 155.82  224 157.5  C 224 159.18  222.68 160.5  221 160.5  " fill-rule="nonzero" fill="#797979" stroke="none" />
</svg>