<?xml version="1.0" encoding="utf-8"?>
<svg version="1.1" xmlns:xlink="http://www.w3.org/1999/xlink" width="36px" height="36px" xmlns="http://www.w3.org/2000/svg">
  <g transform="matrix(1 0 0 1 -455 -599 )">
    <path d="M 473 599  C 483.08 599  491 606.92  491 617  C 491 627.08  483.08 635  473 635  C 462.92 635  455 627.08  455 617  C 455 606.92  462.92 599  473 599  Z " fill-rule="nonzero" fill="#ffffff" stroke="none" />
    <path d="M 473 599.5  C 482.8 599.5  490.5 607.2  490.5 617  C 490.5 626.8  482.8 634.5  473 634.5  C 463.2 634.5  455.5 626.8  455.5 617  C 455.5 607.2  463.2 599.5  473 599.5  Z " stroke-width="1" stroke="#797979" fill="none" />
  </g>
</svg>