<?xml version="1.0" standalone="no"?><!DOCTYPE svg PUBLIC "-//W3C//DTD SVG 1.1//EN" "http://www.w3.org/Graphics/SVG/1.1/DTD/svg11.dtd"><svg t="1632367468221" class="icon" viewBox="0 0 1024 1024" version="1.1" xmlns="http://www.w3.org/2000/svg" p-id="1819" xmlns:xlink="http://www.w3.org/1999/xlink" width="200" height="200"><defs><style type="text/css"></style></defs><path d="M512 0a512 512 0 1 0 512 512 512.64 512.64 0 0 0-512-512zM109.696 512A399.488 399.488 0 0 1 128 393.088h102.4a633.6 633.6 0 0 0 0 237.888H128A399.488 399.488 0 0 1 109.696 512z m219.456 0a540.288 540.288 0 0 1 14.464-118.912h113.536v237.888H343.616A540.288 540.288 0 0 1 329.152 512z m237.696-354.816a519.424 519.424 0 0 1 78.4 126.144H566.848zM457.152 283.328H378.56a526.848 526.848 0 0 1 78.528-126.848z m0 457.28v126.144a519.424 519.424 0 0 1-78.4-126.144z m109.696 0h78.4a519.424 519.424 0 0 1-78.4 126.144z m0-109.696V393.088h113.536a495.552 495.552 0 0 1 0 237.888zM793.6 393.088H896a402.048 402.048 0 0 1 0 237.888h-102.4a633.6 633.6 0 0 0 0-237.888z m49.216-109.696h-78.848a675.52 675.52 0 0 0-59.072-124.224 404.224 404.224 0 0 1 137.664 124.16zM319.104 159.168a675.52 675.52 0 0 0-59.072 124.224H181.44a404.224 404.224 0 0 1 137.664-124.224z m-137.664 581.504h78.592a675.52 675.52 0 0 0 59.072 124.224 404.224 404.224 0 0 1-137.664-124.224z m523.392 124.224a675.52 675.52 0 0 0 59.072-124.224h78.528a404.224 404.224 0 0 1-137.536 124.16z" p-id="1820"></path></svg>