<?xml version="1.0" standalone="no"?><!DOCTYPE svg PUBLIC "-//W3C//DTD SVG 1.1//EN" "http://www.w3.org/Graphics/SVG/1.1/DTD/svg11.dtd"><svg t="1632367619726" class="icon" viewBox="0 0 1024 1024" version="1.1" xmlns="http://www.w3.org/2000/svg" p-id="1964" xmlns:xlink="http://www.w3.org/1999/xlink" width="200" height="200"><defs><style type="text/css"></style></defs><path d="M194.474667 85.333333A109.141333 109.141333 0 0 0 85.333333 194.474667v635.050666A109.141333 109.141333 0 0 0 194.474667 938.666667h635.050666A109.141333 109.141333 0 0 0 938.666667 829.525333V194.517333A109.141333 109.141333 0 0 0 829.525333 85.333333H194.474667zM144.853333 194.474667c0-27.392 22.229333-49.621333 49.621334-49.621334h635.050666c27.392 0 49.621333 22.229333 49.621334 49.621334v128.981333H144.853333V194.474667z m0 635.050666V383.018667h734.293334v446.506666c0 27.392-22.186667 49.621333-49.621334 49.621334H194.474667c-27.392 0-49.621333-22.186667-49.621334-49.621334zM234.154667 273.877333a39.68 39.68 0 1 0 0-79.36 39.68 39.68 0 0 0 0 79.36z m158.762666-39.68a39.68 39.68 0 1 1-79.36 0 39.68 39.68 0 0 1 79.36 0z m79.36 39.68a39.68 39.68 0 1 0 0-79.36 39.68 39.68 0 0 0 0 79.36z" p-id="1965"></path></svg>