<?xml version="1.0" encoding="utf-8"?>
<svg version="1.1" xmlns:xlink="http://www.w3.org/1999/xlink" width="22px" height="20px" preserveAspectRatio="xMinYMid meet" viewBox="352 289  22 18" xmlns="http://www.w3.org/2000/svg">
  <g transform="matrix(-0.978147600733804 -0.20791169081776 0.207911690817761 -0.978147600733805 656.109895202678 664.959928785521 )">
    <path d="M 41 334  L 41 329  L 36 329  L 36 334  L 41 334  Z M 40 333  L 37 333  L 37 330  L 40 330  L 40 333  Z M 364 329  L 364 334  L 369 334  L 369 329  L 364 329  Z M 365 330  L 368 330  L 368 333  L 365 333  L 365 330  Z " fill-rule="nonzero" fill="#d9001b" stroke="none" transform="matrix(0.979063725115153 -0.203553978501136 0.203553978501136 0.979063725115153 -63.2385482089449 48.1600557708068 )" />
    <path d="M 41 331.5  L 364 331.5  " stroke-width="1" stroke="#d9001b" fill="none" transform="matrix(0.979063725115153 -0.203553978501136 0.203553978501136 0.979063725115153 -63.2385482089449 48.1600557708068 )" />
  </g>
</svg>