<?xml version="1.0" encoding="utf-8"?>
<svg version="1.1" xmlns:xlink="http://www.w3.org/1999/xlink" width="22px" height="20px" preserveAspectRatio="xMinYMid meet" viewBox="1246 425  22 18" xmlns="http://www.w3.org/2000/svg">
  <g transform="matrix(0.978147600733811 0.207911690817759 -0.207911690817754 0.978147600733807 117.702139692505 -251.861054076395 )">
    <path d="M 1255 403  L 1255 398  L 1250 398  L 1250 403  L 1255 403  Z M 1254 402  L 1251 402  L 1251 399  L 1254 399  L 1254 402  Z M 1578 398  L 1578 403  L 1583 403  L 1583 398  L 1578 398  Z M 1579 399  L 1582 399  L 1582 402  L 1579 402  L 1579 399  Z " fill-rule="nonzero" fill="#d9001b" stroke="none" transform="matrix(0.979063725115153 -0.203553978501136 0.203553978501136 0.979063725115153 -51.8671350153186 296.71918863824 )" />
    <path d="M 1255 400.5  L 1578 400.5  " stroke-width="1" stroke="#d9001b" fill="none" transform="matrix(0.979063725115153 -0.203553978501136 0.203553978501136 0.979063725115153 -51.8671350153186 296.71918863824 )" />
  </g>
</svg>