<?xml version="1.0" encoding="utf-8"?>
<svg version="1.1" xmlns:xlink="http://www.w3.org/1999/xlink" width="155px" height="88px" xmlns="http://www.w3.org/2000/svg">
  <g transform="matrix(1 0 0 1 -1274 -4072 )">
    <path d="M 1274 4072  L 1429 4072  L 1429 4160  L 1274 4160  L 1274 4072  " fill-rule="nonzero" fill="#cccccc" stroke="none" />
    <path d="M 1280 4078  L 1423 4078  L 1423 4154  L 1280 4154  L 1280 4078  " fill-rule="nonzero" fill="#ffffff" stroke="none" />
    <path d="M 1361.2 4098.4  C 1357.504 4098.4  1354.6 4095.496  1354.6 4091.8  C 1354.6 4088.104  1357.504 4085.2  1361.2 4085.2  C 1364.896 4085.2  1367.8 4088.104  1367.8 4091.8  C 1367.8 4095.496  1364.896 4098.4  1361.2 4098.4  " fill-rule="nonzero" fill="#cccccc" stroke="none" />
    <path d="M 1282 4152  L 1282 4112.4  L 1316.75 4094.4  L 1365.4 4127.4735483871  L 1393.2 4105.2  L 1421 4127.4735483871  L 1421 4152  L 1282 4152  " fill-rule="nonzero" fill="#169bd5" stroke="none" />
  </g>
</svg>