<?xml version="1.0" encoding="utf-8"?>
<svg version="1.1" xmlns:xlink="http://www.w3.org/1999/xlink" width="12px" height="12px" viewBox="274 349.5  12 12" xmlns="http://www.w3.org/2000/svg">
  <path d="M 280 349.5  C 283.36 349.5  286 352.14  286 355.5  C 286 358.86  283.36 361.5  280 361.5  C 276.64 361.5  274 358.86  274 355.5  C 274 352.14  276.64 349.5  280 349.5  Z " fill-rule="nonzero" fill="#ffffff" stroke="none" />
  <path d="M 280 350  C 283.08 350  285.5 352.42  285.5 355.5  C 285.5 358.58  283.08 361  280 361  C 276.92 361  274.5 358.58  274.5 355.5  C 274.5 352.42  276.92 350  280 350  Z " stroke-width="1" stroke="#797979" fill="none" />
  <path d="M 280 358.5  C 278.32 358.5  277 357.18  277 355.5  C 277 353.82  278.32 352.5  280 352.5  C 281.68 352.5  283 353.82  283 355.5  C 283 357.18  281.68 358.5  280 358.5  " fill-rule="nonzero" fill="#797979" stroke="none" />
</svg>