<?xml version="1.0" encoding="utf-8"?>
<svg version="1.1" xmlns:xlink="http://www.w3.org/1999/xlink" width="168px" height="6px" preserveAspectRatio="xMinYMid meet" viewBox="536 367  168 4" xmlns="http://www.w3.org/2000/svg">
  <g transform="matrix(0.999847695156391 0.0174524064372835 -0.0174524064372956 0.999847695156397 6.53436697839982 -10.7642915038263 )">
    <path d="M 541.9 364.8  L 538 368.5  L 541.9 372.2  L 545.7 368.5  L 541.9 364.8  Z M 541.9 370.8  L 539.4 368.5  L 541.9 366.2  L 544.3 368.5  L 541.9 370.8  Z M 698.1 372.2  L 702 368.5  L 698.1 364.8  L 694.3 368.5  L 698.1 372.2  Z M 698.1 366.2  L 700.6 368.5  L 698.1 370.8  L 695.7 368.5  L 698.1 366.2  Z " fill-rule="nonzero" fill="#d9001b" stroke="none" transform="matrix(0.999923800815221 -0.0123447382816694 0.0123447382816694 0.999923800815221 -4.50179256223203 7.68181713422615 )" />
    <path d="M 544 368.5  L 696 368.5  " stroke-width="1" stroke="#d9001b" fill="none" transform="matrix(0.999923800815221 -0.0123447382816694 0.0123447382816694 0.999923800815221 -4.50179256223203 7.68181713422615 )" />
  </g>
</svg>