<?xml version="1.0" encoding="utf-8"?>
<svg version="1.1" xmlns:xlink="http://www.w3.org/1999/xlink" width="16px" height="16px" xmlns="http://www.w3.org/2000/svg">
  <g transform="matrix(1 0 0 1 -869 -2209 )">
    <path d="M 877 2209  C 881.48 2209  885 2212.52  885 2217  C 885 2221.48  881.48 2225  877 2225  C 872.52 2225  869 2221.48  869 2217  C 869 2212.52  872.52 2209  877 2209  Z " fill-rule="nonzero" fill="#ffffff" stroke="none" />
    <path d="M 877 2209.5  C 881.2 2209.5  884.5 2212.8  884.5 2217  C 884.5 2221.2  881.2 2224.5  877 2224.5  C 872.8 2224.5  869.5 2221.2  869.5 2217  C 869.5 2212.8  872.8 2209.5  877 2209.5  Z " stroke-width="1" stroke="#797979" fill="none" />
  </g>
</svg>