<?xml version="1.0" encoding="utf-8"?>
<svg version="1.1" xmlns:xlink="http://www.w3.org/1999/xlink" width="22px" height="22px" preserveAspectRatio="xMinYMid meet" viewBox="232 851  22 20" xmlns="http://www.w3.org/2000/svg">
  <g transform="matrix(0.997564050259826 0.0697564737441268 -0.0697564737441242 0.997564050259828 60.6522596805533 -14.853470393535 )">
    <path d="M 240 803.5  A 3 3 0 0 0 237 806.5 A 3 3 0 0 0 240 809.5 A 3 3 0 0 0 243 806.5 A 3 3 0 0 0 240 803.5 Z M 1902 803.5  A 3 3 0 0 0 1899 806.5 A 3 3 0 0 0 1902 809.5 A 3 3 0 0 0 1905 806.5 A 3 3 0 0 0 1902 803.5 Z " fill-rule="nonzero" fill="#d9001b" stroke="none" transform="matrix(0.997857695116309 -0.0654218640606237 0.0654218640606237 0.997857695116309 -50.4683248344602 71.7945852976245 )" />
    <path d="M 238 806.5  L 1904 806.5  " stroke-width="1" stroke="#d9001b" fill="none" transform="matrix(0.997857695116309 -0.0654218640606237 0.0654218640606237 0.997857695116309 -50.4683248344602 71.7945852976245 )" />
  </g>
</svg>