<?xml version="1.0" encoding="utf-8"?>
<svg version="1.1" xmlns:xlink="http://www.w3.org/1999/xlink" width="22px" height="20px" preserveAspectRatio="xMinYMid meet" viewBox="762 969  22 18" xmlns="http://www.w3.org/2000/svg">
  <g transform="matrix(0.987688340595138 0.156434465040227 -0.156434465040235 0.987688340595137 162.509819529308 -108.883038578139 )">
    <path d="M 767.9 880.8  L 764 884.5  L 767.9 888.2  L 771.7 884.5  L 767.9 880.8  Z M 767.9 886.8  L 765.4 884.5  L 767.9 882.2  L 770.3 884.5  L 767.9 886.8  Z M 2003.1 888.2  L 2007 884.5  L 2003.1 880.8  L 1999.3 884.5  L 2003.1 888.2  Z M 2003.1 882.2  L 2005.6 884.5  L 2003.1 886.8  L 2000.7 884.5  L 2003.1 882.2  Z " fill-rule="nonzero" fill="#d9001b" stroke="none" transform="matrix(0.988553468308023 -0.150870939203607 0.150870939203607 0.988553468308023 -117.586176066357 219.156143548152 )" />
    <path d="M 770 884.5  L 2001 884.5  " stroke-width="1" stroke="#d9001b" fill="none" transform="matrix(0.988553468308023 -0.150870939203607 0.150870939203607 0.988553468308023 -117.586176066357 219.156143548152 )" />
  </g>
</svg>