<?xml version="1.0" encoding="utf-8"?>
<svg version="1.1" xmlns:xlink="http://www.w3.org/1999/xlink" width="828px" height="18px" preserveAspectRatio="xMinYMid meet" viewBox="1176 1175  828 16" xmlns="http://www.w3.org/2000/svg">
  <g transform="matrix(0.974370064785237 0.224951054343865 -0.224951054343857 0.974370064785236 306.868694280256 -327.351963047679 )">
    <path d="M 1188.9 1179.8  L 1185 1183.5  L 1188.9 1187.2  L 1192.7 1183.5  L 1188.9 1179.8  Z M 1188.9 1185.8  L 1186.4 1183.5  L 1188.9 1181.2  L 1191.3 1183.5  L 1188.9 1185.8  Z M 1992.1 1187.2  L 1996 1183.5  L 1992.1 1179.8  L 1988.3 1183.5  L 1992.1 1187.2  Z M 1992.1 1181.2  L 1994.6 1183.5  L 1992.1 1185.8  L 1989.7 1183.5  L 1992.1 1181.2  Z " fill-rule="nonzero" fill="#d9001b" stroke="none" transform="matrix(0.976012773160424 -0.217713266999738 0.217713266999738 0.976012773160424 -219.511967205844 374.661834127722 )" />
    <path d="M 1191 1183.5  L 1990 1183.5  " stroke-width="1" stroke="#d9001b" fill="none" transform="matrix(0.976012773160424 -0.217713266999738 0.217713266999738 0.976012773160424 -219.511967205844 374.661834127722 )" />
  </g>
</svg>