<?xml version="1.0" encoding="utf-8"?>
<svg version="1.1" xmlns:xlink="http://www.w3.org/1999/xlink" width="22px" height="22px" preserveAspectRatio="xMinYMid meet" viewBox="1974 1085  22 20" xmlns="http://www.w3.org/2000/svg">
  <g transform="matrix(-0.974370064785227 -0.224951054343859 0.22495105434388 -0.974370064785237 3672.80317409213 2608.4630638124 )">
    <path d="M 1188.9 1179.8  L 1185 1183.5  L 1188.9 1187.2  L 1192.7 1183.5  L 1188.9 1179.8  Z M 1188.9 1185.8  L 1186.4 1183.5  L 1188.9 1181.2  L 1191.3 1183.5  L 1188.9 1185.8  Z M 1992.1 1187.2  L 1996 1183.5  L 1992.1 1179.8  L 1988.3 1183.5  L 1992.1 1187.2  Z M 1992.1 1181.2  L 1994.6 1183.5  L 1992.1 1185.8  L 1989.7 1183.5  L 1992.1 1181.2  Z " fill-rule="nonzero" fill="#d9001b" stroke="none" transform="matrix(0.976012773160424 -0.217713266999738 0.217713266999738 0.976012773160424 -219.511967205844 374.661834127722 )" />
    <path d="M 1191 1183.5  L 1990 1183.5  " stroke-width="1" stroke="#d9001b" fill="none" transform="matrix(0.976012773160424 -0.217713266999738 0.217713266999738 0.976012773160424 -219.511967205844 374.661834127722 )" />
  </g>
</svg>