<?xml version="1.0" encoding="utf-8"?>
<svg version="1.1" xmlns:xlink="http://www.w3.org/1999/xlink" width="762px" height="14px" preserveAspectRatio="xMinYMid meet" viewBox="1238 719  762 12" xmlns="http://www.w3.org/2000/svg">
  <g transform="matrix(0.987688340595139 -0.15643446504023 0.156434465040222 0.987688340595133 -93.4824105776913 262.193351968661 )">
    <path d="M 1248.9 720.8  L 1245 724.5  L 1248.9 728.2  L 1252.7 724.5  L 1248.9 720.8  Z M 1248.9 726.8  L 1246.4 724.5  L 1248.9 722.2  L 1251.3 724.5  L 1248.9 726.8  Z M 1989.1 728.2  L 1993 724.5  L 1989.1 720.8  L 1985.3 724.5  L 1989.1 728.2  Z M 1989.1 722.2  L 1991.6 724.5  L 1989.1 726.8  L 1986.7 724.5  L 1989.1 722.2  Z " fill-rule="nonzero" fill="#d9001b" stroke="none" transform="matrix(0.988479837581726 0.151352603857365 -0.151352603857365 0.988479837581726 128.306104449846 -236.693507973034 )" />
    <path d="M 1251 724.5  L 1987 724.5  " stroke-width="1" stroke="#d9001b" fill="none" transform="matrix(0.988479837581726 0.151352603857365 -0.151352603857365 0.988479837581726 128.306104449846 -236.693507973034 )" />
  </g>
</svg>