<?xml version="1.0" encoding="utf-8"?>
<svg version="1.1" xmlns:xlink="http://www.w3.org/1999/xlink" width="20px" height="20px" xmlns="http://www.w3.org/2000/svg">
  <g transform="matrix(1 0 0 1 -143 -169 )">
    <path d="M 153 169  C 158.6 169  163 173.4  163 179  C 163 184.6  158.6 189  153 189  C 147.4 189  143 184.6  143 179  C 143 173.4  147.4 169  153 169  Z " fill-rule="nonzero" fill="#ffffff" stroke="none" />
    <path d="M 153 169.5  C 158.32 169.5  162.5 173.68  162.5 179  C 162.5 184.32  158.32 188.5  153 188.5  C 147.68 188.5  143.5 184.32  143.5 179  C 143.5 173.68  147.68 169.5  153 169.5  Z " stroke-width="1" stroke="#797979" fill="none" />
  </g>
</svg>