<?xml version="1.0" encoding="utf-8"?>
<svg version="1.1" xmlns:xlink="http://www.w3.org/1999/xlink" width="12px" height="12px" viewBox="1747 297.5  12 12" xmlns="http://www.w3.org/2000/svg">
  <path d="M 1753 297.5  C 1756.36 297.5  1759 300.14  1759 303.5  C 1759 306.86  1756.36 309.5  1753 309.5  C 1749.64 309.5  1747 306.86  1747 303.5  C 1747 300.14  1749.64 297.5  1753 297.5  Z " fill-rule="nonzero" fill="#f0f0f0" stroke="none" />
  <path d="M 1753 298  C 1756.08 298  1758.5 300.42  1758.5 303.5  C 1758.5 306.58  1756.08 309  1753 309  C 1749.92 309  1747.5 306.58  1747.5 303.5  C 1747.5 300.42  1749.92 298  1753 298  Z " stroke-width="1" stroke="#797979" fill="none" />
  <path d="M 1753 306.5  C 1751.32 306.5  1750 305.18  1750 303.5  C 1750 301.82  1751.32 300.5  1753 300.5  C 1754.68 300.5  1756 301.82  1756 303.5  C 1756 305.18  1754.68 306.5  1753 306.5  " fill-rule="nonzero" fill="#797979" stroke="none" />
</svg>