<?xml version="1.0" encoding="utf-8"?>
<svg version="1.1" xmlns:xlink="http://www.w3.org/1999/xlink" width="22px" height="20px" preserveAspectRatio="xMinYMid meet" viewBox="1100 609  22 18" xmlns="http://www.w3.org/2000/svg">
  <g transform="matrix(0.999847695156399 0.0174524064372836 -0.0174524064372805 0.99984769515639 10.9547978594803 -19.2954991584709 )">
    <path d="M 1112.9 608.8  L 1109 612.5  L 1112.9 616.2  L 1116.7 612.5  L 1112.9 608.8  Z M 1112.9 614.8  L 1110.4 612.5  L 1112.9 610.2  L 1115.3 612.5  L 1112.9 614.8  Z M 2249.1 616.2  L 2253 612.5  L 2249.1 608.8  L 2245.3 612.5  L 2249.1 616.2  Z M 2249.1 610.2  L 2251.6 612.5  L 2249.1 614.8  L 2246.7 612.5  L 2249.1 610.2  Z " fill-rule="nonzero" fill="#d9001b" stroke="none" transform="matrix(0.999953575798512 -0.00963567578169936 0.00963567578169936 0.999953575798512 -5.8238123335891 16.2260058124482 )" />
    <path d="M 1115 612.5  L 2247 612.5  " stroke-width="1" stroke="#d9001b" fill="none" transform="matrix(0.999953575798512 -0.00963567578169936 0.00963567578169936 0.999953575798512 -5.8238123335891 16.2260058124482 )" />
  </g>
</svg>