<?xml version="1.0" encoding="utf-8"?>
<svg version="1.1" xmlns:xlink="http://www.w3.org/1999/xlink" width="22px" height="22px" preserveAspectRatio="xMinYMid meet" viewBox="2186 339  22 20" xmlns="http://www.w3.org/2000/svg">
  <g transform="matrix(-0.999847695156399 0.0174524064372836 -0.0174524064372733 -0.999847695156391 4399.75627610522 659.603908666868 )">
    <path d="M 1888.9 342.8  L 1885 346.5  L 1888.9 350.2  L 1892.7 346.5  L 1888.9 342.8  Z M 1888.9 348.8  L 1886.4 346.5  L 1888.9 344.2  L 1891.3 346.5  L 1888.9 348.8  Z M 2194.1 350.2  L 2198 346.5  L 2194.1 342.8  L 2190.3 346.5  L 2194.1 350.2  Z M 2194.1 344.2  L 2196.6 346.5  L 2194.1 348.8  L 2191.7 346.5  L 2194.1 344.2  Z " fill-rule="nonzero" fill="#d9001b" stroke="none" transform="matrix(0.999829520169788 0.0184643060267853 -0.0184643060267853 0.999829520169788 6.74591661165823 -37.6358094925138 )" />
    <path d="M 1891 346.5  L 2192 346.5  " stroke-width="1" stroke="#d9001b" fill="none" transform="matrix(0.999829520169788 0.0184643060267853 -0.0184643060267853 0.999829520169788 6.74591661165823 -37.6358094925138 )" />
  </g>
</svg>