<?xml version="1.0" encoding="utf-8"?>
<svg version="1.1" xmlns:xlink="http://www.w3.org/1999/xlink" width="12px" height="12px" viewBox="1668 802  12 12" xmlns="http://www.w3.org/2000/svg">
  <path d="M 1674 802  C 1677.36 802  1680 804.64  1680 808  C 1680 811.36  1677.36 814  1674 814  C 1670.64 814  1668 811.36  1668 808  C 1668 804.64  1670.64 802  1674 802  Z " fill-rule="nonzero" fill="#f0f0f0" stroke="none" />
  <path d="M 1674 802.5  C 1677.08 802.5  1679.5 804.92  1679.5 808  C 1679.5 811.08  1677.08 813.5  1674 813.5  C 1670.92 813.5  1668.5 811.08  1668.5 808  C 1668.5 804.92  1670.92 802.5  1674 802.5  Z " stroke-width="1" stroke="#797979" fill="none" />
  <path d="M 1674 811  C 1672.32 811  1671 809.68  1671 808  C 1671 806.32  1672.32 805  1674 805  C 1675.68 805  1677 806.32  1677 808  C 1677 809.68  1675.68 811  1674 811  " fill-rule="nonzero" fill="#797979" stroke="none" />
</svg>