<?xml version="1.0" encoding="utf-8"?>
<svg version="1.1" xmlns:xlink="http://www.w3.org/1999/xlink" width="22px" height="20px" preserveAspectRatio="xMinYMid meet" viewBox="1872 827  22 18" xmlns="http://www.w3.org/2000/svg">
  <g transform="matrix(0.97437006478524 -0.224951054343863 0.224951054343867 0.974370064785243 -139.79791342208 445.009461169031 )">
    <path d="M 1884.9 844.8  L 1881 848.5  L 1884.9 852.2  L 1888.7 848.5  L 1884.9 844.8  Z M 1884.9 850.8  L 1882.4 848.5  L 1884.9 846.2  L 1887.3 848.5  L 1884.9 850.8  Z M 1989.1 852.2  L 1993 848.5  L 1989.1 844.8  L 1985.3 848.5  L 1989.1 852.2  Z M 1989.1 846.2  L 1991.6 848.5  L 1989.1 850.8  L 1986.7 848.5  L 1989.1 846.2  Z " fill-rule="nonzero" fill="#d9001b" stroke="none" transform="matrix(0.973995632435415 0.226566784848829 -0.226566784848829 0.973995632435415 242.612376916832 -416.795156373631 )" />
    <path d="M 1887 848.5  L 1987 848.5  " stroke-width="1" stroke="#d9001b" fill="none" transform="matrix(0.973995632435415 0.226566784848829 -0.226566784848829 0.973995632435415 242.612376916832 -416.795156373631 )" />
  </g>
</svg>