<?xml version="1.0" encoding="utf-8"?>
<svg version="1.1" xmlns:xlink="http://www.w3.org/1999/xlink" width="174px" height="6px" preserveAspectRatio="xMinYMid meet" viewBox="910 695  174 4" xmlns="http://www.w3.org/2000/svg">
  <g transform="matrix(0.529919264233211 0.848048096156458 -0.848048096156423 0.529919264233225 1059.76001658051 -517.857679038547 )">
    <path d="M 916.9 692.8  L 913 696.5  L 916.9 700.2  L 920.7 696.5  L 916.9 692.8  Z M 916.9 698.8  L 914.4 696.5  L 916.9 694.2  L 919.3 696.5  L 916.9 698.8  Z M 1078.1 700.2  L 1082 696.5  L 1078.1 692.8  L 1074.3 696.5  L 1078.1 700.2  Z M 1078.1 694.2  L 1080.6 696.5  L 1078.1 698.8  L 1075.7 696.5  L 1078.1 694.2  Z " fill-rule="nonzero" fill="#d9001b" stroke="none" transform="matrix(0.523170980976067 -0.852227742252351 0.852227742252351 0.523170980976067 -117.939676002389 1182.20858464689 )" />
    <path d="M 919 696.5  L 1076 696.5  " stroke-width="1" stroke="#d9001b" fill="none" transform="matrix(0.523170980976067 -0.852227742252351 0.852227742252351 0.523170980976067 -117.939676002389 1182.20858464689 )" />
  </g>
</svg>