<?xml version="1.0" encoding="utf-8"?>
<svg version="1.1" xmlns:xlink="http://www.w3.org/1999/xlink" width="56px" height="56px" xmlns="http://www.w3.org/2000/svg">
  <g transform="matrix(1 0 0 1 -22 -62 )">
    <path d="M 50 62  C 65.68 62  78 74.32  78 90  C 78 105.68  65.68 118  50 118  C 34.32 118  22 105.68  22 90  C 22 74.32  34.32 62  50 62  Z " fill-rule="nonzero" fill="#ffffff" stroke="none" />
    <path d="M 50 62.5  C 65.4 62.5  77.5 74.6  77.5 90  C 77.5 105.4  65.4 117.5  50 117.5  C 34.6 117.5  22.5 105.4  22.5 90  C 22.5 74.6  34.6 62.5  50 62.5  Z " stroke-width="1" stroke="#797979" fill="none" />
  </g>
</svg>