<?xml version="1.0" encoding="utf-8"?>
<svg version="1.1" xmlns:xlink="http://www.w3.org/1999/xlink" width="296px" height="6px" preserveAspectRatio="xMinYMid meet" viewBox="1358 157  296 4" xmlns="http://www.w3.org/2000/svg">
  <g transform="matrix(0.898794046299154 -0.438371146789073 0.438371146789104 0.898794046299157 82.7151539340068 676.278693702777 )">
    <path d="M 1364.9 154.8  L 1361 158.5  L 1364.9 162.2  L 1368.7 158.5  L 1364.9 154.8  Z M 1364.9 160.8  L 1362.4 158.5  L 1364.9 156.2  L 1367.3 158.5  L 1364.9 160.8  Z M 1648.1 162.2  L 1652 158.5  L 1648.1 154.8  L 1644.3 158.5  L 1648.1 162.2  Z M 1648.1 156.2  L 1650.6 158.5  L 1648.1 160.8  L 1645.7 158.5  L 1648.1 156.2  Z " fill-rule="nonzero" fill="#d9001b" stroke="none" transform="matrix(0.899198456127169 0.437541011218967 -0.437541011218967 0.899198456127169 221.207776122627 -643.17848869753 )" />
    <path d="M 1367 158.5  L 1646 158.5  " stroke-width="1" stroke="#d9001b" fill="none" transform="matrix(0.899198456127169 0.437541011218967 -0.437541011218967 0.899198456127169 221.207776122627 -643.17848869753 )" />
  </g>
</svg>