<?xml version="1.0" encoding="utf-8"?>
<svg version="1.1" xmlns:xlink="http://www.w3.org/1999/xlink" width="22px" height="20px" preserveAspectRatio="xMinYMid meet" viewBox="1710 27  22 18" xmlns="http://www.w3.org/2000/svg">
  <g transform="matrix(-0.99619469809174 -0.087155742747658 0.0871557427476655 -0.996194698091745 3432.31346867697 221.858042400022 )">
    <path d="M 1147.9 56.8  L 1144 60.5  L 1147.9 64.2  L 1151.7 60.5  L 1147.9 56.8  Z M 1147.9 62.8  L 1145.4 60.5  L 1147.9 58.2  L 1150.3 60.5  L 1147.9 62.8  Z M 1720.1 64.2  L 1724 60.5  L 1720.1 56.8  L 1716.3 60.5  L 1720.1 64.2  Z M 1720.1 58.2  L 1722.6 60.5  L 1720.1 62.8  L 1717.7 60.5  L 1720.1 58.2  Z " fill-rule="nonzero" fill="#d9001b" stroke="none" transform="matrix(0.996487574928738 -0.0837407488182572 0.0837407488182572 0.996487574928738 -0.029497751315148 120.296735522192 )" />
    <path d="M 1150 60.5  L 1718 60.5  " stroke-width="1" stroke="#d9001b" fill="none" transform="matrix(0.996487574928738 -0.0837407488182572 0.0837407488182572 0.996487574928738 -0.029497751315148 120.296735522192 )" />
  </g>
</svg>