<?xml version="1.0" encoding="utf-8"?>
<svg version="1.1" xmlns:xlink="http://www.w3.org/1999/xlink" width="24px" height="22px" preserveAspectRatio="xMinYMid meet" viewBox="1700 919  24 20" xmlns="http://www.w3.org/2000/svg">
  <g transform="matrix(-0.999390827019098 -0.0348994967025031 0.0348994967024923 -0.999390827019095 3390.53546342008 1917.18201665542 )">
    <path d="M 323.9 952.8  L 320 956.5  L 323.9 960.2  L 327.7 956.5  L 323.9 952.8  Z M 323.9 958.8  L 321.4 956.5  L 323.9 954.2  L 326.3 956.5  L 323.9 958.8  Z M 1710.1 960.2  L 1714 956.5  L 1710.1 952.8  L 1706.3 956.5  L 1710.1 960.2  Z M 1710.1 954.2  L 1712.6 956.5  L 1710.1 958.8  L 1707.7 956.5  L 1710.1 954.2  Z " fill-rule="nonzero" fill="#d9001b" stroke="none" transform="matrix(0.999199746778909 -0.0399983254269966 0.0399983254269966 0.999199746778909 -37.4445407450727 41.4437391652289 )" />
    <path d="M 326 956.5  L 1708 956.5  " stroke-width="1" stroke="#d9001b" fill="none" transform="matrix(0.999199746778909 -0.0399983254269966 0.0399983254269966 0.999199746778909 -37.4445407450727 41.4437391652289 )" />
  </g>
</svg>