<?xml version="1.0" encoding="utf-8"?>
<svg version="1.1" xmlns:xlink="http://www.w3.org/1999/xlink" width="1468px" height="10px" preserveAspectRatio="xMinYMid meet" viewBox="462 127  1468 8" xmlns="http://www.w3.org/2000/svg">
  <g transform="matrix(0.999847695156391 -0.0174524064372835 0.0174524064372861 0.999847695156392 -2.10410865032839 20.8930300335037 )">
    <path d="M 470.9 127.8  L 467 131.5  L 470.9 135.2  L 474.7 131.5  L 470.9 127.8  Z M 470.9 133.8  L 468.4 131.5  L 470.9 129.2  L 473.3 131.5  L 470.9 133.8  Z M 1922.1 135.2  L 1926 131.5  L 1922.1 127.8  L 1918.3 131.5  L 1922.1 135.2  Z M 1922.1 129.2  L 1924.6 131.5  L 1922.1 133.8  L 1919.7 131.5  L 1922.1 129.2  Z " fill-rule="nonzero" fill="#d9001b" stroke="none" transform="matrix(0.999879612662387 0.0155164487598069 -0.0155164487598069 0.999879612662387 2.18445646136911 -18.5496000062128 )" />
    <path d="M 473 131.5  L 1920 131.5  " stroke-width="1" stroke="#d9001b" fill="none" transform="matrix(0.999879612662387 0.0155164487598069 -0.0155164487598069 0.999879612662387 2.18445646136911 -18.5496000062128 )" />
  </g>
</svg>