<?xml version="1.0" encoding="utf-8"?>
<svg version="1.1" xmlns:xlink="http://www.w3.org/1999/xlink" width="516px" height="10px" preserveAspectRatio="xMinYMid meet" viewBox="328 537  516 8" xmlns="http://www.w3.org/2000/svg">
  <g transform="matrix(0.997564050259824 0.0697564737441251 -0.0697564737441268 0.997564050259823 39.1657188433155 -39.5594448046215 )">
    <path d="M 335.9 536.8  L 332 540.5  L 335.9 544.2  L 339.7 540.5  L 335.9 536.8  Z M 335.9 542.8  L 333.4 540.5  L 335.9 538.2  L 338.3 540.5  L 335.9 542.8  Z M 835.1 544.2  L 839 540.5  L 835.1 536.8  L 831.3 540.5  L 835.1 544.2  Z M 835.1 538.2  L 837.6 540.5  L 835.1 542.8  L 832.7 540.5  L 835.1 538.2  Z " fill-rule="nonzero" fill="#d9001b" stroke="none" transform="matrix(0.99707819484817 -0.0763876518706756 0.0763876518706756 0.99707819484817 -39.5768089197035 46.3042058548448 )" />
    <path d="M 338 540.5  L 833 540.5  " stroke-width="1" stroke="#d9001b" fill="none" transform="matrix(0.99707819484817 -0.0763876518706756 0.0763876518706756 0.99707819484817 -39.5768089197035 46.3042058548448 )" />
  </g>
</svg>