<?xml version="1.0" encoding="utf-8"?>
<svg version="1.1" xmlns:xlink="http://www.w3.org/1999/xlink" width="1037px" height="19px" xmlns="http://www.w3.org/2000/svg">
  <g transform="matrix(1 0 0 1 -676 -909 )">
    <path d="M 688 915.5  A 3 3 0 0 0 685 918.5 A 3 3 0 0 0 688 921.5 A 3 3 0 0 0 691 918.5 A 3 3 0 0 0 688 915.5 Z M 1701 915.5  A 3 3 0 0 0 1698 918.5 A 3 3 0 0 0 1701 921.5 A 3 3 0 0 0 1704 918.5 A 3 3 0 0 0 1701 915.5 Z " fill-rule="nonzero" fill="#d9001b" stroke="none" />
    <path d="M 686 918.5  L 1703 918.5  " stroke-width="1" stroke="#d9001b" fill="none" />
  </g>
</svg>