<?xml version="1.0" encoding="utf-8"?>
<svg version="1.1" xmlns:xlink="http://www.w3.org/1999/xlink" width="24px" height="22px" preserveAspectRatio="xMinYMid meet" viewBox="1986 495  24 20" xmlns="http://www.w3.org/2000/svg">
  <g transform="matrix(-0.987688340595139 0.15643446504023 -0.156434465040227 -0.987688340595138 4050.4007093544 691.226550850165 )">
    <path d="M 912 418.5  A 3 3 0 0 0 909 421.5 A 3 3 0 0 0 912 424.5 A 3 3 0 0 0 915 421.5 A 3 3 0 0 0 912 418.5 Z M 2005 418.5  A 3 3 0 0 0 2002 421.5 A 3 3 0 0 0 2005 424.5 A 3 3 0 0 0 2008 421.5 A 3 3 0 0 0 2005 418.5 Z " fill-rule="nonzero" fill="#d9001b" stroke="none" transform="matrix(0.988290948118009 0.152581132083906 -0.152581132083906 0.988290948118009 81.3905993432502 -217.604215776118 )" />
    <path d="M 910 421.5  L 2007 421.5  " stroke-width="1" stroke="#d9001b" fill="none" transform="matrix(0.988290948118009 0.152581132083906 -0.152581132083906 0.988290948118009 81.3905993432502 -217.604215776118 )" />
  </g>
</svg>