<?xml version="1.0" encoding="utf-8"?>
<svg version="1.1" xmlns:xlink="http://www.w3.org/1999/xlink" width="328px" height="196px" xmlns="http://www.w3.org/2000/svg">
  <g transform="matrix(1 0 0 1 -356 -138 )">
    <path d="M 356 138  L 684 138  L 684 334  L 356 334  L 356 138  " fill-rule="nonzero" fill="#cccccc" stroke="none" />
    <path d="M 370 152  L 670 152  L 670 320  L 370 320  L 370 152  " fill-rule="nonzero" fill="#ffffff" stroke="none" />
    <path d="M 541.26 196.8  C 533.028 196.8  526.56 190.332  526.56 182.1  C 526.56 173.868  533.028 167.4  541.26 167.4  C 549.492 167.4  555.96 173.868  555.96 182.1  C 555.96 190.332  549.492 196.8  541.26 196.8  " fill-rule="nonzero" fill="#cccccc" stroke="none" />
    <path d="M 375 315  L 375 228.1  L 447.5 188.6  L 549 258.351219512195  L 607 212.3  L 665 258.351219512195  L 665 315  L 375 315  " fill-rule="nonzero" fill="#169bd5" stroke="none" />
  </g>
</svg>