<?xml version="1.0" encoding="utf-8"?>
<svg version="1.1" xmlns:xlink="http://www.w3.org/1999/xlink" width="100px" height="36px" xmlns="http://www.w3.org/2000/svg">
  <g transform="matrix(1 0 0 1 -1030 -500 )">
    <path d="M 1030 500  L 1130 500  L 1130 536  L 1030 536  L 1030 500  " fill-rule="nonzero" fill="#cccccc" stroke="none" />
    <path d="M 1033 503  L 1127 503  L 1127 533  L 1033 533  L 1033 503  " fill-rule="nonzero" fill="#ffffff" stroke="none" />
    <path d="M 1084.7 510.8  C 1083.188 510.8  1082 509.612  1082 508.1  C 1082 506.588  1083.188 505.4  1084.7 505.4  C 1086.212 505.4  1087.4 506.588  1087.4 508.1  C 1087.4 509.612  1086.212 510.8  1084.7 510.8  " fill-rule="nonzero" fill="#cccccc" stroke="none" />
    <path d="M 1034 532  L 1034 516.6  L 1057 509.6  L 1089.2 525.952  L 1107.6 513.8  L 1126 525.952  L 1126 532  L 1034 532  " fill-rule="nonzero" fill="#169bd5" stroke="none" />
  </g>
</svg>