<?xml version="1.0" encoding="utf-8"?>
<svg version="1.1" xmlns:xlink="http://www.w3.org/1999/xlink" width="104px" height="104px" xmlns="http://www.w3.org/2000/svg">
  <g transform="matrix(1 0 0 1 -1364 -802 )">
    <path d="M 1416 802  C 1445.12 802  1468 824.88  1468 854  C 1468 883.12  1445.12 906  1416 906  C 1386.88 906  1364 883.12  1364 854  C 1364 824.88  1386.88 802  1416 802  Z " fill-rule="nonzero" fill="#ffffff" stroke="none" />
    <path d="M 1416 802.5  C 1444.84 802.5  1467.5 825.16  1467.5 854  C 1467.5 882.84  1444.84 905.5  1416 905.5  C 1387.16 905.5  1364.5 882.84  1364.5 854  C 1364.5 825.16  1387.16 802.5  1416 802.5  Z " stroke-width="1" stroke="#aaaaaa" fill="none" />
  </g>
</svg>