<?xml version="1.0" encoding="utf-8"?>
<svg version="1.1" xmlns:xlink="http://www.w3.org/1999/xlink" width="29px" height="29px" xmlns="http://www.w3.org/2000/svg">
  <g transform="matrix(1 0 0 1 -404 -538 )">
    <path d="M 418.5 538  C 426.62 538  433 544.38  433 552.5  C 433 560.62  426.62 567  418.5 567  C 410.38 567  404 560.62  404 552.5  C 404 544.38  410.38 538  418.5 538  Z " fill-rule="nonzero" fill="#81d3f8" stroke="none" />
    <path d="M 418.5 538.5  C 426.34 538.5  432.5 544.66  432.5 552.5  C 432.5 560.34  426.34 566.5  418.5 566.5  C 410.66 566.5  404.5 560.34  404.5 552.5  C 404.5 544.66  410.66 538.5  418.5 538.5  Z " stroke-width="1" stroke="#797979" fill="none" />
  </g>
</svg>