<?xml version="1.0" encoding="utf-8"?>
<svg version="1.1" xmlns:xlink="http://www.w3.org/1999/xlink" width="160px" height="90px" xmlns="http://www.w3.org/2000/svg">
  <g transform="matrix(1 0 0 1 -459 -1378 )">
    <path d="M 459 1378  L 619 1378  L 619 1468  L 459 1468  L 459 1378  " fill-rule="nonzero" fill="#cccccc" stroke="none" />
    <path d="M 465 1384  L 613 1384  L 613 1462  L 465 1462  L 465 1384  " fill-rule="nonzero" fill="#ffffff" stroke="none" />
    <path d="M 548.95 1405  C 545.17 1405  542.2 1402.03  542.2 1398.25  C 542.2 1394.47  545.17 1391.5  548.95 1391.5  C 552.73 1391.5  555.7 1394.47  555.7 1398.25  C 555.7 1402.03  552.73 1405  548.95 1405  " fill-rule="nonzero" fill="#cccccc" stroke="none" />
    <path d="M 468 1460  L 468 1419.85  L 503.75 1401.6  L 553.8 1435.3625  L 582.4 1412.55  L 611 1435.3625  L 611 1460  L 468 1460  " fill-rule="nonzero" fill="#169bd5" stroke="none" />
  </g>
</svg>