<?xml version="1.0" encoding="utf-8"?>
<svg version="1.1" xmlns:xlink="http://www.w3.org/1999/xlink" width="21px" height="21px" xmlns="http://www.w3.org/2000/svg">
  <defs>
    <mask fill="white" id="clip190">
      <path d="M 0 10.5  C 0 9.07074890741796  0.272963381221047 7.7159423733508  0.770636190559202 6.48383435090238  C 2.32041056114369 2.64699737859218  6.04925109258201 0  10.5 0  C 16.38 0  21 4.62  21 10.5  C 21 14.0986373476085  19.2695323329006 17.2253289678262  16.578828980848 19.1098428785068  C 14.8730527263674 20.3045338791424  12.7813626523916 21  10.5 21  C 4.62 21  0 16.38  0 10.5  Z " fill-rule="evenodd" />
    </mask>
  </defs>
  <g transform="matrix(1 0 0 1 -135 -295 )">
    <path d="M 0 10.5  C 0 9.07074890741796  0.272963381221047 7.7159423733508  0.770636190559202 6.48383435090238  C 2.32041056114369 2.64699737859218  6.04925109258201 0  10.5 0  C 16.38 0  21 4.62  21 10.5  C 21 14.0986373476085  19.2695323329006 17.2253289678262  16.578828980848 19.1098428785068  C 14.8730527263674 20.3045338791424  12.7813626523916 21  10.5 21  C 4.62 21  0 16.38  0 10.5  Z " fill-rule="nonzero" fill="#ffffff" stroke="none" transform="matrix(1 0 0 1 135 295 )" />
    <path d="M 0 10.5  C 0 9.07074890741796  0.272963381221047 7.7159423733508  0.770636190559202 6.48383435090238  C 2.32041056114369 2.64699737859218  6.04925109258201 0  10.5 0  C 16.38 0  21 4.62  21 10.5  C 21 14.0986373476085  19.2695323329006 17.2253289678262  16.578828980848 19.1098428785068  C 14.8730527263674 20.3045338791424  12.7813626523916 21  10.5 21  C 4.62 21  0 16.38  0 10.5  Z " stroke-width="2" stroke="#797979" fill="none" transform="matrix(1 0 0 1 135 295 )" mask="url(#clip190)" />
  </g>
</svg>