<?xml version="1.0" encoding="utf-8"?>
<svg version="1.1" xmlns:xlink="http://www.w3.org/1999/xlink" width="12px" height="12px" viewBox="427 242.5  12 12" xmlns="http://www.w3.org/2000/svg">
  <path d="M 433 242.5  C 436.36 242.5  439 245.14  439 248.5  C 439 251.86  436.36 254.5  433 254.5  C 429.64 254.5  427 251.86  427 248.5  C 427 245.14  429.64 242.5  433 242.5  Z " fill-rule="nonzero" fill="#ffffff" stroke="none" />
  <path d="M 433 243  C 436.08 243  438.5 245.42  438.5 248.5  C 438.5 251.58  436.08 254  433 254  C 429.92 254  427.5 251.58  427.5 248.5  C 427.5 245.42  429.92 243  433 243  Z " stroke-width="1" stroke="#797979" fill="none" />
  <path d="M 433 251.5  C 431.32 251.5  430 250.18  430 248.5  C 430 246.82  431.32 245.5  433 245.5  C 434.68 245.5  436 246.82  436 248.5  C 436 250.18  434.68 251.5  433 251.5  " fill-rule="nonzero" fill="#797979" stroke="none" />
</svg>