<?xml version="1.0" encoding="utf-8"?>
<svg version="1.1" xmlns:xlink="http://www.w3.org/1999/xlink" width="12px" height="12px" viewBox="427 299.5  12 12" xmlns="http://www.w3.org/2000/svg">
  <path d="M 433 299.5  C 436.36 299.5  439 302.14  439 305.5  C 439 308.86  436.36 311.5  433 311.5  C 429.64 311.5  427 308.86  427 305.5  C 427 302.14  429.64 299.5  433 299.5  Z " fill-rule="nonzero" fill="#ffffff" stroke="none" />
  <path d="M 433 300  C 436.08 300  438.5 302.42  438.5 305.5  C 438.5 308.58  436.08 311  433 311  C 429.92 311  427.5 308.58  427.5 305.5  C 427.5 302.42  429.92 300  433 300  Z " stroke-width="1" stroke="#797979" fill="none" />
  <path d="M 433 308.5  C 431.32 308.5  430 307.18  430 305.5  C 430 303.82  431.32 302.5  433 302.5  C 434.68 302.5  436 303.82  436 305.5  C 436 307.18  434.68 308.5  433 308.5  " fill-rule="nonzero" fill="#797979" stroke="none" />
</svg>