<?xml version="1.0" encoding="utf-8"?>
<svg version="1.1" xmlns:xlink="http://www.w3.org/1999/xlink" width="702px" height="14px" preserveAspectRatio="xMinYMid meet" viewBox="328 1279  702 12" xmlns="http://www.w3.org/2000/svg">
  <g transform="matrix(0.956304755963037 0.292371704722734 -0.292371704722733 0.956304755963028 405.366711269811 -142.371998919228 )">
    <path d="M 338.9 1281.8  L 335 1285.5  L 338.9 1289.2  L 342.7 1285.5  L 338.9 1281.8  Z M 338.9 1287.8  L 336.4 1285.5  L 338.9 1283.2  L 341.3 1285.5  L 338.9 1287.8  Z M 1019.1 1289.2  L 1023 1285.5  L 1019.1 1281.8  L 1015.3 1285.5  L 1019.1 1289.2  Z M 1019.1 1283.2  L 1021.6 1285.5  L 1019.1 1287.8  L 1016.7 1285.5  L 1019.1 1283.2  Z " fill-rule="nonzero" fill="#d9001b" stroke="none" transform="matrix(0.954065003621617 -0.299599681015325 0.299599681015325 0.954065003621617 -353.945527404278 262.477621253817 )" />
    <path d="M 341 1285.5  L 1017 1285.5  " stroke-width="1" stroke="#d9001b" fill="none" transform="matrix(0.954065003621617 -0.299599681015325 0.299599681015325 0.954065003621617 -353.945527404278 262.477621253817 )" />
  </g>
</svg>