<?xml version="1.0" encoding="utf-8"?>
<svg version="1.1" xmlns:xlink="http://www.w3.org/1999/xlink" width="12px" height="12px" viewBox="1225 519.5  12 12" xmlns="http://www.w3.org/2000/svg">
  <path d="M 1231 519.5  C 1234.36 519.5  1237 522.14  1237 525.5  C 1237 528.86  1234.36 531.5  1231 531.5  C 1227.64 531.5  1225 528.86  1225 525.5  C 1225 522.14  1227.64 519.5  1231 519.5  Z " fill-rule="nonzero" fill="#f0f0f0" stroke="none" />
  <path d="M 1231 520  C 1234.08 520  1236.5 522.42  1236.5 525.5  C 1236.5 528.58  1234.08 531  1231 531  C 1227.92 531  1225.5 528.58  1225.5 525.5  C 1225.5 522.42  1227.92 520  1231 520  Z " stroke-width="1" stroke="#797979" fill="none" />
  <path d="M 1231 528.5  C 1229.32 528.5  1228 527.18  1228 525.5  C 1228 523.82  1229.32 522.5  1231 522.5  C 1232.68 522.5  1234 523.82  1234 525.5  C 1234 527.18  1232.68 528.5  1231 528.5  " fill-rule="nonzero" fill="#797979" stroke="none" />
</svg>