<?xml version="1.0" encoding="utf-8"?>
<svg version="1.1" xmlns:xlink="http://www.w3.org/1999/xlink" width="12px" height="12px" viewBox="1223 458.5  12 12" xmlns="http://www.w3.org/2000/svg">
  <path d="M 1229 458.5  C 1232.36 458.5  1235 461.14  1235 464.5  C 1235 467.86  1232.36 470.5  1229 470.5  C 1225.64 470.5  1223 467.86  1223 464.5  C 1223 461.14  1225.64 458.5  1229 458.5  Z " fill-rule="nonzero" fill="#f0f0f0" stroke="none" />
  <path d="M 1229 459  C 1232.08 459  1234.5 461.42  1234.5 464.5  C 1234.5 467.58  1232.08 470  1229 470  C 1225.92 470  1223.5 467.58  1223.5 464.5  C 1223.5 461.42  1225.92 459  1229 459  Z " stroke-width="1" stroke="#797979" fill="none" />
  <path d="M 1229 467.5  C 1227.32 467.5  1226 466.18  1226 464.5  C 1226 462.82  1227.32 461.5  1229 461.5  C 1230.68 461.5  1232 462.82  1232 464.5  C 1232 466.18  1230.68 467.5  1229 467.5  " fill-rule="nonzero" fill="#797979" stroke="none" />
</svg>