<?xml version="1.0" encoding="utf-8"?>
<svg version="1.1" xmlns:xlink="http://www.w3.org/1999/xlink" width="12px" height="12px" viewBox="781 173.5  12 12" xmlns="http://www.w3.org/2000/svg">
  <path d="M 787 173.5  C 790.36 173.5  793 176.14  793 179.5  C 793 182.86  790.36 185.5  787 185.5  C 783.64 185.5  781 182.86  781 179.5  C 781 176.14  783.64 173.5  787 173.5  Z " fill-rule="nonzero" fill="#f0f0f0" stroke="none" />
  <path d="M 787 174  C 790.08 174  792.5 176.42  792.5 179.5  C 792.5 182.58  790.08 185  787 185  C 783.92 185  781.5 182.58  781.5 179.5  C 781.5 176.42  783.92 174  787 174  Z " stroke-width="1" stroke="#797979" fill="none" />
  <path d="M 787 182.5  C 785.32 182.5  784 181.18  784 179.5  C 784 177.82  785.32 176.5  787 176.5  C 788.68 176.5  790 177.82  790 179.5  C 790 181.18  788.68 182.5  787 182.5  " fill-rule="nonzero" fill="#797979" stroke="none" />
</svg>