<?xml version="1.0" encoding="utf-8"?>
<svg version="1.1" xmlns:xlink="http://www.w3.org/1999/xlink" width="12px" height="12px" viewBox="1004 170.5  12 12" xmlns="http://www.w3.org/2000/svg">
  <path d="M 1010 170.5  C 1013.36 170.5  1016 173.14  1016 176.5  C 1016 179.86  1013.36 182.5  1010 182.5  C 1006.64 182.5  1004 179.86  1004 176.5  C 1004 173.14  1006.64 170.5  1010 170.5  Z " fill-rule="nonzero" fill="#ffffff" stroke="none" />
  <path d="M 1010 171  C 1013.08 171  1015.5 173.42  1015.5 176.5  C 1015.5 179.58  1013.08 182  1010 182  C 1006.92 182  1004.5 179.58  1004.5 176.5  C 1004.5 173.42  1006.92 171  1010 171  Z " stroke-width="1" stroke="#797979" fill="none" />
  <path d="M 1010 179.5  C 1008.32 179.5  1007 178.18  1007 176.5  C 1007 174.82  1008.32 173.5  1010 173.5  C 1011.68 173.5  1013 174.82  1013 176.5  C 1013 178.18  1011.68 179.5  1010 179.5  " fill-rule="nonzero" fill="#797979" stroke="none" />
</svg>