<?xml version="1.0" encoding="utf-8"?>
<svg version="1.1" xmlns:xlink="http://www.w3.org/1999/xlink" width="12px" height="12px" viewBox="1069 265.5  12 12" xmlns="http://www.w3.org/2000/svg">
  <path d="M 1075 265.5  C 1078.36 265.5  1081 268.14  1081 271.5  C 1081 274.86  1078.36 277.5  1075 277.5  C 1071.64 277.5  1069 274.86  1069 271.5  C 1069 268.14  1071.64 265.5  1075 265.5  Z " fill-rule="nonzero" fill="#f0f0f0" stroke="none" />
  <path d="M 1075 266  C 1078.08 266  1080.5 268.42  1080.5 271.5  C 1080.5 274.58  1078.08 277  1075 277  C 1071.92 277  1069.5 274.58  1069.5 271.5  C 1069.5 268.42  1071.92 266  1075 266  Z " stroke-width="1" stroke="#797979" fill="none" />
  <path d="M 1075 274.5  C 1073.32 274.5  1072 273.18  1072 271.5  C 1072 269.82  1073.32 268.5  1075 268.5  C 1076.68 268.5  1078 269.82  1078 271.5  C 1078 273.18  1076.68 274.5  1075 274.5  " fill-rule="nonzero" fill="#797979" stroke="none" />
</svg>