<?xml version="1.0" encoding="utf-8"?>
<svg version="1.1" xmlns:xlink="http://www.w3.org/1999/xlink" width="300px" height="174px" xmlns="http://www.w3.org/2000/svg">
  <g transform="matrix(1 0 0 1 -499 -339 )">
    <path d="M 499 339  L 799 339  L 799 513  L 499 513  L 499 339  " fill-rule="nonzero" fill="#cccccc" stroke="none" />
    <path d="M 511 351  L 787 351  L 787 501  L 511 501  L 511 351  " fill-rule="nonzero" fill="#ffffff" stroke="none" />
    <path d="M 668.05 391.2  C 660.742 391.2  655 385.458  655 378.15  C 655 370.842  660.742 365.1  668.05 365.1  C 675.358 365.1  681.1 370.842  681.1 378.15  C 681.1 385.458  675.358 391.2  668.05 391.2  " fill-rule="nonzero" fill="#cccccc" stroke="none" />
    <path d="M 516 497  L 516 419.45  L 582.75 384.2  L 676.2 447.932  L 729.6 405.35  L 783 447.932  L 783 497  L 516 497  " fill-rule="nonzero" fill="#169bd5" stroke="none" />
  </g>
</svg>