<?xml version="1.0" encoding="utf-8"?>
<svg version="1.1" xmlns:xlink="http://www.w3.org/1999/xlink" width="22px" height="22px" preserveAspectRatio="xMinYMid meet" viewBox="430 231  22 20" xmlns="http://www.w3.org/2000/svg">
  <g transform="matrix(0.998629534754572 -0.0523359562429444 0.0523359562429431 0.998629534754573 -12.0085902813155 23.4104388272863 )">
    <path d="M 441 245.5  A 3 3 0 0 0 438 248.5 A 3 3 0 0 0 441 251.5 A 3 3 0 0 0 444 248.5 A 3 3 0 0 0 441 245.5 Z M 712 245.5  A 3 3 0 0 0 709 248.5 A 3 3 0 0 0 712 251.5 A 3 3 0 0 0 715 248.5 A 3 3 0 0 0 712 245.5 Z " fill-rule="nonzero" fill="#d9001b" stroke="none" transform="matrix(0.998414925747175 0.056281755882901 -0.056281755882901 0.998414925747175 14.8998116436543 -32.0525413146655 )" />
    <path d="M 439 248.5  L 714 248.5  " stroke-width="1" stroke="#d9001b" fill="none" transform="matrix(0.998414925747175 0.056281755882901 -0.056281755882901 0.998414925747175 14.8998116436543 -32.0525413146655 )" />
  </g>
</svg>