<?xml version="1.0" encoding="utf-8"?>
<svg version="1.1" xmlns:xlink="http://www.w3.org/1999/xlink" width="295px" height="19px" xmlns="http://www.w3.org/2000/svg">
  <g transform="matrix(1 0 0 1 -429 -239 )">
    <path d="M 441 245.5  A 3 3 0 0 0 438 248.5 A 3 3 0 0 0 441 251.5 A 3 3 0 0 0 444 248.5 A 3 3 0 0 0 441 245.5 Z M 712 245.5  A 3 3 0 0 0 709 248.5 A 3 3 0 0 0 712 251.5 A 3 3 0 0 0 715 248.5 A 3 3 0 0 0 712 245.5 Z " fill-rule="nonzero" fill="#d9001b" stroke="none" />
    <path d="M 439 248.5  L 714 248.5  " stroke-width="1" stroke="#d9001b" fill="none" />
  </g>
</svg>