<?xml version="1.0" encoding="utf-8"?>
<svg version="1.1" xmlns:xlink="http://www.w3.org/1999/xlink" width="12px" height="12px" viewBox="2103 657.5  12 12" xmlns="http://www.w3.org/2000/svg">
  <path d="M 2109 657.5  C 2112.36 657.5  2115 660.14  2115 663.5  C 2115 666.86  2112.36 669.5  2109 669.5  C 2105.64 669.5  2103 666.86  2103 663.5  C 2103 660.14  2105.64 657.5  2109 657.5  Z " fill-rule="nonzero" fill="#ffffff" stroke="none" />
  <path d="M 2109 658  C 2112.08 658  2114.5 660.42  2114.5 663.5  C 2114.5 666.58  2112.08 669  2109 669  C 2105.92 669  2103.5 666.58  2103.5 663.5  C 2103.5 660.42  2105.92 658  2109 658  Z " stroke-width="1" stroke="#797979" fill="none" />
  <path d="M 2109 666.5  C 2107.32 666.5  2106 665.18  2106 663.5  C 2106 661.82  2107.32 660.5  2109 660.5  C 2110.68 660.5  2112 661.82  2112 663.5  C 2112 665.18  2110.68 666.5  2109 666.5  " fill-rule="nonzero" fill="#797979" stroke="none" />
</svg>