<?xml version="1.0" encoding="utf-8"?>
<svg version="1.1" xmlns:xlink="http://www.w3.org/1999/xlink" width="12px" height="12px" viewBox="2111 383.5  12 12" xmlns="http://www.w3.org/2000/svg">
  <path d="M 2117 383.5  C 2120.36 383.5  2123 386.14  2123 389.5  C 2123 392.86  2120.36 395.5  2117 395.5  C 2113.64 395.5  2111 392.86  2111 389.5  C 2111 386.14  2113.64 383.5  2117 383.5  Z " fill-rule="nonzero" fill="#f0f0f0" stroke="none" />
  <path d="M 2117 384  C 2120.08 384  2122.5 386.42  2122.5 389.5  C 2122.5 392.58  2120.08 395  2117 395  C 2113.92 395  2111.5 392.58  2111.5 389.5  C 2111.5 386.42  2113.92 384  2117 384  Z " stroke-width="1" stroke="#797979" fill="none" />
  <path d="M 2117 392.5  C 2115.32 392.5  2114 391.18  2114 389.5  C 2114 387.82  2115.32 386.5  2117 386.5  C 2118.68 386.5  2120 387.82  2120 389.5  C 2120 391.18  2118.68 392.5  2117 392.5  " fill-rule="nonzero" fill="#797979" stroke="none" />
</svg>