<?xml version="1.0" encoding="utf-8"?>
<svg version="1.1" xmlns:xlink="http://www.w3.org/1999/xlink" width="12px" height="12px" viewBox="2111 344.5  12 12" xmlns="http://www.w3.org/2000/svg">
  <path d="M 2117 344.5  C 2120.36 344.5  2123 347.14  2123 350.5  C 2123 353.86  2120.36 356.5  2117 356.5  C 2113.64 356.5  2111 353.86  2111 350.5  C 2111 347.14  2113.64 344.5  2117 344.5  Z " fill-rule="nonzero" fill="#ffffff" stroke="none" />
  <path d="M 2117 345  C 2120.08 345  2122.5 347.42  2122.5 350.5  C 2122.5 353.58  2120.08 356  2117 356  C 2113.92 356  2111.5 353.58  2111.5 350.5  C 2111.5 347.42  2113.92 345  2117 345  Z " stroke-width="1" stroke="#797979" fill="none" />
  <path d="M 2117 353.5  C 2115.32 353.5  2114 352.18  2114 350.5  C 2114 348.82  2115.32 347.5  2117 347.5  C 2118.68 347.5  2120 348.82  2120 350.5  C 2120 352.18  2118.68 353.5  2117 353.5  " fill-rule="nonzero" fill="#797979" stroke="none" />
</svg>