<?xml version="1.0" encoding="utf-8"?>
<svg version="1.1" xmlns:xlink="http://www.w3.org/1999/xlink" width="12px" height="12px" viewBox="2111 421.5  12 12" xmlns="http://www.w3.org/2000/svg">
  <path d="M 2117 421.5  C 2120.36 421.5  2123 424.14  2123 427.5  C 2123 430.86  2120.36 433.5  2117 433.5  C 2113.64 433.5  2111 430.86  2111 427.5  C 2111 424.14  2113.64 421.5  2117 421.5  Z " fill-rule="nonzero" fill="#ffffff" stroke="none" />
  <path d="M 2117 422  C 2120.08 422  2122.5 424.42  2122.5 427.5  C 2122.5 430.58  2120.08 433  2117 433  C 2113.92 433  2111.5 430.58  2111.5 427.5  C 2111.5 424.42  2113.92 422  2117 422  Z " stroke-width="1" stroke="#797979" fill="none" />
  <path d="M 2117 430.5  C 2115.32 430.5  2114 429.18  2114 427.5  C 2114 425.82  2115.32 424.5  2117 424.5  C 2118.68 424.5  2120 425.82  2120 427.5  C 2120 429.18  2118.68 430.5  2117 430.5  " fill-rule="nonzero" fill="#797979" stroke="none" />
</svg>