<?xml version="1.0" encoding="utf-8"?>
<svg version="1.1" xmlns:xlink="http://www.w3.org/1999/xlink" width="12px" height="12px" viewBox="2287 2505.5  12 12" xmlns="http://www.w3.org/2000/svg">
  <path d="M 2293 2505.5  C 2296.36 2505.5  2299 2508.14  2299 2511.5  C 2299 2514.86  2296.36 2517.5  2293 2517.5  C 2289.64 2517.5  2287 2514.86  2287 2511.5  C 2287 2508.14  2289.64 2505.5  2293 2505.5  Z " fill-rule="nonzero" fill="#f0f0f0" stroke="none" />
  <path d="M 2293 2506  C 2296.08 2506  2298.5 2508.42  2298.5 2511.5  C 2298.5 2514.58  2296.08 2517  2293 2517  C 2289.92 2517  2287.5 2514.58  2287.5 2511.5  C 2287.5 2508.42  2289.92 2506  2293 2506  Z " stroke-width="1" stroke="#797979" fill="none" />
  <path d="M 2293 2514.5  C 2291.32 2514.5  2290 2513.18  2290 2511.5  C 2290 2509.82  2291.32 2508.5  2293 2508.5  C 2294.68 2508.5  2296 2509.82  2296 2511.5  C 2296 2513.18  2294.68 2514.5  2293 2514.5  " fill-rule="nonzero" fill="#797979" stroke="none" />
</svg>