<?xml version="1.0" encoding="utf-8"?>
<svg version="1.1" xmlns:xlink="http://www.w3.org/1999/xlink" width="12px" height="12px" viewBox="2287 2542.5  12 12" xmlns="http://www.w3.org/2000/svg">
  <path d="M 2293 2542.5  C 2296.36 2542.5  2299 2545.14  2299 2548.5  C 2299 2551.86  2296.36 2554.5  2293 2554.5  C 2289.64 2554.5  2287 2551.86  2287 2548.5  C 2287 2545.14  2289.64 2542.5  2293 2542.5  Z " fill-rule="nonzero" fill="#ffffff" stroke="none" />
  <path d="M 2293 2543  C 2296.08 2543  2298.5 2545.42  2298.5 2548.5  C 2298.5 2551.58  2296.08 2554  2293 2554  C 2289.92 2554  2287.5 2551.58  2287.5 2548.5  C 2287.5 2545.42  2289.92 2543  2293 2543  Z " stroke-width="1" stroke="#797979" fill="none" />
  <path d="M 2293 2551.5  C 2291.32 2551.5  2290 2550.18  2290 2548.5  C 2290 2546.82  2291.32 2545.5  2293 2545.5  C 2294.68 2545.5  2296 2546.82  2296 2548.5  C 2296 2550.18  2294.68 2551.5  2293 2551.5  " fill-rule="nonzero" fill="#797979" stroke="none" />
</svg>