<?xml version="1.0" encoding="utf-8"?>
<svg version="1.1" xmlns:xlink="http://www.w3.org/1999/xlink" width="12px" height="12px" viewBox="776 3161.5  12 12" xmlns="http://www.w3.org/2000/svg">
  <path d="M 782 3161.5  C 785.36 3161.5  788 3164.14  788 3167.5  C 788 3170.86  785.36 3173.5  782 3173.5  C 778.64 3173.5  776 3170.86  776 3167.5  C 776 3164.14  778.64 3161.5  782 3161.5  Z " fill-rule="nonzero" fill="#f0f0f0" stroke="none" />
  <path d="M 782 3162  C 785.08 3162  787.5 3164.42  787.5 3167.5  C 787.5 3170.58  785.08 3173  782 3173  C 778.92 3173  776.5 3170.58  776.5 3167.5  C 776.5 3164.42  778.92 3162  782 3162  Z " stroke-width="1" stroke="#797979" fill="none" />
  <path d="M 782 3170.5  C 780.32 3170.5  779 3169.18  779 3167.5  C 779 3165.82  780.32 3164.5  782 3164.5  C 783.68 3164.5  785 3165.82  785 3167.5  C 785 3169.18  783.68 3170.5  782 3170.5  " fill-rule="nonzero" fill="#797979" stroke="none" />
</svg>