<?xml version="1.0" encoding="utf-8"?>
<svg version="1.1" xmlns:xlink="http://www.w3.org/1999/xlink" width="12px" height="12px" viewBox="848 3161.5  12 12" xmlns="http://www.w3.org/2000/svg">
  <path d="M 854 3161.5  C 857.36 3161.5  860 3164.14  860 3167.5  C 860 3170.86  857.36 3173.5  854 3173.5  C 850.64 3173.5  848 3170.86  848 3167.5  C 848 3164.14  850.64 3161.5  854 3161.5  Z " fill-rule="nonzero" fill="#f0f0f0" stroke="none" />
  <path d="M 854 3162  C 857.08 3162  859.5 3164.42  859.5 3167.5  C 859.5 3170.58  857.08 3173  854 3173  C 850.92 3173  848.5 3170.58  848.5 3167.5  C 848.5 3164.42  850.92 3162  854 3162  Z " stroke-width="1" stroke="#797979" fill="none" />
  <path d="M 854 3170.5  C 852.32 3170.5  851 3169.18  851 3167.5  C 851 3165.82  852.32 3164.5  854 3164.5  C 855.68 3164.5  857 3165.82  857 3167.5  C 857 3169.18  855.68 3170.5  854 3170.5  " fill-rule="nonzero" fill="#797979" stroke="none" />
</svg>