<?xml version="1.0" encoding="utf-8"?>
<svg version="1.1" xmlns:xlink="http://www.w3.org/1999/xlink" width="22px" height="22px" preserveAspectRatio="xMinYMid meet" viewBox="1430 1051  22 20" xmlns="http://www.w3.org/2000/svg">
  <g transform="matrix(0.990268068741574 -0.13917310096007 0.139173100960059 0.990268068741574 -133.638947175231 210.87401754865 )">
    <path d="M 1442.9 1065.8  L 1439 1069.5  L 1442.9 1073.2  L 1446.7 1069.5  L 1442.9 1065.8  Z M 1442.9 1071.8  L 1440.4 1069.5  L 1442.9 1067.2  L 1445.3 1069.5  L 1442.9 1071.8  Z M 1558.1 1073.2  L 1562 1069.5  L 1558.1 1065.8  L 1554.3 1069.5  L 1558.1 1073.2  Z M 1558.1 1067.2  L 1560.6 1069.5  L 1558.1 1071.8  L 1555.7 1069.5  L 1558.1 1067.2  Z " fill-rule="nonzero" fill="#d9001b" stroke="none" transform="matrix(0.989811837542685 0.142381621919314 -0.142381621919314 0.989811837542685 167.564482409908 -202.747383941831 )" />
    <path d="M 1445 1069.5  L 1556 1069.5  " stroke-width="1" stroke="#d9001b" fill="none" transform="matrix(0.989811837542685 0.142381621919314 -0.142381621919314 0.989811837542685 167.564482409908 -202.747383941831 )" />
  </g>
</svg>