<?xml version="1.0" encoding="utf-8"?>
<svg version="1.1" xmlns:xlink="http://www.w3.org/1999/xlink" width="122px" height="110px" xmlns="http://www.w3.org/2000/svg">
  <g transform="matrix(1 0 0 1 -399 -1038 )">
    <path d="M 399 1038  L 521 1038  L 521 1148  L 399 1148  L 399 1038  " fill-rule="nonzero" fill="#cccccc" stroke="none" />
    <path d="M 407 1046  L 513 1046  L 513 1140  L 407 1140  L 407 1046  " fill-rule="nonzero" fill="#ffffff" stroke="none" />
    <path d="M 470.69 1071  C 466.07 1071  462.44 1067.37  462.44 1062.75  C 462.44 1058.13  466.07 1054.5  470.69 1054.5  C 475.31 1054.5  478.94 1058.13  478.94 1062.75  C 478.94 1067.37  475.31 1071  470.69 1071  " fill-rule="nonzero" fill="#cccccc" stroke="none" />
    <path d="M 410 1137  L 410 1088.6  L 435 1066.6  L 470 1089.39344262295  L 490 1079.8  L 510 1089.39344262295  L 510 1137  L 410 1137  " fill-rule="nonzero" fill="#169bd5" stroke="none" />
  </g>
</svg>