<?xml version="1.0" encoding="utf-8"?>
<svg version="1.1" xmlns:xlink="http://www.w3.org/1999/xlink" width="25px" height="20px" xmlns="http://www.w3.org/2000/svg">
  <g transform="matrix(1 0 0 1 -491 -1042 )">
    <path d="M 503.5 1042  C 510.5 1042  516 1046.4  516 1052  C 516 1057.6  510.5 1062  503.5 1062  C 496.5 1062  491 1057.6  491 1052  C 491 1046.4  496.5 1042  503.5 1042  Z " fill-rule="nonzero" fill="#ffffff" stroke="none" />
    <path d="M 503.5 1042.5  C 510.22 1042.5  515.5 1046.68  515.5 1052  C 515.5 1057.32  510.22 1061.5  503.5 1061.5  C 496.78 1061.5  491.5 1057.32  491.5 1052  C 491.5 1046.68  496.78 1042.5  503.5 1042.5  Z " stroke-width="1" stroke="#797979" fill="none" />
  </g>
</svg>