<?xml version="1.0" encoding="utf-8"?>
<svg version="1.1" xmlns:xlink="http://www.w3.org/1999/xlink" width="806px" height="18px" preserveAspectRatio="xMinYMid meet" viewBox="1190 317  806 16" xmlns="http://www.w3.org/2000/svg">
  <g transform="matrix(0.981627183447665 0.190808995376544 -0.19080899537654 0.981627183447661 91.2808202652457 -297.987564255325 )">
    <path d="M 1202.9 321.8  L 1199 325.5  L 1202.9 329.2  L 1206.7 325.5  L 1202.9 321.8  Z M 1202.9 327.8  L 1200.4 325.5  L 1202.9 323.2  L 1205.3 325.5  L 1202.9 327.8  Z M 1984.1 329.2  L 1988 325.5  L 1984.1 321.8  L 1980.3 325.5  L 1984.1 329.2  Z M 1984.1 323.2  L 1986.6 325.5  L 1984.1 327.8  L 1981.7 325.5  L 1984.1 323.2  Z " fill-rule="nonzero" fill="#d9001b" stroke="none" transform="matrix(0.98010449321953 -0.19848219660939 0.19848219660939 0.98010449321953 -32.9024649416774 322.757367754106 )" />
    <path d="M 1205 325.5  L 1982 325.5  " stroke-width="1" stroke="#d9001b" fill="none" transform="matrix(0.98010449321953 -0.19848219660939 0.19848219660939 0.98010449321953 -32.9024649416774 322.757367754106 )" />
  </g>
</svg>