<?xml version="1.0" encoding="utf-8"?>
<svg version="1.1" xmlns:xlink="http://www.w3.org/1999/xlink" width="22px" height="20px" preserveAspectRatio="xMinYMid meet" viewBox="1968 115  22 18" xmlns="http://www.w3.org/2000/svg">
  <g transform="matrix(-0.998629534754572 -0.0523359562429432 0.0523359562429391 -0.998629534754575 3948.79819070517 351.402919714352 )">
    <path d="M 988.9 144.8  L 985 148.5  L 988.9 152.2  L 992.7 148.5  L 988.9 144.8  Z M 988.9 150.8  L 986.4 148.5  L 988.9 146.2  L 991.3 148.5  L 988.9 150.8  Z M 1977.1 152.2  L 1981 148.5  L 1977.1 144.8  L 1973.3 148.5  L 1977.1 152.2  Z M 1977.1 146.2  L 1979.6 148.5  L 1977.1 150.8  L 1974.7 148.5  L 1977.1 146.2  Z " fill-rule="nonzero" fill="#d9001b" stroke="none" transform="matrix(0.998816953835623 -0.0486281063843353 0.0486281063843353 0.998816953835623 -5.46681633630328 72.2911641233792 )" />
    <path d="M 991 148.5  L 1975 148.5  " stroke-width="1" stroke="#d9001b" fill="none" transform="matrix(0.998816953835623 -0.0486281063843353 0.0486281063843353 0.998816953835623 -5.46681633630328 72.2911641233792 )" />
  </g>
</svg>