<?xml version="1.0" encoding="utf-8"?>
<svg version="1.1" xmlns:xlink="http://www.w3.org/1999/xlink" width="45px" height="45px" xmlns="http://www.w3.org/2000/svg">
  <g transform="matrix(1 0 0 1 -351 -900 )">
    <path d="M 373.5 900  C 386.1 900  396 909.9  396 922.5  C 396 935.1  386.1 945  373.5 945  C 360.9 945  351 935.1  351 922.5  C 351 909.9  360.9 900  373.5 900  Z " fill-rule="nonzero" fill="#ffffff" stroke="none" />
    <path d="M 373.5 900.5  C 385.82 900.5  395.5 910.18  395.5 922.5  C 395.5 934.82  385.82 944.5  373.5 944.5  C 361.18 944.5  351.5 934.82  351.5 922.5  C 351.5 910.18  361.18 900.5  373.5 900.5  Z " stroke-width="1" stroke="#797979" fill="none" />
  </g>
</svg>