<?xml version="1.0" encoding="utf-8"?>
<svg version="1.1" xmlns:xlink="http://www.w3.org/1999/xlink" width="220px" height="6px" preserveAspectRatio="xMinYMid meet" viewBox="160 795  220 4" xmlns="http://www.w3.org/2000/svg">
  <g transform="matrix(0.573576436351051 0.819152044289005 -0.819152044288988 0.573576436351055 767.998541483539 118.688528270177 )">
    <path d="M 166.9 792.8  L 163 796.5  L 166.9 800.2  L 170.7 796.5  L 166.9 792.8  Z M 166.9 798.8  L 164.4 796.5  L 166.9 794.2  L 169.3 796.5  L 166.9 798.8  Z M 373.1 800.2  L 377 796.5  L 373.1 792.8  L 369.3 796.5  L 373.1 800.2  Z M 373.1 794.2  L 375.6 796.5  L 373.1 798.8  L 370.7 796.5  L 373.1 794.2  Z " fill-rule="nonzero" fill="#d9001b" stroke="none" transform="matrix(0.570542785970614 -0.821267879182481 0.821267879182481 0.570542785970614 -538.186417980912 563.804998353675 )" />
    <path d="M 169 796.5  L 371 796.5  " stroke-width="1" stroke="#d9001b" fill="none" transform="matrix(0.570542785970614 -0.821267879182481 0.821267879182481 0.570542785970614 -538.186417980912 563.804998353675 )" />
  </g>
</svg>