<?xml version="1.0" encoding="utf-8"?>
<svg version="1.1" xmlns:xlink="http://www.w3.org/1999/xlink" width="24px" height="20px" preserveAspectRatio="xMinYMid meet" viewBox="318 701  24 18" xmlns="http://www.w3.org/2000/svg">
  <g transform="matrix(-0.573576436351045 -0.819152044288994 0.819152044288991 -0.573576436351048 -62.3177274493386 1387.55944442461 )">
    <path d="M 166.9 792.8  L 163 796.5  L 166.9 800.2  L 170.7 796.5  L 166.9 792.8  Z M 166.9 798.8  L 164.4 796.5  L 166.9 794.2  L 169.3 796.5  L 166.9 798.8  Z M 373.1 800.2  L 377 796.5  L 373.1 792.8  L 369.3 796.5  L 373.1 800.2  Z M 373.1 794.2  L 375.6 796.5  L 373.1 798.8  L 370.7 796.5  L 373.1 794.2  Z " fill-rule="nonzero" fill="#d9001b" stroke="none" transform="matrix(0.570542785970614 -0.821267879182481 0.821267879182481 0.570542785970614 -538.186417980912 563.804998353675 )" />
    <path d="M 169 796.5  L 371 796.5  " stroke-width="1" stroke="#d9001b" fill="none" transform="matrix(0.570542785970614 -0.821267879182481 0.821267879182481 0.570542785970614 -538.186417980912 563.804998353675 )" />
  </g>
</svg>