<?xml version="1.0" encoding="utf-8"?>
<svg version="1.1" xmlns:xlink="http://www.w3.org/1999/xlink" width="26px" height="28px" xmlns="http://www.w3.org/2000/svg">
  <g transform="matrix(1 0 0 1 -1631 -327 )">
    <path d="M 1644 327  C 1651.28 327  1657 333.16  1657 341  C 1657 348.84  1651.28 355  1644 355  C 1636.72 355  1631 348.84  1631 341  C 1631 333.16  1636.72 327  1644 327  Z " fill-rule="nonzero" fill="#ffffff" stroke="none" />
    <path d="M 1644 327.5  C 1651 327.5  1656.5 333.44  1656.5 341  C 1656.5 348.56  1651 354.5  1644 354.5  C 1637 354.5  1631.5 348.56  1631.5 341  C 1631.5 333.44  1637 327.5  1644 327.5  Z " stroke-width="1" stroke="#797979" fill="none" />
  </g>
</svg>