<?xml version="1.0" encoding="utf-8"?>
<svg version="1.1" xmlns:xlink="http://www.w3.org/1999/xlink" width="12px" height="12px" viewBox="596 1003.5  12 12" xmlns="http://www.w3.org/2000/svg">
  <path d="M 602 1003.5  C 605.36 1003.5  608 1006.14  608 1009.5  C 608 1012.86  605.36 1015.5  602 1015.5  C 598.64 1015.5  596 1012.86  596 1009.5  C 596 1006.14  598.64 1003.5  602 1003.5  Z " fill-rule="nonzero" fill="#f0f0f0" stroke="none" />
  <path d="M 602 1004  C 605.08 1004  607.5 1006.42  607.5 1009.5  C 607.5 1012.58  605.08 1015  602 1015  C 598.92 1015  596.5 1012.58  596.5 1009.5  C 596.5 1006.42  598.92 1004  602 1004  Z " stroke-width="1" stroke="#797979" fill="none" />
  <path d="M 602 1012.5  C 600.32 1012.5  599 1011.18  599 1009.5  C 599 1007.82  600.32 1006.5  602 1006.5  C 603.68 1006.5  605 1007.82  605 1009.5  C 605 1011.18  603.68 1012.5  602 1012.5  " fill-rule="nonzero" fill="#797979" stroke="none" />
</svg>