<?xml version="1.0" encoding="utf-8"?>
<svg version="1.1" xmlns:xlink="http://www.w3.org/1999/xlink" width="12px" height="12px" viewBox="710 971.5  12 12" xmlns="http://www.w3.org/2000/svg">
  <path d="M 716 971.5  C 719.36 971.5  722 974.14  722 977.5  C 722 980.86  719.36 983.5  716 983.5  C 712.64 983.5  710 980.86  710 977.5  C 710 974.14  712.64 971.5  716 971.5  Z " fill-rule="nonzero" fill="#ffffff" stroke="none" />
  <path d="M 716 972  C 719.08 972  721.5 974.42  721.5 977.5  C 721.5 980.58  719.08 983  716 983  C 712.92 983  710.5 980.58  710.5 977.5  C 710.5 974.42  712.92 972  716 972  Z " stroke-width="1" stroke="#797979" fill="none" />
  <path d="M 716 980.5  C 714.32 980.5  713 979.18  713 977.5  C 713 975.82  714.32 974.5  716 974.5  C 717.68 974.5  719 975.82  719 977.5  C 719 979.18  717.68 980.5  716 980.5  " fill-rule="nonzero" fill="#797979" stroke="none" />
</svg>