<?xml version="1.0" encoding="utf-8"?>
<svg version="1.1" xmlns:xlink="http://www.w3.org/1999/xlink" width="24px" height="22px" preserveAspectRatio="xMinYMid meet" viewBox="614 765  24 20" xmlns="http://www.w3.org/2000/svg">
  <g transform="matrix(0.601815023152045 -0.798635510047293 0.798635510047298 0.601815023152049 -369.678724779836 808.539186346768 )">
    <path d="M 550.9 928.8  L 547 932.5  L 550.9 936.2  L 554.7 932.5  L 550.9 928.8  Z M 550.9 934.8  L 548.4 932.5  L 550.9 930.2  L 553.3 932.5  L 550.9 934.8  Z M 942.1 936.2  L 946 932.5  L 942.1 928.8  L 938.3 932.5  L 942.1 936.2  Z M 942.1 930.2  L 944.6 932.5  L 942.1 934.8  L 939.7 932.5  L 942.1 930.2  Z " fill-rule="nonzero" fill="#d9001b" stroke="none" transform="matrix(0.607499987146845 0.794319687290063 -0.794319687290063 0.607499987146845 1033.70436799286 -226.953384576465 )" />
    <path d="M 553 932.5  L 940 932.5  " stroke-width="1" stroke="#d9001b" fill="none" transform="matrix(0.607499987146845 0.794319687290063 -0.794319687290063 0.607499987146845 1033.70436799286 -226.953384576465 )" />
  </g>
</svg>