<?xml version="1.0" encoding="utf-8"?>
<svg version="1.1" xmlns:xlink="http://www.w3.org/1999/xlink" width="24px" height="20px" preserveAspectRatio="xMinYMid meet" viewBox="142 767  24 18" xmlns="http://www.w3.org/2000/svg">
  <g transform="matrix(0.601815023152048 -0.798635510047294 0.798635510047294 0.601815023152052 -558.420669362116 431.981410581291 )">
    <path d="M 78.9 929.8  L 75 933.5  L 78.9 937.2  L 82.7 933.5  L 78.9 929.8  Z M 78.9 935.8  L 76.4 933.5  L 78.9 931.2  L 81.3 933.5  L 78.9 935.8  Z M 470.1 937.2  L 474 933.5  L 470.1 929.8  L 466.3 933.5  L 470.1 937.2  Z M 470.1 931.2  L 472.6 933.5  L 470.1 935.8  L 467.7 933.5  L 470.1 931.2  Z " fill-rule="nonzero" fill="#d9001b" stroke="none" transform="matrix(0.607499987146845 0.794319687290063 -0.794319687290063 0.607499987146845 849.238681613465 148.358007837298 )" />
    <path d="M 81 933.5  L 468 933.5  " stroke-width="1" stroke="#d9001b" fill="none" transform="matrix(0.607499987146845 0.794319687290063 -0.794319687290063 0.607499987146845 849.238681613465 148.358007837298 )" />
  </g>
</svg>