<?xml version="1.0" encoding="utf-8"?>
<svg version="1.1" xmlns:xlink="http://www.w3.org/1999/xlink" width="22px" height="20px" preserveAspectRatio="xMinYMid meet" viewBox="856 1081  22 18" xmlns="http://www.w3.org/2000/svg">
  <g transform="matrix(-0.601815023152057 0.798635510047289 -0.798635510047283 -0.601815023152043 2259.28633102437 1053.56138802473 )">
    <path d="M 550.9 928.8  L 547 932.5  L 550.9 936.2  L 554.7 932.5  L 550.9 928.8  Z M 550.9 934.8  L 548.4 932.5  L 550.9 930.2  L 553.3 932.5  L 550.9 934.8  Z M 942.1 936.2  L 946 932.5  L 942.1 928.8  L 938.3 932.5  L 942.1 936.2  Z M 942.1 930.2  L 944.6 932.5  L 942.1 934.8  L 939.7 932.5  L 942.1 930.2  Z " fill-rule="nonzero" fill="#d9001b" stroke="none" transform="matrix(0.607499987146845 0.794319687290063 -0.794319687290063 0.607499987146845 1033.70436799286 -226.953384576465 )" />
    <path d="M 553 932.5  L 940 932.5  " stroke-width="1" stroke="#d9001b" fill="none" transform="matrix(0.607499987146845 0.794319687290063 -0.794319687290063 0.607499987146845 1033.70436799286 -226.953384576465 )" />
  </g>
</svg>