<?xml version="1.0" encoding="utf-8"?>
<svg version="1.1" xmlns:xlink="http://www.w3.org/1999/xlink" width="24px" height="20px" preserveAspectRatio="xMinYMid meet" viewBox="1008 767  24 18" xmlns="http://www.w3.org/2000/svg">
  <g transform="matrix(0.601815023152052 -0.798635510047293 0.798635510047293 0.601815023152049 -213.592479411793 1123.59976228225 )">
    <path d="M 944.9 929.8  L 941 933.5  L 944.9 937.2  L 948.7 933.5  L 944.9 929.8  Z M 944.9 935.8  L 942.4 933.5  L 944.9 931.2  L 947.3 933.5  L 944.9 935.8  Z M 1336.1 937.2  L 1340 933.5  L 1336.1 929.8  L 1332.3 933.5  L 1336.1 937.2  Z M 1336.1 931.2  L 1338.6 933.5  L 1336.1 935.8  L 1333.7 933.5  L 1336.1 931.2  Z " fill-rule="nonzero" fill="#d9001b" stroke="none" transform="matrix(0.607499987146845 0.794319687290063 -0.794319687290063 0.607499987146845 1189.1436927443 -539.522841355897 )" />
    <path d="M 947 933.5  L 1334 933.5  " stroke-width="1" stroke="#d9001b" fill="none" transform="matrix(0.607499987146845 0.794319687290063 -0.794319687290063 0.607499987146845 1189.1436927443 -539.522841355897 )" />
  </g>
</svg>