<?xml version="1.0" encoding="utf-8"?>
<svg version="1.1" xmlns:xlink="http://www.w3.org/1999/xlink" width="452px" height="6px" preserveAspectRatio="xMinYMid meet" viewBox="1308 971  452 4" xmlns="http://www.w3.org/2000/svg">
  <g transform="matrix(0.453990499739544 -0.891006524188381 0.891006524188369 0.453990499739553 -29.3707746357443 1898.07125185839 )">
    <path d="M 1313.9 969.8  L 1310 973.5  L 1313.9 977.2  L 1317.7 973.5  L 1313.9 969.8  Z M 1313.9 975.8  L 1311.4 973.5  L 1313.9 971.2  L 1316.3 973.5  L 1313.9 975.8  Z M 1753.1 977.2  L 1757 973.5  L 1753.1 969.8  L 1749.3 973.5  L 1753.1 977.2  Z M 1753.1 971.2  L 1755.6 973.5  L 1753.1 975.8  L 1750.7 973.5  L 1753.1 971.2  Z " fill-rule="nonzero" fill="#d9001b" stroke="none" transform="matrix(0.454622340567224 0.890684302913877 -0.890684302913877 0.454622340567224 1703.41780962682 -834.939227060623 )" />
    <path d="M 1316 973.5  L 1751 973.5  " stroke-width="1" stroke="#d9001b" fill="none" transform="matrix(0.454622340567224 0.890684302913877 -0.890684302913877 0.454622340567224 1703.41780962682 -834.939227060623 )" />
  </g>
</svg>