<?xml version="1.0" encoding="utf-8"?>
<svg version="1.1" xmlns:xlink="http://www.w3.org/1999/xlink" width="22px" height="22px" preserveAspectRatio="xMinYMid meet" viewBox="1992 537  22 20" xmlns="http://www.w3.org/2000/svg">
  <g transform="matrix(-0.997564050259823 0.0697564737441262 -0.0697564737441262 -0.997564050259823 4039.27758380846 952.945318582638 )">
    <path d="M 713.9 501.8  L 710 505.5  L 713.9 509.2  L 717.7 505.5  L 713.9 501.8  Z M 713.9 507.8  L 711.4 505.5  L 713.9 503.2  L 716.3 505.5  L 713.9 507.8  Z M 2002.1 509.2  L 2006 505.5  L 2002.1 501.8  L 1998.3 505.5  L 2002.1 509.2  Z M 2002.1 503.2  L 2004.6 505.5  L 2002.1 507.8  L 1999.7 505.5  L 2002.1 503.2  Z " fill-rule="nonzero" fill="#d9001b" stroke="none" transform="matrix(0.997896456455296 0.0648279430027108 -0.0648279430027108 0.997896456455296 35.6271373215777 -86.9730053358336 )" />
    <path d="M 716 505.5  L 2000 505.5  " stroke-width="1" stroke="#d9001b" fill="none" transform="matrix(0.997896456455296 0.0648279430027108 -0.0648279430027108 0.997896456455296 35.6271373215777 -86.9730053358336 )" />
  </g>
</svg>