<?xml version="1.0" encoding="utf-8"?>
<svg version="1.1" xmlns:xlink="http://www.w3.org/1999/xlink" width="382px" height="6px" preserveAspectRatio="xMinYMid meet" viewBox="264 363  382 4" xmlns="http://www.w3.org/2000/svg">
  <g transform="matrix(0.913545457642604 0.406736643075796 -0.406736643075794 0.913545457642592 187.79569149528 -153.509264639033 )">
    <path d="M 269.9 361.8  L 266 365.5  L 269.9 369.2  L 273.7 365.5  L 269.9 361.8  Z M 269.9 367.8  L 267.4 365.5  L 269.9 363.2  L 272.3 365.5  L 269.9 367.8  Z M 640.1 369.2  L 644 365.5  L 640.1 361.8  L 636.3 365.5  L 640.1 369.2  Z M 640.1 363.2  L 642.6 365.5  L 640.1 367.8  L 637.7 365.5  L 640.1 363.2  Z " fill-rule="nonzero" fill="#d9001b" stroke="none" transform="matrix(0.912714113614876 -0.408598760164799 0.408598760164799 0.912714113614876 -109.627768535003 217.815427348746 )" />
    <path d="M 272 365.5  L 638 365.5  " stroke-width="1" stroke="#d9001b" fill="none" transform="matrix(0.912714113614876 -0.408598760164799 0.408598760164799 0.912714113614876 -109.627768535003 217.815427348746 )" />
  </g>
</svg>