<?xml version="1.0" encoding="utf-8"?>
<svg version="1.1" xmlns:xlink="http://www.w3.org/1999/xlink" width="27px" height="27px" xmlns="http://www.w3.org/2000/svg">
  <g transform="matrix(1 0 0 1 -739 -477 )">
    <path d="M 752.5 477  C 760.06 477  766 482.94  766 490.5  C 766 498.06  760.06 504  752.5 504  C 744.94 504  739 498.06  739 490.5  C 739 482.94  744.94 477  752.5 477  Z " fill-rule="nonzero" fill="#ffffff" stroke="none" />
    <path d="M 752.5 477.5  C 759.78 477.5  765.5 483.22  765.5 490.5  C 765.5 497.78  759.78 503.5  752.5 503.5  C 745.22 503.5  739.5 497.78  739.5 490.5  C 739.5 483.22  745.22 477.5  752.5 477.5  Z " stroke-width="1" stroke="#797979" fill="none" />
  </g>
</svg>