<?xml version="1.0" encoding="utf-8"?>
<svg version="1.1" xmlns:xlink="http://www.w3.org/1999/xlink" width="876px" height="18px" preserveAspectRatio="xMinYMid meet" viewBox="1162 339  876 16" xmlns="http://www.w3.org/2000/svg">
  <g transform="matrix(0.970295726275997 -0.241921895599667 0.241921895599666 0.970295726275995 -36.420059814679 397.382415941698 )">
    <path d="M 1174.9 343.8  L 1171 347.5  L 1174.9 351.2  L 1178.7 347.5  L 1174.9 343.8  Z M 1174.9 349.8  L 1172.4 347.5  L 1174.9 345.2  L 1177.3 347.5  L 1174.9 349.8  Z M 2025.1 351.2  L 2029 347.5  L 2025.1 343.8  L 2021.3 347.5  L 2025.1 351.2  Z M 2025.1 345.2  L 2027.6 347.5  L 2025.1 349.8  L 2022.7 347.5  L 2025.1 345.2  Z " fill-rule="nonzero" fill="#d9001b" stroke="none" transform="matrix(0.968305130537768 0.249770242771703 -0.249770242771703 0.968305130537768 137.506950502737 -388.618421296599 )" />
    <path d="M 1177 347.5  L 2023 347.5  " stroke-width="1" stroke="#d9001b" fill="none" transform="matrix(0.968305130537768 0.249770242771703 -0.249770242771703 0.968305130537768 137.506950502737 -388.618421296599 )" />
  </g>
</svg>