<?xml version="1.0" encoding="utf-8"?>
<svg version="1.1" xmlns:xlink="http://www.w3.org/1999/xlink" width="24px" height="22px" preserveAspectRatio="xMinYMid meet" viewBox="2002 445  24 20" xmlns="http://www.w3.org/2000/svg">
  <g transform="matrix(-0.970295726275998 0.24192189559967 -0.241921895599676 -0.970295726275993 4078.25005521771 409.253857717843 )">
    <path d="M 1174.9 343.8  L 1171 347.5  L 1174.9 351.2  L 1178.7 347.5  L 1174.9 343.8  Z M 1174.9 349.8  L 1172.4 347.5  L 1174.9 345.2  L 1177.3 347.5  L 1174.9 349.8  Z M 2025.1 351.2  L 2029 347.5  L 2025.1 343.8  L 2021.3 347.5  L 2025.1 351.2  Z M 2025.1 345.2  L 2027.6 347.5  L 2025.1 349.8  L 2022.7 347.5  L 2025.1 345.2  Z " fill-rule="nonzero" fill="#d9001b" stroke="none" transform="matrix(0.968305130537768 0.249770242771703 -0.249770242771703 0.968305130537768 137.506950502737 -388.618421296599 )" />
    <path d="M 1177 347.5  L 2023 347.5  " stroke-width="1" stroke="#d9001b" fill="none" transform="matrix(0.968305130537768 0.249770242771703 -0.249770242771703 0.968305130537768 137.506950502737 -388.618421296599 )" />
  </g>
</svg>