<?xml version="1.0" encoding="utf-8"?>
<svg version="1.1" xmlns:xlink="http://www.w3.org/1999/xlink" width="12px" height="12px" viewBox="101 504  12 12" xmlns="http://www.w3.org/2000/svg">
  <path d="M 107 504  C 110.36 504  113 506.64  113 510  C 113 513.36  110.36 516  107 516  C 103.64 516  101 513.36  101 510  C 101 506.64  103.64 504  107 504  Z " fill-rule="nonzero" fill="#ffffff" stroke="none" />
  <path d="M 107 504.5  C 110.08 504.5  112.5 506.92  112.5 510  C 112.5 513.08  110.08 515.5  107 515.5  C 103.92 515.5  101.5 513.08  101.5 510  C 101.5 506.92  103.92 504.5  107 504.5  Z " stroke-width="1" stroke="#797979" fill="none" />
  <path d="M 107 513  C 105.32 513  104 511.68  104 510  C 104 508.32  105.32 507  107 507  C 108.68 507  110 508.32  110 510  C 110 511.68  108.68 513  107 513  " fill-rule="nonzero" fill="#797979" stroke="none" />
</svg>