<?xml version="1.0" encoding="utf-8"?>
<svg version="1.1" xmlns:xlink="http://www.w3.org/1999/xlink" width="12px" height="12px" viewBox="101 729  12 12" xmlns="http://www.w3.org/2000/svg">
  <path d="M 107 729  C 110.36 729  113 731.64  113 735  C 113 738.36  110.36 741  107 741  C 103.64 741  101 738.36  101 735  C 101 731.64  103.64 729  107 729  Z " fill-rule="nonzero" fill="#ffffff" stroke="none" />
  <path d="M 107 729.5  C 110.08 729.5  112.5 731.92  112.5 735  C 112.5 738.08  110.08 740.5  107 740.5  C 103.92 740.5  101.5 738.08  101.5 735  C 101.5 731.92  103.92 729.5  107 729.5  Z " stroke-width="1" stroke="#797979" fill="none" />
  <path d="M 107 738  C 105.32 738  104 736.68  104 735  C 104 733.32  105.32 732  107 732  C 108.68 732  110 733.32  110 735  C 110 736.68  108.68 738  107 738  " fill-rule="nonzero" fill="#797979" stroke="none" />
</svg>