<?xml version="1.0" encoding="utf-8"?>
<svg version="1.1" xmlns:xlink="http://www.w3.org/1999/xlink" width="1526px" height="26px" preserveAspectRatio="xMinYMid meet" viewBox="486 859  1526 24" xmlns="http://www.w3.org/2000/svg">
  <g transform="matrix(0.997564050259825 0.0697564737441255 -0.0697564737441214 0.997564050259828 63.8003898566089 -85.0041234827229 )">
    <path d="M 502.9 866.8  L 499 870.5  L 502.9 874.2  L 506.7 870.5  L 502.9 866.8  Z M 502.9 872.8  L 500.4 870.5  L 502.9 868.2  L 505.3 870.5  L 502.9 872.8  Z M 1995.1 874.2  L 1999 870.5  L 1995.1 866.8  L 1991.3 870.5  L 1995.1 874.2  Z M 1995.1 868.2  L 1997.6 870.5  L 1995.1 872.8  L 1992.7 870.5  L 1995.1 868.2  Z " fill-rule="nonzero" fill="#d9001b" stroke="none" transform="matrix(0.997018983637338 -0.0771566346257347 0.0771566346257347 0.997018983637338 -63.4415610047377 98.9636113912397 )" />
    <path d="M 505 870.5  L 1993 870.5  " stroke-width="1" stroke="#d9001b" fill="none" transform="matrix(0.997018983637338 -0.0771566346257347 0.0771566346257347 0.997018983637338 -63.4415610047377 98.9636113912397 )" />
  </g>
</svg>