<?xml version="1.0" encoding="utf-8"?>
<svg version="1.1" xmlns:xlink="http://www.w3.org/1999/xlink" width="22px" height="20px" preserveAspectRatio="xMinYMid meet" viewBox="376 411  22 18" xmlns="http://www.w3.org/2000/svg">
  <g transform="matrix(0.998629534754572 -0.0523359562429458 0.0523359562429447 0.998629534754574 -21.4507315720561 20.829610469099 )">
    <path d="M 388.9 453.8  L 385 457.5  L 388.9 461.2  L 392.7 457.5  L 388.9 453.8  Z M 388.9 459.8  L 386.4 457.5  L 388.9 455.2  L 391.3 457.5  L 388.9 459.8  Z M 2021.1 461.2  L 2025 457.5  L 2021.1 453.8  L 2017.3 457.5  L 2021.1 461.2  Z M 2021.1 455.2  L 2023.6 457.5  L 2021.1 459.8  L 2018.7 457.5  L 2021.1 455.2  Z " fill-rule="nonzero" fill="#d9001b" stroke="none" transform="matrix(0.998950022143789 0.0458132432700892 -0.0458132432700892 0.998950022143789 22.2247821128005 -54.7245932712408 )" />
    <path d="M 391 457.5  L 2019 457.5  " stroke-width="1" stroke="#d9001b" fill="none" transform="matrix(0.998950022143789 0.0458132432700892 -0.0458132432700892 0.998950022143789 22.2247821128005 -54.7245932712408 )" />
  </g>
</svg>