<?xml version="1.0" encoding="utf-8"?>
<svg version="1.1" xmlns:xlink="http://www.w3.org/1999/xlink" width="592px" height="14px" preserveAspectRatio="xMinYMid meet" viewBox="1452 1063  592 12" xmlns="http://www.w3.org/2000/svg">
  <path d="M 1461 1066.5  A 3 3 0 0 0 1458 1069.5 A 3 3 0 0 0 1461 1072.5 A 3 3 0 0 0 1464 1069.5 A 3 3 0 0 0 1461 1066.5 Z M 2034 1066.5  A 3 3 0 0 0 2031 1069.5 A 3 3 0 0 0 2034 1072.5 A 3 3 0 0 0 2037 1069.5 A 3 3 0 0 0 2034 1066.5 Z " fill-rule="nonzero" fill="#d9001b" stroke="none" transform="matrix(0.999972966343966 0.00735299811301436 -0.00735299811301436 0.999972966343966 7.91127279578859 -12.8204517073639 )" />
  <path d="M 1459 1069.5  L 2036 1069.5  " stroke-width="1" stroke="#d9001b" fill="none" transform="matrix(0.999972966343966 0.00735299811301436 -0.00735299811301436 0.999972966343966 7.91127279578859 -12.8204517073639 )" />
</svg>