<?xml version="1.0" encoding="utf-8"?>
<svg version="1.1" xmlns:xlink="http://www.w3.org/1999/xlink" width="12px" height="12px" viewBox="2206 1375.5  12 12" xmlns="http://www.w3.org/2000/svg">
  <path d="M 2212 1375.5  C 2215.36 1375.5  2218 1378.14  2218 1381.5  C 2218 1384.86  2215.36 1387.5  2212 1387.5  C 2208.64 1387.5  2206 1384.86  2206 1381.5  C 2206 1378.14  2208.64 1375.5  2212 1375.5  Z " fill-rule="nonzero" fill="#ffffff" stroke="none" />
  <path d="M 2212 1376  C 2215.08 1376  2217.5 1378.42  2217.5 1381.5  C 2217.5 1384.58  2215.08 1387  2212 1387  C 2208.92 1387  2206.5 1384.58  2206.5 1381.5  C 2206.5 1378.42  2208.92 1376  2212 1376  Z " stroke-width="1" stroke="#797979" fill="none" />
  <path d="M 2212 1384.5  C 2210.32 1384.5  2209 1383.18  2209 1381.5  C 2209 1379.82  2210.32 1378.5  2212 1378.5  C 2213.68 1378.5  2215 1379.82  2215 1381.5  C 2215 1383.18  2213.68 1384.5  2212 1384.5  " fill-rule="nonzero" fill="#797979" stroke="none" />
</svg>