<?xml version="1.0" encoding="utf-8"?>
<svg version="1.1" xmlns:xlink="http://www.w3.org/1999/xlink" width="22px" height="22px" preserveAspectRatio="xMinYMid meet" viewBox="1444 1837  22 20" xmlns="http://www.w3.org/2000/svg">
  <path d="M 1454 1846.5  A 3 3 0 0 0 1451 1849.5 A 3 3 0 0 0 1454 1852.5 A 3 3 0 0 0 1457 1849.5 A 3 3 0 0 0 1454 1846.5 Z M 2027 1846.5  A 3 3 0 0 0 2024 1849.5 A 3 3 0 0 0 2027 1852.5 A 3 3 0 0 0 2030 1849.5 A 3 3 0 0 0 2027 1846.5 Z " fill-rule="nonzero" fill="#d9001b" stroke="none" transform="matrix(0.999972966343966 0.00735299811301436 -0.00735299811301436 0.999972966343966 13.6464220883477 -12.747894468866 )" />
  <path d="M 1452 1849.5  L 2029 1849.5  " stroke-width="1" stroke="#d9001b" fill="none" transform="matrix(0.999972966343966 0.00735299811301436 -0.00735299811301436 0.999972966343966 13.6464220883477 -12.747894468866 )" />
</svg>