<?xml version="1.0" encoding="utf-8"?>
<svg version="1.1" xmlns:xlink="http://www.w3.org/1999/xlink" width="748px" height="19px" xmlns="http://www.w3.org/2000/svg">
  <g transform="matrix(1 0 0 1 -978 -270 )">
    <path d="M 990 276.5  A 3 3 0 0 0 987 279.5 A 3 3 0 0 0 990 282.5 A 3 3 0 0 0 993 279.5 A 3 3 0 0 0 990 276.5 Z M 1714 276.5  A 3 3 0 0 0 1711 279.5 A 3 3 0 0 0 1714 282.5 A 3 3 0 0 0 1717 279.5 A 3 3 0 0 0 1714 276.5 Z " fill-rule="nonzero" fill="#d9001b" stroke="none" />
    <path d="M 988 279.5  L 1716 279.5  " stroke-width="1" stroke="#d9001b" fill="none" />
  </g>
</svg>