<?xml version="1.0" encoding="utf-8"?>
<svg version="1.1" xmlns:xlink="http://www.w3.org/1999/xlink" width="736px" height="6px" preserveAspectRatio="xMinYMid meet" viewBox="984 493  736 4" xmlns="http://www.w3.org/2000/svg">
  <path d="M 990 492.5  A 3 3 0 0 0 987 495.5 A 3 3 0 0 0 990 498.5 A 3 3 0 0 0 993 495.5 A 3 3 0 0 0 990 492.5 Z M 1714 492.5  A 3 3 0 0 0 1711 495.5 A 3 3 0 0 0 1714 498.5 A 3 3 0 0 0 1717 495.5 A 3 3 0 0 0 1714 492.5 Z " fill-rule="nonzero" fill="#d9001b" stroke="none" transform="matrix(0.999999056576628 -0.00137362507771515 0.00137362507771515 0.999999056576628 -0.679355717608814 1.85760857135176 )" />
  <path d="M 988 495.5  L 1716 495.5  " stroke-width="1" stroke="#d9001b" fill="none" transform="matrix(0.999999056576628 -0.00137362507771515 0.00137362507771515 0.999999056576628 -0.679355717608814 1.85760857135176 )" />
</svg>