<?xml version="1.0" encoding="utf-8"?>
<svg version="1.1" xmlns:xlink="http://www.w3.org/1999/xlink" width="22px" height="20px" preserveAspectRatio="xMinYMid meet" viewBox="980 361  22 18" xmlns="http://www.w3.org/2000/svg">
  <path d="M 990 366.5  A 3 3 0 0 0 987 369.5 A 3 3 0 0 0 990 372.5 A 3 3 0 0 0 993 369.5 A 3 3 0 0 0 990 366.5 Z M 1714 366.5  A 3 3 0 0 0 1711 369.5 A 3 3 0 0 0 1714 372.5 A 3 3 0 0 0 1717 369.5 A 3 3 0 0 0 1714 366.5 Z " fill-rule="nonzero" fill="#d9001b" stroke="none" transform="matrix(0.999999056576628 -0.00137362507771515 0.00137362507771515 0.999999056576628 -0.506278957816676 1.85748970000685 )" />
  <path d="M 988 369.5  L 1716 369.5  " stroke-width="1" stroke="#d9001b" fill="none" transform="matrix(0.999999056576628 -0.00137362507771515 0.00137362507771515 0.999999056576628 -0.506278957816676 1.85748970000685 )" />
</svg>