<?xml version="1.0" encoding="utf-8"?>
<svg version="1.1" xmlns:xlink="http://www.w3.org/1999/xlink" width="22px" height="22px" preserveAspectRatio="xMinYMid meet" viewBox="544 1225  22 20" xmlns="http://www.w3.org/2000/svg">
  <g transform="matrix(-0.906307787036648 0.422618261740706 -0.422618261740706 -0.906307787036648 1579.93437505511 2119.73698172417 )">
    <path d="M 43.9 1119.8  L 40 1123.5  L 43.9 1127.2  L 47.7 1123.5  L 43.9 1119.8  Z M 43.9 1125.8  L 41.4 1123.5  L 43.9 1121.2  L 46.3 1123.5  L 43.9 1125.8  Z M 577.1 1127.2  L 581 1123.5  L 577.1 1119.8  L 573.3 1123.5  L 577.1 1127.2  Z M 577.1 1121.2  L 579.6 1123.5  L 577.1 1125.8  L 574.7 1123.5  L 577.1 1121.2  Z " fill-rule="nonzero" fill="#d9001b" stroke="none" transform="matrix(0.909259908943224 0.416228804852043 -0.416228804852043 0.909259908943224 495.8078605244 -27.2925516042715 )" />
    <path d="M 46 1123.5  L 575 1123.5  " stroke-width="1" stroke="#d9001b" fill="none" transform="matrix(0.909259908943224 0.416228804852043 -0.416228804852043 0.909259908943224 495.8078605244 -27.2925516042715 )" />
  </g>
</svg>