<?xml version="1.0" encoding="utf-8"?>
<svg version="1.1" xmlns:xlink="http://www.w3.org/1999/xlink" width="22px" height="22px" preserveAspectRatio="xMinYMid meet" viewBox="140 313  22 20" xmlns="http://www.w3.org/2000/svg">
  <g transform="matrix(0.999847695156391 -0.0174524064372835 0.0174524064372835 0.999847695156391 -5.61412924785762 2.68450783651554 )">
    <path d="M 153.9 321.8  L 150 325.5  L 153.9 329.2  L 157.7 325.5  L 153.9 321.8  Z M 153.9 327.8  L 151.4 325.5  L 153.9 323.2  L 156.3 325.5  L 153.9 327.8  Z M 595.1 329.2  L 599 325.5  L 595.1 321.8  L 591.3 325.5  L 595.1 329.2  Z M 595.1 323.2  L 597.6 325.5  L 595.1 327.8  L 592.7 325.5  L 595.1 323.2  Z " fill-rule="nonzero" fill="#d9001b" stroke="none" transform="matrix(0.999943157160574 0.0106621971349269 -0.0106621971349269 0.999943157160574 3.49183281078382 -3.97449048279691 )" />
    <path d="M 156 325.5  L 593 325.5  " stroke-width="1" stroke="#d9001b" fill="none" transform="matrix(0.999943157160574 0.0106621971349269 -0.0106621971349269 0.999943157160574 3.49183281078382 -3.97449048279691 )" />
  </g>
</svg>