<?xml version="1.0" encoding="utf-8"?>
<svg version="1.1" xmlns:xlink="http://www.w3.org/1999/xlink" width="12px" height="12px" viewBox="589 932.5  12 12" xmlns="http://www.w3.org/2000/svg">
  <path d="M 595 932.5  C 598.36 932.5  601 935.14  601 938.5  C 601 941.86  598.36 944.5  595 944.5  C 591.64 944.5  589 941.86  589 938.5  C 589 935.14  591.64 932.5  595 932.5  Z " fill-rule="nonzero" fill="#ffffff" stroke="none" />
  <path d="M 595 933  C 598.08 933  600.5 935.42  600.5 938.5  C 600.5 941.58  598.08 944  595 944  C 591.92 944  589.5 941.58  589.5 938.5  C 589.5 935.42  591.92 933  595 933  Z " stroke-width="1" stroke="#797979" fill="none" />
  <path d="M 595 941.5  C 593.32 941.5  592 940.18  592 938.5  C 592 936.82  593.32 935.5  595 935.5  C 596.68 935.5  598 936.82  598 938.5  C 598 940.18  596.68 941.5  595 941.5  " fill-rule="nonzero" fill="#797979" stroke="none" />
</svg>