<?xml version="1.0" encoding="utf-8"?>
<svg version="1.1" xmlns:xlink="http://www.w3.org/1999/xlink" width="12px" height="12px" viewBox="741 932.5  12 12" xmlns="http://www.w3.org/2000/svg">
  <path d="M 747 932.5  C 750.36 932.5  753 935.14  753 938.5  C 753 941.86  750.36 944.5  747 944.5  C 743.64 944.5  741 941.86  741 938.5  C 741 935.14  743.64 932.5  747 932.5  Z " fill-rule="nonzero" fill="#f0f0f0" stroke="none" />
  <path d="M 747 933  C 750.08 933  752.5 935.42  752.5 938.5  C 752.5 941.58  750.08 944  747 944  C 743.92 944  741.5 941.58  741.5 938.5  C 741.5 935.42  743.92 933  747 933  Z " stroke-width="1" stroke="#797979" fill="none" />
  <path d="M 747 941.5  C 745.32 941.5  744 940.18  744 938.5  C 744 936.82  745.32 935.5  747 935.5  C 748.68 935.5  750 936.82  750 938.5  C 750 940.18  748.68 941.5  747 941.5  " fill-rule="nonzero" fill="#797979" stroke="none" />
</svg>