<?xml version="1.0" encoding="utf-8"?>
<svg version="1.1" xmlns:xlink="http://www.w3.org/1999/xlink" width="12px" height="12px" viewBox="804 1200.5  12 12" xmlns="http://www.w3.org/2000/svg">
  <path d="M 810 1200.5  C 813.36 1200.5  816 1203.14  816 1206.5  C 816 1209.86  813.36 1212.5  810 1212.5  C 806.64 1212.5  804 1209.86  804 1206.5  C 804 1203.14  806.64 1200.5  810 1200.5  Z " fill-rule="nonzero" fill="#f0f0f0" stroke="none" />
  <path d="M 810 1201  C 813.08 1201  815.5 1203.42  815.5 1206.5  C 815.5 1209.58  813.08 1212  810 1212  C 806.92 1212  804.5 1209.58  804.5 1206.5  C 804.5 1203.42  806.92 1201  810 1201  Z " stroke-width="1" stroke="#797979" fill="none" />
  <path d="M 810 1209.5  C 808.32 1209.5  807 1208.18  807 1206.5  C 807 1204.82  808.32 1203.5  810 1203.5  C 811.68 1203.5  813 1204.82  813 1206.5  C 813 1208.18  811.68 1209.5  810 1209.5  " fill-rule="nonzero" fill="#797979" stroke="none" />
</svg>