<?xml version="1.0" encoding="utf-8"?>
<svg version="1.1" xmlns:xlink="http://www.w3.org/1999/xlink" width="12px" height="12px" viewBox="766 1244.5  12 12" xmlns="http://www.w3.org/2000/svg">
  <path d="M 772 1244.5  C 775.36 1244.5  778 1247.14  778 1250.5  C 778 1253.86  775.36 1256.5  772 1256.5  C 768.64 1256.5  766 1253.86  766 1250.5  C 766 1247.14  768.64 1244.5  772 1244.5  Z " fill-rule="nonzero" fill="#f0f0f0" stroke="none" />
  <path d="M 772 1245  C 775.08 1245  777.5 1247.42  777.5 1250.5  C 777.5 1253.58  775.08 1256  772 1256  C 768.92 1256  766.5 1253.58  766.5 1250.5  C 766.5 1247.42  768.92 1245  772 1245  Z " stroke-width="1" stroke="#797979" fill="none" />
  <path d="M 772 1253.5  C 770.32 1253.5  769 1252.18  769 1250.5  C 769 1248.82  770.32 1247.5  772 1247.5  C 773.68 1247.5  775 1248.82  775 1250.5  C 775 1252.18  773.68 1253.5  772 1253.5  " fill-rule="nonzero" fill="#797979" stroke="none" />
</svg>