<?xml version="1.0" encoding="utf-8"?>
<svg version="1.1" xmlns:xlink="http://www.w3.org/1999/xlink" width="12px" height="12px" viewBox="595 1244.5  12 12" xmlns="http://www.w3.org/2000/svg">
  <path d="M 601 1244.5  C 604.36 1244.5  607 1247.14  607 1250.5  C 607 1253.86  604.36 1256.5  601 1256.5  C 597.64 1256.5  595 1253.86  595 1250.5  C 595 1247.14  597.64 1244.5  601 1244.5  Z " fill-rule="nonzero" fill="#f0f0f0" stroke="none" />
  <path d="M 601 1245  C 604.08 1245  606.5 1247.42  606.5 1250.5  C 606.5 1253.58  604.08 1256  601 1256  C 597.92 1256  595.5 1253.58  595.5 1250.5  C 595.5 1247.42  597.92 1245  601 1245  Z " stroke-width="1" stroke="#797979" fill="none" />
  <path d="M 601 1253.5  C 599.32 1253.5  598 1252.18  598 1250.5  C 598 1248.82  599.32 1247.5  601 1247.5  C 602.68 1247.5  604 1248.82  604 1250.5  C 604 1252.18  602.68 1253.5  601 1253.5  " fill-rule="nonzero" fill="#797979" stroke="none" />
</svg>