<?xml version="1.0" encoding="utf-8"?>
<svg version="1.1" xmlns:xlink="http://www.w3.org/1999/xlink" width="12px" height="12px" viewBox="787 1296.5  12 12" xmlns="http://www.w3.org/2000/svg">
  <path d="M 793 1296.5  C 796.36 1296.5  799 1299.14  799 1302.5  C 799 1305.86  796.36 1308.5  793 1308.5  C 789.64 1308.5  787 1305.86  787 1302.5  C 787 1299.14  789.64 1296.5  793 1296.5  Z " fill-rule="nonzero" fill="#f0f0f0" stroke="none" />
  <path d="M 793 1297  C 796.08 1297  798.5 1299.42  798.5 1302.5  C 798.5 1305.58  796.08 1308  793 1308  C 789.92 1308  787.5 1305.58  787.5 1302.5  C 787.5 1299.42  789.92 1297  793 1297  Z " stroke-width="1" stroke="#797979" fill="none" />
  <path d="M 793 1305.5  C 791.32 1305.5  790 1304.18  790 1302.5  C 790 1300.82  791.32 1299.5  793 1299.5  C 794.68 1299.5  796 1300.82  796 1302.5  C 796 1304.18  794.68 1305.5  793 1305.5  " fill-rule="nonzero" fill="#797979" stroke="none" />
</svg>