<?xml version="1.0" encoding="utf-8"?>
<svg version="1.1" xmlns:xlink="http://www.w3.org/1999/xlink" width="12px" height="12px" viewBox="870 1296.5  12 12" xmlns="http://www.w3.org/2000/svg">
  <path d="M 876 1296.5  C 879.36 1296.5  882 1299.14  882 1302.5  C 882 1305.86  879.36 1308.5  876 1308.5  C 872.64 1308.5  870 1305.86  870 1302.5  C 870 1299.14  872.64 1296.5  876 1296.5  Z " fill-rule="nonzero" fill="#f0f0f0" stroke="none" />
  <path d="M 876 1297  C 879.08 1297  881.5 1299.42  881.5 1302.5  C 881.5 1305.58  879.08 1308  876 1308  C 872.92 1308  870.5 1305.58  870.5 1302.5  C 870.5 1299.42  872.92 1297  876 1297  Z " stroke-width="1" stroke="#797979" fill="none" />
  <path d="M 876 1305.5  C 874.32 1305.5  873 1304.18  873 1302.5  C 873 1300.82  874.32 1299.5  876 1299.5  C 877.68 1299.5  879 1300.82  879 1302.5  C 879 1304.18  877.68 1305.5  876 1305.5  " fill-rule="nonzero" fill="#797979" stroke="none" />
</svg>