<?xml version="1.0" encoding="utf-8"?>
<svg version="1.1" xmlns:xlink="http://www.w3.org/1999/xlink" width="12px" height="12px" viewBox="696 1296.5  12 12" xmlns="http://www.w3.org/2000/svg">
  <path d="M 702 1296.5  C 705.36 1296.5  708 1299.14  708 1302.5  C 708 1305.86  705.36 1308.5  702 1308.5  C 698.64 1308.5  696 1305.86  696 1302.5  C 696 1299.14  698.64 1296.5  702 1296.5  Z " fill-rule="nonzero" fill="#f0f0f0" stroke="none" />
  <path d="M 702 1297  C 705.08 1297  707.5 1299.42  707.5 1302.5  C 707.5 1305.58  705.08 1308  702 1308  C 698.92 1308  696.5 1305.58  696.5 1302.5  C 696.5 1299.42  698.92 1297  702 1297  Z " stroke-width="1" stroke="#797979" fill="none" />
  <path d="M 702 1305.5  C 700.32 1305.5  699 1304.18  699 1302.5  C 699 1300.82  700.32 1299.5  702 1299.5  C 703.68 1299.5  705 1300.82  705 1302.5  C 705 1304.18  703.68 1305.5  702 1305.5  " fill-rule="nonzero" fill="#797979" stroke="none" />
</svg>