<?xml version="1.0" encoding="utf-8"?>
<svg version="1.1" xmlns:xlink="http://www.w3.org/1999/xlink" width="12px" height="12px" viewBox="695 1165.5  12 12" xmlns="http://www.w3.org/2000/svg">
  <path d="M 701 1165.5  C 704.36 1165.5  707 1168.14  707 1171.5  C 707 1174.86  704.36 1177.5  701 1177.5  C 697.64 1177.5  695 1174.86  695 1171.5  C 695 1168.14  697.64 1165.5  701 1165.5  Z " fill-rule="nonzero" fill="#ffffff" stroke="none" />
  <path d="M 701 1166  C 704.08 1166  706.5 1168.42  706.5 1171.5  C 706.5 1174.58  704.08 1177  701 1177  C 697.92 1177  695.5 1174.58  695.5 1171.5  C 695.5 1168.42  697.92 1166  701 1166  Z " stroke-width="1" stroke="#797979" fill="none" />
  <path d="M 701 1174.5  C 699.32 1174.5  698 1173.18  698 1171.5  C 698 1169.82  699.32 1168.5  701 1168.5  C 702.68 1168.5  704 1169.82  704 1171.5  C 704 1173.18  702.68 1174.5  701 1174.5  " fill-rule="nonzero" fill="#797979" stroke="none" />
</svg>