<?xml version="1.0" encoding="utf-8"?>
<svg version="1.1" xmlns:xlink="http://www.w3.org/1999/xlink" width="12px" height="12px" viewBox="531 424.5  12 12" xmlns="http://www.w3.org/2000/svg">
  <path d="M 537 424.5  C 540.36 424.5  543 427.14  543 430.5  C 543 433.86  540.36 436.5  537 436.5  C 533.64 436.5  531 433.86  531 430.5  C 531 427.14  533.64 424.5  537 424.5  Z " fill-rule="nonzero" fill="#ffffff" stroke="none" />
  <path d="M 537 425  C 540.08 425  542.5 427.42  542.5 430.5  C 542.5 433.58  540.08 436  537 436  C 533.92 436  531.5 433.58  531.5 430.5  C 531.5 427.42  533.92 425  537 425  Z " stroke-width="1" stroke="#797979" fill="none" />
  <path d="M 537 433.5  C 535.32 433.5  534 432.18  534 430.5  C 534 428.82  535.32 427.5  537 427.5  C 538.68 427.5  540 428.82  540 430.5  C 540 432.18  538.68 433.5  537 433.5  " fill-rule="nonzero" fill="#797979" stroke="none" />
</svg>