<?xml version="1.0" encoding="utf-8"?>
<svg version="1.1" xmlns:xlink="http://www.w3.org/1999/xlink" width="12px" height="12px" viewBox="332 421.5  12 12" xmlns="http://www.w3.org/2000/svg">
  <path d="M 338 421.5  C 341.36 421.5  344 424.14  344 427.5  C 344 430.86  341.36 433.5  338 433.5  C 334.64 433.5  332 430.86  332 427.5  C 332 424.14  334.64 421.5  338 421.5  Z " fill-rule="nonzero" fill="#f0f0f0" stroke="none" />
  <path d="M 338 422  C 341.08 422  343.5 424.42  343.5 427.5  C 343.5 430.58  341.08 433  338 433  C 334.92 433  332.5 430.58  332.5 427.5  C 332.5 424.42  334.92 422  338 422  Z " stroke-width="1" stroke="#797979" fill="none" />
  <path d="M 338 430.5  C 336.32 430.5  335 429.18  335 427.5  C 335 425.82  336.32 424.5  338 424.5  C 339.68 424.5  341 425.82  341 427.5  C 341 429.18  339.68 430.5  338 430.5  " fill-rule="nonzero" fill="#797979" stroke="none" />
</svg>