<?xml version="1.0" encoding="utf-8"?>
<svg version="1.1" xmlns:xlink="http://www.w3.org/1999/xlink" width="606px" height="14px" preserveAspectRatio="xMinYMid meet" viewBox="1470 503  606 12" xmlns="http://www.w3.org/2000/svg">
  <g transform="matrix(0.992546151641321 -0.121869343405147 0.121869343405153 0.99254615164132 -48.8158226532853 219.868354671894 )">
    <path d="M 1480.9 504.8  L 1477 508.5  L 1480.9 512.2  L 1484.7 508.5  L 1480.9 504.8  Z M 1480.9 510.8  L 1478.4 508.5  L 1480.9 506.2  L 1483.3 508.5  L 1480.9 510.8  Z M 2066.1 512.2  L 2070 508.5  L 2066.1 504.8  L 2062.3 508.5  L 2066.1 512.2  Z M 2066.1 506.2  L 2068.6 508.5  L 2066.1 510.8  L 2063.7 508.5  L 2066.1 506.2  Z " fill-rule="nonzero" fill="#d9001b" stroke="none" transform="matrix(0.99325532236394 0.115947680423999 -0.115947680423999 0.99325532236394 70.9210812831561 -202.203542654026 )" />
    <path d="M 1483 508.5  L 2064 508.5  " stroke-width="1" stroke="#d9001b" fill="none" transform="matrix(0.99325532236394 0.115947680423999 -0.115947680423999 0.99325532236394 70.9210812831561 -202.203542654026 )" />
  </g>
</svg>