<?xml version="1.0" encoding="utf-8"?>
<svg version="1.1" xmlns:xlink="http://www.w3.org/1999/xlink" width="65px" height="72px" xmlns="http://www.w3.org/2000/svg">
  <g transform="matrix(1 0 0 1 -324 -254 )">
    <path d="M 324 254  L 389 254  L 389 326  L 324 326  L 324 254  " fill-rule="nonzero" fill="#cccccc" stroke="none" />
    <path d="M 329 259  L 384 259  L 384 321  L 329 321  L 329 259  " fill-rule="nonzero" fill="#ffffff" stroke="none" />
    <path d="M 362.675 274.55  C 359.945 274.55  357.8 272.405  357.8 269.675  C 357.8 266.945  359.945 264.8  362.675 264.8  C 365.405 264.8  367.55 266.945  367.55 269.675  C 367.55 272.405  365.405 274.55  362.675 274.55  " fill-rule="nonzero" fill="#cccccc" stroke="none" />
    <path d="M 331 320  L 331 287.55  L 344 272.8  L 362.2 284.6  L 372.6 281.65  L 383 284.6  L 383 320  L 331 320  " fill-rule="nonzero" fill="#169bd5" stroke="none" />
  </g>
</svg>