<?xml version="1.0" encoding="utf-8"?>
<svg version="1.1" xmlns:xlink="http://www.w3.org/1999/xlink" width="86px" height="86px" xmlns="http://www.w3.org/2000/svg">
  <g transform="matrix(1 0 0 1 -581 -542 )">
    <path d="M 624 542  C 648.08 542  667 560.92  667 585  C 667 609.08  648.08 628  624 628  C 599.92 628  581 609.08  581 585  C 581 560.92  599.92 542  624 542  Z " fill-rule="nonzero" fill="#ffffff" stroke="none" />
    <path d="M 624 542.5  C 647.8 542.5  666.5 561.2  666.5 585  C 666.5 608.8  647.8 627.5  624 627.5  C 600.2 627.5  581.5 608.8  581.5 585  C 581.5 561.2  600.2 542.5  624 542.5  Z " stroke-width="1" stroke="#797979" fill="none" />
  </g>
</svg>