<?xml version="1.0" encoding="utf-8"?>
<svg version="1.1" xmlns:xlink="http://www.w3.org/1999/xlink" width="12px" height="12px" viewBox="319 437.5  12 12" xmlns="http://www.w3.org/2000/svg">
  <path d="M 325 437.5  C 328.36 437.5  331 440.14  331 443.5  C 331 446.86  328.36 449.5  325 449.5  C 321.64 449.5  319 446.86  319 443.5  C 319 440.14  321.64 437.5  325 437.5  Z " fill-rule="nonzero" fill="#f0f0f0" stroke="none" />
  <path d="M 325 438  C 328.08 438  330.5 440.42  330.5 443.5  C 330.5 446.58  328.08 449  325 449  C 321.92 449  319.5 446.58  319.5 443.5  C 319.5 440.42  321.92 438  325 438  Z " stroke-width="1" stroke="#797979" fill="none" />
  <path d="M 325 446.5  C 323.32 446.5  322 445.18  322 443.5  C 322 441.82  323.32 440.5  325 440.5  C 326.68 440.5  328 441.82  328 443.5  C 328 445.18  326.68 446.5  325 446.5  " fill-rule="nonzero" fill="#797979" stroke="none" />
</svg>