<?xml version="1.0" encoding="utf-8"?>
<svg version="1.1" xmlns:xlink="http://www.w3.org/1999/xlink" width="12px" height="12px" viewBox="1312 1315.5  12 12" xmlns="http://www.w3.org/2000/svg">
  <path d="M 1318 1315.5  C 1321.36 1315.5  1324 1318.14  1324 1321.5  C 1324 1324.86  1321.36 1327.5  1318 1327.5  C 1314.64 1327.5  1312 1324.86  1312 1321.5  C 1312 1318.14  1314.64 1315.5  1318 1315.5  Z " fill-rule="nonzero" fill="#f0f0f0" stroke="none" />
  <path d="M 1318 1316  C 1321.08 1316  1323.5 1318.42  1323.5 1321.5  C 1323.5 1324.58  1321.08 1327  1318 1327  C 1314.92 1327  1312.5 1324.58  1312.5 1321.5  C 1312.5 1318.42  1314.92 1316  1318 1316  Z " stroke-width="1" stroke="#797979" fill="none" />
  <path d="M 1318 1324.5  C 1316.32 1324.5  1315 1323.18  1315 1321.5  C 1315 1319.82  1316.32 1318.5  1318 1318.5  C 1319.68 1318.5  1321 1319.82  1321 1321.5  C 1321 1323.18  1319.68 1324.5  1318 1324.5  " fill-rule="nonzero" fill="#797979" stroke="none" />
</svg>