<?xml version="1.0" encoding="utf-8"?>
<svg version="1.1" xmlns:xlink="http://www.w3.org/1999/xlink" width="12px" height="12px" viewBox="1593 1315.5  12 12" xmlns="http://www.w3.org/2000/svg">
  <path d="M 1599 1315.5  C 1602.36 1315.5  1605 1318.14  1605 1321.5  C 1605 1324.86  1602.36 1327.5  1599 1327.5  C 1595.64 1327.5  1593 1324.86  1593 1321.5  C 1593 1318.14  1595.64 1315.5  1599 1315.5  Z " fill-rule="nonzero" fill="#f0f0f0" stroke="none" />
  <path d="M 1599 1316  C 1602.08 1316  1604.5 1318.42  1604.5 1321.5  C 1604.5 1324.58  1602.08 1327  1599 1327  C 1595.92 1327  1593.5 1324.58  1593.5 1321.5  C 1593.5 1318.42  1595.92 1316  1599 1316  Z " stroke-width="1" stroke="#797979" fill="none" />
  <path d="M 1599 1324.5  C 1597.32 1324.5  1596 1323.18  1596 1321.5  C 1596 1319.82  1597.32 1318.5  1599 1318.5  C 1600.68 1318.5  1602 1319.82  1602 1321.5  C 1602 1323.18  1600.68 1324.5  1599 1324.5  " fill-rule="nonzero" fill="#797979" stroke="none" />
</svg>