<?xml version="1.0" encoding="utf-8"?>
<svg version="1.1" xmlns:xlink="http://www.w3.org/1999/xlink" width="12px" height="12px" viewBox="1719 1315.5  12 12" xmlns="http://www.w3.org/2000/svg">
  <path d="M 1725 1315.5  C 1728.36 1315.5  1731 1318.14  1731 1321.5  C 1731 1324.86  1728.36 1327.5  1725 1327.5  C 1721.64 1327.5  1719 1324.86  1719 1321.5  C 1719 1318.14  1721.64 1315.5  1725 1315.5  Z " fill-rule="nonzero" fill="#ffffff" stroke="none" />
  <path d="M 1725 1316  C 1728.08 1316  1730.5 1318.42  1730.5 1321.5  C 1730.5 1324.58  1728.08 1327  1725 1327  C 1721.92 1327  1719.5 1324.58  1719.5 1321.5  C 1719.5 1318.42  1721.92 1316  1725 1316  Z " stroke-width="1" stroke="#797979" fill="none" />
  <path d="M 1725 1324.5  C 1723.32 1324.5  1722 1323.18  1722 1321.5  C 1722 1319.82  1723.32 1318.5  1725 1318.5  C 1726.68 1318.5  1728 1319.82  1728 1321.5  C 1728 1323.18  1726.68 1324.5  1725 1324.5  " fill-rule="nonzero" fill="#797979" stroke="none" />
</svg>