<?xml version="1.0" encoding="utf-8"?>
<svg version="1.1" xmlns:xlink="http://www.w3.org/1999/xlink" width="12px" height="12px" viewBox="725 861.5  12 12" xmlns="http://www.w3.org/2000/svg">
  <path d="M 731 861.5  C 734.36 861.5  737 864.14  737 867.5  C 737 870.86  734.36 873.5  731 873.5  C 727.64 873.5  725 870.86  725 867.5  C 725 864.14  727.64 861.5  731 861.5  Z " fill-rule="nonzero" fill="#ffffff" stroke="none" />
  <path d="M 731 862  C 734.08 862  736.5 864.42  736.5 867.5  C 736.5 870.58  734.08 873  731 873  C 727.92 873  725.5 870.58  725.5 867.5  C 725.5 864.42  727.92 862  731 862  Z " stroke-width="1" stroke="#797979" fill="none" />
  <path d="M 731 870.5  C 729.32 870.5  728 869.18  728 867.5  C 728 865.82  729.32 864.5  731 864.5  C 732.68 864.5  734 865.82  734 867.5  C 734 869.18  732.68 870.5  731 870.5  " fill-rule="nonzero" fill="#797979" stroke="none" />
</svg>