<?xml version="1.0" encoding="utf-8"?>
<svg version="1.1" xmlns:xlink="http://www.w3.org/1999/xlink" width="12px" height="12px" viewBox="608 861.5  12 12" xmlns="http://www.w3.org/2000/svg">
  <path d="M 614 861.5  C 617.36 861.5  620 864.14  620 867.5  C 620 870.86  617.36 873.5  614 873.5  C 610.64 873.5  608 870.86  608 867.5  C 608 864.14  610.64 861.5  614 861.5  Z " fill-rule="nonzero" fill="#f0f0f0" stroke="none" />
  <path d="M 614 862  C 617.08 862  619.5 864.42  619.5 867.5  C 619.5 870.58  617.08 873  614 873  C 610.92 873  608.5 870.58  608.5 867.5  C 608.5 864.42  610.92 862  614 862  Z " stroke-width="1" stroke="#797979" fill="none" />
  <path d="M 614 870.5  C 612.32 870.5  611 869.18  611 867.5  C 611 865.82  612.32 864.5  614 864.5  C 615.68 864.5  617 865.82  617 867.5  C 617 869.18  615.68 870.5  614 870.5  " fill-rule="nonzero" fill="#797979" stroke="none" />
</svg>