<?xml version="1.0" encoding="utf-8"?>
<svg version="1.1" xmlns:xlink="http://www.w3.org/1999/xlink" width="12px" height="12px" viewBox="619 607.5  12 12" xmlns="http://www.w3.org/2000/svg">
  <path d="M 625 607.5  C 628.36 607.5  631 610.14  631 613.5  C 631 616.86  628.36 619.5  625 619.5  C 621.64 619.5  619 616.86  619 613.5  C 619 610.14  621.64 607.5  625 607.5  Z " fill-rule="nonzero" fill="#f0f0f0" stroke="none" />
  <path d="M 625 608  C 628.08 608  630.5 610.42  630.5 613.5  C 630.5 616.58  628.08 619  625 619  C 621.92 619  619.5 616.58  619.5 613.5  C 619.5 610.42  621.92 608  625 608  Z " stroke-width="1" stroke="#797979" fill="none" />
  <path d="M 625 616.5  C 623.32 616.5  622 615.18  622 613.5  C 622 611.82  623.32 610.5  625 610.5  C 626.68 610.5  628 611.82  628 613.5  C 628 615.18  626.68 616.5  625 616.5  " fill-rule="nonzero" fill="#797979" stroke="none" />
</svg>