<?xml version="1.0" encoding="utf-8"?>
<svg version="1.1" xmlns:xlink="http://www.w3.org/1999/xlink" width="12px" height="12px" viewBox="734 903.5  12 12" xmlns="http://www.w3.org/2000/svg">
  <path d="M 740 903.5  C 743.36 903.5  746 906.14  746 909.5  C 746 912.86  743.36 915.5  740 915.5  C 736.64 915.5  734 912.86  734 909.5  C 734 906.14  736.64 903.5  740 903.5  Z " fill-rule="nonzero" fill="#f0f0f0" stroke="none" />
  <path d="M 740 904  C 743.08 904  745.5 906.42  745.5 909.5  C 745.5 912.58  743.08 915  740 915  C 736.92 915  734.5 912.58  734.5 909.5  C 734.5 906.42  736.92 904  740 904  Z " stroke-width="1" stroke="#797979" fill="none" />
  <path d="M 740 912.5  C 738.32 912.5  737 911.18  737 909.5  C 737 907.82  738.32 906.5  740 906.5  C 741.68 906.5  743 907.82  743 909.5  C 743 911.18  741.68 912.5  740 912.5  " fill-rule="nonzero" fill="#797979" stroke="none" />
</svg>