<?xml version="1.0" encoding="utf-8"?>
<svg version="1.1" xmlns:xlink="http://www.w3.org/1999/xlink" width="12px" height="12px" viewBox="938 1008.5  12 12" xmlns="http://www.w3.org/2000/svg">
  <path d="M 944 1008.5  C 947.36 1008.5  950 1011.14  950 1014.5  C 950 1017.86  947.36 1020.5  944 1020.5  C 940.64 1020.5  938 1017.86  938 1014.5  C 938 1011.14  940.64 1008.5  944 1008.5  Z " fill-rule="nonzero" fill="#f0f0f0" stroke="none" />
  <path d="M 944 1009  C 947.08 1009  949.5 1011.42  949.5 1014.5  C 949.5 1017.58  947.08 1020  944 1020  C 940.92 1020  938.5 1017.58  938.5 1014.5  C 938.5 1011.42  940.92 1009  944 1009  Z " stroke-width="1" stroke="#797979" fill="none" />
  <path d="M 944 1017.5  C 942.32 1017.5  941 1016.18  941 1014.5  C 941 1012.82  942.32 1011.5  944 1011.5  C 945.68 1011.5  947 1012.82  947 1014.5  C 947 1016.18  945.68 1017.5  944 1017.5  " fill-rule="nonzero" fill="#797979" stroke="none" />
</svg>