<?xml version="1.0" encoding="utf-8"?>
<svg version="1.1" xmlns:xlink="http://www.w3.org/1999/xlink" width="12px" height="12px" viewBox="724 944.5  12 12" xmlns="http://www.w3.org/2000/svg">
  <path d="M 730 944.5  C 733.36 944.5  736 947.14  736 950.5  C 736 953.86  733.36 956.5  730 956.5  C 726.64 956.5  724 953.86  724 950.5  C 724 947.14  726.64 944.5  730 944.5  Z " fill-rule="nonzero" fill="#ffffff" stroke="none" />
  <path d="M 730 945  C 733.08 945  735.5 947.42  735.5 950.5  C 735.5 953.58  733.08 956  730 956  C 726.92 956  724.5 953.58  724.5 950.5  C 724.5 947.42  726.92 945  730 945  Z " stroke-width="1" stroke="#797979" fill="none" />
  <path d="M 730 953.5  C 728.32 953.5  727 952.18  727 950.5  C 727 948.82  728.32 947.5  730 947.5  C 731.68 947.5  733 948.82  733 950.5  C 733 952.18  731.68 953.5  730 953.5  " fill-rule="nonzero" fill="#797979" stroke="none" />
</svg>