<?xml version="1.0" encoding="utf-8"?>
<svg version="1.1" xmlns:xlink="http://www.w3.org/1999/xlink" width="12px" height="12px" viewBox="851 975.5  12 12" xmlns="http://www.w3.org/2000/svg">
  <path d="M 857 975.5  C 860.36 975.5  863 978.14  863 981.5  C 863 984.86  860.36 987.5  857 987.5  C 853.64 987.5  851 984.86  851 981.5  C 851 978.14  853.64 975.5  857 975.5  Z " fill-rule="nonzero" fill="#f0f0f0" stroke="none" />
  <path d="M 857 976  C 860.08 976  862.5 978.42  862.5 981.5  C 862.5 984.58  860.08 987  857 987  C 853.92 987  851.5 984.58  851.5 981.5  C 851.5 978.42  853.92 976  857 976  Z " stroke-width="1" stroke="#797979" fill="none" />
  <path d="M 857 984.5  C 855.32 984.5  854 983.18  854 981.5  C 854 979.82  855.32 978.5  857 978.5  C 858.68 978.5  860 979.82  860 981.5  C 860 983.18  858.68 984.5  857 984.5  " fill-rule="nonzero" fill="#797979" stroke="none" />
</svg>