<?xml version="1.0" encoding="utf-8"?>
<svg version="1.1" xmlns:xlink="http://www.w3.org/1999/xlink" width="12px" height="12px" viewBox="615 977.5  12 12" xmlns="http://www.w3.org/2000/svg">
  <path d="M 621 977.5  C 624.36 977.5  627 980.14  627 983.5  C 627 986.86  624.36 989.5  621 989.5  C 617.64 989.5  615 986.86  615 983.5  C 615 980.14  617.64 977.5  621 977.5  Z " fill-rule="nonzero" fill="#f0f0f0" stroke="none" />
  <path d="M 621 978  C 624.08 978  626.5 980.42  626.5 983.5  C 626.5 986.58  624.08 989  621 989  C 617.92 989  615.5 986.58  615.5 983.5  C 615.5 980.42  617.92 978  621 978  Z " stroke-width="1" stroke="#797979" fill="none" />
  <path d="M 621 986.5  C 619.32 986.5  618 985.18  618 983.5  C 618 981.82  619.32 980.5  621 980.5  C 622.68 980.5  624 981.82  624 983.5  C 624 985.18  622.68 986.5  621 986.5  " fill-rule="nonzero" fill="#797979" stroke="none" />
</svg>