<?xml version="1.0" encoding="utf-8"?>
<svg version="1.1" xmlns:xlink="http://www.w3.org/1999/xlink" width="12px" height="12px" viewBox="1308 956.5  12 12" xmlns="http://www.w3.org/2000/svg">
  <path d="M 1314 956.5  C 1317.36 956.5  1320 959.14  1320 962.5  C 1320 965.86  1317.36 968.5  1314 968.5  C 1310.64 968.5  1308 965.86  1308 962.5  C 1308 959.14  1310.64 956.5  1314 956.5  Z " fill-rule="nonzero" fill="#f0f0f0" stroke="none" />
  <path d="M 1314 957  C 1317.08 957  1319.5 959.42  1319.5 962.5  C 1319.5 965.58  1317.08 968  1314 968  C 1310.92 968  1308.5 965.58  1308.5 962.5  C 1308.5 959.42  1310.92 957  1314 957  Z " stroke-width="1" stroke="#797979" fill="none" />
  <path d="M 1314 965.5  C 1312.32 965.5  1311 964.18  1311 962.5  C 1311 960.82  1312.32 959.5  1314 959.5  C 1315.68 959.5  1317 960.82  1317 962.5  C 1317 964.18  1315.68 965.5  1314 965.5  " fill-rule="nonzero" fill="#797979" stroke="none" />
</svg>