<?xml version="1.0" encoding="utf-8"?>
<svg version="1.1" xmlns:xlink="http://www.w3.org/1999/xlink" width="12px" height="12px" viewBox="1215 955.5  12 12" xmlns="http://www.w3.org/2000/svg">
  <path d="M 1221 955.5  C 1224.36 955.5  1227 958.14  1227 961.5  C 1227 964.86  1224.36 967.5  1221 967.5  C 1217.64 967.5  1215 964.86  1215 961.5  C 1215 958.14  1217.64 955.5  1221 955.5  Z " fill-rule="nonzero" fill="#f0f0f0" stroke="none" />
  <path d="M 1221 956  C 1224.08 956  1226.5 958.42  1226.5 961.5  C 1226.5 964.58  1224.08 967  1221 967  C 1217.92 967  1215.5 964.58  1215.5 961.5  C 1215.5 958.42  1217.92 956  1221 956  Z " stroke-width="1" stroke="#797979" fill="none" />
  <path d="M 1221 964.5  C 1219.32 964.5  1218 963.18  1218 961.5  C 1218 959.82  1219.32 958.5  1221 958.5  C 1222.68 958.5  1224 959.82  1224 961.5  C 1224 963.18  1222.68 964.5  1221 964.5  " fill-rule="nonzero" fill="#797979" stroke="none" />
</svg>