<?xml version="1.0" encoding="utf-8"?>
<svg version="1.1" xmlns:xlink="http://www.w3.org/1999/xlink" width="12px" height="12px" viewBox="1308 926.5  12 12" xmlns="http://www.w3.org/2000/svg">
  <path d="M 1314 926.5  C 1317.36 926.5  1320 929.14  1320 932.5  C 1320 935.86  1317.36 938.5  1314 938.5  C 1310.64 938.5  1308 935.86  1308 932.5  C 1308 929.14  1310.64 926.5  1314 926.5  Z " fill-rule="nonzero" fill="#ffffff" stroke="none" />
  <path d="M 1314 927  C 1317.08 927  1319.5 929.42  1319.5 932.5  C 1319.5 935.58  1317.08 938  1314 938  C 1310.92 938  1308.5 935.58  1308.5 932.5  C 1308.5 929.42  1310.92 927  1314 927  Z " stroke-width="1" stroke="#797979" fill="none" />
  <path d="M 1314 935.5  C 1312.32 935.5  1311 934.18  1311 932.5  C 1311 930.82  1312.32 929.5  1314 929.5  C 1315.68 929.5  1317 930.82  1317 932.5  C 1317 934.18  1315.68 935.5  1314 935.5  " fill-rule="nonzero" fill="#797979" stroke="none" />
</svg>