<?xml version="1.0" encoding="utf-8"?>
<svg version="1.1" xmlns:xlink="http://www.w3.org/1999/xlink" width="12px" height="12px" viewBox="1555 955.5  12 12" xmlns="http://www.w3.org/2000/svg">
  <path d="M 1561 955.5  C 1564.36 955.5  1567 958.14  1567 961.5  C 1567 964.86  1564.36 967.5  1561 967.5  C 1557.64 967.5  1555 964.86  1555 961.5  C 1555 958.14  1557.64 955.5  1561 955.5  Z " fill-rule="nonzero" fill="#ffffff" stroke="none" />
  <path d="M 1561 956  C 1564.08 956  1566.5 958.42  1566.5 961.5  C 1566.5 964.58  1564.08 967  1561 967  C 1557.92 967  1555.5 964.58  1555.5 961.5  C 1555.5 958.42  1557.92 956  1561 956  Z " stroke-width="1" stroke="#797979" fill="none" />
  <path d="M 1561 964.5  C 1559.32 964.5  1558 963.18  1558 961.5  C 1558 959.82  1559.32 958.5  1561 958.5  C 1562.68 958.5  1564 959.82  1564 961.5  C 1564 963.18  1562.68 964.5  1561 964.5  " fill-rule="nonzero" fill="#797979" stroke="none" />
</svg>