<?xml version="1.0" encoding="utf-8"?>
<svg version="1.1" xmlns:xlink="http://www.w3.org/1999/xlink" width="12px" height="12px" viewBox="1340 983.5  12 12" xmlns="http://www.w3.org/2000/svg">
  <path d="M 1346 983.5  C 1349.36 983.5  1352 986.14  1352 989.5  C 1352 992.86  1349.36 995.5  1346 995.5  C 1342.64 995.5  1340 992.86  1340 989.5  C 1340 986.14  1342.64 983.5  1346 983.5  Z " fill-rule="nonzero" fill="#ffffff" stroke="none" />
  <path d="M 1346 984  C 1349.08 984  1351.5 986.42  1351.5 989.5  C 1351.5 992.58  1349.08 995  1346 995  C 1342.92 995  1340.5 992.58  1340.5 989.5  C 1340.5 986.42  1342.92 984  1346 984  Z " stroke-width="1" stroke="#797979" fill="none" />
  <path d="M 1346 992.5  C 1344.32 992.5  1343 991.18  1343 989.5  C 1343 987.82  1344.32 986.5  1346 986.5  C 1347.68 986.5  1349 987.82  1349 989.5  C 1349 991.18  1347.68 992.5  1346 992.5  " fill-rule="nonzero" fill="#797979" stroke="none" />
</svg>