<?xml version="1.0" encoding="utf-8"?>
<svg version="1.1" xmlns:xlink="http://www.w3.org/1999/xlink" width="444px" height="108px" xmlns="http://www.w3.org/2000/svg">
  <g transform="matrix(1 0 0 1 -503 -341 )">
    <path d="M 725 341  C 849.32 341  947 364.76  947 395  C 947 425.24  849.32 449  725 449  C 600.68 449  503 425.24  503 395  C 503 364.76  600.68 341  725 341  Z " fill-rule="nonzero" fill="#0c3454" stroke="none" fill-opacity="0.203921568627451" />
    <path d="M 725 341.5  C 849.04 341.5  946.5 365.04  946.5 395  C 946.5 424.96  849.04 448.5  725 448.5  C 600.96 448.5  503.5 424.96  503.5 395  C 503.5 365.04  600.96 341.5  725 341.5  Z " stroke-width="1" stroke="#797979" fill="none" />
  </g>
</svg>