<?xml version="1.0" encoding="utf-8"?>
<svg version="1.1" xmlns:xlink="http://www.w3.org/1999/xlink" width="103px" height="117px" xmlns="http://www.w3.org/2000/svg">
  <g transform="matrix(1 0 0 1 -1006 -560 )">
    <path d="M 1057.5 560  C 1086.34 560  1109 585.74  1109 618.5  C 1109 651.26  1086.34 677  1057.5 677  C 1028.66 677  1006 651.26  1006 618.5  C 1006 585.74  1028.66 560  1057.5 560  Z " fill-rule="nonzero" fill="#0c3454" stroke="none" fill-opacity="0.203921568627451" />
    <path d="M 1057.5 560.5  C 1086.06 560.5  1108.5 586.02  1108.5 618.5  C 1108.5 650.98  1086.06 676.5  1057.5 676.5  C 1028.94 676.5  1006.5 650.98  1006.5 618.5  C 1006.5 586.02  1028.94 560.5  1057.5 560.5  Z " stroke-width="1" stroke="#797979" fill="none" />
  </g>
</svg>