<?xml version="1.0" encoding="utf-8"?>
<svg version="1.1" xmlns:xlink="http://www.w3.org/1999/xlink" width="104px" height="117px" xmlns="http://www.w3.org/2000/svg">
  <g transform="matrix(1 0 0 1 -230 -284 )">
    <path d="M 282 284  C 311.12 284  334 309.74  334 342.5  C 334 375.26  311.12 401  282 401  C 252.88 401  230 375.26  230 342.5  C 230 309.74  252.88 284  282 284  Z " fill-rule="nonzero" fill="#0c3454" stroke="none" fill-opacity="0.203921568627451" />
    <path d="M 282 284.5  C 310.84 284.5  333.5 310.02  333.5 342.5  C 333.5 374.98  310.84 400.5  282 400.5  C 253.16 400.5  230.5 374.98  230.5 342.5  C 230.5 310.02  253.16 284.5  282 284.5  Z " stroke-width="1" stroke="#797979" fill="none" />
  </g>
</svg>