<?xml version="1.0" encoding="utf-8"?>
<svg version="1.1" xmlns:xlink="http://www.w3.org/1999/xlink" width="112px" height="117px" xmlns="http://www.w3.org/2000/svg">
  <g transform="matrix(1 0 0 1 -579 -714 )">
    <path d="M 635 714  C 666.36 714  691 739.74  691 772.5  C 691 805.26  666.36 831  635 831  C 603.64 831  579 805.26  579 772.5  C 579 739.74  603.64 714  635 714  Z " fill-rule="nonzero" fill="#0c3454" stroke="none" fill-opacity="0.203921568627451" />
    <path d="M 635 714.5  C 666.08 714.5  690.5 740.02  690.5 772.5  C 690.5 804.98  666.08 830.5  635 830.5  C 603.92 830.5  579.5 804.98  579.5 772.5  C 579.5 740.02  603.92 714.5  635 714.5  Z " stroke-width="1" stroke="#797979" fill="none" />
  </g>
</svg>