<?xml version="1.0" encoding="utf-8"?>
<svg version="1.1" xmlns:xlink="http://www.w3.org/1999/xlink" width="106px" height="117px" xmlns="http://www.w3.org/2000/svg">
  <g transform="matrix(1 0 0 1 -314 -512 )">
    <path d="M 367 512  C 396.68 512  420 537.74  420 570.5  C 420 603.26  396.68 629  367 629  C 337.32 629  314 603.26  314 570.5  C 314 537.74  337.32 512  367 512  Z " fill-rule="nonzero" fill="#0c3454" stroke="none" fill-opacity="0.203921568627451" />
    <path d="M 367 512.5  C 396.4 512.5  419.5 538.02  419.5 570.5  C 419.5 602.98  396.4 628.5  367 628.5  C 337.6 628.5  314.5 602.98  314.5 570.5  C 314.5 538.02  337.6 512.5  367 512.5  Z " stroke-width="1" stroke="#797979" fill="none" />
  </g>
</svg>