<?xml version="1.0" encoding="utf-8"?>
<svg version="1.1" xmlns:xlink="http://www.w3.org/1999/xlink" width="111px" height="123px" xmlns="http://www.w3.org/2000/svg">
  <g transform="matrix(1 0 0 1 -1036 -335 )">
    <path d="M 1091.5 335  C 1122.58 335  1147 362.06  1147 396.5  C 1147 430.94  1122.58 458  1091.5 458  C 1060.42 458  1036 430.94  1036 396.5  C 1036 362.06  1060.42 335  1091.5 335  Z " fill-rule="nonzero" fill="#0c3454" stroke="none" fill-opacity="0.203921568627451" />
    <path d="M 1091.5 335.5  C 1122.3 335.5  1146.5 362.34  1146.5 396.5  C 1146.5 430.66  1122.3 457.5  1091.5 457.5  C 1060.7 457.5  1036.5 430.66  1036.5 396.5  C 1036.5 362.34  1060.7 335.5  1091.5 335.5  Z " stroke-width="1" stroke="#797979" fill="none" />
  </g>
</svg>