<?xml version="1.0" encoding="utf-8"?>
<svg version="1.1" xmlns:xlink="http://www.w3.org/1999/xlink" width="12px" height="12px" viewBox="1293 908.5  12 12" xmlns="http://www.w3.org/2000/svg">
  <path d="M 1299 908.5  C 1302.36 908.5  1305 911.14  1305 914.5  C 1305 917.86  1302.36 920.5  1299 920.5  C 1295.64 920.5  1293 917.86  1293 914.5  C 1293 911.14  1295.64 908.5  1299 908.5  Z " fill-rule="nonzero" fill="#f0f0f0" stroke="none" />
  <path d="M 1299 909  C 1302.08 909  1304.5 911.42  1304.5 914.5  C 1304.5 917.58  1302.08 920  1299 920  C 1295.92 920  1293.5 917.58  1293.5 914.5  C 1293.5 911.42  1295.92 909  1299 909  Z " stroke-width="1" stroke="#797979" fill="none" />
  <path d="M 1299 917.5  C 1297.32 917.5  1296 916.18  1296 914.5  C 1296 912.82  1297.32 911.5  1299 911.5  C 1300.68 911.5  1302 912.82  1302 914.5  C 1302 916.18  1300.68 917.5  1299 917.5  " fill-rule="nonzero" fill="#797979" stroke="none" />
</svg>