<?xml version="1.0" encoding="utf-8"?>
<svg version="1.1" xmlns:xlink="http://www.w3.org/1999/xlink" width="12px" height="12px" viewBox="1423 908.5  12 12" xmlns="http://www.w3.org/2000/svg">
  <path d="M 1429 908.5  C 1432.36 908.5  1435 911.14  1435 914.5  C 1435 917.86  1432.36 920.5  1429 920.5  C 1425.64 920.5  1423 917.86  1423 914.5  C 1423 911.14  1425.64 908.5  1429 908.5  Z " fill-rule="nonzero" fill="#ffffff" stroke="none" />
  <path d="M 1429 909  C 1432.08 909  1434.5 911.42  1434.5 914.5  C 1434.5 917.58  1432.08 920  1429 920  C 1425.92 920  1423.5 917.58  1423.5 914.5  C 1423.5 911.42  1425.92 909  1429 909  Z " stroke-width="1" stroke="#797979" fill="none" />
  <path d="M 1429 917.5  C 1427.32 917.5  1426 916.18  1426 914.5  C 1426 912.82  1427.32 911.5  1429 911.5  C 1430.68 911.5  1432 912.82  1432 914.5  C 1432 916.18  1430.68 917.5  1429 917.5  " fill-rule="nonzero" fill="#797979" stroke="none" />
</svg>