<?xml version="1.0" encoding="utf-8"?>
<svg version="1.1" xmlns:xlink="http://www.w3.org/1999/xlink" width="12px" height="12px" viewBox="1270 1316.5  12 12" xmlns="http://www.w3.org/2000/svg">
  <path d="M 1276 1316.5  C 1279.36 1316.5  1282 1319.14  1282 1322.5  C 1282 1325.86  1279.36 1328.5  1276 1328.5  C 1272.64 1328.5  1270 1325.86  1270 1322.5  C 1270 1319.14  1272.64 1316.5  1276 1316.5  Z " fill-rule="nonzero" fill="#ffffff" stroke="none" />
  <path d="M 1276 1317  C 1279.08 1317  1281.5 1319.42  1281.5 1322.5  C 1281.5 1325.58  1279.08 1328  1276 1328  C 1272.92 1328  1270.5 1325.58  1270.5 1322.5  C 1270.5 1319.42  1272.92 1317  1276 1317  Z " stroke-width="1" stroke="#797979" fill="none" />
  <path d="M 1276 1325.5  C 1274.32 1325.5  1273 1324.18  1273 1322.5  C 1273 1320.82  1274.32 1319.5  1276 1319.5  C 1277.68 1319.5  1279 1320.82  1279 1322.5  C 1279 1324.18  1277.68 1325.5  1276 1325.5  " fill-rule="nonzero" fill="#797979" stroke="none" />
</svg>