<?xml version="1.0" encoding="utf-8"?>
<svg version="1.1" xmlns:xlink="http://www.w3.org/1999/xlink" width="12px" height="12px" viewBox="1352 1360.5  12 12" xmlns="http://www.w3.org/2000/svg">
  <path d="M 1358 1360.5  C 1361.36 1360.5  1364 1363.14  1364 1366.5  C 1364 1369.86  1361.36 1372.5  1358 1372.5  C 1354.64 1372.5  1352 1369.86  1352 1366.5  C 1352 1363.14  1354.64 1360.5  1358 1360.5  Z " fill-rule="nonzero" fill="#f0f0f0" stroke="none" />
  <path d="M 1358 1361  C 1361.08 1361  1363.5 1363.42  1363.5 1366.5  C 1363.5 1369.58  1361.08 1372  1358 1372  C 1354.92 1372  1352.5 1369.58  1352.5 1366.5  C 1352.5 1363.42  1354.92 1361  1358 1361  Z " stroke-width="1" stroke="#797979" fill="none" />
  <path d="M 1358 1369.5  C 1356.32 1369.5  1355 1368.18  1355 1366.5  C 1355 1364.82  1356.32 1363.5  1358 1363.5  C 1359.68 1363.5  1361 1364.82  1361 1366.5  C 1361 1368.18  1359.68 1369.5  1358 1369.5  " fill-rule="nonzero" fill="#797979" stroke="none" />
</svg>