<?xml version="1.0" encoding="utf-8"?>
<svg version="1.1" xmlns:xlink="http://www.w3.org/1999/xlink" width="266px" height="346px" xmlns="http://www.w3.org/2000/svg">
  <g transform="matrix(1 0 0 1 -28 -24 )">
    <path d="M 28 24  L 294 24  L 294 370  L 28 370  L 28 24  " fill-rule="nonzero" fill="#cccccc" stroke="none" />
    <path d="M 47 43  L 275 43  L 275 351  L 47 351  L 47 43  " fill-rule="nonzero" fill="#ffffff" stroke="none" />
    <path d="M 186.27 115.8  C 175.098 115.8  166.32 107.022  166.32 95.85  C 166.32 84.678  175.098 75.9  186.27 75.9  C 197.442 75.9  206.22 84.678  206.22 95.85  C 206.22 107.022  197.442 115.8  186.27 115.8  " fill-rule="nonzero" fill="#cccccc" stroke="none" />
    <path d="M 54 345  L 54 182.75  L 107.75 109  L 183 168  L 226 153.25  L 269 168  L 269 345  L 54 345  " fill-rule="nonzero" fill="#169bd5" stroke="none" />
  </g>
</svg>