<?xml version="1.0" encoding="utf-8"?>
<svg version="1.1" xmlns:xlink="http://www.w3.org/1999/xlink" width="288px" height="6px" preserveAspectRatio="xMinYMid meet" viewBox="826 793  288 4" xmlns="http://www.w3.org/2000/svg">
  <g transform="matrix(0.920504853452439 0.390731128489271 -0.390731128489275 0.920504853452433 387.741539300108 -315.810553129277 )">
    <path d="M 831.9 790.8  L 828 794.5  L 831.9 798.2  L 835.7 794.5  L 831.9 790.8  Z M 831.9 796.8  L 829.4 794.5  L 831.9 792.2  L 834.3 794.5  L 831.9 796.8  Z M 1107.1 798.2  L 1111 794.5  L 1107.1 790.8  L 1103.3 794.5  L 1107.1 798.2  Z M 1107.1 792.2  L 1109.6 794.5  L 1107.1 796.8  L 1104.7 794.5  L 1107.1 792.2  Z " fill-rule="nonzero" fill="#d9001b" stroke="none" transform="matrix(0.920332601192352 -0.391136680947364 0.391136680947364 0.920332601192352 -233.520549868665 442.502760531146 )" />
    <path d="M 834 794.5  L 1105 794.5  " stroke-width="1" stroke="#d9001b" fill="none" transform="matrix(0.920332601192352 -0.391136680947364 0.391136680947364 0.920332601192352 -233.520549868665 442.502760531146 )" />
  </g>
</svg>