<?xml version="1.0" encoding="utf-8"?>
<svg version="1.1" xmlns:xlink="http://www.w3.org/1999/xlink" width="22px" height="22px" preserveAspectRatio="xMinYMid meet" viewBox="1744 1467  22 20" xmlns="http://www.w3.org/2000/svg">
  <g transform="matrix(-0.939692620785908 0.342020143325675 -0.342020143325664 -0.939692620785908 3909.32430117128 2264.68064936423 )">
    <path d="M 1528.9 1432.8  L 1525 1436.5  L 1528.9 1440.2  L 1532.7 1436.5  L 1528.9 1432.8  Z M 1528.9 1438.8  L 1526.4 1436.5  L 1528.9 1434.2  L 1531.3 1436.5  L 1528.9 1438.8  Z M 1759.1 1440.2  L 1763 1436.5  L 1759.1 1432.8  L 1755.3 1436.5  L 1759.1 1440.2  Z M 1759.1 1434.2  L 1761.6 1436.5  L 1759.1 1438.8  L 1756.7 1436.5  L 1759.1 1434.2  Z " fill-rule="nonzero" fill="#d9001b" stroke="none" transform="matrix(0.938647593848437 0.344877796563566 -0.344877796563566 0.938647593848437 596.280310476733 -478.846366113782 )" />
    <path d="M 1531 1436.5  L 1757 1436.5  " stroke-width="1" stroke="#d9001b" fill="none" transform="matrix(0.938647593848437 0.344877796563566 -0.344877796563566 0.938647593848437 596.280310476733 -478.846366113782 )" />
  </g>
</svg>