<?xml version="1.0" encoding="utf-8"?>
<svg version="1.1" xmlns:xlink="http://www.w3.org/1999/xlink" width="22px" height="22px" preserveAspectRatio="xMinYMid meet" viewBox="1464 1649  22 20" xmlns="http://www.w3.org/2000/svg">
  <g transform="matrix(0.974370064785229 0.224951054343858 -0.224951054343868 0.974370064785229 410.997953598263 -289.282742635886 )">
    <path d="M 1475.9 1634.8  L 1472 1638.5  L 1475.9 1642.2  L 1479.7 1638.5  L 1475.9 1634.8  Z M 1475.9 1640.8  L 1473.4 1638.5  L 1475.9 1636.2  L 1478.3 1638.5  L 1475.9 1640.8  Z M 1658.1 1642.2  L 1662 1638.5  L 1658.1 1634.8  L 1654.3 1638.5  L 1658.1 1642.2  Z M 1658.1 1636.2  L 1660.6 1638.5  L 1658.1 1640.8  L 1655.7 1638.5  L 1658.1 1636.2  Z " fill-rule="nonzero" fill="#d9001b" stroke="none" transform="matrix(0.974953327890295 -0.222409551134027 0.222409551134027 0.974953327890295 -325.169914337195 389.554738878773 )" />
    <path d="M 1478 1638.5  L 1656 1638.5  " stroke-width="1" stroke="#d9001b" fill="none" transform="matrix(0.974953327890295 -0.222409551134027 0.222409551134027 0.974953327890295 -325.169914337195 389.554738878773 )" />
  </g>
</svg>