<?xml version="1.0" encoding="utf-8"?>
<svg version="1.1" xmlns:xlink="http://www.w3.org/1999/xlink" width="22px" height="22px" preserveAspectRatio="xMinYMid meet" viewBox="830 835  22 20" xmlns="http://www.w3.org/2000/svg">
  <g transform="matrix(-0.292371704722736 0.956304755963036 -0.956304755963031 -0.292371704722736 1894.96212246058 287.801790725798 )">
    <path d="M 758.9 778.8  L 755 782.5  L 758.9 786.2  L 762.7 782.5  L 758.9 778.8  Z M 758.9 784.8  L 756.4 782.5  L 758.9 780.2  L 761.3 782.5  L 758.9 784.8  Z M 885.1 786.2  L 889 782.5  L 885.1 778.8  L 881.3 782.5  L 885.1 786.2  Z M 885.1 780.2  L 887.6 782.5  L 885.1 784.8  L 882.7 782.5  L 885.1 780.2  Z " fill-rule="nonzero" fill="#d9001b" stroke="none" transform="matrix(-0.292721986574014 -0.956197593897915 0.956197593897915 -0.292721986574014 314.392855738721 1797.54937667825 )" />
    <path d="M 761 782.5  L 883 782.5  " stroke-width="1" stroke="#d9001b" fill="none" transform="matrix(-0.292721986574014 -0.956197593897915 0.956197593897915 -0.292721986574014 314.392855738721 1797.54937667825 )" />
  </g>
</svg>