<?xml version="1.0" encoding="utf-8"?>
<svg version="1.1" xmlns:xlink="http://www.w3.org/1999/xlink" width="22px" height="22px" preserveAspectRatio="xMinYMid meet" viewBox="1070 1649  22 20" xmlns="http://www.w3.org/2000/svg">
  <g transform="matrix(-0.88294759285892 -0.469471562785887 0.469471562785887 -0.88294759285892 1256.61302521871 3631.30881592449 )">
    <path d="M 981.9 1680.8  L 978 1684.5  L 981.9 1688.2  L 985.7 1684.5  L 981.9 1680.8  Z M 981.9 1686.8  L 979.4 1684.5  L 981.9 1682.2  L 984.3 1684.5  L 981.9 1686.8  Z M 1085.1 1688.2  L 1089 1684.5  L 1085.1 1680.8  L 1081.3 1684.5  L 1085.1 1688.2  Z M 1085.1 1682.2  L 1087.6 1684.5  L 1085.1 1686.8  L 1082.7 1684.5  L 1085.1 1682.2  Z " fill-rule="nonzero" fill="#d9001b" stroke="none" transform="matrix(0.881849605762657 -0.471530776107187 0.471530776107187 0.881849605762657 -672.185159908263 686.351396199582 )" />
    <path d="M 984 1684.5  L 1083 1684.5  " stroke-width="1" stroke="#d9001b" fill="none" transform="matrix(0.881849605762657 -0.471530776107187 0.471530776107187 0.881849605762657 -672.185159908263 686.351396199582 )" />
  </g>
</svg>