<?xml version="1.0" encoding="utf-8"?>
<svg version="1.1" xmlns:xlink="http://www.w3.org/1999/xlink" width="22px" height="22px" preserveAspectRatio="xMinYMid meet" viewBox="830 839  22 20" xmlns="http://www.w3.org/2000/svg">
  <g transform="matrix(0.978147600733809 0.207911690817758 -0.207911690817763 0.978147600733804 194.894893287148 -156.301045000734 )">
    <path d="M 836.9 782.8  L 833 786.5  L 836.9 790.2  L 840.7 786.5  L 836.9 782.8  Z M 836.9 788.8  L 834.4 786.5  L 836.9 784.2  L 839.3 786.5  L 836.9 788.8  Z M 1431.1 790.2  L 1435 786.5  L 1431.1 782.8  L 1427.3 786.5  L 1431.1 790.2  Z M 1431.1 784.2  L 1433.6 786.5  L 1431.1 788.8  L 1428.7 786.5  L 1431.1 784.2  Z " fill-rule="nonzero" fill="#d9001b" stroke="none" transform="matrix(0.977973637794166 -0.208728445065943 0.208728445065943 0.977973637794166 -139.187027302948 254.021790579668 )" />
    <path d="M 839 786.5  L 1429 786.5  " stroke-width="1" stroke="#d9001b" fill="none" transform="matrix(0.977973637794166 -0.208728445065943 0.208728445065943 0.977973637794166 -139.187027302948 254.021790579668 )" />
  </g>
</svg>