<?xml version="1.0" encoding="utf-8"?>
<svg version="1.1" xmlns:xlink="http://www.w3.org/1999/xlink" width="168px" height="6px" preserveAspectRatio="xMinYMid meet" viewBox="482 265  168 4" xmlns="http://www.w3.org/2000/svg">
  <g transform="matrix(0.453990499739552 0.891006524188378 -0.891006524188365 0.453990499739552 546.940119105707 -358.525156121082 )">
    <path d="M 487.9 263.8  L 484 267.5  L 487.9 271.2  L 491.7 267.5  L 487.9 263.8  Z M 487.9 269.8  L 485.4 267.5  L 487.9 265.2  L 490.3 267.5  L 487.9 269.8  Z M 642 273.8  L 648 267.5  L 642 261.2  L 642 273.8  Z M 643 271.4  L 643 263.6  L 646.5 267.5  L 643 271.4  Z " fill-rule="nonzero" fill="#d9001b" stroke="none" transform="matrix(0.461557462287556 -0.887110313888116 0.887110313888116 0.461557462287556 67.4564673801726 646.137816498753 )" />
    <path d="M 490 267.5  L 643 267.5  " stroke-width="1" stroke="#d9001b" fill="none" transform="matrix(0.461557462287556 -0.887110313888116 0.887110313888116 0.461557462287556 67.4564673801726 646.137816498753 )" />
  </g>
</svg>