<?xml version="1.0" encoding="utf-8"?>
<svg version="1.1" xmlns:xlink="http://www.w3.org/1999/xlink" width="22px" height="20px" preserveAspectRatio="xMinYMid meet" viewBox="468 737  22 18" xmlns="http://www.w3.org/2000/svg">
  <g transform="matrix(0 -1 1 0 -267 1225 )">
    <path d="M 349.9 873.8  L 346 877.5  L 349.9 881.2  L 353.7 877.5  L 349.9 873.8  Z M 349.9 879.8  L 347.4 877.5  L 349.9 875.2  L 352.3 877.5  L 349.9 879.8  Z M 605 883.8  L 611 877.5  L 605 871.2  L 605 883.8  Z M 606 881.4  L 606 873.6  L 609.5 877.5  L 606 881.4  Z " fill-rule="nonzero" fill="#d9001b" stroke="none" transform="matrix(-0.00520093467185981 0.999986475047807 -0.999986475047807 -0.00520093467185981 1358.47677909494 403.570291864181 )" />
    <path d="M 352 877.5  L 606 877.5  " stroke-width="1" stroke="#d9001b" fill="none" transform="matrix(-0.00520093467185981 0.999986475047807 -0.999986475047807 -0.00520093467185981 1358.47677909494 403.570291864181 )" />
  </g>
</svg>