<?xml version="1.0" encoding="utf-8"?>
<svg version="1.1" xmlns:xlink="http://www.w3.org/1999/xlink" width="12px" height="12px" viewBox="846 387.5  12 12" xmlns="http://www.w3.org/2000/svg">
  <path d="M 852 387.5  C 855.36 387.5  858 390.14  858 393.5  C 858 396.86  855.36 399.5  852 399.5  C 848.64 399.5  846 396.86  846 393.5  C 846 390.14  848.64 387.5  852 387.5  Z " fill-rule="nonzero" fill="#f0f0f0" stroke="none" />
  <path d="M 852 388  C 855.08 388  857.5 390.42  857.5 393.5  C 857.5 396.58  855.08 399  852 399  C 848.92 399  846.5 396.58  846.5 393.5  C 846.5 390.42  848.92 388  852 388  Z " stroke-width="1" stroke="#797979" fill="none" />
  <path d="M 852 396.5  C 850.32 396.5  849 395.18  849 393.5  C 849 391.82  850.32 390.5  852 390.5  C 853.68 390.5  855 391.82  855 393.5  C 855 395.18  853.68 396.5  852 396.5  " fill-rule="nonzero" fill="#797979" stroke="none" />
</svg>