<?xml version="1.0" encoding="utf-8"?>
<svg version="1.1" xmlns:xlink="http://www.w3.org/1999/xlink" width="12px" height="12px" viewBox="363 387.5  12 12" xmlns="http://www.w3.org/2000/svg">
  <path d="M 369 387.5  C 372.36 387.5  375 390.14  375 393.5  C 375 396.86  372.36 399.5  369 399.5  C 365.64 399.5  363 396.86  363 393.5  C 363 390.14  365.64 387.5  369 387.5  Z " fill-rule="nonzero" fill="#f0f0f0" stroke="none" />
  <path d="M 369 388  C 372.08 388  374.5 390.42  374.5 393.5  C 374.5 396.58  372.08 399  369 399  C 365.92 399  363.5 396.58  363.5 393.5  C 363.5 390.42  365.92 388  369 388  Z " stroke-width="1" stroke="#797979" fill="none" />
  <path d="M 369 396.5  C 367.32 396.5  366 395.18  366 393.5  C 366 391.82  367.32 390.5  369 390.5  C 370.68 390.5  372 391.82  372 393.5  C 372 395.18  370.68 396.5  369 396.5  " fill-rule="nonzero" fill="#797979" stroke="none" />
</svg>