<?xml version="1.0" encoding="utf-8"?>
<svg version="1.1" xmlns:xlink="http://www.w3.org/1999/xlink" width="12px" height="12px" viewBox="235 437.5  12 12" xmlns="http://www.w3.org/2000/svg">
  <path d="M 241 437.5  C 244.36 437.5  247 440.14  247 443.5  C 247 446.86  244.36 449.5  241 449.5  C 237.64 449.5  235 446.86  235 443.5  C 235 440.14  237.64 437.5  241 437.5  Z " fill-rule="nonzero" fill="#f0f0f0" stroke="none" />
  <path d="M 241 438  C 244.08 438  246.5 440.42  246.5 443.5  C 246.5 446.58  244.08 449  241 449  C 237.92 449  235.5 446.58  235.5 443.5  C 235.5 440.42  237.92 438  241 438  Z " stroke-width="1" stroke="#797979" fill="none" />
  <path d="M 241 446.5  C 239.32 446.5  238 445.18  238 443.5  C 238 441.82  239.32 440.5  241 440.5  C 242.68 440.5  244 441.82  244 443.5  C 244 445.18  242.68 446.5  241 446.5  " fill-rule="nonzero" fill="#797979" stroke="none" />
</svg>