<?xml version="1.0" encoding="utf-8"?>
<svg version="1.1" xmlns:xlink="http://www.w3.org/1999/xlink" width="12px" height="12px" viewBox="447 437.5  12 12" xmlns="http://www.w3.org/2000/svg">
  <path d="M 453 437.5  C 456.36 437.5  459 440.14  459 443.5  C 459 446.86  456.36 449.5  453 449.5  C 449.64 449.5  447 446.86  447 443.5  C 447 440.14  449.64 437.5  453 437.5  Z " fill-rule="nonzero" fill="#f0f0f0" stroke="none" />
  <path d="M 453 438  C 456.08 438  458.5 440.42  458.5 443.5  C 458.5 446.58  456.08 449  453 449  C 449.92 449  447.5 446.58  447.5 443.5  C 447.5 440.42  449.92 438  453 438  Z " stroke-width="1" stroke="#797979" fill="none" />
  <path d="M 453 446.5  C 451.32 446.5  450 445.18  450 443.5  C 450 441.82  451.32 440.5  453 440.5  C 454.68 440.5  456 441.82  456 443.5  C 456 445.18  454.68 446.5  453 446.5  " fill-rule="nonzero" fill="#797979" stroke="none" />
</svg>