<?xml version="1.0" encoding="utf-8"?>
<svg version="1.1" xmlns:xlink="http://www.w3.org/1999/xlink" width="736px" height="6px" preserveAspectRatio="xMinYMid meet" viewBox="996 155  736 4" xmlns="http://www.w3.org/2000/svg">
  <path d="M 1002 153.5  A 3 3 0 0 0 999 156.5 A 3 3 0 0 0 1002 159.5 A 3 3 0 0 0 1005 156.5 A 3 3 0 0 0 1002 153.5 Z M 1726 153.5  A 3 3 0 0 0 1723 156.5 A 3 3 0 0 0 1726 159.5 A 3 3 0 0 0 1729 156.5 A 3 3 0 0 0 1726 153.5 Z " fill-rule="nonzero" fill="#d9001b" stroke="none" transform="matrix(0.999999056576628 -0.00137362507771515 0.00137362507771515 0.999999056576628 -0.213685495182744 1.87377225176118 )" />
  <path d="M 1000 156.5  L 1728 156.5  " stroke-width="1" stroke="#d9001b" fill="none" transform="matrix(0.999999056576628 -0.00137362507771515 0.00137362507771515 0.999999056576628 -0.213685495182744 1.87377225176118 )" />
</svg>