<?xml version="1.0" encoding="utf-8"?>
<svg version="1.1" xmlns:xlink="http://www.w3.org/1999/xlink" width="22px" height="20px" preserveAspectRatio="xMinYMid meet" viewBox="408 459  22 18" xmlns="http://www.w3.org/2000/svg">
  <g transform="matrix(0.999847695156391 -0.0174524064372835 0.0174524064372832 0.999847695156389 -8.10391048317643 7.38383696403145 )">
    <path d="M 418 478.5  A 3 3 0 0 0 415 481.5 A 3 3 0 0 0 418 484.5 A 3 3 0 0 0 421 481.5 A 3 3 0 0 0 418 478.5 Z M 1715 478.5  A 3 3 0 0 0 1712 481.5 A 3 3 0 0 0 1715 484.5 A 3 3 0 0 0 1718 481.5 A 3 3 0 0 0 1715 478.5 Z " fill-rule="nonzero" fill="#d9001b" stroke="none" transform="matrix(0.999776709378384 0.0211312892301992 -0.0211312892301992 0.999776709378384 10.4128552122943 -22.4290055296994 )" />
    <path d="M 416 481.5  L 1717 481.5  " stroke-width="1" stroke="#d9001b" fill="none" transform="matrix(0.999776709378384 0.0211312892301992 -0.0211312892301992 0.999776709378384 10.4128552122943 -22.4290055296994 )" />
  </g>
</svg>