<?xml version="1.0" encoding="utf-8"?>
<svg version="1.1" xmlns:xlink="http://www.w3.org/1999/xlink" width="1321px" height="19px" xmlns="http://www.w3.org/2000/svg">
  <g transform="matrix(1 0 0 1 -406 -472 )">
    <path d="M 418 478.5  A 3 3 0 0 0 415 481.5 A 3 3 0 0 0 418 484.5 A 3 3 0 0 0 421 481.5 A 3 3 0 0 0 418 478.5 Z M 1715 478.5  A 3 3 0 0 0 1712 481.5 A 3 3 0 0 0 1715 484.5 A 3 3 0 0 0 1718 481.5 A 3 3 0 0 0 1715 478.5 Z " fill-rule="nonzero" fill="#d9001b" stroke="none" />
    <path d="M 416 481.5  L 1717 481.5  " stroke-width="1" stroke="#d9001b" fill="none" />
  </g>
</svg>