<?xml version="1.0" encoding="utf-8"?>
<svg version="1.1" xmlns:xlink="http://www.w3.org/1999/xlink" width="15px" height="15px" xmlns="http://www.w3.org/2000/svg">
  <g transform="matrix(1 0 0 1 -1147 -2313 )">
    <path d="M 1154.5 2313  C 1158.7 2313  1162 2316.3  1162 2320.5  C 1162 2324.7  1158.7 2328  1154.5 2328  C 1150.3 2328  1147 2324.7  1147 2320.5  C 1147 2316.3  1150.3 2313  1154.5 2313  Z " fill-rule="nonzero" fill="#ffffff" stroke="none" />
    <path d="M 1154.5 2313.5  C 1158.42 2313.5  1161.5 2316.58  1161.5 2320.5  C 1161.5 2324.42  1158.42 2327.5  1154.5 2327.5  C 1150.58 2327.5  1147.5 2324.42  1147.5 2320.5  C 1147.5 2316.58  1150.58 2313.5  1154.5 2313.5  Z " stroke-width="1" stroke="#797979" fill="none" />
  </g>
</svg>