<?xml version="1.0" encoding="utf-8"?>
<svg version="1.1" xmlns:xlink="http://www.w3.org/1999/xlink" width="22px" height="20px" preserveAspectRatio="xMinYMid meet" viewBox="1710 353  22 18" xmlns="http://www.w3.org/2000/svg">
  <g transform="matrix(0.984807753012212 -0.173648177666927 0.173648177666929 0.984807753012212 -36.7147832494443 304.348107174361 )">
    <path d="M 1721.9 378.8  L 1718 382.5  L 1721.9 386.2  L 1725.7 382.5  L 1721.9 378.8  Z M 1721.9 384.8  L 1719.4 382.5  L 1721.9 380.2  L 1724.3 382.5  L 1721.9 384.8  Z M 1958.1 386.2  L 1962 382.5  L 1958.1 378.8  L 1954.3 382.5  L 1958.1 386.2  Z M 1958.1 380.2  L 1960.6 382.5  L 1958.1 384.8  L 1955.7 382.5  L 1958.1 380.2  Z " fill-rule="nonzero" fill="#d9001b" stroke="none" transform="matrix(0.985727391320261 0.168349368876017 -0.168349368876017 0.985727391320261 90.6552335657962 -304.30356591187 )" />
    <path d="M 1724 382.5  L 1956 382.5  " stroke-width="1" stroke="#d9001b" fill="none" transform="matrix(0.985727391320261 0.168349368876017 -0.168349368876017 0.985727391320261 90.6552335657962 -304.30356591187 )" />
  </g>
</svg>