<?xml version="1.0" encoding="utf-8"?>
<svg version="1.1" xmlns:xlink="http://www.w3.org/1999/xlink" width="22px" height="22px" preserveAspectRatio="xMinYMid meet" viewBox="1966 525  22 20" xmlns="http://www.w3.org/2000/svg">
  <g transform="matrix(-0.88294759285893 0.469471562785888 -0.469471562785898 -0.88294759285893 3973.75467717256 79.2316825518278 )">
    <path d="M 1622.9 440.8  L 1619 444.5  L 1622.9 448.2  L 1626.7 444.5  L 1622.9 440.8  Z M 1622.9 446.8  L 1620.4 444.5  L 1622.9 442.2  L 1625.3 444.5  L 1622.9 446.8  Z M 1997.1 448.2  L 2001 444.5  L 1997.1 440.8  L 1993.3 444.5  L 1997.1 448.2  Z M 1997.1 442.2  L 1999.6 444.5  L 1997.1 446.8  L 1994.7 444.5  L 1997.1 442.2  Z " fill-rule="nonzero" fill="#d9001b" stroke="none" transform="matrix(0.879121036966537 0.476598575703789 -0.476598575703789 0.879121036966537 430.638989990902 -808.912722955484 )" />
    <path d="M 1625 444.5  L 1995 444.5  " stroke-width="1" stroke="#d9001b" fill="none" transform="matrix(0.879121036966537 0.476598575703789 -0.476598575703789 0.879121036966537 430.638989990902 -808.912722955484 )" />
  </g>
</svg>