<?xml version="1.0" encoding="utf-8"?>
<svg version="1.1" xmlns:xlink="http://www.w3.org/1999/xlink" width="12px" height="12px" viewBox="561 319.5  12 12" xmlns="http://www.w3.org/2000/svg">
  <path d="M 567 319.5  C 570.36 319.5  573 322.14  573 325.5  C 573 328.86  570.36 331.5  567 331.5  C 563.64 331.5  561 328.86  561 325.5  C 561 322.14  563.64 319.5  567 319.5  Z " fill-rule="nonzero" fill="#f0f0f0" stroke="none" />
  <path d="M 567 320  C 570.08 320  572.5 322.42  572.5 325.5  C 572.5 328.58  570.08 331  567 331  C 563.92 331  561.5 328.58  561.5 325.5  C 561.5 322.42  563.92 320  567 320  Z " stroke-width="1" stroke="#797979" fill="none" />
  <path d="M 567 328.5  C 565.32 328.5  564 327.18  564 325.5  C 564 323.82  565.32 322.5  567 322.5  C 568.68 322.5  570 323.82  570 325.5  C 570 327.18  568.68 328.5  567 328.5  " fill-rule="nonzero" fill="#797979" stroke="none" />
</svg>