<?xml version="1.0" encoding="utf-8"?>
<svg version="1.1" xmlns:xlink="http://www.w3.org/1999/xlink" width="12px" height="12px" viewBox="661 319.5  12 12" xmlns="http://www.w3.org/2000/svg">
  <path d="M 667 319.5  C 670.36 319.5  673 322.14  673 325.5  C 673 328.86  670.36 331.5  667 331.5  C 663.64 331.5  661 328.86  661 325.5  C 661 322.14  663.64 319.5  667 319.5  Z " fill-rule="nonzero" fill="#ffffff" stroke="none" />
  <path d="M 667 320  C 670.08 320  672.5 322.42  672.5 325.5  C 672.5 328.58  670.08 331  667 331  C 663.92 331  661.5 328.58  661.5 325.5  C 661.5 322.42  663.92 320  667 320  Z " stroke-width="1" stroke="#797979" fill="none" />
  <path d="M 667 328.5  C 665.32 328.5  664 327.18  664 325.5  C 664 323.82  665.32 322.5  667 322.5  C 668.68 322.5  670 323.82  670 325.5  C 670 327.18  668.68 328.5  667 328.5  " fill-rule="nonzero" fill="#797979" stroke="none" />
</svg>