<?xml version="1.0" encoding="utf-8"?>
<svg version="1.1" xmlns:xlink="http://www.w3.org/1999/xlink" width="12px" height="12px" viewBox="382 319.5  12 12" xmlns="http://www.w3.org/2000/svg">
  <path d="M 388 319.5  C 391.36 319.5  394 322.14  394 325.5  C 394 328.86  391.36 331.5  388 331.5  C 384.64 331.5  382 328.86  382 325.5  C 382 322.14  384.64 319.5  388 319.5  Z " fill-rule="nonzero" fill="#ffffff" stroke="none" />
  <path d="M 388 320  C 391.08 320  393.5 322.42  393.5 325.5  C 393.5 328.58  391.08 331  388 331  C 384.92 331  382.5 328.58  382.5 325.5  C 382.5 322.42  384.92 320  388 320  Z " stroke-width="1" stroke="#797979" fill="none" />
  <path d="M 388 328.5  C 386.32 328.5  385 327.18  385 325.5  C 385 323.82  386.32 322.5  388 322.5  C 389.68 322.5  391 323.82  391 325.5  C 391 327.18  389.68 328.5  388 328.5  " fill-rule="nonzero" fill="#797979" stroke="none" />
</svg>