<?xml version="1.0" encoding="utf-8"?>
<svg version="1.1" xmlns:xlink="http://www.w3.org/1999/xlink" width="1326px" height="6px" preserveAspectRatio="xMinYMid meet" viewBox="726 935  1326 4" xmlns="http://www.w3.org/2000/svg">
  <g transform="matrix(0.997564050259825 -0.0697564737441254 0.0697564737441212 0.997564050259824 -61.9782817091381 99.1742269371354 )">
    <path d="M 731.9 933.8  L 728 937.5  L 731.9 941.2  L 735.7 937.5  L 731.9 933.8  Z M 731.9 939.8  L 729.4 937.5  L 731.9 935.2  L 734.3 937.5  L 731.9 939.8  Z M 2045.1 941.2  L 2049 937.5  L 2045.1 933.8  L 2041.3 937.5  L 2045.1 941.2  Z M 2045.1 935.2  L 2047.6 937.5  L 2045.1 939.8  L 2042.7 937.5  L 2045.1 935.2  Z " fill-rule="nonzero" fill="#d9001b" stroke="none" transform="matrix(0.997623021557612 0.0689079593244556 -0.0689079593244556 0.997623021557612 67.9016464339331 -93.4502842322676 )" />
    <path d="M 734 937.5  L 2043 937.5  " stroke-width="1" stroke="#d9001b" fill="none" transform="matrix(0.997623021557612 0.0689079593244556 -0.0689079593244556 0.997623021557612 67.9016464339331 -93.4502842322676 )" />
  </g>
</svg>