<?xml version="1.0" encoding="utf-8"?>
<svg version="1.1" xmlns:xlink="http://www.w3.org/1999/xlink" width="42px" height="40px" xmlns="http://www.w3.org/2000/svg">
  <g transform="matrix(1 0 0 1 -1427 -105 )">
    <path d="M 1448 105  C 1459.76 105  1469 113.8  1469 125  C 1469 136.2  1459.76 145  1448 145  C 1436.24 145  1427 136.2  1427 125  C 1427 113.8  1436.24 105  1448 105  Z " fill-rule="nonzero" fill="#ffffff" stroke="none" />
    <path d="M 1448 105.5  C 1459.48 105.5  1468.5 114.08  1468.5 125  C 1468.5 135.92  1459.48 144.5  1448 144.5  C 1436.52 144.5  1427.5 135.92  1427.5 125  C 1427.5 114.08  1436.52 105.5  1448 105.5  Z " stroke-width="1" stroke="#797979" fill="none" />
  </g>
</svg>