<?xml version="1.0" encoding="utf-8"?>
<svg version="1.1" xmlns:xlink="http://www.w3.org/1999/xlink" width="300px" height="170px" xmlns="http://www.w3.org/2000/svg">
  <g transform="matrix(1 0 0 1 -1102 -728 )">
    <path d="M 1102 728  L 1402 728  L 1402 898  L 1102 898  L 1102 728  " fill-rule="nonzero" fill="#cccccc" stroke="none" />
    <path d="M 1114 740  L 1390 740  L 1390 886  L 1114 886  L 1114 740  " fill-rule="nonzero" fill="#ffffff" stroke="none" />
    <path d="M 1270.75 779  C 1263.61 779  1258 773.39  1258 766.25  C 1258 759.11  1263.61 753.5  1270.75 753.5  C 1277.89 753.5  1283.5 759.11  1283.5 766.25  C 1283.5 773.39  1277.89 779  1270.75 779  " fill-rule="nonzero" fill="#cccccc" stroke="none" />
    <path d="M 1119 882  L 1119 806.65  L 1185.75 772.4  L 1279.2 835.42  L 1332.6 792.95  L 1386 835.42  L 1386 882  L 1119 882  " fill-rule="nonzero" fill="#169bd5" stroke="none" />
  </g>
</svg>