<?xml version="1.0" encoding="utf-8"?>
<svg version="1.1" xmlns:xlink="http://www.w3.org/1999/xlink" width="42px" height="40px" xmlns="http://www.w3.org/2000/svg">
  <g transform="matrix(1 0 0 1 -1432 -119 )">
    <path d="M 1453 119  C 1464.76 119  1474 127.8  1474 139  C 1474 150.2  1464.76 159  1453 159  C 1441.24 159  1432 150.2  1432 139  C 1432 127.8  1441.24 119  1453 119  Z " fill-rule="nonzero" fill="#ffffff" stroke="none" />
    <path d="M 1453 119.5  C 1464.48 119.5  1473.5 128.08  1473.5 139  C 1473.5 149.92  1464.48 158.5  1453 158.5  C 1441.52 158.5  1432.5 149.92  1432.5 139  C 1432.5 128.08  1441.52 119.5  1453 119.5  Z " stroke-width="1" stroke="#797979" fill="none" />
  </g>
</svg>