<?xml version="1.0" encoding="utf-8"?>
<svg version="1.1" xmlns:xlink="http://www.w3.org/1999/xlink" width="22px" height="22px" preserveAspectRatio="xMinYMid meet" viewBox="1992 1043  22 20" xmlns="http://www.w3.org/2000/svg">
  <g transform="matrix(-0.999847695156389 -0.0174524064372834 0.0174524064372834 -0.999847695156389 3987.31754941979 2140.79679309356 )">
    <path d="M 1419.9 1054.8  L 1416 1058.5  L 1419.9 1062.2  L 1423.7 1058.5  L 1419.9 1054.8  Z M 1419.9 1060.8  L 1417.4 1058.5  L 1419.9 1056.2  L 1422.3 1058.5  L 1419.9 1060.8  Z M 2001.1 1062.2  L 2005 1058.5  L 2001.1 1054.8  L 1997.3 1058.5  L 2001.1 1062.2  Z M 2001.1 1056.2  L 2003.6 1058.5  L 2001.1 1060.8  L 1998.7 1058.5  L 2001.1 1056.2  Z " fill-rule="nonzero" fill="#d9001b" stroke="none" transform="matrix(0.9998436638375 -0.0176818518262323 0.0176818518262323 0.9998436638375 -18.4488271521102 30.4102893767767 )" />
    <path d="M 1422 1058.5  L 1999 1058.5  " stroke-width="1" stroke="#d9001b" fill="none" transform="matrix(0.9998436638375 -0.0176818518262323 0.0176818518262323 0.9998436638375 -18.4488271521102 30.4102893767767 )" />
  </g>
</svg>