<?xml version="1.0" encoding="utf-8"?>
<svg version="1.1" xmlns:xlink="http://www.w3.org/1999/xlink" width="882px" height="18px" preserveAspectRatio="xMinYMid meet" viewBox="1088 101  882 16" xmlns="http://www.w3.org/2000/svg">
  <g transform="matrix(0.999390827019096 -0.0348994967025009 0.0348994967025014 0.999390827019094 -2.8726196527698 53.4277303130426 )">
    <path d="M 1099.9 104.8  L 1096 108.5  L 1099.9 112.2  L 1103.7 108.5  L 1099.9 104.8  Z M 1099.9 110.8  L 1097.4 108.5  L 1099.9 106.2  L 1102.3 108.5  L 1099.9 110.8  Z M 1958.1 112.2  L 1962 108.5  L 1958.1 104.8  L 1954.3 108.5  L 1958.1 112.2  Z M 1958.1 106.2  L 1960.6 108.5  L 1958.1 110.8  L 1955.7 108.5  L 1958.1 106.2  Z " fill-rule="nonzero" fill="#d9001b" stroke="none" transform="matrix(0.99908501378773 0.0427683904860926 -0.0427683904860926 0.99908501378773 6.03938428630158 -65.2935930492043 )" />
    <path d="M 1102 108.5  L 1956 108.5  " stroke-width="1" stroke="#d9001b" fill="none" transform="matrix(0.99908501378773 0.0427683904860926 -0.0427683904860926 0.99908501378773 6.03938428630158 -65.2935930492043 )" />
  </g>
</svg>