<?xml version="1.0" encoding="utf-8"?>
<svg version="1.1" xmlns:xlink="http://www.w3.org/1999/xlink" width="223px" height="168px" xmlns="http://www.w3.org/2000/svg">
  <g transform="matrix(1 0 0 1 -128 -148 )">
    <path d="M 239.5 148  C 301.94 148  351 184.96  351 232  C 351 279.04  301.94 316  239.5 316  C 177.06 316  128 279.04  128 232  C 128 184.96  177.06 148  239.5 148  Z " fill-rule="nonzero" fill="#ffffff" stroke="none" fill-opacity="0.207843137254902" />
    <path d="M 239.5 148.5  C 301.66 148.5  350.5 185.24  350.5 232  C 350.5 278.76  301.66 315.5  239.5 315.5  C 177.34 315.5  128.5 278.76  128.5 232  C 128.5 185.24  177.34 148.5  239.5 148.5  Z " stroke-width="1" stroke="#797979" fill="none" />
  </g>
</svg>