<?xml version="1.0" encoding="utf-8"?>
<svg version="1.1" xmlns:xlink="http://www.w3.org/1999/xlink" width="12px" height="12px" viewBox="1562 439.5  12 12" xmlns="http://www.w3.org/2000/svg">
  <path d="M 1568 439.5  C 1571.36 439.5  1574 442.14  1574 445.5  C 1574 448.86  1571.36 451.5  1568 451.5  C 1564.64 451.5  1562 448.86  1562 445.5  C 1562 442.14  1564.64 439.5  1568 439.5  Z " fill-rule="nonzero" fill="#f0f0f0" stroke="none" />
  <path d="M 1568 440  C 1571.08 440  1573.5 442.42  1573.5 445.5  C 1573.5 448.58  1571.08 451  1568 451  C 1564.92 451  1562.5 448.58  1562.5 445.5  C 1562.5 442.42  1564.92 440  1568 440  Z " stroke-width="1" stroke="#797979" fill="none" />
  <path d="M 1568 448.5  C 1566.32 448.5  1565 447.18  1565 445.5  C 1565 443.82  1566.32 442.5  1568 442.5  C 1569.68 442.5  1571 443.82  1571 445.5  C 1571 447.18  1569.68 448.5  1568 448.5  " fill-rule="nonzero" fill="#797979" stroke="none" />
</svg>