<?xml version="1.0" encoding="utf-8"?>
<svg version="1.1" xmlns:xlink="http://www.w3.org/1999/xlink" width="12px" height="12px" viewBox="1656 439.5  12 12" xmlns="http://www.w3.org/2000/svg">
  <path d="M 1662 439.5  C 1665.36 439.5  1668 442.14  1668 445.5  C 1668 448.86  1665.36 451.5  1662 451.5  C 1658.64 451.5  1656 448.86  1656 445.5  C 1656 442.14  1658.64 439.5  1662 439.5  Z " fill-rule="nonzero" fill="#f0f0f0" stroke="none" />
  <path d="M 1662 440  C 1665.08 440  1667.5 442.42  1667.5 445.5  C 1667.5 448.58  1665.08 451  1662 451  C 1658.92 451  1656.5 448.58  1656.5 445.5  C 1656.5 442.42  1658.92 440  1662 440  Z " stroke-width="1" stroke="#797979" fill="none" />
  <path d="M 1662 448.5  C 1660.32 448.5  1659 447.18  1659 445.5  C 1659 443.82  1660.32 442.5  1662 442.5  C 1663.68 442.5  1665 443.82  1665 445.5  C 1665 447.18  1663.68 448.5  1662 448.5  " fill-rule="nonzero" fill="#797979" stroke="none" />
</svg>