<?xml version="1.0" encoding="utf-8"?>
<svg version="1.1" xmlns:xlink="http://www.w3.org/1999/xlink" width="12px" height="12px" viewBox="1566 583.5  12 12" xmlns="http://www.w3.org/2000/svg">
  <path d="M 1572 583.5  C 1575.36 583.5  1578 586.14  1578 589.5  C 1578 592.86  1575.36 595.5  1572 595.5  C 1568.64 595.5  1566 592.86  1566 589.5  C 1566 586.14  1568.64 583.5  1572 583.5  Z " fill-rule="nonzero" fill="#f0f0f0" stroke="none" />
  <path d="M 1572 584  C 1575.08 584  1577.5 586.42  1577.5 589.5  C 1577.5 592.58  1575.08 595  1572 595  C 1568.92 595  1566.5 592.58  1566.5 589.5  C 1566.5 586.42  1568.92 584  1572 584  Z " stroke-width="1" stroke="#797979" fill="none" />
  <path d="M 1572 592.5  C 1570.32 592.5  1569 591.18  1569 589.5  C 1569 587.82  1570.32 586.5  1572 586.5  C 1573.68 586.5  1575 587.82  1575 589.5  C 1575 591.18  1573.68 592.5  1572 592.5  " fill-rule="nonzero" fill="#797979" stroke="none" />
</svg>