<?xml version="1.0" encoding="utf-8"?>
<svg version="1.1" xmlns:xlink="http://www.w3.org/1999/xlink" width="12px" height="12px" viewBox="596 1296.5  12 12" xmlns="http://www.w3.org/2000/svg">
  <path d="M 602 1296.5  C 605.36 1296.5  608 1299.14  608 1302.5  C 608 1305.86  605.36 1308.5  602 1308.5  C 598.64 1308.5  596 1305.86  596 1302.5  C 596 1299.14  598.64 1296.5  602 1296.5  Z " fill-rule="nonzero" fill="#f0f0f0" stroke="none" />
  <path d="M 602 1297  C 605.08 1297  607.5 1299.42  607.5 1302.5  C 607.5 1305.58  605.08 1308  602 1308  C 598.92 1308  596.5 1305.58  596.5 1302.5  C 596.5 1299.42  598.92 1297  602 1297  Z " stroke-width="1" stroke="#797979" fill="none" />
  <path d="M 602 1305.5  C 600.32 1305.5  599 1304.18  599 1302.5  C 599 1300.82  600.32 1299.5  602 1299.5  C 603.68 1299.5  605 1300.82  605 1302.5  C 605 1304.18  603.68 1305.5  602 1305.5  " fill-rule="nonzero" fill="#797979" stroke="none" />
</svg>