<?xml version="1.0" encoding="utf-8"?>
<svg version="1.1" xmlns:xlink="http://www.w3.org/1999/xlink" width="12px" height="12px" viewBox="795 1165.5  12 12" xmlns="http://www.w3.org/2000/svg">
  <path d="M 801 1165.5  C 804.36 1165.5  807 1168.14  807 1171.5  C 807 1174.86  804.36 1177.5  801 1177.5  C 797.64 1177.5  795 1174.86  795 1171.5  C 795 1168.14  797.64 1165.5  801 1165.5  Z " fill-rule="nonzero" fill="#f0f0f0" stroke="none" />
  <path d="M 801 1166  C 804.08 1166  806.5 1168.42  806.5 1171.5  C 806.5 1174.58  804.08 1177  801 1177  C 797.92 1177  795.5 1174.58  795.5 1171.5  C 795.5 1168.42  797.92 1166  801 1166  Z " stroke-width="1" stroke="#797979" fill="none" />
  <path d="M 801 1174.5  C 799.32 1174.5  798 1173.18  798 1171.5  C 798 1169.82  799.32 1168.5  801 1168.5  C 802.68 1168.5  804 1169.82  804 1171.5  C 804 1173.18  802.68 1174.5  801 1174.5  " fill-rule="nonzero" fill="#797979" stroke="none" />
</svg>