<?xml version="1.0" encoding="utf-8"?>
<svg version="1.1" xmlns:xlink="http://www.w3.org/1999/xlink" width="12px" height="12px" viewBox="591 1165.5  12 12" xmlns="http://www.w3.org/2000/svg">
  <path d="M 597 1165.5  C 600.36 1165.5  603 1168.14  603 1171.5  C 603 1174.86  600.36 1177.5  597 1177.5  C 593.64 1177.5  591 1174.86  591 1171.5  C 591 1168.14  593.64 1165.5  597 1165.5  Z " fill-rule="nonzero" fill="#f0f0f0" stroke="none" />
  <path d="M 597 1166  C 600.08 1166  602.5 1168.42  602.5 1171.5  C 602.5 1174.58  600.08 1177  597 1177  C 593.92 1177  591.5 1174.58  591.5 1171.5  C 591.5 1168.42  593.92 1166  597 1166  Z " stroke-width="1" stroke="#797979" fill="none" />
  <path d="M 597 1174.5  C 595.32 1174.5  594 1173.18  594 1171.5  C 594 1169.82  595.32 1168.5  597 1168.5  C 598.68 1168.5  600 1169.82  600 1171.5  C 600 1173.18  598.68 1174.5  597 1174.5  " fill-rule="nonzero" fill="#797979" stroke="none" />
</svg>