<?xml version="1.0" encoding="utf-8"?>
<svg version="1.1" xmlns:xlink="http://www.w3.org/1999/xlink" width="462px" height="10px" preserveAspectRatio="xMinYMid meet" viewBox="1472 227  462 8" xmlns="http://www.w3.org/2000/svg">
  <g transform="matrix(0.838670567945424 0.544639035015025 -0.544639035015027 0.83867056794542 400.555639877414 -890.253177825979 )">
    <path d="M 1480.9 226.8  L 1477 230.5  L 1480.9 234.2  L 1484.7 230.5  L 1480.9 226.8  Z M 1480.9 232.8  L 1478.4 230.5  L 1480.9 228.2  L 1483.3 230.5  L 1480.9 232.8  Z M 1926.1 234.2  L 1930 230.5  L 1926.1 226.8  L 1922.3 230.5  L 1926.1 234.2  Z M 1926.1 228.2  L 1928.6 230.5  L 1926.1 232.8  L 1923.7 230.5  L 1926.1 228.2  Z " fill-rule="nonzero" fill="#d9001b" stroke="none" transform="matrix(0.835056164358238 -0.550164704763317 0.550164704763317 0.835056164358238 154.168859567797 975.225128679737 )" />
    <path d="M 1483 230.5  L 1924 230.5  " stroke-width="1" stroke="#d9001b" fill="none" transform="matrix(0.835056164358238 -0.550164704763317 0.550164704763317 0.835056164358238 154.168859567797 975.225128679737 )" />
  </g>
</svg>