<?xml version="1.0" encoding="utf-8"?>
<svg version="1.1" xmlns:xlink="http://www.w3.org/1999/xlink" width="22px" height="22px" preserveAspectRatio="xMinYMid meet" viewBox="2962 621  22 20" xmlns="http://www.w3.org/2000/svg">
  <g transform="matrix(-0.529919264233218 0.848048096156435 -0.848048096156435 -0.529919264233218 5083.56832124007 -1555.86793414192 )">
    <path d="M 2844.9 554.8  L 2841 558.5  L 2844.9 562.2  L 2848.7 558.5  L 2844.9 554.8  Z M 2844.9 560.8  L 2842.4 558.5  L 2844.9 556.2  L 2847.3 558.5  L 2844.9 560.8  Z M 3011.1 562.2  L 3015 558.5  L 3011.1 554.8  L 3007.3 558.5  L 3011.1 562.2  Z M 3011.1 556.2  L 3013.6 558.5  L 3011.1 560.8  L 3008.7 558.5  L 3011.1 556.2  Z " fill-rule="nonzero" fill="#d9001b" stroke="none" transform="matrix(0.529888272884752 0.848067460912877 -0.848067460912877 0.529888272884752 1850.13281391329 -2220.58412595904 )" />
    <path d="M 2847 558.5  L 3009 558.5  " stroke-width="1" stroke="#d9001b" fill="none" transform="matrix(0.529888272884752 0.848067460912877 -0.848067460912877 0.529888272884752 1850.13281391329 -2220.58412595904 )" />
  </g>
</svg>