<?xml version="1.0" encoding="utf-8"?>
<svg version="1.1" xmlns:xlink="http://www.w3.org/1999/xlink" width="24px" height="20px" preserveAspectRatio="xMinYMid meet" viewBox="2480 603  24 18" xmlns="http://www.w3.org/2000/svg">
  <g transform="matrix(-0.994521895368267 0.10452846326765 -0.10452846326766 -0.994521895368272 5034.31998277753 960.162469502399 )">
    <path d="M 1158.9 537.8  L 1155 541.5  L 1158.9 545.2  L 1162.7 541.5  L 1158.9 537.8  Z M 1158.9 543.8  L 1156.4 541.5  L 1158.9 539.2  L 1161.3 541.5  L 1158.9 543.8  Z M 2493.1 545.2  L 2497 541.5  L 2493.1 537.8  L 2489.3 541.5  L 2493.1 545.2  Z M 2493.1 539.2  L 2495.6 541.5  L 2493.1 543.8  L 2490.7 541.5  L 2493.1 539.2  Z " fill-rule="nonzero" fill="#d9001b" stroke="none" transform="matrix(0.994420813442939 0.105485761084056 -0.105485761084056 0.994420813442939 67.3081342802091 -189.595870218838 )" />
    <path d="M 1161 541.5  L 2491 541.5  " stroke-width="1" stroke="#d9001b" fill="none" transform="matrix(0.994420813442939 0.105485761084056 -0.105485761084056 0.994420813442939 67.3081342802091 -189.595870218838 )" />
  </g>
</svg>