<?xml version="1.0" encoding="utf-8"?>
<svg version="1.1" xmlns:xlink="http://www.w3.org/1999/xlink" width="26px" height="26px" xmlns="http://www.w3.org/2000/svg">
  <g transform="matrix(1 0 0 1 -1498 -23 )">
    <path d="M 1511 23  C 1518.28 23  1524 28.72  1524 36  C 1524 43.28  1518.28 49  1511 49  C 1503.72 49  1498 43.28  1498 36  C 1498 28.72  1503.72 23  1511 23  Z " fill-rule="nonzero" fill="#aaaaaa" stroke="none" />
    <path d="M 1511 23.5  C 1518 23.5  1523.5 29  1523.5 36  C 1523.5 43  1518 48.5  1511 48.5  C 1504 48.5  1498.5 43  1498.5 36  C 1498.5 29  1504 23.5  1511 23.5  Z " stroke-width="1" stroke="#aaaaaa" fill="none" />
  </g>
</svg>