<?xml version="1.0" encoding="utf-8"?>
<svg version="1.1" xmlns:xlink="http://www.w3.org/1999/xlink" width="242px" height="6px" preserveAspectRatio="xMinYMid meet" viewBox="1860 371  242 4" xmlns="http://www.w3.org/2000/svg">
  <g transform="matrix(0.719339800338649 0.694658370459012 -0.694658370458999 0.719339800338664 815.095427710343 -1271.43197740562 )">
    <path d="M 1865.9 368.8  L 1862 372.5  L 1865.9 376.2  L 1869.7 372.5  L 1865.9 368.8  Z M 1865.9 374.8  L 1863.4 372.5  L 1865.9 370.2  L 1868.3 372.5  L 1865.9 374.8  Z M 2095.1 376.2  L 2099 372.5  L 2095.1 368.8  L 2091.3 372.5  L 2095.1 376.2  Z M 2095.1 370.2  L 2097.6 372.5  L 2095.1 374.8  L 2092.7 372.5  L 2095.1 370.2  Z " fill-rule="nonzero" fill="#d9001b" stroke="none" transform="matrix(0.717643108120424 -0.696411063501477 0.696411063501477 0.717643108120424 299.7947032132 1484.42005348982 )" />
    <path d="M 1868 372.5  L 2093 372.5  " stroke-width="1" stroke="#d9001b" fill="none" transform="matrix(0.717643108120424 -0.696411063501477 0.696411063501477 0.717643108120424 299.7947032132 1484.42005348982 )" />
  </g>
</svg>