<?xml version="1.0" encoding="utf-8"?>
<svg version="1.1" xmlns:xlink="http://www.w3.org/1999/xlink" width="22px" height="22px" preserveAspectRatio="xMinYMid meet" viewBox="406 469  22 20" xmlns="http://www.w3.org/2000/svg">
  <g transform="matrix(0.997564050259823 0.0697564737441264 -0.0697564737441238 0.997564050259826 34.4291419650891 -27.9216296257572 )">
    <path d="M 419.9 468.8  L 416 472.5  L 419.9 476.2  L 423.7 472.5  L 419.9 468.8  Z M 419.9 474.8  L 417.4 472.5  L 419.9 470.2  L 422.3 472.5  L 419.9 474.8  Z M 599.1 476.2  L 603 472.5  L 599.1 468.8  L 595.3 472.5  L 599.1 476.2  Z M 599.1 470.2  L 601.6 472.5  L 599.1 474.8  L 596.7 472.5  L 599.1 470.2  Z " fill-rule="nonzero" fill="#d9001b" stroke="none" transform="matrix(0.997220882237364 -0.0745017585680593 0.0745017585680593 0.997220882237364 -33.786120423345 39.2717791332717 )" />
    <path d="M 422 472.5  L 597 472.5  " stroke-width="1" stroke="#d9001b" fill="none" transform="matrix(0.997220882237364 -0.0745017585680593 0.0745017585680593 0.997220882237364 -33.786120423345 39.2717791332717 )" />
  </g>
</svg>