<?xml version="1.0" encoding="utf-8"?>
<svg version="1.1" xmlns:xlink="http://www.w3.org/1999/xlink" width="12px" height="12px" viewBox="360 341.5  12 12" xmlns="http://www.w3.org/2000/svg">
  <path d="M 366 341.5  C 369.36 341.5  372 344.14  372 347.5  C 372 350.86  369.36 353.5  366 353.5  C 362.64 353.5  360 350.86  360 347.5  C 360 344.14  362.64 341.5  366 341.5  Z " fill-rule="nonzero" fill="#ffffff" stroke="none" />
  <path d="M 366 342  C 369.08 342  371.5 344.42  371.5 347.5  C 371.5 350.58  369.08 353  366 353  C 362.92 353  360.5 350.58  360.5 347.5  C 360.5 344.42  362.92 342  366 342  Z " stroke-width="1" stroke="#797979" fill="none" />
  <path d="M 366 350.5  C 364.32 350.5  363 349.18  363 347.5  C 363 345.82  364.32 344.5  366 344.5  C 367.68 344.5  369 345.82  369 347.5  C 369 349.18  367.68 350.5  366 350.5  " fill-rule="nonzero" fill="#797979" stroke="none" />
</svg>