<?xml version="1.0" encoding="utf-8"?>
<svg version="1.1" xmlns:xlink="http://www.w3.org/1999/xlink" width="12px" height="12px" viewBox="432 434.5  12 12" xmlns="http://www.w3.org/2000/svg">
  <path d="M 438 434.5  C 441.36 434.5  444 437.14  444 440.5  C 444 443.86  441.36 446.5  438 446.5  C 434.64 446.5  432 443.86  432 440.5  C 432 437.14  434.64 434.5  438 434.5  Z " fill-rule="nonzero" fill="#ffffff" stroke="none" />
  <path d="M 438 435  C 441.08 435  443.5 437.42  443.5 440.5  C 443.5 443.58  441.08 446  438 446  C 434.92 446  432.5 443.58  432.5 440.5  C 432.5 437.42  434.92 435  438 435  Z " stroke-width="1" stroke="#797979" fill="none" />
  <path d="M 438 443.5  C 436.32 443.5  435 442.18  435 440.5  C 435 438.82  436.32 437.5  438 437.5  C 439.68 437.5  441 438.82  441 440.5  C 441 442.18  439.68 443.5  438 443.5  " fill-rule="nonzero" fill="#797979" stroke="none" />
</svg>