<?xml version="1.0" encoding="utf-8"?>
<svg version="1.1" xmlns:xlink="http://www.w3.org/1999/xlink" width="12px" height="12px" viewBox="474 341.5  12 12" xmlns="http://www.w3.org/2000/svg">
  <path d="M 480 341.5  C 483.36 341.5  486 344.14  486 347.5  C 486 350.86  483.36 353.5  480 353.5  C 476.64 353.5  474 350.86  474 347.5  C 474 344.14  476.64 341.5  480 341.5  Z " fill-rule="nonzero" fill="#ffffff" stroke="none" />
  <path d="M 480 342  C 483.08 342  485.5 344.42  485.5 347.5  C 485.5 350.58  483.08 353  480 353  C 476.92 353  474.5 350.58  474.5 347.5  C 474.5 344.42  476.92 342  480 342  Z " stroke-width="1" stroke="#797979" fill="none" />
  <path d="M 480 350.5  C 478.32 350.5  477 349.18  477 347.5  C 477 345.82  478.32 344.5  480 344.5  C 481.68 344.5  483 345.82  483 347.5  C 483 349.18  481.68 350.5  480 350.5  " fill-rule="nonzero" fill="#797979" stroke="none" />
</svg>