<?xml version="1.0" encoding="utf-8"?>
<svg version="1.1" xmlns:xlink="http://www.w3.org/1999/xlink" width="12px" height="12px" viewBox="1452 907.5  12 12" xmlns="http://www.w3.org/2000/svg">
  <path d="M 1458 907.5  C 1461.36 907.5  1464 910.14  1464 913.5  C 1464 916.86  1461.36 919.5  1458 919.5  C 1454.64 919.5  1452 916.86  1452 913.5  C 1452 910.14  1454.64 907.5  1458 907.5  Z " fill-rule="nonzero" fill="#ffffff" stroke="none" />
  <path d="M 1458 908  C 1461.08 908  1463.5 910.42  1463.5 913.5  C 1463.5 916.58  1461.08 919  1458 919  C 1454.92 919  1452.5 916.58  1452.5 913.5  C 1452.5 910.42  1454.92 908  1458 908  Z " stroke-width="1" stroke="#797979" fill="none" />
  <path d="M 1458 916.5  C 1456.32 916.5  1455 915.18  1455 913.5  C 1455 911.82  1456.32 910.5  1458 910.5  C 1459.68 910.5  1461 911.82  1461 913.5  C 1461 915.18  1459.68 916.5  1458 916.5  " fill-rule="nonzero" fill="#797979" stroke="none" />
</svg>