<?xml version="1.0" encoding="utf-8"?>
<svg version="1.1" xmlns:xlink="http://www.w3.org/1999/xlink" width="12px" height="12px" viewBox="1334 1194.5  12 12" xmlns="http://www.w3.org/2000/svg">
  <path d="M 1340 1194.5  C 1343.36 1194.5  1346 1197.14  1346 1200.5  C 1346 1203.86  1343.36 1206.5  1340 1206.5  C 1336.64 1206.5  1334 1203.86  1334 1200.5  C 1334 1197.14  1336.64 1194.5  1340 1194.5  Z " fill-rule="nonzero" fill="#f0f0f0" stroke="none" />
  <path d="M 1340 1195  C 1343.08 1195  1345.5 1197.42  1345.5 1200.5  C 1345.5 1203.58  1343.08 1206  1340 1206  C 1336.92 1206  1334.5 1203.58  1334.5 1200.5  C 1334.5 1197.42  1336.92 1195  1340 1195  Z " stroke-width="1" stroke="#797979" fill="none" />
  <path d="M 1340 1203.5  C 1338.32 1203.5  1337 1202.18  1337 1200.5  C 1337 1198.82  1338.32 1197.5  1340 1197.5  C 1341.68 1197.5  1343 1198.82  1343 1200.5  C 1343 1202.18  1341.68 1203.5  1340 1203.5  " fill-rule="nonzero" fill="#797979" stroke="none" />
</svg>