<?xml version="1.0" encoding="utf-8"?>
<svg version="1.1" xmlns:xlink="http://www.w3.org/1999/xlink" width="22px" height="20px" preserveAspectRatio="xMinYMid meet" viewBox="822 655  22 18" xmlns="http://www.w3.org/2000/svg">
  <g transform="matrix(0.829037572555044 0.559192903470744 -0.559192903470753 0.829037572555042 513.715789966228 -352.288636767678 )">
    <path d="M 809.9 577.8  L 806 581.5  L 809.9 585.2  L 813.7 581.5  L 809.9 577.8  Z M 809.9 583.8  L 807.4 581.5  L 809.9 579.2  L 812.3 581.5  L 809.9 583.8  Z M 1100.1 585.2  L 1104 581.5  L 1100.1 577.8  L 1096.3 581.5  L 1100.1 585.2  Z M 1100.1 579.2  L 1102.6 581.5  L 1100.1 583.8  L 1097.7 581.5  L 1100.1 579.2  Z " fill-rule="nonzero" fill="#d9001b" stroke="none" transform="matrix(0.8296102782464 -0.5583428930576 0.5583428930576 0.8296102782464 -161.954208038306 632.299086069727 )" />
    <path d="M 812 581.5  L 1098 581.5  " stroke-width="1" stroke="#d9001b" fill="none" transform="matrix(0.8296102782464 -0.5583428930576 0.5583428930576 0.8296102782464 -161.954208038306 632.299086069727 )" />
  </g>
</svg>