<?xml version="1.0" encoding="utf-8"?>
<svg version="1.1" xmlns:xlink="http://www.w3.org/1999/xlink" width="22px" height="22px" preserveAspectRatio="xMinYMid meet" viewBox="2010 423  22 20" xmlns="http://www.w3.org/2000/svg">
  <g transform="matrix(-0.999390827019094 0.0348994967025025 -0.0348994967025025 -0.999390827019094 4055.88034347777 795.20434526351 )">
    <path d="M 1074 416.5  A 3 3 0 0 0 1071 419.5 A 3 3 0 0 0 1074 422.5 A 3 3 0 0 0 1077 419.5 A 3 3 0 0 0 1074 416.5 Z M 2022 416.5  A 3 3 0 0 0 2019 419.5 A 3 3 0 0 0 2022 422.5 A 3 3 0 0 0 2025 419.5 A 3 3 0 0 0 2022 416.5 Z " fill-rule="nonzero" fill="#d9001b" stroke="none" transform="matrix(0.999583481764422 0.0288593656152458 -0.0288593656152458 0.999583481764422 12.7512741042697 -44.4995685725757 )" />
    <path d="M 1072 419.5  L 2024 419.5  " stroke-width="1" stroke="#d9001b" fill="none" transform="matrix(0.999583481764422 0.0288593656152458 -0.0288593656152458 0.999583481764422 12.7512741042697 -44.4995685725757 )" />
  </g>
</svg>