<?xml version="1.0" encoding="utf-8"?>
<svg version="1.1" xmlns:xlink="http://www.w3.org/1999/xlink" width="16px" height="16px" xmlns="http://www.w3.org/2000/svg">
  <g transform="matrix(1 0 0 1 -331 -1420 )">
    <path d="M 339 1420  C 343.48 1420  347 1423.52  347 1428  C 347 1432.48  343.48 1436  339 1436  C 334.52 1436  331 1432.48  331 1428  C 331 1423.52  334.52 1420  339 1420  Z " fill-rule="nonzero" fill="#ffffff" stroke="none" />
    <path d="M 339 1420.5  C 343.2 1420.5  346.5 1423.8  346.5 1428  C 346.5 1432.2  343.2 1435.5  339 1435.5  C 334.8 1435.5  331.5 1432.2  331.5 1428  C 331.5 1423.8  334.8 1420.5  339 1420.5  Z " stroke-width="1" stroke="#797979" fill="none" />
  </g>
</svg>