<?xml version="1.0" encoding="utf-8"?>
<svg version="1.1" xmlns:xlink="http://www.w3.org/1999/xlink" width="16px" height="16px" xmlns="http://www.w3.org/2000/svg">
  <g transform="matrix(1 0 0 1 -470 -1321 )">
    <path d="M 478 1321  C 482.48 1321  486 1324.52  486 1329  C 486 1333.48  482.48 1337  478 1337  C 473.52 1337  470 1333.48  470 1329  C 470 1324.52  473.52 1321  478 1321  Z " fill-rule="nonzero" fill="#ffffff" stroke="none" />
    <path d="M 478 1321.5  C 482.2 1321.5  485.5 1324.8  485.5 1329  C 485.5 1333.2  482.2 1336.5  478 1336.5  C 473.8 1336.5  470.5 1333.2  470.5 1329  C 470.5 1324.8  473.8 1321.5  478 1321.5  Z " stroke-width="1" stroke="#797979" fill="none" />
  </g>
</svg>