<?xml version="1.0" encoding="utf-8"?>
<svg version="1.1" xmlns:xlink="http://www.w3.org/1999/xlink" width="970px" height="18px" preserveAspectRatio="xMinYMid meet" viewBox="1066 599  970 16" xmlns="http://www.w3.org/2000/svg">
  <g transform="matrix(0.999390827019096 -0.0348994967025011 0.0348994967024889 0.999390827019098 -20.2391672050289 54.4988873849866 )">
    <path d="M 1077 603.5  A 3 3 0 0 0 1074 606.5 A 3 3 0 0 0 1077 609.5 A 3 3 0 0 0 1080 606.5 A 3 3 0 0 0 1077 603.5 Z M 2025 603.5  A 3 3 0 0 0 2022 606.5 A 3 3 0 0 0 2025 609.5 A 3 3 0 0 0 2028 606.5 A 3 3 0 0 0 2025 603.5 Z " fill-rule="nonzero" fill="#d9001b" stroke="none" transform="matrix(0.999583481764422 0.0288593656152458 -0.0288593656152458 0.999583481764422 18.1492250290273 -44.5082577593685 )" />
    <path d="M 1075 606.5  L 2027 606.5  " stroke-width="1" stroke="#d9001b" fill="none" transform="matrix(0.999583481764422 0.0288593656152458 -0.0288593656152458 0.999583481764422 18.1492250290273 -44.5082577593685 )" />
  </g>
</svg>