<?xml version="1.0" encoding="utf-8"?>
<svg version="1.1" xmlns:xlink="http://www.w3.org/1999/xlink" width="22px" height="22px" preserveAspectRatio="xMinYMid meet" viewBox="1066 583  22 20" xmlns="http://www.w3.org/2000/svg">
  <g transform="matrix(0.999390827019094 -0.0348994967025025 0.0348994967025025 0.999390827019094 -20.0393222441483 37.9479975262725 )">
    <path d="M 1077 603.5  A 3 3 0 0 0 1074 606.5 A 3 3 0 0 0 1077 609.5 A 3 3 0 0 0 1080 606.5 A 3 3 0 0 0 1077 603.5 Z M 2025 603.5  A 3 3 0 0 0 2022 606.5 A 3 3 0 0 0 2025 609.5 A 3 3 0 0 0 2028 606.5 A 3 3 0 0 0 2025 603.5 Z " fill-rule="nonzero" fill="#d9001b" stroke="none" transform="matrix(0.999583481764422 0.0288593656152458 -0.0288593656152458 0.999583481764422 18.1492250290273 -44.5082577593685 )" />
    <path d="M 1075 606.5  L 2027 606.5  " stroke-width="1" stroke="#d9001b" fill="none" transform="matrix(0.999583481764422 0.0288593656152458 -0.0288593656152458 0.999583481764422 18.1492250290273 -44.5082577593685 )" />
  </g>
</svg>