<?xml version="1.0" encoding="utf-8"?>
<svg version="1.1" xmlns:xlink="http://www.w3.org/1999/xlink" width="1686px" height="19px" xmlns="http://www.w3.org/2000/svg">
  <g transform="matrix(1 0 0 1 -228 -797 )">
    <path d="M 240 803.5  A 3 3 0 0 0 237 806.5 A 3 3 0 0 0 240 809.5 A 3 3 0 0 0 243 806.5 A 3 3 0 0 0 240 803.5 Z M 1902 803.5  A 3 3 0 0 0 1899 806.5 A 3 3 0 0 0 1902 809.5 A 3 3 0 0 0 1905 806.5 A 3 3 0 0 0 1902 803.5 Z " fill-rule="nonzero" fill="#d9001b" stroke="none" />
    <path d="M 238 806.5  L 1904 806.5  " stroke-width="1" stroke="#d9001b" fill="none" />
  </g>
</svg>