<?xml version="1.0" encoding="utf-8"?>
<svg version="1.1" xmlns:xlink="http://www.w3.org/1999/xlink" width="516px" height="10px" preserveAspectRatio="xMinYMid meet" viewBox="1456 821  516 8" xmlns="http://www.w3.org/2000/svg">
  <g transform="matrix(0.999390827019095 0.0348994967025007 -0.0348994967025189 0.999390827019089 29.8362072688496 -59.3151696388351 )">
    <path d="M 1464 822.5  A 3 3 0 0 0 1461 825.5 A 3 3 0 0 0 1464 828.5 A 3 3 0 0 0 1467 825.5 A 3 3 0 0 0 1464 822.5 Z M 1964 822.5  A 3 3 0 0 0 1961 825.5 A 3 3 0 0 0 1964 828.5 A 3 3 0 0 0 1967 825.5 A 3 3 0 0 0 1964 822.5 Z " fill-rule="nonzero" fill="#d9001b" stroke="none" transform="matrix(0.999570792558953 -0.0292955741208026 0.0292955741208026 0.999570792558953 -23.4478348827672 50.5669247856403 )" />
    <path d="M 1462 825.5  L 1966 825.5  " stroke-width="1" stroke="#d9001b" fill="none" transform="matrix(0.999570792558953 -0.0292955741208026 0.0292955741208026 0.999570792558953 -23.4478348827672 50.5669247856403 )" />
  </g>
</svg>