<?xml version="1.0" encoding="utf-8"?>
<svg version="1.1" xmlns:xlink="http://www.w3.org/1999/xlink" width="970px" height="19px" xmlns="http://www.w3.org/2000/svg">
  <g transform="matrix(1 0 0 1 -1041 -282 )">
    <path d="M 1053 288.5  A 3 3 0 0 0 1050 291.5 A 3 3 0 0 0 1053 294.5 A 3 3 0 0 0 1056 291.5 A 3 3 0 0 0 1053 288.5 Z M 1999 288.5  A 3 3 0 0 0 1996 291.5 A 3 3 0 0 0 1999 294.5 A 3 3 0 0 0 2002 291.5 A 3 3 0 0 0 1999 288.5 Z " fill-rule="nonzero" fill="#d9001b" stroke="none" />
    <path d="M 1051 291.5  L 2001 291.5  " stroke-width="1" stroke="#d9001b" fill="none" />
  </g>
</svg>