<?xml version="1.0" encoding="utf-8"?>
<svg version="1.1" xmlns:xlink="http://www.w3.org/1999/xlink" width="22px" height="22px" preserveAspectRatio="xMinYMid meet" viewBox="2002 1145  22 20" xmlns="http://www.w3.org/2000/svg">
  <g transform="matrix(-0.997564050259823 -0.0697564737441262 0.0697564737441262 -0.997564050259823 3940.52770599856 2447.60625969702 )">
    <path d="M 1083 1185.5  A 3 3 0 0 0 1080 1188.5 A 3 3 0 0 0 1083 1191.5 A 3 3 0 0 0 1086 1188.5 A 3 3 0 0 0 1083 1185.5 Z M 2015 1185.5  A 3 3 0 0 0 2012 1188.5 A 3 3 0 0 0 2015 1191.5 A 3 3 0 0 0 2018 1188.5 A 3 3 0 0 0 2015 1185.5 Z " fill-rule="nonzero" fill="#d9001b" stroke="none" transform="matrix(0.997479915313812 -0.0709494083523682 0.0709494083523682 0.997479915313812 -80.4197606478838 112.895754187353 )" />
    <path d="M 1081 1188.5  L 2017 1188.5  " stroke-width="1" stroke="#d9001b" fill="none" transform="matrix(0.997479915313812 -0.0709494083523682 0.0709494083523682 0.997479915313812 -80.4197606478838 112.895754187353 )" />
  </g>
</svg>