<?xml version="1.0" encoding="utf-8"?>
<svg version="1.1" xmlns:xlink="http://www.w3.org/1999/xlink" width="22px" height="22px" preserveAspectRatio="xMinYMid meet" viewBox="1454 823  22 20" xmlns="http://www.w3.org/2000/svg">
  <g transform="matrix(0.999390827019094 0.0348994967024974 -0.0348994967025025 0.999390827019094 29.9637191702113 -50.6203215760642 )">
    <path d="M 1464 822.5  A 3 3 0 0 0 1461 825.5 A 3 3 0 0 0 1464 828.5 A 3 3 0 0 0 1467 825.5 A 3 3 0 0 0 1464 822.5 Z M 1964 822.5  A 3 3 0 0 0 1961 825.5 A 3 3 0 0 0 1964 828.5 A 3 3 0 0 0 1967 825.5 A 3 3 0 0 0 1964 822.5 Z " fill-rule="nonzero" fill="#d9001b" stroke="none" transform="matrix(0.999570792558953 -0.0292955741208026 0.0292955741208026 0.999570792558953 -23.4478348827672 50.5669247856403 )" />
    <path d="M 1462 825.5  L 1966 825.5  " stroke-width="1" stroke="#d9001b" fill="none" transform="matrix(0.999570792558953 -0.0292955741208026 0.0292955741208026 0.999570792558953 -23.4478348827672 50.5669247856403 )" />
  </g>
</svg>