<?xml version="1.0" encoding="utf-8"?>
<svg version="1.1" xmlns:xlink="http://www.w3.org/1999/xlink" width="122px" height="110px" xmlns="http://www.w3.org/2000/svg">
  <g transform="matrix(1 0 0 1 -399 -1013 )">
    <path d="M 399 1013  L 521 1013  L 521 1123  L 399 1123  L 399 1013  " fill-rule="nonzero" fill="#cccccc" stroke="none" />
    <path d="M 407 1021  L 513 1021  L 513 1115  L 407 1115  L 407 1021  " fill-rule="nonzero" fill="#ffffff" stroke="none" />
    <path d="M 470.69 1046  C 466.07 1046  462.44 1042.37  462.44 1037.75  C 462.44 1033.13  466.07 1029.5  470.69 1029.5  C 475.31 1029.5  478.94 1033.13  478.94 1037.75  C 478.94 1042.37  475.31 1046  470.69 1046  " fill-rule="nonzero" fill="#cccccc" stroke="none" />
    <path d="M 410 1112  L 410 1063.6  L 435 1041.6  L 470 1064.39344262295  L 490 1054.8  L 510 1064.39344262295  L 510 1112  L 410 1112  " fill-rule="nonzero" fill="#169bd5" stroke="none" />
  </g>
</svg>