<?xml version="1.0" encoding="utf-8"?>
<svg version="1.1" xmlns:xlink="http://www.w3.org/1999/xlink" width="25px" height="20px" xmlns="http://www.w3.org/2000/svg">
  <g transform="matrix(1 0 0 1 -491 -1017 )">
    <path d="M 503.5 1017  C 510.5 1017  516 1021.4  516 1027  C 516 1032.6  510.5 1037  503.5 1037  C 496.5 1037  491 1032.6  491 1027  C 491 1021.4  496.5 1017  503.5 1017  Z " fill-rule="nonzero" fill="#ffffff" stroke="none" />
    <path d="M 503.5 1017.5  C 510.22 1017.5  515.5 1021.68  515.5 1027  C 515.5 1032.32  510.22 1036.5  503.5 1036.5  C 496.78 1036.5  491.5 1032.32  491.5 1027  C 491.5 1021.68  496.78 1017.5  503.5 1017.5  Z " stroke-width="1" stroke="#797979" fill="none" />
  </g>
</svg>