<?xml version="1.0" encoding="utf-8"?>
<svg version="1.1" xmlns:xlink="http://www.w3.org/1999/xlink" width="22px" height="22px" preserveAspectRatio="xMinYMid meet" viewBox="644 1239  22 20" xmlns="http://www.w3.org/2000/svg">
  <g transform="matrix(0.98480775301221 0.173648177666937 -0.173648177666927 0.98480775301221 226.837495682994 -94.7644398840941 )">
    <path d="M 653.9 1204.8  L 650 1208.5  L 653.9 1212.2  L 657.7 1208.5  L 653.9 1204.8  Z M 653.9 1210.8  L 651.4 1208.5  L 653.9 1206.2  L 656.3 1208.5  L 653.9 1210.8  Z M 1112.1 1212.2  L 1116 1208.5  L 1112.1 1204.8  L 1108.3 1208.5  L 1112.1 1212.2  Z M 1112.1 1206.2  L 1114.6 1208.5  L 1112.1 1210.8  L 1109.7 1208.5  L 1112.1 1206.2  Z " fill-rule="nonzero" fill="#d9001b" stroke="none" transform="matrix(0.984235364918759 -0.176863637990507 0.176863637990507 0.984235364918759 -199.819533734792 175.222153841297 )" />
    <path d="M 656 1208.5  L 1110 1208.5  " stroke-width="1" stroke="#d9001b" fill="none" transform="matrix(0.984235364918759 -0.176863637990507 0.176863637990507 0.984235364918759 -199.819533734792 175.222153841297 )" />
  </g>
</svg>