<?xml version="1.0" encoding="utf-8"?>
<svg version="1.1" xmlns:xlink="http://www.w3.org/1999/xlink" width="474px" height="10px" preserveAspectRatio="xMinYMid meet" viewBox="646 1205  474 8" xmlns="http://www.w3.org/2000/svg">
  <g transform="matrix(0.984807753012208 0.173648177666931 -0.173648177666928 0.984807753012211 223.355400889537 -134.963914271663 )">
    <path d="M 653.9 1204.8  L 650 1208.5  L 653.9 1212.2  L 657.7 1208.5  L 653.9 1204.8  Z M 653.9 1210.8  L 651.4 1208.5  L 653.9 1206.2  L 656.3 1208.5  L 653.9 1210.8  Z M 1112.1 1212.2  L 1116 1208.5  L 1112.1 1204.8  L 1108.3 1208.5  L 1112.1 1212.2  Z M 1112.1 1206.2  L 1114.6 1208.5  L 1112.1 1210.8  L 1109.7 1208.5  L 1112.1 1206.2  Z " fill-rule="nonzero" fill="#d9001b" stroke="none" transform="matrix(0.984235364918759 -0.176863637990507 0.176863637990507 0.984235364918759 -199.819533734792 175.222153841297 )" />
    <path d="M 656 1208.5  L 1110 1208.5  " stroke-width="1" stroke="#d9001b" fill="none" transform="matrix(0.984235364918759 -0.176863637990507 0.176863637990507 0.984235364918759 -199.819533734792 175.222153841297 )" />
  </g>
</svg>