<?xml version="1.0" encoding="utf-8"?>
<svg version="1.1" xmlns:xlink="http://www.w3.org/1999/xlink" width="22px" height="22px" preserveAspectRatio="xMinYMid meet" viewBox="148 109  22 20" xmlns="http://www.w3.org/2000/svg">
  <g transform="matrix(0.999390827019097 0.0348994967025008 -0.0348994967025014 0.999390827019097 4.24989861156126 -5.47652839097013 )">
    <path d="M 161.9 96.8  L 158 100.5  L 161.9 104.2  L 165.7 100.5  L 161.9 96.8  Z M 161.9 102.8  L 159.4 100.5  L 161.9 98.2  L 164.3 100.5  L 161.9 102.8  Z M 1199.1 104.2  L 1203 100.5  L 1199.1 96.8  L 1195.3 100.5  L 1199.1 104.2  Z M 1199.1 98.2  L 1201.6 100.5  L 1199.1 102.8  L 1196.7 100.5  L 1199.1 98.2  Z " fill-rule="nonzero" fill="#d9001b" stroke="none" transform="matrix(0.999385851246611 -0.0350416941383571 0.0350416941383571 0.999385851246611 -3.10376203422379 23.9075948108676 )" />
    <path d="M 164 100.5  L 1197 100.5  " stroke-width="1" stroke="#d9001b" fill="none" transform="matrix(0.999385851246611 -0.0350416941383571 0.0350416941383571 0.999385851246611 -3.10376203422379 23.9075948108676 )" />
  </g>
</svg>