<?xml version="1.0" encoding="utf-8"?>
<svg version="1.1" xmlns:xlink="http://www.w3.org/1999/xlink" width="22px" height="20px" preserveAspectRatio="xMinYMid meet" viewBox="1552 1267  22 18" xmlns="http://www.w3.org/2000/svg">
  <g transform="matrix(-0.9848077530122 -0.173648177666935 0.173648177666927 -0.98480775301221 2880.67944325507 2804.026794537 )">
    <path d="M 1304.9 1294.8  L 1301 1298.5  L 1304.9 1302.2  L 1308.7 1298.5  L 1304.9 1294.8  Z M 1304.9 1300.8  L 1302.4 1298.5  L 1304.9 1296.2  L 1307.3 1298.5  L 1304.9 1300.8  Z M 1563.1 1302.2  L 1567 1298.5  L 1563.1 1294.8  L 1559.3 1298.5  L 1563.1 1302.2  Z M 1563.1 1296.2  L 1565.6 1298.5  L 1563.1 1300.8  L 1560.7 1298.5  L 1563.1 1296.2  Z " fill-rule="nonzero" fill="#d9001b" stroke="none" transform="matrix(0.985272550915759 -0.170991229049775 0.170991229049775 0.985272550915759 -200.912948934331 264.325015093263 )" />
    <path d="M 1307 1298.5  L 1561 1298.5  " stroke-width="1" stroke="#d9001b" fill="none" transform="matrix(0.985272550915759 -0.170991229049775 0.170991229049775 0.985272550915759 -200.912948934331 264.325015093263 )" />
  </g>
</svg>