<?xml version="1.0" encoding="utf-8"?>
<svg version="1.1" xmlns:xlink="http://www.w3.org/1999/xlink" width="12px" height="12px" viewBox="1270 1360.5  12 12" xmlns="http://www.w3.org/2000/svg">
  <path d="M 1276 1360.5  C 1279.36 1360.5  1282 1363.14  1282 1366.5  C 1282 1369.86  1279.36 1372.5  1276 1372.5  C 1272.64 1372.5  1270 1369.86  1270 1366.5  C 1270 1363.14  1272.64 1360.5  1276 1360.5  Z " fill-rule="nonzero" fill="#ffffff" stroke="none" />
  <path d="M 1276 1361  C 1279.08 1361  1281.5 1363.42  1281.5 1366.5  C 1281.5 1369.58  1279.08 1372  1276 1372  C 1272.92 1372  1270.5 1369.58  1270.5 1366.5  C 1270.5 1363.42  1272.92 1361  1276 1361  Z " stroke-width="1" stroke="#797979" fill="none" />
  <path d="M 1276 1369.5  C 1274.32 1369.5  1273 1368.18  1273 1366.5  C 1273 1364.82  1274.32 1363.5  1276 1363.5  C 1277.68 1363.5  1279 1364.82  1279 1366.5  C 1279 1368.18  1277.68 1369.5  1276 1369.5  " fill-rule="nonzero" fill="#797979" stroke="none" />
</svg>