<?xml version="1.0" encoding="utf-8"?>
<svg version="1.1" xmlns:xlink="http://www.w3.org/1999/xlink" width="12px" height="12px" viewBox="1564 1316.5  12 12" xmlns="http://www.w3.org/2000/svg">
  <path d="M 1570 1316.5  C 1573.36 1316.5  1576 1319.14  1576 1322.5  C 1576 1325.86  1573.36 1328.5  1570 1328.5  C 1566.64 1328.5  1564 1325.86  1564 1322.5  C 1564 1319.14  1566.64 1316.5  1570 1316.5  Z " fill-rule="nonzero" fill="#ffffff" stroke="none" />
  <path d="M 1570 1317  C 1573.08 1317  1575.5 1319.42  1575.5 1322.5  C 1575.5 1325.58  1573.08 1328  1570 1328  C 1566.92 1328  1564.5 1325.58  1564.5 1322.5  C 1564.5 1319.42  1566.92 1317  1570 1317  Z " stroke-width="1" stroke="#797979" fill="none" />
  <path d="M 1570 1325.5  C 1568.32 1325.5  1567 1324.18  1567 1322.5  C 1567 1320.82  1568.32 1319.5  1570 1319.5  C 1571.68 1319.5  1573 1320.82  1573 1322.5  C 1573 1324.18  1571.68 1325.5  1570 1325.5  " fill-rule="nonzero" fill="#797979" stroke="none" />
</svg>