<?xml version="1.0" encoding="utf-8"?>
<svg version="1.1" xmlns:xlink="http://www.w3.org/1999/xlink" width="12px" height="12px" viewBox="1690 1316.5  12 12" xmlns="http://www.w3.org/2000/svg">
  <path d="M 1696 1316.5  C 1699.36 1316.5  1702 1319.14  1702 1322.5  C 1702 1325.86  1699.36 1328.5  1696 1328.5  C 1692.64 1328.5  1690 1325.86  1690 1322.5  C 1690 1319.14  1692.64 1316.5  1696 1316.5  Z " fill-rule="nonzero" fill="#ffffff" stroke="none" />
  <path d="M 1696 1317  C 1699.08 1317  1701.5 1319.42  1701.5 1322.5  C 1701.5 1325.58  1699.08 1328  1696 1328  C 1692.92 1328  1690.5 1325.58  1690.5 1322.5  C 1690.5 1319.42  1692.92 1317  1696 1317  Z " stroke-width="1" stroke="#797979" fill="none" />
  <path d="M 1696 1325.5  C 1694.32 1325.5  1693 1324.18  1693 1322.5  C 1693 1320.82  1694.32 1319.5  1696 1319.5  C 1697.68 1319.5  1699 1320.82  1699 1322.5  C 1699 1324.18  1697.68 1325.5  1696 1325.5  " fill-rule="nonzero" fill="#797979" stroke="none" />
</svg>