<?xml version="1.0" encoding="utf-8"?>
<svg version="1.1" xmlns:xlink="http://www.w3.org/1999/xlink" width="22px" height="22px" preserveAspectRatio="xMinYMid meet" viewBox="428 317  22 20" xmlns="http://www.w3.org/2000/svg">
  <g transform="matrix(-0.987688340595138 -0.15643446504023 0.156434465040232 -0.987688340595138 821.441111453109 718.648817527271 )">
    <path d="M 108.9 349.8  L 105 353.5  L 108.9 357.2  L 112.7 353.5  L 108.9 349.8  Z M 108.9 355.8  L 106.4 353.5  L 108.9 351.2  L 111.3 353.5  L 108.9 355.8  Z M 438.1 357.2  L 442 353.5  L 438.1 349.8  L 434.3 353.5  L 438.1 357.2  Z M 438.1 351.2  L 440.6 353.5  L 438.1 355.8  L 435.7 353.5  L 438.1 351.2  Z " fill-rule="nonzero" fill="#d9001b" stroke="none" transform="matrix(0.987238563477158 -0.15924829287486 0.15924829287486 0.987238563477158 -52.8040186422659 48.0655759120989 )" />
    <path d="M 111 353.5  L 436 353.5  " stroke-width="1" stroke="#d9001b" fill="none" transform="matrix(0.987238563477158 -0.15924829287486 0.15924829287486 0.987238563477158 -52.8040186422659 48.0655759120989 )" />
  </g>
</svg>