<?xml version="1.0" encoding="utf-8"?>
<svg version="1.1" xmlns:xlink="http://www.w3.org/1999/xlink" width="704px" height="14px" preserveAspectRatio="xMinYMid meet" viewBox="186 497  704 12" xmlns="http://www.w3.org/2000/svg">
  <g transform="matrix(0.990268068741571 0.139173100960065 -0.139173100960064 0.990268068741568 75.2398487999475 -69.9799668935236 )">
    <path d="M 196.9 498.8  L 193 502.5  L 196.9 506.2  L 200.7 502.5  L 196.9 498.8  Z M 196.9 504.8  L 194.4 502.5  L 196.9 500.2  L 199.3 502.5  L 196.9 504.8  Z M 880.1 506.2  L 884 502.5  L 880.1 498.8  L 876.3 502.5  L 880.1 506.2  Z M 880.1 500.2  L 882.6 502.5  L 880.1 504.8  L 877.7 502.5  L 880.1 500.2  Z " fill-rule="nonzero" fill="#d9001b" stroke="none" transform="matrix(0.989166338895874 -0.146799025866431 0.146799025866431 0.989166338895874 -67.9325839933095 84.4951901338962 )" />
    <path d="M 199 502.5  L 878 502.5  " stroke-width="1" stroke="#d9001b" fill="none" transform="matrix(0.989166338895874 -0.146799025866431 0.146799025866431 0.989166338895874 -67.9325839933095 84.4951901338962 )" />
  </g>
</svg>