<?xml version="1.0" encoding="utf-8"?>
<svg version="1.1" xmlns:xlink="http://www.w3.org/1999/xlink" width="24px" height="22px" preserveAspectRatio="xMinYMid meet" viewBox="1976 431  24 20" xmlns="http://www.w3.org/2000/svg">
  <g transform="matrix(-0.998629534754577 -0.0523359562429444 0.0523359562429485 -0.998629534754572 3950.19535838896 985.439505837739 )">
    <path d="M 698.9 469.8  L 695 473.5  L 698.9 477.2  L 702.7 473.5  L 698.9 469.8  Z M 698.9 475.8  L 696.4 473.5  L 698.9 471.2  L 701.3 473.5  L 698.9 475.8  Z M 1986.1 477.2  L 1990 473.5  L 1986.1 469.8  L 1982.3 473.5  L 1986.1 477.2  Z M 1986.1 471.2  L 1988.6 473.5  L 1986.1 475.8  L 1983.7 473.5  L 1986.1 471.2  Z " fill-rule="nonzero" fill="#d9001b" stroke="none" transform="matrix(0.998749785209241 -0.0499886641599462 0.0499886641599462 0.998749785209241 -21.9912191231399 67.7017583381523 )" />
    <path d="M 701 473.5  L 1984 473.5  " stroke-width="1" stroke="#d9001b" fill="none" transform="matrix(0.998749785209241 -0.0499886641599462 0.0499886641599462 0.998749785209241 -21.9912191231399 67.7017583381523 )" />
  </g>
</svg>