<?xml version="1.0" encoding="utf-8"?>
<svg version="1.1" xmlns:xlink="http://www.w3.org/1999/xlink" width="44px" height="44px" xmlns="http://www.w3.org/2000/svg">
  <g transform="matrix(1 0 0 1 -1690 -106 )">
    <path d="M 1712 106  C 1724.32 106  1734 115.68  1734 128  C 1734 140.32  1724.32 150  1712 150  C 1699.68 150  1690 140.32  1690 128  C 1690 115.68  1699.68 106  1712 106  Z " fill-rule="nonzero" fill="#ffffff" stroke="none" />
    <path d="M 1712 106.5  C 1724.04 106.5  1733.5 115.96  1733.5 128  C 1733.5 140.04  1724.04 149.5  1712 149.5  C 1699.96 149.5  1690.5 140.04  1690.5 128  C 1690.5 115.96  1699.96 106.5  1712 106.5  Z " stroke-width="1" stroke="#797979" fill="none" />
  </g>
</svg>