<?xml version="1.0" encoding="utf-8"?>
<svg version="1.1" xmlns:xlink="http://www.w3.org/1999/xlink" width="24px" height="20px" preserveAspectRatio="xMinYMid meet" viewBox="1556 1003  24 18" xmlns="http://www.w3.org/2000/svg">
  <g transform="matrix(0.788010753606714 -0.615661475325651 0.615661475325659 0.788010753606714 -290.650274684894 1179.89031066063 )">
    <path d="M 1550.9 1064.8  L 1547 1068.5  L 1550.9 1072.2  L 1554.7 1068.5  L 1550.9 1064.8  Z M 1550.9 1070.8  L 1548.4 1068.5  L 1550.9 1066.2  L 1553.3 1068.5  L 1550.9 1070.8  Z M 1729.1 1072.2  L 1733 1068.5  L 1729.1 1064.8  L 1725.3 1068.5  L 1729.1 1072.2  Z M 1729.1 1066.2  L 1731.6 1068.5  L 1729.1 1070.8  L 1726.7 1068.5  L 1729.1 1066.2  Z " fill-rule="nonzero" fill="#d9001b" stroke="none" transform="matrix(0.787038292284275 0.616904146912834 -0.616904146912834 0.787038292284275 1008.41928163015 -784.173216242796 )" />
    <path d="M 1553 1068.5  L 1727 1068.5  " stroke-width="1" stroke="#d9001b" fill="none" transform="matrix(0.787038292284275 0.616904146912834 -0.616904146912834 0.787038292284275 1008.41928163015 -784.173216242796 )" />
  </g>
</svg>