<?xml version="1.0" encoding="utf-8"?>
<svg version="1.1" xmlns:xlink="http://www.w3.org/1999/xlink" width="22px" height="22px" preserveAspectRatio="xMinYMid meet" viewBox="896 -45  22 20" xmlns="http://www.w3.org/2000/svg">
  <g transform="matrix(-0.766044443118979 -0.642787609686543 0.642787609686538 -0.766044443118979 1624.29987624794 521.19680647653 )">
    <path d="M 746.9 20.8  L 743 24.5  L 746.9 28.2  L 750.7 24.5  L 746.9 20.8  Z M 746.9 26.8  L 744.4 24.5  L 746.9 22.2  L 749.3 24.5  L 746.9 26.8  Z M 926.1 28.2  L 930 24.5  L 926.1 20.8  L 922.3 24.5  L 926.1 28.2  Z M 926.1 22.2  L 928.6 24.5  L 926.1 26.8  L 923.7 24.5  L 926.1 22.2  Z " fill-rule="nonzero" fill="#d9001b" stroke="none" transform="matrix(0.76602135547017 -0.642815123471471 0.642815123471471 0.76602135547017 179.974165624152 543.447327574867 )" />
    <path d="M 749 24.5  L 924 24.5  " stroke-width="1" stroke="#d9001b" fill="none" transform="matrix(0.76602135547017 -0.642815123471471 0.642815123471471 0.76602135547017 179.974165624152 543.447327574867 )" />
  </g>
</svg>