<?xml version="1.0" encoding="utf-8"?>
<svg version="1.1" xmlns:xlink="http://www.w3.org/1999/xlink" width="22px" height="22px" preserveAspectRatio="xMinYMid meet" viewBox="1860 1001  22 20" xmlns="http://www.w3.org/2000/svg">
  <g transform="matrix(0.656059028990509 -0.754709580222772 0.754709580222762 0.656059028990509 -119.497828846454 1759.7859462874 )">
    <path d="M 1811.9 1141.8  L 1808 1145.5  L 1811.9 1149.2  L 1815.7 1145.5  L 1811.9 1141.8  Z M 1811.9 1147.8  L 1809.4 1145.5  L 1811.9 1143.2  L 1814.3 1145.5  L 1811.9 1147.8  Z M 2161.1 1149.2  L 2165 1145.5  L 2161.1 1141.8  L 2157.3 1145.5  L 2161.1 1149.2  Z M 2161.1 1143.2  L 2163.6 1145.5  L 2161.1 1147.8  L 2158.7 1145.5  L 2161.1 1143.2  Z " fill-rule="nonzero" fill="#d9001b" stroke="none" transform="matrix(0.649752670851075 0.760145687826942 -0.760145687826942 0.649752670851075 1566.5132047601 -1108.82109332813 )" />
    <path d="M 1814 1145.5  L 2159 1145.5  " stroke-width="1" stroke="#d9001b" fill="none" transform="matrix(0.649752670851075 0.760145687826942 -0.760145687826942 0.649752670851075 1566.5132047601 -1108.82109332813 )" />
  </g>
</svg>