<?xml version="1.0" encoding="utf-8"?>
<svg version="1.1" xmlns:xlink="http://www.w3.org/1999/xlink" width="2254px" height="22px" preserveAspectRatio="xMinYMid meet" viewBox="296 865  2254 20" xmlns="http://www.w3.org/2000/svg">
  <g transform="matrix(0.913545457642599 0.406736643075803 -0.406736643075805 0.913545457642608 478.919376465911 -503.13851853415 )">
    <path d="M 309.9 871.8  L 306 875.5  L 309.9 879.2  L 313.7 875.5  L 309.9 871.8  Z M 309.9 877.8  L 307.4 875.5  L 309.9 873.2  L 312.3 875.5  L 309.9 877.8  Z M 2535.1 879.2  L 2539 875.5  L 2535.1 871.8  L 2531.3 875.5  L 2535.1 879.2  Z M 2535.1 873.2  L 2537.6 875.5  L 2535.1 877.8  L 2532.7 875.5  L 2535.1 873.2  Z " fill-rule="nonzero" fill="#d9001b" stroke="none" transform="matrix(0.911829643706082 -0.410568752901191 0.410568752901191 0.911829643706082 -234.030611336895 661.22719793727 )" />
    <path d="M 312 875.5  L 2533 875.5  " stroke-width="1" stroke="#d9001b" fill="none" transform="matrix(0.911829643706082 -0.410568752901191 0.410568752901191 0.911829643706082 -234.030611336895 661.22719793727 )" />
  </g>
</svg>