<?xml version="1.0" encoding="utf-8"?>
<svg version="1.1" xmlns:xlink="http://www.w3.org/1999/xlink" width="22px" height="22px" preserveAspectRatio="xMinYMid meet" viewBox="2418 397  22 20" xmlns="http://www.w3.org/2000/svg">
  <g transform="matrix(-0.996194698091741 0.0871557427476593 -0.0871557427476541 -0.996194698091746 4884.22930896313 600.749942989276 )">
    <path d="M 563.9 318.8  L 560 322.5  L 563.9 326.2  L 567.7 322.5  L 563.9 318.8  Z M 563.9 324.8  L 561.4 322.5  L 563.9 320.2  L 566.3 322.5  L 563.9 324.8  Z M 2430.1 326.2  L 2434 322.5  L 2430.1 318.8  L 2426.3 322.5  L 2430.1 326.2  Z M 2430.1 320.2  L 2432.6 322.5  L 2430.1 324.8  L 2427.7 322.5  L 2430.1 320.2  Z " fill-rule="nonzero" fill="#d9001b" stroke="none" transform="matrix(0.995942841871062 0.0899880865770173 -0.0899880865770173 0.995942841871062 35.0947236401084 -133.403732109212 )" />
    <path d="M 566 322.5  L 2428 322.5  " stroke-width="1" stroke="#d9001b" fill="none" transform="matrix(0.995942841871062 0.0899880865770173 -0.0899880865770173 0.995942841871062 35.0947236401084 -133.403732109212 )" />
  </g>
</svg>