<?xml version="1.0" encoding="utf-8"?>
<svg version="1.1" xmlns:xlink="http://www.w3.org/1999/xlink" width="24px" height="22px" preserveAspectRatio="xMinYMid meet" viewBox="2014 741  24 20" xmlns="http://www.w3.org/2000/svg">
  <g transform="matrix(-0.990268068741575 0.139173100960069 -0.139173100960058 -0.990268068741564 4136.80210609143 1212.72661707981 )">
    <path d="M 1327.9 700.8  L 1324 704.5  L 1327.9 708.2  L 1331.7 704.5  L 1327.9 700.8  Z M 1327.9 706.8  L 1325.4 704.5  L 1327.9 702.2  L 1330.3 704.5  L 1327.9 706.8  Z M 2026.1 708.2  L 2030 704.5  L 2026.1 700.8  L 2022.3 704.5  L 2026.1 708.2  Z M 2026.1 702.2  L 2028.6 704.5  L 2026.1 706.8  L 2023.7 704.5  L 2026.1 702.2  Z " fill-rule="nonzero" fill="#d9001b" stroke="none" transform="matrix(0.991374280241479 0.131061193629885 -0.131061193629885 0.991374280241479 106.797942947295 -213.712802147439 )" />
    <path d="M 1330 704.5  L 2024 704.5  " stroke-width="1" stroke="#d9001b" fill="none" transform="matrix(0.991374280241479 0.131061193629885 -0.131061193629885 0.991374280241479 106.797942947295 -213.712802147439 )" />
  </g>
</svg>