<?xml version="1.0" encoding="utf-8"?>
<svg version="1.1" xmlns:xlink="http://www.w3.org/1999/xlink" width="47px" height="47px" xmlns="http://www.w3.org/2000/svg">
  <g transform="matrix(1 0 0 1 -864 -6535 )">
    <path d="M 887.5 6535  C 900.66 6535  911 6545.34  911 6558.5  C 911 6571.66  900.66 6582  887.5 6582  C 874.34 6582  864 6571.66  864 6558.5  C 864 6545.34  874.34 6535  887.5 6535  Z " fill-rule="nonzero" fill="#ffffff" stroke="none" />
    <path d="M 887.5 6535.5  C 900.38 6535.5  910.5 6545.62  910.5 6558.5  C 910.5 6571.38  900.38 6581.5  887.5 6581.5  C 874.62 6581.5  864.5 6571.38  864.5 6558.5  C 864.5 6545.62  874.62 6535.5  887.5 6535.5  Z " stroke-width="1" stroke="#797979" fill="none" />
  </g>
</svg>