<?xml version="1.0" encoding="utf-8"?>
<svg version="1.1" xmlns:xlink="http://www.w3.org/1999/xlink" width="228px" height="6px" preserveAspectRatio="xMinYMid meet" viewBox="1934 5755  228 4" xmlns="http://www.w3.org/2000/svg">
  <g transform="matrix(0.996194698091746 0.0871557427476594 -0.0871557427476554 0.996194698091754 509.548869306356 -156.587838061435 )">
    <path d="M 1940.9 5752.8  L 1937 5756.5  L 1940.9 5760.2  L 1944.7 5756.5  L 1940.9 5752.8  Z M 1940.9 5758.8  L 1938.4 5756.5  L 1940.9 5754.2  L 1943.3 5756.5  L 1940.9 5758.8  Z M 2156.1 5760.2  L 2160 5756.5  L 2156.1 5752.8  L 2152.3 5756.5  L 2156.1 5760.2  Z M 2156.1 5754.2  L 2158.6 5756.5  L 2156.1 5758.8  L 2153.7 5756.5  L 2156.1 5754.2  Z " fill-rule="nonzero" fill="#d9001b" stroke="none" transform="matrix(0.996473120072458 -0.0839125793493468 0.0839125793493468 0.996473120072458 -475.817949492945 192.197403100031 )" />
    <path d="M 1943 5756.5  L 2154 5756.5  " stroke-width="1" stroke="#d9001b" fill="none" transform="matrix(0.996473120072458 -0.0839125793493468 0.0839125793493468 0.996473120072458 -475.817949492945 192.197403100031 )" />
  </g>
</svg>