<?xml version="1.0" encoding="utf-8"?>
<svg version="1.1" xmlns:xlink="http://www.w3.org/1999/xlink" width="60px" height="30px" xmlns="http://www.w3.org/2000/svg">
  <g transform="matrix(1 0 0 1 -249 -110 )">
    <path d="M 249.5 135.970588235294  C 249.5 135.970588235294  249.5 110.5  249.5 110.5  C 249.5 110.5  308.5 110.5  308.5 110.5  C 308.5 110.5  308.5 135.970588235294  308.5 135.970588235294  C 308.5 135.970588235294  269.388231610747 135.970588235294  269.388231610747 135.970588235294  C 269.388231610747 135.970588235294  262 139.44740311094  262 139.44740311094  C 262 139.44740311094  254.611768389254 135.970588235294  254.611768389254 135.970588235294  C 254.611768389254 135.970588235294  249.5 135.970588235294  249.5 135.970588235294  Z " fill-rule="nonzero" fill="#ffffff" stroke="none" />
    <path d="M 249 136.470588235294  C 249 136.470588235294  249 110  249 110  C 249 110  309 110  309 110  C 309 110  309 136.470588235294  309 136.470588235294  C 309 136.470588235294  269.5 136.470588235294  269.5 136.470588235294  C 269.5 136.470588235294  262 140  262 140  C 262 140  254.5 136.470588235294  254.5 136.470588235294  C 254.5 136.470588235294  249 136.470588235294  249 136.470588235294  Z M 250 135.470588235294  C 250 135.470588235294  254.723536778507 135.470588235294  254.723536778507 135.470588235294  C 254.723536778507 135.470588235294  262 138.894806221879  262 138.894806221879  C 262 138.894806221879  269.276463221493 135.470588235294  269.276463221493 135.470588235294  C 269.276463221493 135.470588235294  308 135.470588235294  308 135.470588235294  C 308 135.470588235294  308 111  308 111  C 308 111  250 111  250 111  C 250 111  250 135.470588235294  250 135.470588235294  Z " fill-rule="nonzero" fill="#797979" stroke="none" />
  </g>
</svg>