<?xml version="1.0" encoding="utf-8"?>
<svg version="1.1" xmlns:xlink="http://www.w3.org/1999/xlink" width="22px" height="20px" preserveAspectRatio="xMinYMid meet" viewBox="730 291  22 18" xmlns="http://www.w3.org/2000/svg">
  <g transform="matrix(0.990268068741573 -0.139173100960064 0.139173100960068 0.990268068741572 -34.5405692255266 106.046847188936 )">
    <path d="M 736.9 385.8  L 733 389.5  L 736.9 393.2  L 740.7 389.5  L 736.9 385.8  Z M 736.9 391.8  L 734.4 389.5  L 736.9 387.2  L 739.3 389.5  L 736.9 391.8  Z M 1995.1 393.2  L 1999 389.5  L 1995.1 385.8  L 1991.3 389.5  L 1995.1 393.2  Z M 1995.1 387.2  L 1997.6 389.5  L 1995.1 391.8  L 1992.7 389.5  L 1995.1 387.2  Z " fill-rule="nonzero" fill="#d9001b" stroke="none" transform="matrix(0.989983067908611 0.141186136905343 -0.141186136905343 0.989983067908611 68.6751295614681 -188.958667963102 )" />
    <path d="M 739 389.5  L 1993 389.5  " stroke-width="1" stroke="#d9001b" fill="none" transform="matrix(0.989983067908611 0.141186136905343 -0.141186136905343 0.989983067908611 68.6751295614681 -188.958667963102 )" />
  </g>
</svg>