<?xml version="1.0" encoding="utf-8"?>
<svg version="1.1" xmlns:xlink="http://www.w3.org/1999/xlink" width="20px" height="20px" xmlns="http://www.w3.org/2000/svg">
  <g transform="matrix(1 0 0 1 -326 -81 )">
    <path d="M 7.14488636363636 16.5494791666667  C 7.23011363636364 16.4713541666667  7.27272727272727 16.3715277777778  7.27272727272727 16.25  L 7.27272727272727 7.08333333333333  C 7.27272727272727 6.96180555555556  7.23011363636364 6.86197916666667  7.14488636363636 6.78385416666667  C 7.05965909090909 6.70572916666667  6.95075757575758 6.66666666666667  6.81818181818182 6.66666666666667  L 5.90909090909091 6.66666666666667  C 5.77651515151515 6.66666666666667  5.66761363636364 6.70572916666667  5.58238636363636 6.78385416666667  C 5.49715909090909 6.86197916666667  5.45454545454545 6.96180555555556  5.45454545454545 7.08333333333333  L 5.45454545454545 16.25  C 5.45454545454545 16.3715277777778  5.49715909090909 16.4713541666667  5.58238636363636 16.5494791666667  C 5.66761363636364 16.6276041666667  5.77651515151515 16.6666666666667  5.90909090909091 16.6666666666667  L 6.81818181818182 16.6666666666667  C 6.95075757575758 16.6666666666667  7.05965909090909 16.6276041666667  7.14488636363636 16.5494791666667  Z M 10.78125 16.5494791666667  C 10.8664772727273 16.4713541666667  10.9090909090909 16.3715277777778  10.9090909090909 16.25  L 10.9090909090909 7.08333333333333  C 10.9090909090909 6.96180555555556  10.8664772727273 6.86197916666667  10.78125 6.78385416666667  C 10.6960227272727 6.70572916666667  10.5871212121212 6.66666666666667  10.4545454545455 6.66666666666667  L 9.54545454545455 6.66666666666667  C 9.41287878787879 6.66666666666667  9.30397727272727 6.70572916666667  9.21875 6.78385416666667  C 9.13352272727273 6.86197916666667  9.09090909090909 6.96180555555556  9.09090909090909 7.08333333333333  L 9.09090909090909 16.25  C 9.09090909090909 16.3715277777778  9.13352272727273 16.4713541666667  9.21875 16.5494791666667  C 9.30397727272727 16.6276041666667  9.41287878787879 16.6666666666667  9.54545454545455 16.6666666666667  L 10.4545454545455 16.6666666666667  C 10.5871212121212 16.6666666666667  10.6960227272727 16.6276041666667  10.78125 16.5494791666667  Z M 14.4176136363636 16.5494791666667  C 14.5028409090909 16.4713541666667  14.5454545454545 16.3715277777778  14.5454545454545 16.25  L 14.5454545454545 7.08333333333333  C 14.5454545454545 6.96180555555556  14.5028409090909 6.86197916666667  14.4176136363636 6.78385416666667  C 14.3323863636364 6.70572916666667  14.2234848484848 6.66666666666667  14.0909090909091 6.66666666666667  L 13.1818181818182 6.66666666666667  C 13.0492424242424 6.66666666666667  12.9403409090909 6.70572916666667  12.8551136363636 6.78385416666667  C 12.7698863636364 6.86197916666667  12.7272727272727 6.96180555555556  12.7272727272727 7.08333333333333  L 12.7272727272727 16.25  C 12.7272727272727 16.3715277777778  12.7698863636364 16.4713541666667  12.8551136363636 16.5494791666667  C 12.9403409090909 16.6276041666667  13.0492424242424 16.6666666666667  13.1818181818182 16.6666666666667  L 14.0909090909091 16.6666666666667  C 14.2234848484848 16.6666666666667  14.3323863636364 16.6276041666667  14.4176136363636 16.5494791666667  Z M 7.51420454545455 1.80989583333333  L 6.81818181818182 3.33333333333333  L 13.1818181818182 3.33333333333333  L 12.5 1.80989583333333  C 12.4337121212121 1.73177083333333  12.3532196969697 1.68402777777778  12.2585227272727 1.66666666666667  L 7.75568181818182 1.66666666666667  C 7.66098484848485 1.68402777777778  7.58049242424243 1.73177083333333  7.51420454545455 1.80989583333333  Z M 19.8721590909091 3.45052083333333  C 19.9573863636364 3.52864583333333  20 3.62847222222222  20 3.75  L 20 4.58333333333333  C 20 4.70486111111111  19.9573863636364 4.8046875  19.8721590909091 4.8828125  C 19.7869318181818 4.9609375  19.6780303030303 5  19.5454545454545 5  L 18 5  L 18 17.34375  C 18.1818181818182 18.0642361111111  17.9592803030303 18.6870659722222  17.5142045454545 19.2122395833333  C 17.0691287878788 19.7374131944444  16.5340909090909 20  15.9090909090909 20  L 4.09090909090909 20  C 3.46590909090909 20  2.93087121212121 19.74609375  2.48579545454545 19.23828125  C 2.0407196969697 18.73046875  1.81818181818182 18.1163194444444  2 17.3958333333333  L 2 5  L 0.454545454545455 5  C 0.321969696969697 5  0.213068181818182 4.9609375  0.127840909090909 4.8828125  C 0.0426136363636364 4.8046875  0 4.70486111111111  0 4.58333333333333  L 0 3.75  C 0 3.62847222222222  0.0426136363636364 3.52864583333333  0.127840909090909 3.45052083333333  C 0.213068181818182 3.37239583333333  0.321969696969697 3.33333333333333  0.454545454545455 3.33333333333333  L 4.84375 3.33333333333333  L 5.83806818181818 1.15885416666667  C 5.98011363636364 0.837673611111109  6.23579545454546 0.564236111111109  6.60511363636364 0.338541666666667  C 6.97443181818182 0.112847222222221  7.34848484848485 0  7.72727272727273 0  L 12.2727272727273 0  C 12.6515151515152 0  13.0255681818182 0.112847222222221  13.3948863636364 0.338541666666667  C 13.7642045454545 0.564236111111109  14.0198863636364 0.837673611111109  14.1619318181818 1.15885416666667  L 15.15625 3.33333333333333  L 19.5454545454545 3.33333333333333  C 19.6780303030303 3.33333333333333  19.7869318181818 3.37239583333333  19.8721590909091 3.45052083333333  Z " fill-rule="nonzero" fill="#000000" stroke="none" transform="matrix(1 0 0 1 326 81 )" />
  </g>
</svg>