<?xml version="1.0" encoding="utf-8"?>
<svg version="1.1" xmlns:xlink="http://www.w3.org/1999/xlink" width="24px" height="22px" preserveAspectRatio="xMinYMid meet" viewBox="1984 539  24 20" xmlns="http://www.w3.org/2000/svg">
  <g transform="matrix(-0.987688340595137 0.156434465040235 -0.156434465040237 -0.987688340595136 4053.30844913498 778.997706766422 )">
    <path d="M 910 462.5  A 3 3 0 0 0 907 465.5 A 3 3 0 0 0 910 468.5 A 3 3 0 0 0 913 465.5 A 3 3 0 0 0 910 462.5 Z M 2003 462.5  A 3 3 0 0 0 2000 465.5 A 3 3 0 0 0 2003 468.5 A 3 3 0 0 0 2006 465.5 A 3 3 0 0 0 2003 462.5 Z " fill-rule="nonzero" fill="#d9001b" stroke="none" transform="matrix(0.988290948118009 0.152581132083906 -0.152581132083906 0.988290948118009 88.0807510511779 -216.783855229143 )" />
    <path d="M 908 465.5  L 2005 465.5  " stroke-width="1" stroke="#d9001b" fill="none" transform="matrix(0.988290948118009 0.152581132083906 -0.152581132083906 0.988290948118009 88.0807510511779 -216.783855229143 )" />
  </g>
</svg>