<?xml version="1.0" encoding="utf-8"?>
<svg version="1.1" xmlns:xlink="http://www.w3.org/1999/xlink" width="22px" height="22px" preserveAspectRatio="xMinYMid meet" viewBox="672 1013  22 20" xmlns="http://www.w3.org/2000/svg">
  <g transform="matrix(0.987688340595137 0.156434465040232 -0.156434465040232 0.987688340595137 168.441321109679 -94.2499120513039 )">
    <path d="M 676 942.5  A 3 3 0 0 0 673 945.5 A 3 3 0 0 0 676 948.5 A 3 3 0 0 0 679 945.5 A 3 3 0 0 0 676 942.5 Z M 1689 942.5  A 3 3 0 0 0 1686 945.5 A 3 3 0 0 0 1689 948.5 A 3 3 0 0 0 1692 945.5 A 3 3 0 0 0 1689 942.5 Z " fill-rule="nonzero" fill="#d9001b" stroke="none" transform="matrix(0.988120335942992 -0.153682145013367 0.153682145013367 0.988120335942992 -131.258765362726 192.961358844207 )" />
    <path d="M 674 945.5  L 1691 945.5  " stroke-width="1" stroke="#d9001b" fill="none" transform="matrix(0.988120335942992 -0.153682145013367 0.153682145013367 0.988120335942992 -131.258765362726 192.961358844207 )" />
  </g>
</svg>