<?xml version="1.0" encoding="utf-8"?>
<svg version="1.1" xmlns:xlink="http://www.w3.org/1999/xlink" width="1028px" height="10px" preserveAspectRatio="xMinYMid meet" viewBox="668 941  1028 8" xmlns="http://www.w3.org/2000/svg">
  <g transform="matrix(0.987688340595138 0.156434465040229 -0.156434465040227 0.987688340595126 162.382950879561 -173.271019539945 )">
    <path d="M 676 942.5  A 3 3 0 0 0 673 945.5 A 3 3 0 0 0 676 948.5 A 3 3 0 0 0 679 945.5 A 3 3 0 0 0 676 942.5 Z M 1689 942.5  A 3 3 0 0 0 1686 945.5 A 3 3 0 0 0 1689 948.5 A 3 3 0 0 0 1692 945.5 A 3 3 0 0 0 1689 942.5 Z " fill-rule="nonzero" fill="#d9001b" stroke="none" transform="matrix(0.988120335942992 -0.153682145013367 0.153682145013367 0.988120335942992 -131.258765362726 192.961358844207 )" />
    <path d="M 674 945.5  L 1691 945.5  " stroke-width="1" stroke="#d9001b" fill="none" transform="matrix(0.988120335942992 -0.153682145013367 0.153682145013367 0.988120335942992 -131.258765362726 192.961358844207 )" />
  </g>
</svg>