<?xml version="1.0" encoding="utf-8"?>
<svg version="1.1" xmlns:xlink="http://www.w3.org/1999/xlink" width="12px" height="12px" viewBox="572 490.5  12 12" xmlns="http://www.w3.org/2000/svg">
  <path d="M 578 490.5  C 581.36 490.5  584 493.14  584 496.5  C 584 499.86  581.36 502.5  578 502.5  C 574.64 502.5  572 499.86  572 496.5  C 572 493.14  574.64 490.5  578 490.5  Z " fill-rule="nonzero" fill="#ffffff" stroke="none" />
  <path d="M 578 491  C 581.08 491  583.5 493.42  583.5 496.5  C 583.5 499.58  581.08 502  578 502  C 574.92 502  572.5 499.58  572.5 496.5  C 572.5 493.42  574.92 491  578 491  Z " stroke-width="1" stroke="#797979" fill="none" />
  <path d="M 578 499.5  C 576.32 499.5  575 498.18  575 496.5  C 575 494.82  576.32 493.5  578 493.5  C 579.68 493.5  581 494.82  581 496.5  C 581 498.18  579.68 499.5  578 499.5  " fill-rule="nonzero" fill="#797979" stroke="none" />
</svg>