<?xml version="1.0" encoding="utf-8"?>
<svg version="1.1" xmlns:xlink="http://www.w3.org/1999/xlink" width="1236px" height="10px" preserveAspectRatio="xMinYMid meet" viewBox="742 529  1236 8" xmlns="http://www.w3.org/2000/svg">
  <g transform="matrix(0.998629534754574 -0.052335956242944 0.0523359562429393 0.998629534754577 -26.0312319437072 71.9073584662142 )">
    <path d="M 749 530.5  A 3 3 0 0 0 746 533.5 A 3 3 0 0 0 749 536.5 A 3 3 0 0 0 752 533.5 A 3 3 0 0 0 749 530.5 Z M 1970 530.5  A 3 3 0 0 0 1967 533.5 A 3 3 0 0 0 1970 536.5 A 3 3 0 0 0 1973 533.5 A 3 3 0 0 0 1970 530.5 Z " fill-rule="nonzero" fill="#d9001b" stroke="none" transform="matrix(0.998524898015253 0.0542957460914578 -0.0542957460914578 0.998524898015253 30.972181688056 -73.0280999024744 )" />
    <path d="M 747 533.5  L 1972 533.5  " stroke-width="1" stroke="#d9001b" fill="none" transform="matrix(0.998524898015253 0.0542957460914578 -0.0542957460914578 0.998524898015253 30.972181688056 -73.0280999024744 )" />
  </g>
</svg>