<?xml version="1.0" encoding="utf-8"?>
<svg version="1.1" xmlns:xlink="http://www.w3.org/1999/xlink" width="24px" height="24px" xmlns="http://www.w3.org/2000/svg">
  <g transform="matrix(1 0 0 1 -541 -545 )">
    <path d="M 553 545  C 559.72 545  565 550.28  565 557  C 565 563.72  559.72 569  553 569  C 546.28 569  541 563.72  541 557  C 541 550.28  546.28 545  553 545  Z " fill-rule="nonzero" fill="#02a7f0" stroke="none" />
    <path d="M 553 545.5  C 559.44 545.5  564.5 550.56  564.5 557  C 564.5 563.44  559.44 568.5  553 568.5  C 546.56 568.5  541.5 563.44  541.5 557  C 541.5 550.56  546.56 545.5  553 545.5  Z " stroke-width="1" stroke="#797979" fill="none" />
  </g>
</svg>