<?xml version="1.0" encoding="utf-8"?>
<svg version="1.1" xmlns:xlink="http://www.w3.org/1999/xlink" width="24px" height="20px" preserveAspectRatio="xMinYMid meet" viewBox="1268 557  24 18" xmlns="http://www.w3.org/2000/svg">
  <g transform="matrix(0.999390827019097 0.0348994967024984 -0.0348994967025079 0.999390827019096 20.5328565491748 -44.3265638720061 )">
    <path d="M 1282 560  L 1282 555  L 1277 555  L 1277 560  L 1282 560  Z M 1281 559  L 1278 559  L 1278 556  L 1281 556  L 1281 559  Z M 1922 555  L 1922 560  L 1927 560  L 1927 555  L 1922 555  Z M 1923 556  L 1926 556  L 1926 559  L 1923 559  L 1923 556  Z " fill-rule="nonzero" fill="#d9001b" stroke="none" transform="matrix(0.999655248397695 -0.0262561297784592 0.0262561297784592 0.999655248397695 -14.0855002845979 42.2545189233769 )" />
    <path d="M 1282 557.5  L 1922 557.5  " stroke-width="1" stroke="#d9001b" fill="none" transform="matrix(0.999655248397695 -0.0262561297784592 0.0262561297784592 0.999655248397695 -14.0855002845979 42.2545189233769 )" />
  </g>
</svg>