<?xml version="1.0" encoding="utf-8"?>
<svg version="1.1" xmlns:xlink="http://www.w3.org/1999/xlink" width="12px" height="12px" viewBox="427 196.5  12 12" xmlns="http://www.w3.org/2000/svg">
  <path d="M 433 196.5  C 436.36 196.5  439 199.14  439 202.5  C 439 205.86  436.36 208.5  433 208.5  C 429.64 208.5  427 205.86  427 202.5  C 427 199.14  429.64 196.5  433 196.5  Z " fill-rule="nonzero" fill="#f0f0f0" stroke="none" />
  <path d="M 433 197  C 436.08 197  438.5 199.42  438.5 202.5  C 438.5 205.58  436.08 208  433 208  C 429.92 208  427.5 205.58  427.5 202.5  C 427.5 199.42  429.92 197  433 197  Z " stroke-width="1" stroke="#797979" fill="none" />
  <path d="M 433 205.5  C 431.32 205.5  430 204.18  430 202.5  C 430 200.82  431.32 199.5  433 199.5  C 434.68 199.5  436 200.82  436 202.5  C 436 204.18  434.68 205.5  433 205.5  " fill-rule="nonzero" fill="#797979" stroke="none" />
</svg>