<?xml version="1.0" encoding="utf-8"?>
<svg version="1.1" xmlns:xlink="http://www.w3.org/1999/xlink" width="12px" height="12px" viewBox="816 1004.5  12 12" xmlns="http://www.w3.org/2000/svg">
  <path d="M 822 1004.5  C 825.36 1004.5  828 1007.14  828 1010.5  C 828 1013.86  825.36 1016.5  822 1016.5  C 818.64 1016.5  816 1013.86  816 1010.5  C 816 1007.14  818.64 1004.5  822 1004.5  Z " fill-rule="nonzero" fill="#f0f0f0" stroke="none" />
  <path d="M 822 1005  C 825.08 1005  827.5 1007.42  827.5 1010.5  C 827.5 1013.58  825.08 1016  822 1016  C 818.92 1016  816.5 1013.58  816.5 1010.5  C 816.5 1007.42  818.92 1005  822 1005  Z " stroke-width="1" stroke="#797979" fill="none" />
  <path d="M 822 1013.5  C 820.32 1013.5  819 1012.18  819 1010.5  C 819 1008.82  820.32 1007.5  822 1007.5  C 823.68 1007.5  825 1008.82  825 1010.5  C 825 1012.18  823.68 1013.5  822 1013.5  " fill-rule="nonzero" fill="#797979" stroke="none" />
</svg>