<?xml version="1.0" encoding="utf-8"?>
<svg version="1.1" xmlns:xlink="http://www.w3.org/1999/xlink" width="12px" height="12px" viewBox="1340 456.5  12 12" xmlns="http://www.w3.org/2000/svg">
  <path d="M 1346 456.5  C 1349.36 456.5  1352 459.14  1352 462.5  C 1352 465.86  1349.36 468.5  1346 468.5  C 1342.64 468.5  1340 465.86  1340 462.5  C 1340 459.14  1342.64 456.5  1346 456.5  Z " fill-rule="nonzero" fill="#f0f0f0" stroke="none" />
  <path d="M 1346 457  C 1349.08 457  1351.5 459.42  1351.5 462.5  C 1351.5 465.58  1349.08 468  1346 468  C 1342.92 468  1340.5 465.58  1340.5 462.5  C 1340.5 459.42  1342.92 457  1346 457  Z " stroke-width="1" stroke="#797979" fill="none" />
  <path d="M 1346 465.5  C 1344.32 465.5  1343 464.18  1343 462.5  C 1343 460.82  1344.32 459.5  1346 459.5  C 1347.68 459.5  1349 460.82  1349 462.5  C 1349 464.18  1347.68 465.5  1346 465.5  " fill-rule="nonzero" fill="#797979" stroke="none" />
</svg>