<?xml version="1.0" encoding="utf-8"?>
<svg version="1.1" xmlns:xlink="http://www.w3.org/1999/xlink" width="12px" height="12px" viewBox="1598 443.5  12 12" xmlns="http://www.w3.org/2000/svg">
  <path d="M 1604 443.5  C 1607.36 443.5  1610 446.14  1610 449.5  C 1610 452.86  1607.36 455.5  1604 455.5  C 1600.64 455.5  1598 452.86  1598 449.5  C 1598 446.14  1600.64 443.5  1604 443.5  Z " fill-rule="nonzero" fill="#ffffff" stroke="none" />
  <path d="M 1604 444  C 1607.08 444  1609.5 446.42  1609.5 449.5  C 1609.5 452.58  1607.08 455  1604 455  C 1600.92 455  1598.5 452.58  1598.5 449.5  C 1598.5 446.42  1600.92 444  1604 444  Z " stroke-width="1" stroke="#797979" fill="none" />
  <path d="M 1604 452.5  C 1602.32 452.5  1601 451.18  1601 449.5  C 1601 447.82  1602.32 446.5  1604 446.5  C 1605.68 446.5  1607 447.82  1607 449.5  C 1607 451.18  1605.68 452.5  1604 452.5  " fill-rule="nonzero" fill="#797979" stroke="none" />
</svg>