<?xml version="1.0" encoding="utf-8"?>
<svg version="1.1" xmlns:xlink="http://www.w3.org/1999/xlink" width="12px" height="12px" viewBox="1328 362.5  12 12" xmlns="http://www.w3.org/2000/svg">
  <path d="M 1334 362.5  C 1337.36 362.5  1340 365.14  1340 368.5  C 1340 371.86  1337.36 374.5  1334 374.5  C 1330.64 374.5  1328 371.86  1328 368.5  C 1328 365.14  1330.64 362.5  1334 362.5  Z " fill-rule="nonzero" fill="#ffffff" stroke="none" />
  <path d="M 1334 363  C 1337.08 363  1339.5 365.42  1339.5 368.5  C 1339.5 371.58  1337.08 374  1334 374  C 1330.92 374  1328.5 371.58  1328.5 368.5  C 1328.5 365.42  1330.92 363  1334 363  Z " stroke-width="1" stroke="#797979" fill="none" />
  <path d="M 1334 371.5  C 1332.32 371.5  1331 370.18  1331 368.5  C 1331 366.82  1332.32 365.5  1334 365.5  C 1335.68 365.5  1337 366.82  1337 368.5  C 1337 370.18  1335.68 371.5  1334 371.5  " fill-rule="nonzero" fill="#797979" stroke="none" />
</svg>