<?xml version="1.0" encoding="utf-8"?>
<svg version="1.1" xmlns:xlink="http://www.w3.org/1999/xlink" width="12px" height="12px" viewBox="1340 545.5  12 12" xmlns="http://www.w3.org/2000/svg">
  <path d="M 1346 545.5  C 1349.36 545.5  1352 548.14  1352 551.5  C 1352 554.86  1349.36 557.5  1346 557.5  C 1342.64 557.5  1340 554.86  1340 551.5  C 1340 548.14  1342.64 545.5  1346 545.5  Z " fill-rule="nonzero" fill="#ffffff" stroke="none" />
  <path d="M 1346 546  C 1349.08 546  1351.5 548.42  1351.5 551.5  C 1351.5 554.58  1349.08 557  1346 557  C 1342.92 557  1340.5 554.58  1340.5 551.5  C 1340.5 548.42  1342.92 546  1346 546  Z " stroke-width="1" stroke="#797979" fill="none" />
  <path d="M 1346 554.5  C 1344.32 554.5  1343 553.18  1343 551.5  C 1343 549.82  1344.32 548.5  1346 548.5  C 1347.68 548.5  1349 549.82  1349 551.5  C 1349 553.18  1347.68 554.5  1346 554.5  " fill-rule="nonzero" fill="#797979" stroke="none" />
</svg>