<?xml version="1.0" encoding="utf-8"?>
<svg version="1.1" xmlns:xlink="http://www.w3.org/1999/xlink" width="12px" height="12px" viewBox="1681 443.5  12 12" xmlns="http://www.w3.org/2000/svg">
  <path d="M 1687 443.5  C 1690.36 443.5  1693 446.14  1693 449.5  C 1693 452.86  1690.36 455.5  1687 455.5  C 1683.64 455.5  1681 452.86  1681 449.5  C 1681 446.14  1683.64 443.5  1687 443.5  Z " fill-rule="nonzero" fill="#ffffff" stroke="none" />
  <path d="M 1687 444  C 1690.08 444  1692.5 446.42  1692.5 449.5  C 1692.5 452.58  1690.08 455  1687 455  C 1683.92 455  1681.5 452.58  1681.5 449.5  C 1681.5 446.42  1683.92 444  1687 444  Z " stroke-width="1" stroke="#797979" fill="none" />
  <path d="M 1687 452.5  C 1685.32 452.5  1684 451.18  1684 449.5  C 1684 447.82  1685.32 446.5  1687 446.5  C 1688.68 446.5  1690 447.82  1690 449.5  C 1690 451.18  1688.68 452.5  1687 452.5  " fill-rule="nonzero" fill="#797979" stroke="none" />
</svg>