<?xml version="1.0" encoding="utf-8"?>
<svg version="1.1" xmlns:xlink="http://www.w3.org/1999/xlink" width="22px" height="22px" preserveAspectRatio="xMinYMid meet" viewBox="1638 81  22 20" xmlns="http://www.w3.org/2000/svg">
  <g transform="matrix(0.406736643075804 -0.913545457642608 0.913545457642597 0.406736643075804 895.158638922523 1560.42342513276 )">
    <path d="M 1495.9 326.8  L 1492 330.5  L 1495.9 334.2  L 1499.7 330.5  L 1495.9 326.8  Z M 1495.9 332.8  L 1493.4 330.5  L 1495.9 328.2  L 1498.3 330.5  L 1495.9 332.8  Z M 2016.1 334.2  L 2020 330.5  L 2016.1 326.8  L 2012.3 330.5  L 2016.1 334.2  Z M 2016.1 328.2  L 2018.6 330.5  L 2016.1 332.8  L 2013.7 330.5  L 2016.1 328.2  Z " fill-rule="nonzero" fill="#d9001b" stroke="none" transform="matrix(0.409049754600416 0.912512081159115 -0.912512081159115 0.409049754600416 1339.29387374476 -1407.06215841084 )" />
    <path d="M 1498 330.5  L 2014 330.5  " stroke-width="1" stroke="#d9001b" fill="none" transform="matrix(0.409049754600416 0.912512081159115 -0.912512081159115 0.409049754600416 1339.29387374476 -1407.06215841084 )" />
  </g>
</svg>