<?xml version="1.0" encoding="utf-8"?>
<svg version="1.1" xmlns:xlink="http://www.w3.org/1999/xlink" width="53px" height="67px" xmlns="http://www.w3.org/2000/svg">
  <defs>
    <filter x="1673px" y="1423px" width="53px" height="67px" filterUnits="userSpaceOnUse" id="filter26">
      <feOffset dx="1" dy="1" in="SourceAlpha" result="shadowOffsetInner" />
      <feGaussianBlur stdDeviation="2.5" in="shadowOffsetInner" result="shadowGaussian" />
      <feComposite in2="shadowGaussian" operator="atop" in="SourceAlpha" result="shadowComposite" />
      <feColorMatrix type="matrix" values="0 0 0 0 0  0 0 0 0 0  0 0 0 0 0  0 0 0 0.698039215686274 0  " in="shadowComposite" />
    </filter>
    <g id="widget27">
      <path d="M 1698.5 1483.04071174747  C 1690.1 1469.15966876767  1677.5 1460.8310429798  1677.5 1446.95  C 1677.5 1439.72571428571  1681.7 1427.5  1698.5 1427.5  C 1715.3 1427.5  1719.5 1439.72571428571  1719.5 1446.95  C 1719.5 1460.8310429798  1706.9 1469.15966876767  1698.5 1483.04071174747  Z " fill-rule="nonzero" fill="#f59a23" stroke="none" />
      <path d="M 1698.5 1484  C 1689.9 1469.75  1677 1461.2  1677 1446.95  C 1677 1439.54  1681.3 1427  1698.5 1427  C 1715.7 1427  1720 1439.54  1720 1446.95  C 1720 1461.2  1707.1 1469.75  1698.5 1484  Z M 1698.5 1482.08142349494  C 1706.7 1468.56933753535  1719 1460.46208595959  1719 1446.95  C 1719 1439.91142857143  1714.9 1428  1698.5 1428  C 1682.1 1428  1678 1439.91142857143  1678 1446.95  C 1678 1460.46208595959  1690.3 1468.56933753535  1698.5 1482.08142349494  Z " fill-rule="nonzero" fill="#d9001b" stroke="none" />
    </g>
  </defs>
  <g transform="matrix(1 0 0 1 -1673 -1423 )">
    <use xlink:href="#widget27" filter="url(#filter26)" />
    <use xlink:href="#widget27" />
  </g>
</svg>