<?xml version="1.0" encoding="utf-8"?>
<svg version="1.1" xmlns:xlink="http://www.w3.org/1999/xlink" width="170px" height="170px" xmlns="http://www.w3.org/2000/svg">
  <g transform="matrix(1 0 0 1 -798 -341 )">
    <path d="M 883 341  C 930.6 341  968 378.4  968 426  C 968 473.6  930.6 511  883 511  C 835.4 511  798 473.6  798 426  C 798 378.4  835.4 341  883 341  Z " fill-rule="nonzero" fill="#ffffff" stroke="none" fill-opacity="0.207843137254902" />
    <path d="M 883 341.5  C 930.32 341.5  967.5 378.68  967.5 426  C 967.5 473.32  930.32 510.5  883 510.5  C 835.68 510.5  798.5 473.32  798.5 426  C 798.5 378.68  835.68 341.5  883 341.5  Z " stroke-width="1" stroke="#797979" fill="none" />
  </g>
</svg>