<?xml version="1.0" encoding="utf-8"?>
<svg version="1.1" xmlns:xlink="http://www.w3.org/1999/xlink" width="923px" height="163px" xmlns="http://www.w3.org/2000/svg">
  <g transform="matrix(1 0 0 1 -96 -29 )">
    <path d="M 97 39  A 9 9 0 0 1 106 30 L 1009 30  A 9 9 0 0 1 1018 39 L 1018 182  A 9 9 0 0 1 1009 191 L 106 191  A 9 9 0 0 1 97 182 L 97 39  Z " fill-rule="nonzero" fill="#f7f7f7" stroke="none" />
    <path d="M 96.5 39  A 9.5 9.5 0 0 1 106 29.5 L 1009 29.5  A 9.5 9.5 0 0 1 1018.5 39 L 1018.5 182  A 9.5 9.5 0 0 1 1009 191.5 L 106 191.5  A 9.5 9.5 0 0 1 96.5 182 L 96.5 39  Z " stroke-width="1" stroke-dasharray="9,4" stroke="#d7d7d7" fill="none" stroke-dashoffset="0.5" />
  </g>
</svg>