<?xml version="1.0" encoding="utf-8"?>
<svg version="1.1" xmlns:xlink="http://www.w3.org/1999/xlink" width="1070px" height="168px" xmlns="http://www.w3.org/2000/svg">
  <g transform="matrix(1 0 0 1 -96 -24 )">
    <path d="M 97 34  A 9 9 0 0 1 106 25 L 1156 25  A 9 9 0 0 1 1165 34 L 1165 182  A 9 9 0 0 1 1156 191 L 106 191  A 9 9 0 0 1 97 182 L 97 34  Z " fill-rule="nonzero" fill="#f7f7f7" stroke="none" />
    <path d="M 96.5 34  A 9.5 9.5 0 0 1 106 24.5 L 1156 24.5  A 9.5 9.5 0 0 1 1165.5 34 L 1165.5 182  A 9.5 9.5 0 0 1 1156 191.5 L 106 191.5  A 9.5 9.5 0 0 1 96.5 182 L 96.5 34  Z " stroke-width="1" stroke-dasharray="9,4" stroke="#d7d7d7" fill="none" stroke-dashoffset="0.5" />
  </g>
</svg>