<?xml version="1.0" encoding="utf-8"?>
<svg version="1.1" xmlns:xlink="http://www.w3.org/1999/xlink" width="935px" height="169px" xmlns="http://www.w3.org/2000/svg">
  <g transform="matrix(1 0 0 1 -96 -29 )">
    <path d="M 97 39  A 9 9 0 0 1 106 30 L 1021 30  A 9 9 0 0 1 1030 39 L 1030 188  A 9 9 0 0 1 1021 197 L 106 197  A 9 9 0 0 1 97 188 L 97 39  Z " fill-rule="nonzero" fill="#f7f7f7" stroke="none" />
    <path d="M 96.5 39  A 9.5 9.5 0 0 1 106 29.5 L 1021 29.5  A 9.5 9.5 0 0 1 1030.5 39 L 1030.5 188  A 9.5 9.5 0 0 1 1021 197.5 L 106 197.5  A 9.5 9.5 0 0 1 96.5 188 L 96.5 39  Z " stroke-width="1" stroke-dasharray="9,4" stroke="#d7d7d7" fill="none" stroke-dashoffset="0.5" />
  </g>
</svg>