<?xml version="1.0" encoding="utf-8"?>
<svg version="1.1" xmlns:xlink="http://www.w3.org/1999/xlink" width="1119px" height="166px" xmlns="http://www.w3.org/2000/svg">
  <g transform="matrix(1 0 0 1 -64 -22 )">
    <path d="M 65 32  A 9 9 0 0 1 74 23 L 1173 23  A 9 9 0 0 1 1182 32 L 1182 178  A 9 9 0 0 1 1173 187 L 74 187  A 9 9 0 0 1 65 178 L 65 32  Z " fill-rule="nonzero" fill="#f7f7f7" stroke="none" />
    <path d="M 64.5 32  A 9.5 9.5 0 0 1 74 22.5 L 1173 22.5  A 9.5 9.5 0 0 1 1182.5 32 L 1182.5 178  A 9.5 9.5 0 0 1 1173 187.5 L 74 187.5  A 9.5 9.5 0 0 1 64.5 178 L 64.5 32  Z " stroke-width="1" stroke-dasharray="9,4" stroke="#d7d7d7" fill="none" stroke-dashoffset="0.5" />
  </g>
</svg>