<?xml version="1.0" encoding="utf-8"?>
<svg version="1.1" xmlns:xlink="http://www.w3.org/1999/xlink" width="208px" height="6px" preserveAspectRatio="xMinYMid meet" viewBox="604 131  208 4" xmlns="http://www.w3.org/2000/svg">
  <g transform="matrix(0.998629534754574 -0.0523359562429439 0.0523359562429469 0.998629534754577 -5.99039278655027 37.2361288976456 )">
    <path d="M 610.9 128.8  L 607 132.5  L 610.9 136.2  L 614.7 132.5  L 610.9 128.8  Z M 610.9 134.8  L 608.4 132.5  L 610.9 130.2  L 613.3 132.5  L 610.9 134.8  Z M 805.1 136.2  L 809 132.5  L 805.1 128.8  L 801.3 132.5  L 805.1 136.2  Z M 805.1 130.2  L 807.6 132.5  L 805.1 134.8  L 802.7 132.5  L 805.1 130.2  Z " fill-rule="nonzero" fill="#d9001b" stroke="none" transform="matrix(0.998285810207186 0.0585272683369207 -0.0585272683369207 0.998285810207186 8.96850942795425 -41.210175834992 )" />
    <path d="M 613 132.5  L 803 132.5  " stroke-width="1" stroke="#d9001b" fill="none" transform="matrix(0.998285810207186 0.0585272683369207 -0.0585272683369207 0.998285810207186 8.96850942795425 -41.210175834992 )" />
  </g>
</svg>