<?xml version="1.0" encoding="utf-8"?>
<svg version="1.1" xmlns:xlink="http://www.w3.org/1999/xlink" width="22px" height="22px" preserveAspectRatio="xMinYMid meet" viewBox="528 167  22 20" xmlns="http://www.w3.org/2000/svg">
  <g transform="matrix(0.999847695156389 -0.0174524064372834 0.0174524064372834 0.999847695156391 -3.00698362869252 9.43380502701456 )">
    <path d="M 541.9 175.8  L 538 179.5  L 541.9 183.2  L 545.7 179.5  L 541.9 175.8  Z M 541.9 181.8  L 539.4 179.5  L 541.9 177.2  L 544.3 179.5  L 541.9 181.8  Z M 808.1 183.2  L 812 179.5  L 808.1 175.8  L 804.3 179.5  L 808.1 183.2  Z M 808.1 177.2  L 810.6 179.5  L 808.1 181.8  L 805.7 179.5  L 808.1 177.2  Z " fill-rule="nonzero" fill="#d9001b" stroke="none" transform="matrix(0.999822299472353 0.0188512460547669 -0.0188512460547669 0.999822299472353 3.50374652299274 -12.6926938422549 )" />
    <path d="M 544 179.5  L 806 179.5  " stroke-width="1" stroke="#d9001b" fill="none" transform="matrix(0.999822299472353 0.0188512460547669 -0.0188512460547669 0.999822299472353 3.50374652299274 -12.6926938422549 )" />
  </g>
</svg>