<?xml version="1.0" encoding="utf-8"?>
<svg version="1.1" xmlns:xlink="http://www.w3.org/1999/xlink" width="278px" height="6px" preserveAspectRatio="xMinYMid meet" viewBox="528 265  278 4" xmlns="http://www.w3.org/2000/svg">
  <g transform="matrix(0.999847695156391 -0.0174524064372836 0.0174524064372765 0.999847695156388 -4.55820518806593 11.6814204869125 )">
    <path d="M 533.9 263.8  L 530 267.5  L 533.9 271.2  L 537.7 267.5  L 533.9 263.8  Z M 533.9 269.8  L 531.4 267.5  L 533.9 265.2  L 536.3 267.5  L 533.9 269.8  Z M 800.1 271.2  L 804 267.5  L 800.1 263.8  L 796.3 267.5  L 800.1 271.2  Z M 800.1 265.2  L 802.6 267.5  L 800.1 269.8  L 797.7 267.5  L 800.1 265.2  Z " fill-rule="nonzero" fill="#d9001b" stroke="none" transform="matrix(0.999822299472353 0.0188512460547669 -0.0188512460547669 0.999822299472353 5.16123457159097 -12.5262462273839 )" />
    <path d="M 536 267.5  L 798 267.5  " stroke-width="1" stroke="#d9001b" fill="none" transform="matrix(0.999822299472353 0.0188512460547669 -0.0188512460547669 0.999822299472353 5.16123457159097 -12.5262462273839 )" />
  </g>
</svg>