<?xml version="1.0" encoding="utf-8"?>
<svg version="1.1" xmlns:xlink="http://www.w3.org/1999/xlink" width="22px" height="22px" preserveAspectRatio="xMinYMid meet" viewBox="520 255  22 20" xmlns="http://www.w3.org/2000/svg">
  <g transform="matrix(0.999847695156389 -0.0174524064372834 0.0174524064372834 0.999847695156391 -4.54401383392246 9.30758860175393 )">
    <path d="M 533.9 263.8  L 530 267.5  L 533.9 271.2  L 537.7 267.5  L 533.9 263.8  Z M 533.9 269.8  L 531.4 267.5  L 533.9 265.2  L 536.3 267.5  L 533.9 269.8  Z M 800.1 271.2  L 804 267.5  L 800.1 263.8  L 796.3 267.5  L 800.1 271.2  Z M 800.1 265.2  L 802.6 267.5  L 800.1 269.8  L 797.7 267.5  L 800.1 265.2  Z " fill-rule="nonzero" fill="#d9001b" stroke="none" transform="matrix(0.999822299472353 0.0188512460547669 -0.0188512460547669 0.999822299472353 5.16123457159097 -12.5262462273839 )" />
    <path d="M 536 267.5  L 798 267.5  " stroke-width="1" stroke="#d9001b" fill="none" transform="matrix(0.999822299472353 0.0188512460547669 -0.0188512460547669 0.999822299472353 5.16123457159097 -12.5262462273839 )" />
  </g>
</svg>