<?xml version="1.0" encoding="utf-8"?>
<svg version="1.1" xmlns:xlink="http://www.w3.org/1999/xlink" width="22px" height="20px" preserveAspectRatio="xMinYMid meet" viewBox="800 227  22 18" xmlns="http://www.w3.org/2000/svg">
  <g transform="matrix(-0.999390827019094 0.0348994967025 -0.0348994967025021 -0.999390827019096 1629.74224193428 443.552743350779 )">
    <path d="M 595.9 227.8  L 592 231.5  L 595.9 235.2  L 599.7 231.5  L 595.9 227.8  Z M 595.9 233.8  L 593.4 231.5  L 595.9 229.2  L 598.3 231.5  L 595.9 233.8  Z M 809.1 235.2  L 813 231.5  L 809.1 227.8  L 805.3 231.5  L 809.1 235.2  Z M 809.1 229.2  L 811.6 231.5  L 809.1 233.8  L 806.7 231.5  L 809.1 229.2  Z " fill-rule="nonzero" fill="#d9001b" stroke="none" transform="matrix(0.999191897400982 0.0401939319826373 -0.0401939319826373 0.999191897400982 9.87258732979046 -28.0491614661301 )" />
    <path d="M 598 231.5  L 807 231.5  " stroke-width="1" stroke="#d9001b" fill="none" transform="matrix(0.999191897400982 0.0401939319826373 -0.0401939319826373 0.999191897400982 9.87258732979046 -28.0491614661301 )" />
  </g>
</svg>