<?xml version="1.0" encoding="utf-8"?>
<svg version="1.1" xmlns:xlink="http://www.w3.org/1999/xlink" width="22px" height="22px" preserveAspectRatio="xMinYMid meet" viewBox="828 351  22 20" xmlns="http://www.w3.org/2000/svg">
  <g transform="matrix(-0.998629534754572 0.0523359562429432 -0.0523359562429483 -0.998629534754574 1695.74345986279 677.595394758572 )">
    <path d="M 550.9 349.8  L 547 353.5  L 550.9 357.2  L 554.7 353.5  L 550.9 349.8  Z M 550.9 355.8  L 548.4 353.5  L 550.9 351.2  L 553.3 353.5  L 550.9 355.8  Z M 836.1 357.2  L 840 353.5  L 836.1 349.8  L 832.3 353.5  L 836.1 357.2  Z M 836.1 351.2  L 838.6 353.5  L 836.1 355.8  L 833.7 353.5  L 836.1 351.2  Z " fill-rule="nonzero" fill="#d9001b" stroke="none" transform="matrix(0.99874492074774 0.0500857592593974 -0.0500857592593974 0.99874492074774 18.5757133596392 -34.2908035307182 )" />
    <path d="M 553 353.5  L 834 353.5  " stroke-width="1" stroke="#d9001b" fill="none" transform="matrix(0.99874492074774 0.0500857592593974 -0.0500857592593974 0.99874492074774 18.5757133596392 -34.2908035307182 )" />
  </g>
</svg>