<?xml version="1.0" encoding="utf-8"?>
<svg version="1.1" xmlns:xlink="http://www.w3.org/1999/xlink" width="22px" height="22px" preserveAspectRatio="xMinYMid meet" viewBox="1948 161  22 20" xmlns="http://www.w3.org/2000/svg">
  <g transform="matrix(-0.999847695156399 -0.0174524064372836 0.0174524064372836 -0.999847695156391 3914.71727331061 376.163220082382 )">
    <path d="M 490 183  L 490 178  L 485 178  L 485 183  L 490 183  Z M 489 182  L 486 182  L 486 179  L 489 179  L 489 182  Z M 1957 178  L 1957 183  L 1962 183  L 1962 178  L 1957 178  Z M 1958 179  L 1961 179  L 1961 182  L 1958 182  L 1958 179  Z " fill-rule="nonzero" fill="#d9001b" stroke="none" transform="matrix(0.999908546349646 -0.0135240133443101 0.0135240133443101 0.999908546349646 -2.3291908674405 16.5631377106522 )" />
    <path d="M 490 180.5  L 1957 180.5  " stroke-width="1" stroke="#d9001b" fill="none" transform="matrix(0.999908546349646 -0.0135240133443101 0.0135240133443101 0.999908546349646 -2.3291908674405 16.5631377106522 )" />
  </g>
</svg>