<?xml version="1.0" encoding="utf-8"?>
<svg version="1.1" xmlns:xlink="http://www.w3.org/1999/xlink" width="24px" height="20px" preserveAspectRatio="xMinYMid meet" viewBox="1926 811  24 18" xmlns="http://www.w3.org/2000/svg">
  <g transform="matrix(-0.81915204428898 -0.573576436351032 0.573576436351051 -0.819152044288988 3055.18398402418 2603.29580996527 )">
    <path d="M 1738.2 716.9  L 1734.5 713  L 1730.8 716.9  L 1734.5 720.7  L 1738.2 716.9  Z M 1732.2 716.9  L 1734.5 714.4  L 1736.8 716.9  L 1734.5 719.3  L 1732.2 716.9  Z M 1730.8 1209.1  L 1734.5 1213  L 1738.2 1209.1  L 1734.5 1205.3  L 1730.8 1209.1  Z M 1736.8 1209.1  L 1734.5 1211.6  L 1732.2 1209.1  L 1734.5 1206.7  L 1736.8 1209.1  Z " fill-rule="nonzero" fill="#d9001b" stroke="none" transform="matrix(-0.575479748302295 -0.81781603022558 0.81781603022558 -0.575479748302295 1945.1127863231 2935.68890204138 )" />
    <path d="M 1734.5 719  L 1734.5 1207  " stroke-width="1" stroke="#d9001b" fill="none" transform="matrix(-0.575479748302295 -0.81781603022558 0.81781603022558 -0.575479748302295 1945.1127863231 2935.68890204138 )" />
  </g>
</svg>