<?xml version="1.0" encoding="utf-8"?>
<svg version="1.1" xmlns:xlink="http://www.w3.org/1999/xlink" width="336px" height="10px" preserveAspectRatio="xMinYMid meet" viewBox="852 321  336 8" xmlns="http://www.w3.org/2000/svg">
  <g transform="matrix(-0.707106781186553 0.707106781186558 -0.707106781186542 -0.707106781186559 1971.05862069591 -166.439212924658 )">
    <path d="M 1024.2 165.9  L 1020.5 162  L 1016.8 165.9  L 1020.5 169.7  L 1024.2 165.9  Z M 1018.2 165.9  L 1020.5 163.4  L 1022.8 165.9  L 1020.5 168.3  L 1018.2 165.9  Z M 1016.8 484.1  L 1020.5 488  L 1024.2 484.1  L 1020.5 480.3  L 1016.8 484.1  Z M 1022.8 484.1  L 1020.5 486.6  L 1018.2 484.1  L 1020.5 481.7  L 1022.8 484.1  Z " fill-rule="nonzero" fill="#d9001b" stroke="none" transform="matrix(-0.712051103452043 0.70212764229357 -0.70212764229357 -0.712051103452043 1975.33963481822 -160.104650338674 )" />
    <path d="M 1020.5 168  L 1020.5 482  " stroke-width="1" stroke="#d9001b" fill="none" transform="matrix(-0.712051103452043 0.70212764229357 -0.70212764229357 -0.712051103452043 1975.33963481822 -160.104650338674 )" />
  </g>
</svg>