<?xml version="1.0" encoding="utf-8"?>
<svg version="1.1" xmlns:xlink="http://www.w3.org/1999/xlink" width="226px" height="6px" preserveAspectRatio="xMinYMid meet" viewBox="1716 321  226 4" xmlns="http://www.w3.org/2000/svg">
  <g transform="matrix(0.999847695156391 -0.0174524064372835 0.0174524064373144 0.999847695156387 -5.35856172029094 31.9696458382785 )">
    <path d="M 1832.2 215.9  L 1828.5 212  L 1824.8 215.9  L 1828.5 219.7  L 1832.2 215.9  Z M 1826.2 215.9  L 1828.5 213.4  L 1830.8 215.9  L 1828.5 218.3  L 1826.2 215.9  Z M 1824.8 429.1  L 1828.5 433  L 1832.2 429.1  L 1828.5 425.3  L 1824.8 429.1  Z M 1830.8 429.1  L 1828.5 431.6  L 1826.2 429.1  L 1828.5 426.7  L 1830.8 429.1  Z " fill-rule="nonzero" fill="#d9001b" stroke="none" transform="matrix(0.0163535126428079 -0.999866272370581 0.999866272370581 0.0163535126428079 1476.14072929311 2145.4814712023 )" />
    <path d="M 1828.5 218  L 1828.5 427  " stroke-width="1" stroke="#d9001b" fill="none" transform="matrix(0.0163535126428079 -0.999866272370581 0.999866272370581 0.0163535126428079 1476.14072929311 2145.4814712023 )" />
  </g>
</svg>