<?xml version="1.0" encoding="utf-8"?>
<svg version="1.1" xmlns:xlink="http://www.w3.org/1999/xlink" width="398px" height="10px" preserveAspectRatio="xMinYMid meet" viewBox="1286 257  398 8" xmlns="http://www.w3.org/2000/svg">
  <g transform="matrix(0.999390827019095 -0.0348994967025009 0.0348994967025191 0.999390827019095 -8.20414676271344 51.9847467512301 )">
    <path d="M 1293.9 257.8  L 1290 261.5  L 1293.9 265.2  L 1297.7 261.5  L 1293.9 257.8  Z M 1293.9 263.8  L 1291.4 261.5  L 1293.9 259.2  L 1296.3 261.5  L 1293.9 263.8  Z M 1675.1 265.2  L 1679 261.5  L 1675.1 257.8  L 1671.3 261.5  L 1675.1 265.2  Z M 1675.1 259.2  L 1677.6 261.5  L 1675.1 263.8  L 1672.7 261.5  L 1675.1 259.2  Z " fill-rule="nonzero" fill="#d9001b" stroke="none" transform="matrix(0.999583633816633 0.0288540985985513 -0.0288540985985513 0.999583633816633 8.16344238272927 -42.725029612599 )" />
    <path d="M 1296 261.5  L 1673 261.5  " stroke-width="1" stroke="#d9001b" fill="none" transform="matrix(0.999583633816633 0.0288540985985513 -0.0288540985985513 0.999583633816633 8.16344238272927 -42.725029612599 )" />
  </g>
</svg>