<?xml version="1.0" encoding="utf-8"?>
<svg version="1.1" xmlns:xlink="http://www.w3.org/1999/xlink" width="398px" height="10px" preserveAspectRatio="xMinYMid meet" viewBox="1288 397  398 8" xmlns="http://www.w3.org/2000/svg">
  <g transform="matrix(0.999390827019096 -0.0348994967025009 0.0348994967024964 0.999390827019096 -13.0888579550965 52.1398299619614 )">
    <path d="M 1296.9 396.8  L 1293 400.5  L 1296.9 404.2  L 1300.7 400.5  L 1296.9 396.8  Z M 1296.9 402.8  L 1294.4 400.5  L 1296.9 398.2  L 1299.3 400.5  L 1296.9 402.8  Z M 1678.1 404.2  L 1682 400.5  L 1678.1 396.8  L 1674.3 400.5  L 1678.1 404.2  Z M 1678.1 398.2  L 1680.6 400.5  L 1678.1 402.8  L 1675.7 400.5  L 1678.1 398.2  Z " fill-rule="nonzero" fill="#d9001b" stroke="none" transform="matrix(0.999583633816633 0.0288540985985513 -0.0288540985985513 0.999583633816633 12.175411186478 -42.7537170089067 )" />
    <path d="M 1299 400.5  L 1676 400.5  " stroke-width="1" stroke="#d9001b" fill="none" transform="matrix(0.999583633816633 0.0288540985985513 -0.0288540985985513 0.999583633816633 12.175411186478 -42.7537170089067 )" />
  </g>
</svg>