<?xml version="1.0" encoding="utf-8"?>
<svg version="1.1" xmlns:xlink="http://www.w3.org/1999/xlink" width="22px" height="20px" preserveAspectRatio="xMinYMid meet" viewBox="1280 247  22 18" xmlns="http://www.w3.org/2000/svg">
  <g transform="matrix(0.999390827019094 -0.0348994967025 0.0348994967025077 0.999390827019096 -8.14782883749217 45.211198526039 )">
    <path d="M 1293.9 257.8  L 1290 261.5  L 1293.9 265.2  L 1297.7 261.5  L 1293.9 257.8  Z M 1293.9 263.8  L 1291.4 261.5  L 1293.9 259.2  L 1296.3 261.5  L 1293.9 263.8  Z M 1675.1 265.2  L 1679 261.5  L 1675.1 257.8  L 1671.3 261.5  L 1675.1 265.2  Z M 1675.1 259.2  L 1677.6 261.5  L 1675.1 263.8  L 1672.7 261.5  L 1675.1 259.2  Z " fill-rule="nonzero" fill="#d9001b" stroke="none" transform="matrix(0.999583633816633 0.0288540985985513 -0.0288540985985513 0.999583633816633 8.16344238272927 -42.725029612599 )" />
    <path d="M 1296 261.5  L 1673 261.5  " stroke-width="1" stroke="#d9001b" fill="none" transform="matrix(0.999583633816633 0.0288540985985513 -0.0288540985985513 0.999583633816633 8.16344238272927 -42.725029612599 )" />
  </g>
</svg>