<?xml version="1.0" encoding="utf-8"?>
<svg version="1.1" xmlns:xlink="http://www.w3.org/1999/xlink" width="106px" height="117px" xmlns="http://www.w3.org/2000/svg">
  <g transform="matrix(1 0 0 1 -231 -410 )">
    <path d="M 284 410  C 313.68 410  337 435.74  337 468.5  C 337 501.26  313.68 527  284 527  C 254.32 527  231 501.26  231 468.5  C 231 435.74  254.32 410  284 410  Z " fill-rule="nonzero" fill="#0c3454" stroke="none" fill-opacity="0.203921568627451" />
    <path d="M 284 410.5  C 313.4 410.5  336.5 436.02  336.5 468.5  C 336.5 500.98  313.4 526.5  284 526.5  C 254.6 526.5  231.5 500.98  231.5 468.5  C 231.5 436.02  254.6 410.5  284 410.5  Z " stroke-width="1" stroke="#797979" fill="none" />
  </g>
</svg>