<?xml version="1.0" encoding="utf-8"?>
<svg version="1.1" xmlns:xlink="http://www.w3.org/1999/xlink" width="104px" height="117px" xmlns="http://www.w3.org/2000/svg">
  <g transform="matrix(1 0 0 1 -218 -225 )">
    <path d="M 270 225  C 299.12 225  322 250.74  322 283.5  C 322 316.26  299.12 342  270 342  C 240.88 342  218 316.26  218 283.5  C 218 250.74  240.88 225  270 225  Z " fill-rule="nonzero" fill="#0c3454" stroke="none" fill-opacity="0.203921568627451" />
    <path d="M 270 225.5  C 298.84 225.5  321.5 251.02  321.5 283.5  C 321.5 315.98  298.84 341.5  270 341.5  C 241.16 341.5  218.5 315.98  218.5 283.5  C 218.5 251.02  241.16 225.5  270 225.5  Z " stroke-width="1" stroke="#797979" fill="none" />
  </g>
</svg>