<?xml version="1.0" encoding="utf-8"?>
<svg version="1.1" xmlns:xlink="http://www.w3.org/1999/xlink" width="112px" height="117px" xmlns="http://www.w3.org/2000/svg">
  <g transform="matrix(1 0 0 1 -290 -614 )">
    <path d="M 346 614  C 377.36 614  402 639.74  402 672.5  C 402 705.26  377.36 731  346 731  C 314.64 731  290 705.26  290 672.5  C 290 639.74  314.64 614  346 614  Z " fill-rule="nonzero" fill="#0c3454" stroke="none" fill-opacity="0.203921568627451" />
    <path d="M 346 614.5  C 377.08 614.5  401.5 640.02  401.5 672.5  C 401.5 704.98  377.08 730.5  346 730.5  C 314.92 730.5  290.5 704.98  290.5 672.5  C 290.5 640.02  314.92 614.5  346 614.5  Z " stroke-width="1" stroke="#797979" fill="none" />
  </g>
</svg>