<?xml version="1.0" encoding="utf-8"?>
<svg version="1.1" xmlns:xlink="http://www.w3.org/1999/xlink" width="103px" height="117px" xmlns="http://www.w3.org/2000/svg">
  <g transform="matrix(1 0 0 1 -979 -560 )">
    <path d="M 1030.5 560  C 1059.34 560  1082 585.74  1082 618.5  C 1082 651.26  1059.34 677  1030.5 677  C 1001.66 677  979 651.26  979 618.5  C 979 585.74  1001.66 560  1030.5 560  Z " fill-rule="nonzero" fill="#0c3454" stroke="none" fill-opacity="0.203921568627451" />
    <path d="M 1030.5 560.5  C 1059.06 560.5  1081.5 586.02  1081.5 618.5  C 1081.5 650.98  1059.06 676.5  1030.5 676.5  C 1001.94 676.5  979.5 650.98  979.5 618.5  C 979.5 586.02  1001.94 560.5  1030.5 560.5  Z " stroke-width="1" stroke="#797979" fill="none" />
  </g>
</svg>