<?xml version="1.0" encoding="utf-8"?>
<svg version="1.1" xmlns:xlink="http://www.w3.org/1999/xlink" width="444px" height="108px" xmlns="http://www.w3.org/2000/svg">
  <g transform="matrix(1 0 0 1 -460 -333 )">
    <path d="M 682 333  C 806.32 333  904 356.76  904 387  C 904 417.24  806.32 441  682 441  C 557.68 441  460 417.24  460 387  C 460 356.76  557.68 333  682 333  Z " fill-rule="nonzero" fill="#0c3454" stroke="none" fill-opacity="0.203921568627451" />
    <path d="M 682 333.5  C 806.04 333.5  903.5 357.04  903.5 387  C 903.5 416.96  806.04 440.5  682 440.5  C 557.96 440.5  460.5 416.96  460.5 387  C 460.5 357.04  557.96 333.5  682 333.5  Z " stroke-width="1" stroke="#797979" fill="none" />
  </g>
</svg>