<?xml version="1.0" encoding="utf-8"?>
<svg version="1.1" xmlns:xlink="http://www.w3.org/1999/xlink" width="111px" height="123px" xmlns="http://www.w3.org/2000/svg">
  <g transform="matrix(1 0 0 1 -981 -397 )">
    <path d="M 1036.5 397  C 1067.58 397  1092 424.06  1092 458.5  C 1092 492.94  1067.58 520  1036.5 520  C 1005.42 520  981 492.94  981 458.5  C 981 424.06  1005.42 397  1036.5 397  Z " fill-rule="nonzero" fill="#0c3454" stroke="none" fill-opacity="0.203921568627451" />
    <path d="M 1036.5 397.5  C 1067.3 397.5  1091.5 424.34  1091.5 458.5  C 1091.5 492.66  1067.3 519.5  1036.5 519.5  C 1005.7 519.5  981.5 492.66  981.5 458.5  C 981.5 424.34  1005.7 397.5  1036.5 397.5  Z " stroke-width="1" stroke="#797979" fill="none" />
  </g>
</svg>