<?xml version="1.0" encoding="utf-8"?>
<svg version="1.1" xmlns:xlink="http://www.w3.org/1999/xlink" width="12px" height="12px" viewBox="593 971.5  12 12" xmlns="http://www.w3.org/2000/svg">
  <path d="M 599 971.5  C 602.36 971.5  605 974.14  605 977.5  C 605 980.86  602.36 983.5  599 983.5  C 595.64 983.5  593 980.86  593 977.5  C 593 974.14  595.64 971.5  599 971.5  Z " fill-rule="nonzero" fill="#f0f0f0" stroke="none" />
  <path d="M 599 972  C 602.08 972  604.5 974.42  604.5 977.5  C 604.5 980.58  602.08 983  599 983  C 595.92 983  593.5 980.58  593.5 977.5  C 593.5 974.42  595.92 972  599 972  Z " stroke-width="1" stroke="#797979" fill="none" />
  <path d="M 599 980.5  C 597.32 980.5  596 979.18  596 977.5  C 596 975.82  597.32 974.5  599 974.5  C 600.68 974.5  602 975.82  602 977.5  C 602 979.18  600.68 980.5  599 980.5  " fill-rule="nonzero" fill="#797979" stroke="none" />
</svg>