<?xml version="1.0" encoding="utf-8"?>
<svg version="1.1" xmlns:xlink="http://www.w3.org/1999/xlink" width="12px" height="12px" viewBox="594 952.5  12 12" xmlns="http://www.w3.org/2000/svg">
  <path d="M 600 952.5  C 603.36 952.5  606 955.14  606 958.5  C 606 961.86  603.36 964.5  600 964.5  C 596.64 964.5  594 961.86  594 958.5  C 594 955.14  596.64 952.5  600 952.5  Z " fill-rule="nonzero" fill="#ffffff" stroke="none" />
  <path d="M 600 953  C 603.08 953  605.5 955.42  605.5 958.5  C 605.5 961.58  603.08 964  600 964  C 596.92 964  594.5 961.58  594.5 958.5  C 594.5 955.42  596.92 953  600 953  Z " stroke-width="1" stroke="#797979" fill="none" />
  <path d="M 600 961.5  C 598.32 961.5  597 960.18  597 958.5  C 597 956.82  598.32 955.5  600 955.5  C 601.68 955.5  603 956.82  603 958.5  C 603 960.18  601.68 961.5  600 961.5  " fill-rule="nonzero" fill="#797979" stroke="none" />
</svg>