<?xml version="1.0" encoding="utf-8"?>
<svg version="1.1" xmlns:xlink="http://www.w3.org/1999/xlink" width="12px" height="12px" viewBox="689 1054.5  12 12" xmlns="http://www.w3.org/2000/svg">
  <path d="M 695 1054.5  C 698.36 1054.5  701 1057.14  701 1060.5  C 701 1063.86  698.36 1066.5  695 1066.5  C 691.64 1066.5  689 1063.86  689 1060.5  C 689 1057.14  691.64 1054.5  695 1054.5  Z " fill-rule="nonzero" fill="#ffffff" stroke="none" />
  <path d="M 695 1055  C 698.08 1055  700.5 1057.42  700.5 1060.5  C 700.5 1063.58  698.08 1066  695 1066  C 691.92 1066  689.5 1063.58  689.5 1060.5  C 689.5 1057.42  691.92 1055  695 1055  Z " stroke-width="1" stroke="#797979" fill="none" />
  <path d="M 695 1063.5  C 693.32 1063.5  692 1062.18  692 1060.5  C 692 1058.82  693.32 1057.5  695 1057.5  C 696.68 1057.5  698 1058.82  698 1060.5  C 698 1062.18  696.68 1063.5  695 1063.5  " fill-rule="nonzero" fill="#797979" stroke="none" />
</svg>