<?xml version="1.0" encoding="utf-8"?>
<svg version="1.1" xmlns:xlink="http://www.w3.org/1999/xlink" width="12px" height="12px" viewBox="814 1055.5  12 12" xmlns="http://www.w3.org/2000/svg">
  <path d="M 820 1055.5  C 823.36 1055.5  826 1058.14  826 1061.5  C 826 1064.86  823.36 1067.5  820 1067.5  C 816.64 1067.5  814 1064.86  814 1061.5  C 814 1058.14  816.64 1055.5  820 1055.5  Z " fill-rule="nonzero" fill="#ffffff" stroke="none" />
  <path d="M 820 1056  C 823.08 1056  825.5 1058.42  825.5 1061.5  C 825.5 1064.58  823.08 1067  820 1067  C 816.92 1067  814.5 1064.58  814.5 1061.5  C 814.5 1058.42  816.92 1056  820 1056  Z " stroke-width="1" stroke="#797979" fill="none" />
  <path d="M 820 1064.5  C 818.32 1064.5  817 1063.18  817 1061.5  C 817 1059.82  818.32 1058.5  820 1058.5  C 821.68 1058.5  823 1059.82  823 1061.5  C 823 1063.18  821.68 1064.5  820 1064.5  " fill-rule="nonzero" fill="#797979" stroke="none" />
</svg>