<?xml version="1.0" encoding="utf-8"?>
<svg version="1.1" xmlns:xlink="http://www.w3.org/1999/xlink" width="12px" height="12px" viewBox="593 937.5  12 12" xmlns="http://www.w3.org/2000/svg">
  <path d="M 599 937.5  C 602.36 937.5  605 940.14  605 943.5  C 605 946.86  602.36 949.5  599 949.5  C 595.64 949.5  593 946.86  593 943.5  C 593 940.14  595.64 937.5  599 937.5  Z " fill-rule="nonzero" fill="#f0f0f0" stroke="none" />
  <path d="M 599 938  C 602.08 938  604.5 940.42  604.5 943.5  C 604.5 946.58  602.08 949  599 949  C 595.92 949  593.5 946.58  593.5 943.5  C 593.5 940.42  595.92 938  599 938  Z " stroke-width="1" stroke="#797979" fill="none" />
  <path d="M 599 946.5  C 597.32 946.5  596 945.18  596 943.5  C 596 941.82  597.32 940.5  599 940.5  C 600.68 940.5  602 941.82  602 943.5  C 602 945.18  600.68 946.5  599 946.5  " fill-rule="nonzero" fill="#797979" stroke="none" />
</svg>