<?xml version="1.0" encoding="utf-8"?>
<svg version="1.1" xmlns:xlink="http://www.w3.org/1999/xlink" width="12px" height="12px" viewBox="589 1054.5  12 12" xmlns="http://www.w3.org/2000/svg">
  <path d="M 595 1054.5  C 598.36 1054.5  601 1057.14  601 1060.5  C 601 1063.86  598.36 1066.5  595 1066.5  C 591.64 1066.5  589 1063.86  589 1060.5  C 589 1057.14  591.64 1054.5  595 1054.5  Z " fill-rule="nonzero" fill="#f0f0f0" stroke="none" />
  <path d="M 595 1055  C 598.08 1055  600.5 1057.42  600.5 1060.5  C 600.5 1063.58  598.08 1066  595 1066  C 591.92 1066  589.5 1063.58  589.5 1060.5  C 589.5 1057.42  591.92 1055  595 1055  Z " stroke-width="1" stroke="#797979" fill="none" />
  <path d="M 595 1063.5  C 593.32 1063.5  592 1062.18  592 1060.5  C 592 1058.82  593.32 1057.5  595 1057.5  C 596.68 1057.5  598 1058.82  598 1060.5  C 598 1062.18  596.68 1063.5  595 1063.5  " fill-rule="nonzero" fill="#797979" stroke="none" />
</svg>