<?xml version="1.0" encoding="utf-8"?>
<svg version="1.1" xmlns:xlink="http://www.w3.org/1999/xlink" width="12px" height="12px" viewBox="623 1031.5  12 12" xmlns="http://www.w3.org/2000/svg">
  <path d="M 629 1031.5  C 632.36 1031.5  635 1034.14  635 1037.5  C 635 1040.86  632.36 1043.5  629 1043.5  C 625.64 1043.5  623 1040.86  623 1037.5  C 623 1034.14  625.64 1031.5  629 1031.5  Z " fill-rule="nonzero" fill="#ffffff" stroke="none" />
  <path d="M 629 1032  C 632.08 1032  634.5 1034.42  634.5 1037.5  C 634.5 1040.58  632.08 1043  629 1043  C 625.92 1043  623.5 1040.58  623.5 1037.5  C 623.5 1034.42  625.92 1032  629 1032  Z " stroke-width="1" stroke="#797979" fill="none" />
  <path d="M 629 1040.5  C 627.32 1040.5  626 1039.18  626 1037.5  C 626 1035.82  627.32 1034.5  629 1034.5  C 630.68 1034.5  632 1035.82  632 1037.5  C 632 1039.18  630.68 1040.5  629 1040.5  " fill-rule="nonzero" fill="#797979" stroke="none" />
</svg>