<?xml version="1.0" encoding="utf-8"?>
<svg version="1.1" xmlns:xlink="http://www.w3.org/1999/xlink" width="12px" height="12px" viewBox="589 1082.5  12 12" xmlns="http://www.w3.org/2000/svg">
  <path d="M 595 1082.5  C 598.36 1082.5  601 1085.14  601 1088.5  C 601 1091.86  598.36 1094.5  595 1094.5  C 591.64 1094.5  589 1091.86  589 1088.5  C 589 1085.14  591.64 1082.5  595 1082.5  Z " fill-rule="nonzero" fill="#ffffff" stroke="none" />
  <path d="M 595 1083  C 598.08 1083  600.5 1085.42  600.5 1088.5  C 600.5 1091.58  598.08 1094  595 1094  C 591.92 1094  589.5 1091.58  589.5 1088.5  C 589.5 1085.42  591.92 1083  595 1083  Z " stroke-width="1" stroke="#797979" fill="none" />
  <path d="M 595 1091.5  C 593.32 1091.5  592 1090.18  592 1088.5  C 592 1086.82  593.32 1085.5  595 1085.5  C 596.68 1085.5  598 1086.82  598 1088.5  C 598 1090.18  596.68 1091.5  595 1091.5  " fill-rule="nonzero" fill="#797979" stroke="none" />
</svg>