<?xml version="1.0" encoding="utf-8"?>
<svg version="1.1" xmlns:xlink="http://www.w3.org/1999/xlink" width="24px" height="22px" preserveAspectRatio="xMinYMid meet" viewBox="696 327  24 20" xmlns="http://www.w3.org/2000/svg">
  <g transform="matrix(-0.965925826289071 0.25881904510252 -0.258819045102521 -0.965925826289068 1479.09750321221 479.273119526831 )">
    <path d="M 501.9 306.8  L 498 310.5  L 501.9 314.2  L 505.7 310.5  L 501.9 306.8  Z M 501.9 312.8  L 499.4 310.5  L 501.9 308.2  L 504.3 310.5  L 501.9 312.8  Z M 709.1 314.2  L 713 310.5  L 709.1 306.8  L 705.3 310.5  L 709.1 314.2  Z M 709.1 308.2  L 711.6 310.5  L 709.1 312.8  L 706.7 310.5  L 709.1 308.2  Z " fill-rule="nonzero" fill="#d9001b" stroke="none" transform="matrix(0.967695123741257 0.252123278352861 -0.252123278352861 0.967695123741257 97.8448805032324 -142.629980964317 )" />
    <path d="M 504 310.5  L 707 310.5  " stroke-width="1" stroke="#d9001b" fill="none" transform="matrix(0.967695123741257 0.252123278352861 -0.252123278352861 0.967695123741257 97.8448805032324 -142.629980964317 )" />
  </g>
</svg>