<?xml version="1.0" encoding="utf-8"?>
<svg version="1.1" xmlns:xlink="http://www.w3.org/1999/xlink" width="168px" height="168px" xmlns="http://www.w3.org/2000/svg">
  <g transform="matrix(1 0 0 1 -1620 -197 )">
    <path d="M 1704 197  C 1751.04 197  1788 233.96  1788 281  C 1788 328.04  1751.04 365  1704 365  C 1656.96 365  1620 328.04  1620 281  C 1620 233.96  1656.96 197  1704 197  Z " fill-rule="nonzero" fill="#ffffff" stroke="none" fill-opacity="0.207843137254902" />
    <path d="M 1704 197.5  C 1750.76 197.5  1787.5 234.24  1787.5 281  C 1787.5 327.76  1750.76 364.5  1704 364.5  C 1657.24 364.5  1620.5 327.76  1620.5 281  C 1620.5 234.24  1657.24 197.5  1704 197.5  Z " stroke-width="1" stroke="#797979" fill="none" />
  </g>
</svg>