<?xml version="1.0" encoding="utf-8"?>
<svg version="1.1" xmlns:xlink="http://www.w3.org/1999/xlink" width="212px" height="6px" preserveAspectRatio="xMinYMid meet" viewBox="1764 263  212 4" xmlns="http://www.w3.org/2000/svg">
  <g transform="matrix(0.965925826289064 -0.258819045102518 0.258819045102538 0.965925826289056 -4.86834211272298 493.021270375108 )">
    <path d="M 1770.9 261.8  L 1767 265.5  L 1770.9 269.2  L 1774.7 265.5  L 1770.9 261.8  Z M 1770.9 267.8  L 1768.4 265.5  L 1770.9 263.2  L 1773.3 265.5  L 1770.9 267.8  Z M 1969.1 269.2  L 1973 265.5  L 1969.1 261.8  L 1965.3 265.5  L 1969.1 269.2  Z M 1969.1 263.2  L 1971.6 265.5  L 1969.1 267.8  L 1966.7 265.5  L 1969.1 263.2  Z " fill-rule="nonzero" fill="#d9001b" stroke="none" transform="matrix(0.965991585087917 0.258573505099291 -0.258573505099291 0.965991585087917 132.247001489456 -474.503220376516 )" />
    <path d="M 1773 265.5  L 1967 265.5  " stroke-width="1" stroke="#d9001b" fill="none" transform="matrix(0.965991585087917 0.258573505099291 -0.258573505099291 0.965991585087917 132.247001489456 -474.503220376516 )" />
  </g>
</svg>