<?xml version="1.0" encoding="utf-8"?>
<svg version="1.1" xmlns:xlink="http://www.w3.org/1999/xlink" width="490px" height="14px" preserveAspectRatio="xMinYMid meet" viewBox="1506 645  490 12" xmlns="http://www.w3.org/2000/svg">
  <g transform="matrix(0.838670567945422 -0.544639035015023 0.544639035015032 0.838670567945417 -72.0721762672188 1058.68841057884 )">
    <path d="M 1516.9 647.8  L 1513 651.5  L 1516.9 655.2  L 1520.7 651.5  L 1516.9 647.8  Z M 1516.9 653.8  L 1514.4 651.5  L 1516.9 649.2  L 1519.3 651.5  L 1516.9 653.8  Z M 1985.1 655.2  L 1989 651.5  L 1985.1 647.8  L 1981.3 651.5  L 1985.1 655.2  Z M 1985.1 649.2  L 1987.6 651.5  L 1985.1 653.8  L 1982.7 651.5  L 1985.1 649.2  Z " fill-rule="nonzero" fill="#d9001b" stroke="none" transform="matrix(0.843076031010972 0.537794390017957 -0.537794390017957 0.843076031010972 625.146914796487 -839.442011125091 )" />
    <path d="M 1519 651.5  L 1983 651.5  " stroke-width="1" stroke="#d9001b" fill="none" transform="matrix(0.843076031010972 0.537794390017957 -0.537794390017957 0.843076031010972 625.146914796487 -839.442011125091 )" />
  </g>
</svg>