<?xml version="1.0" encoding="utf-8"?>
<svg version="1.1" xmlns:xlink="http://www.w3.org/1999/xlink" width="12px" height="12px" viewBox="361 316.5  12 12" xmlns="http://www.w3.org/2000/svg">
  <path d="M 367 316.5  C 370.36 316.5  373 319.14  373 322.5  C 373 325.86  370.36 328.5  367 328.5  C 363.64 328.5  361 325.86  361 322.5  C 361 319.14  363.64 316.5  367 316.5  Z " fill-rule="nonzero" fill="#f0f0f0" stroke="none" />
  <path d="M 367 317  C 370.08 317  372.5 319.42  372.5 322.5  C 372.5 325.58  370.08 328  367 328  C 363.92 328  361.5 325.58  361.5 322.5  C 361.5 319.42  363.92 317  367 317  Z " stroke-width="1" stroke="#797979" fill="none" />
  <path d="M 367 325.5  C 365.32 325.5  364 324.18  364 322.5  C 364 320.82  365.32 319.5  367 319.5  C 368.68 319.5  370 320.82  370 322.5  C 370 324.18  368.68 325.5  367 325.5  " fill-rule="nonzero" fill="#797979" stroke="none" />
</svg>