<?xml version="1.0" encoding="utf-8"?>
<svg version="1.1" xmlns:xlink="http://www.w3.org/1999/xlink" width="12px" height="12px" viewBox="2033 646.5  12 12" xmlns="http://www.w3.org/2000/svg">
  <path d="M 2039 646.5  C 2042.36 646.5  2045 649.14  2045 652.5  C 2045 655.86  2042.36 658.5  2039 658.5  C 2035.64 658.5  2033 655.86  2033 652.5  C 2033 649.14  2035.64 646.5  2039 646.5  Z " fill-rule="nonzero" fill="#ffffff" stroke="none" />
  <path d="M 2039 647  C 2042.08 647  2044.5 649.42  2044.5 652.5  C 2044.5 655.58  2042.08 658  2039 658  C 2035.92 658  2033.5 655.58  2033.5 652.5  C 2033.5 649.42  2035.92 647  2039 647  Z " stroke-width="1" stroke="#797979" fill="none" />
  <path d="M 2039 655.5  C 2037.32 655.5  2036 654.18  2036 652.5  C 2036 650.82  2037.32 649.5  2039 649.5  C 2040.68 649.5  2042 650.82  2042 652.5  C 2042 654.18  2040.68 655.5  2039 655.5  " fill-rule="nonzero" fill="#797979" stroke="none" />
</svg>