<?xml version="1.0" encoding="utf-8"?>
<svg version="1.1" xmlns:xlink="http://www.w3.org/1999/xlink" width="12px" height="12px" viewBox="2152 646.5  12 12" xmlns="http://www.w3.org/2000/svg">
  <path d="M 2158 646.5  C 2161.36 646.5  2164 649.14  2164 652.5  C 2164 655.86  2161.36 658.5  2158 658.5  C 2154.64 658.5  2152 655.86  2152 652.5  C 2152 649.14  2154.64 646.5  2158 646.5  Z " fill-rule="nonzero" fill="#ffffff" stroke="none" />
  <path d="M 2158 647  C 2161.08 647  2163.5 649.42  2163.5 652.5  C 2163.5 655.58  2161.08 658  2158 658  C 2154.92 658  2152.5 655.58  2152.5 652.5  C 2152.5 649.42  2154.92 647  2158 647  Z " stroke-width="1" stroke="#797979" fill="none" />
  <path d="M 2158 655.5  C 2156.32 655.5  2155 654.18  2155 652.5  C 2155 650.82  2156.32 649.5  2158 649.5  C 2159.68 649.5  2161 650.82  2161 652.5  C 2161 654.18  2159.68 655.5  2158 655.5  " fill-rule="nonzero" fill="#797979" stroke="none" />
</svg>