<?xml version="1.0" encoding="utf-8"?>
<svg version="1.1" xmlns:xlink="http://www.w3.org/1999/xlink" width="12px" height="12px" viewBox="1014 604.5  12 12" xmlns="http://www.w3.org/2000/svg">
  <path d="M 1020 604.5  C 1023.36 604.5  1026 607.14  1026 610.5  C 1026 613.86  1023.36 616.5  1020 616.5  C 1016.64 616.5  1014 613.86  1014 610.5  C 1014 607.14  1016.64 604.5  1020 604.5  Z " fill-rule="nonzero" fill="#f0f0f0" stroke="none" />
  <path d="M 1020 605  C 1023.08 605  1025.5 607.42  1025.5 610.5  C 1025.5 613.58  1023.08 616  1020 616  C 1016.92 616  1014.5 613.58  1014.5 610.5  C 1014.5 607.42  1016.92 605  1020 605  Z " stroke-width="1" stroke="#797979" fill="none" />
  <path d="M 1020 613.5  C 1018.32 613.5  1017 612.18  1017 610.5  C 1017 608.82  1018.32 607.5  1020 607.5  C 1021.68 607.5  1023 608.82  1023 610.5  C 1023 612.18  1021.68 613.5  1020 613.5  " fill-rule="nonzero" fill="#797979" stroke="none" />
</svg>