<?xml version="1.0" encoding="utf-8"?>
<svg version="1.1" xmlns:xlink="http://www.w3.org/1999/xlink" width="12px" height="12px" viewBox="1133 604.5  12 12" xmlns="http://www.w3.org/2000/svg">
  <path d="M 1139 604.5  C 1142.36 604.5  1145 607.14  1145 610.5  C 1145 613.86  1142.36 616.5  1139 616.5  C 1135.64 616.5  1133 613.86  1133 610.5  C 1133 607.14  1135.64 604.5  1139 604.5  Z " fill-rule="nonzero" fill="#f0f0f0" stroke="none" />
  <path d="M 1139 605  C 1142.08 605  1144.5 607.42  1144.5 610.5  C 1144.5 613.58  1142.08 616  1139 616  C 1135.92 616  1133.5 613.58  1133.5 610.5  C 1133.5 607.42  1135.92 605  1139 605  Z " stroke-width="1" stroke="#797979" fill="none" />
  <path d="M 1139 613.5  C 1137.32 613.5  1136 612.18  1136 610.5  C 1136 608.82  1137.32 607.5  1139 607.5  C 1140.68 607.5  1142 608.82  1142 610.5  C 1142 612.18  1140.68 613.5  1139 613.5  " fill-rule="nonzero" fill="#797979" stroke="none" />
</svg>