<?xml version="1.0" encoding="utf-8"?>
<svg version="1.1" xmlns:xlink="http://www.w3.org/1999/xlink" width="12px" height="12px" viewBox="475 988.5  12 12" xmlns="http://www.w3.org/2000/svg">
  <path d="M 481 988.5  C 484.36 988.5  487 991.14  487 994.5  C 487 997.86  484.36 1000.5  481 1000.5  C 477.64 1000.5  475 997.86  475 994.5  C 475 991.14  477.64 988.5  481 988.5  Z " fill-rule="nonzero" fill="#f0f0f0" stroke="none" />
  <path d="M 481 989  C 484.08 989  486.5 991.42  486.5 994.5  C 486.5 997.58  484.08 1000  481 1000  C 477.92 1000  475.5 997.58  475.5 994.5  C 475.5 991.42  477.92 989  481 989  Z " stroke-width="1" stroke="#797979" fill="none" />
  <path d="M 481 997.5  C 479.32 997.5  478 996.18  478 994.5  C 478 992.82  479.32 991.5  481 991.5  C 482.68 991.5  484 992.82  484 994.5  C 484 996.18  482.68 997.5  481 997.5  " fill-rule="nonzero" fill="#797979" stroke="none" />
</svg>