<?xml version="1.0" encoding="utf-8"?>
<svg version="1.1" xmlns:xlink="http://www.w3.org/1999/xlink" width="12px" height="12px" viewBox="387 988.5  12 12" xmlns="http://www.w3.org/2000/svg">
  <path d="M 393 988.5  C 396.36 988.5  399 991.14  399 994.5  C 399 997.86  396.36 1000.5  393 1000.5  C 389.64 1000.5  387 997.86  387 994.5  C 387 991.14  389.64 988.5  393 988.5  Z " fill-rule="nonzero" fill="#f0f0f0" stroke="none" />
  <path d="M 393 989  C 396.08 989  398.5 991.42  398.5 994.5  C 398.5 997.58  396.08 1000  393 1000  C 389.92 1000  387.5 997.58  387.5 994.5  C 387.5 991.42  389.92 989  393 989  Z " stroke-width="1" stroke="#797979" fill="none" />
  <path d="M 393 997.5  C 391.32 997.5  390 996.18  390 994.5  C 390 992.82  391.32 991.5  393 991.5  C 394.68 991.5  396 992.82  396 994.5  C 396 996.18  394.68 997.5  393 997.5  " fill-rule="nonzero" fill="#797979" stroke="none" />
</svg>