<?xml version="1.0" encoding="utf-8"?>
<svg version="1.1" xmlns:xlink="http://www.w3.org/1999/xlink" width="22px" height="22px" preserveAspectRatio="xMinYMid meet" viewBox="410 181  22 20" xmlns="http://www.w3.org/2000/svg">
  <g transform="matrix(0.956304755963036 -0.292371704722738 0.292371704722738 0.956304755963036 -37.447297862481 131.434279299333 )">
    <path d="M 418.9 223.8  L 415 227.5  L 418.9 231.2  L 422.7 227.5  L 418.9 223.8  Z M 418.9 229.8  L 416.4 227.5  L 418.9 225.2  L 421.3 227.5  L 418.9 229.8  Z M 666.1 231.2  L 670 227.5  L 666.1 223.8  L 662.3 227.5  L 666.1 231.2  Z M 666.1 225.2  L 668.6 227.5  L 666.1 229.8  L 663.7 227.5  L 666.1 225.2  Z " fill-rule="nonzero" fill="#d9001b" stroke="none" transform="matrix(0.958798112708387 0.284088329691374 -0.284088329691374 0.958798112708387 86.9821188604875 -144.744489498728 )" />
    <path d="M 421 227.5  L 664 227.5  " stroke-width="1" stroke="#d9001b" fill="none" transform="matrix(0.958798112708387 0.284088329691374 -0.284088329691374 0.958798112708387 86.9821188604875 -144.744489498728 )" />
  </g>
</svg>