<?xml version="1.0" encoding="utf-8"?>
<svg version="1.1" xmlns:xlink="http://www.w3.org/1999/xlink" width="22px" height="22px" preserveAspectRatio="xMinYMid meet" viewBox="2488 1257  22 20" xmlns="http://www.w3.org/2000/svg">
  <g transform="matrix(-0.981627183447668 0.190808995376549 -0.190808995376549 -0.981627183447658 5193.84132857781 2033.88996198219 )">
    <path d="M 2283.9 1240.8  L 2280 1244.5  L 2283.9 1248.2  L 2287.7 1244.5  L 2283.9 1240.8  Z M 2283.9 1246.8  L 2281.4 1244.5  L 2283.9 1242.2  L 2286.3 1244.5  L 2283.9 1246.8  Z M 2499.1 1248.2  L 2503 1244.5  L 2499.1 1240.8  L 2495.3 1244.5  L 2499.1 1248.2  Z M 2499.1 1242.2  L 2501.6 1244.5  L 2499.1 1246.8  L 2496.7 1244.5  L 2499.1 1242.2  Z " fill-rule="nonzero" fill="#d9001b" stroke="none" transform="matrix(0.9802504088267 0.197760299340103 -0.197760299340103 0.9802504088267 293.343839819705 -448.365389656686 )" />
    <path d="M 2286 1244.5  L 2497 1244.5  " stroke-width="1" stroke="#d9001b" fill="none" transform="matrix(0.9802504088267 0.197760299340103 -0.197760299340103 0.9802504088267 293.343839819705 -448.365389656686 )" />
  </g>
</svg>