<?xml version="1.0" encoding="utf-8"?>
<svg version="1.1" xmlns:xlink="http://www.w3.org/1999/xlink" width="22px" height="22px" preserveAspectRatio="xMinYMid meet" viewBox="1512 1255  22 20" xmlns="http://www.w3.org/2000/svg">
  <g transform="matrix(-0.9781476007338 0.207911690817755 -0.207911690817755 -0.9781476007338 3275.72708480204 2185.70720981282 )">
    <path d="M 1339.9 1240.8  L 1336 1244.5  L 1339.9 1248.2  L 1343.7 1244.5  L 1339.9 1240.8  Z M 1339.9 1246.8  L 1337.4 1244.5  L 1339.9 1242.2  L 1342.3 1244.5  L 1339.9 1246.8  Z M 1523.1 1248.2  L 1527 1244.5  L 1523.1 1240.8  L 1519.3 1244.5  L 1523.1 1248.2  Z M 1523.1 1242.2  L 1525.6 1244.5  L 1523.1 1246.8  L 1520.7 1244.5  L 1523.1 1242.2  Z " fill-rule="nonzero" fill="#d9001b" stroke="none" transform="matrix(0.977414165439867 0.211332792527539 -0.211332792527539 0.977414165439867 295.335282473352 -274.414821393087 )" />
    <path d="M 1342 1244.5  L 1521 1244.5  " stroke-width="1" stroke="#d9001b" fill="none" transform="matrix(0.977414165439867 0.211332792527539 -0.211332792527539 0.977414165439867 295.335282473352 -274.414821393087 )" />
  </g>
</svg>