<?xml version="1.0" encoding="utf-8"?>
<svg version="1.1" xmlns:xlink="http://www.w3.org/1999/xlink" width="6px" height="6px" xmlns="http://www.w3.org/2000/svg">
  <g transform="matrix(1 0 0 1 -1216 -1163 )">
    <path d="M 1219 1163  C 1220.68 1163  1222 1164.32  1222 1166  C 1222 1167.68  1220.68 1169  1219 1169  C 1217.32 1169  1216 1167.68  1216 1166  C 1216 1164.32  1217.32 1163  1219 1163  Z " fill-rule="nonzero" fill="#d9001b" stroke="none" />
    <path d="M 1219 1163.5  C 1220.4 1163.5  1221.5 1164.6  1221.5 1166  C 1221.5 1167.4  1220.4 1168.5  1219 1168.5  C 1217.6 1168.5  1216.5 1167.4  1216.5 1166  C 1216.5 1164.6  1217.6 1163.5  1219 1163.5  Z " stroke-width="1" stroke="#797979" fill="none" />
  </g>
</svg>