<?xml version="1.0" encoding="utf-8"?>
<svg version="1.1" xmlns:xlink="http://www.w3.org/1999/xlink" width="20px" height="22px" xmlns="http://www.w3.org/2000/svg">
  <g transform="matrix(1 0 0 1 -2500 -1847 )">
    <path d="M 13.0034722222222 0.34375  C 13.2233796296296 0.572916666666663  13.3333333333333 0.844298245614032  13 1.15789473684211  L 13 20.8421052631579  C 13.3333333333333 21.155701754386  13.2233796296296 21.4270833333333  13.0034722222222 21.65625  C 12.7835648148148 21.8854166666667  12.5231481481481 22  12.2222222222222 22  C 11.9212962962963 22  11.6608796296296 21.8854166666667  11.4409722222222 21.65625  L 5.65972222222222 15.6315789473684  L 1.11111111111111 15.6315789473684  C 0.810185185185185 15.6315789473684  0.549768518518518 15.5169956140351  0.329861111111111 15.2878289473684  C 0.109953703703704 15.0586622807018  0 14.7872807017544  0 14.4736842105263  L 0 7.52631578947368  C 0 7.21271929824561  0.109953703703704 6.94133771929824  0.329861111111111 6.71217105263158  C 0.549768518518518 6.48300438596491  0.810185185185185 6.36842105263158  1.11111111111111 6.36842105263158  L 5.65972222222222 6.36842105263158  L 11.4409722222222 0.34375  C 11.6608796296296 0.114583333333332  11.9212962962963 0  12.2222222222222 0  C 12.5231481481481 0  12.7835648148148 0.114583333333332  13.0034722222222 0.34375  Z M 19.2621527777778 8.43092105263158  C 19.7540509259259 9.22697368421053  20 10.0833333333333  20 11  C 20 11.9166666666667  19.7540509259259 12.7700109649123  19.2621527777778 13.5600328947368  C 18.7702546296296 14.3500548245614  18.119212962963 14.9139254385965  17.3090277777778 15.2516447368421  C 17.193287037037 15.311951754386  17.0486111111111 15.3421052631579  16.875 15.3421052631579  C 16.5740740740741 15.3421052631579  16.3136574074074 15.2305372807018  16.09375 15.0074013157895  C 15.8738425925926 14.7842653508772  15.7638888888889 14.5098684210526  15.7638888888889 14.1842105263158  C 15.7638888888889 13.9309210526316  15.8333333333333 13.7168311403509  15.9722222222222 13.5419407894737  C 16.1111111111111 13.3670504385965  16.2789351851852 13.2162828947368  16.4756944444444 13.0896381578947  C 16.6724537037037 12.9629934210526  16.869212962963 12.8242872807018  17.0659722222222 12.6735197368421  C 17.2627314814815 12.5227521929825  17.4305555555556 12.3056469298246  17.5694444444444 12.0222039473684  C 17.7083333333333 11.7387609649123  17.7777777777778 11.3980263157895  17.7777777777778 11  C 17.7777777777778 10.6019736842105  17.7083333333333 10.2612390350877  17.5694444444444 9.97779605263158  C 17.4305555555556 9.69435307017544  17.2627314814815 9.47724780701754  17.0659722222222 9.32648026315789  C 16.869212962963 9.17571271929824  16.6724537037037 9.03700657894737  16.4756944444444 8.91036184210526  C 16.2789351851852 8.78371710526316  16.1111111111111 8.63294956140351  15.9722222222222 8.45805921052632  C 15.8333333333333 8.28316885964912  15.7638888888889 8.06907894736842  15.7638888888889 7.81578947368421  C 15.7638888888889 7.49013157894737  15.8738425925926 7.2157346491228  16.09375 6.99259868421053  C 16.3136574074074 6.76946271929824  16.5740740740741 6.65789473684211  16.875 6.65789473684211  C 17.0486111111111 6.65789473684211  17.193287037037 6.68804824561403  17.3090277777778 6.74835526315789  C 18.119212962963 7.07401315789474  18.7702546296296 7.63486842105263  19.2621527777778 8.43092105263158  Z " fill-rule="nonzero" fill="#ffffff" stroke="none" transform="matrix(1 0 0 1 2500 1847 )" />
  </g>
</svg>