<?xml version="1.0" encoding="utf-8"?>
<svg version="1.1" xmlns:xlink="http://www.w3.org/1999/xlink" width="16px" height="24px" xmlns="http://www.w3.org/2000/svg">
  <g transform="matrix(1 0 0 1 -847 -1223 )">
    <path d="M 15.7361111111111 9.50480769230769  C 15.912037037037 9.6875  16 9.90384615384615  16 10.1538461538462  L 16 12  C 16 14.125  15.3171296296296 15.9735576923077  13.9513888888889 17.5456730769231  C 12.5856481481481 19.1177884615385  10.8981481481481 20.0192307692308  8.88888888888889 20.25  L 8.88888888888889 22.1538461538462  L 12.4444444444444 22.1538461538462  C 12.6851851851852 22.1538461538462  12.8935185185185 22.2451923076923  13.0694444444444 22.4278846153846  C 13.2453703703704 22.6105769230769  13.3333333333333 22.8269230769231  13.3333333333333 23.0769230769231  C 13.3333333333333 23.3269230769231  13.2453703703704 23.5432692307692  13.0694444444444 23.7259615384615  C 12.8935185185185 23.9086538461538  12.6851851851852 24  12.4444444444444 24  L 3.55555555555556 24  C 3.31481481481481 24  3.10648148148148 23.9086538461538  2.93055555555556 23.7259615384615  C 2.75462962962963 23.5432692307692  2.66666666666667 23.3269230769231  2.66666666666667 23.0769230769231  C 2.66666666666667 22.8269230769231  2.75462962962963 22.6105769230769  2.93055555555556 22.4278846153846  C 3.10648148148148 22.2451923076923  3.31481481481481 22.1538461538462  3.55555555555556 22.1538461538462  L 7.11111111111111 22.1538461538462  L 7.11111111111111 20.25  C 5.10185185185185 20.0192307692308  3.41435185185185 19.1177884615385  2.04861111111111 17.5456730769231  C 0.68287037037037 15.9735576923077  0 14.125  0 12  L 0 10.1538461538462  C 0 9.90384615384615  0.087962962962963 9.6875  0.263888888888889 9.50480769230769  C 0.439814814814815 9.32211538461538  0.648148148148148 9.23076923076923  0.888888888888889 9.23076923076923  C 1.12962962962963 9.23076923076923  1.33796296296296 9.32211538461538  1.51388888888889 9.50480769230769  C 1.68981481481481 9.6875  1.77777777777778 9.90384615384615  1.77777777777778 10.1538461538462  L 1.77777777777778 12  C 1.77777777777778 13.7788461538462  2.38657407407407 15.3004807692308  3.60416666666667 16.5649038461538  C 4.82175925925926 17.8293269230769  6.28703703703704 18.4615384615385  8 18.4615384615385  C 9.71296296296296 18.4615384615385  11.1782407407407 17.8293269230769  12.3958333333333 16.5649038461538  C 13.6134259259259 15.3004807692308  14.2222222222222 13.7788461538462  14.2222222222222 12  L 14.2222222222222 10.1538461538462  C 14.2222222222222 9.90384615384615  14.3101851851852 9.6875  14.4861111111111 9.50480769230769  C 14.662037037037 9.32211538461538  14.8703703703704 9.23076923076923  15.1111111111111 9.23076923076923  C 15.3518518518519 9.23076923076923  15.5601851851852 9.32211538461538  15.7361111111111 9.50480769230769  Z M 11.1388888888889 1.35576923076923  C 12.0092592592593 2.25961538461538  12.4444444444444 3.34615384615384  12.4444444444444 4.61538461538462  L 12.4444444444444 12  C 12.4444444444444 13.2692307692308  12.0092592592593 14.3557692307692  11.1388888888889 15.2596153846154  C 10.2685185185185 16.1634615384615  9.22222222222222 16.6153846153846  8 16.6153846153846  C 6.77777777777778 16.6153846153846  5.73148148148148 16.1634615384615  4.86111111111111 15.2596153846154  C 3.99074074074074 14.3557692307692  3.55555555555556 13.2692307692308  3.55555555555556 12  L 3.55555555555556 4.61538461538462  C 3.55555555555556 3.34615384615384  3.99074074074074 2.25961538461538  4.86111111111111 1.35576923076923  C 5.73148148148148 0.451923076923079  6.77777777777778 0  8 0  C 9.22222222222222 0  10.2685185185185 0.451923076923079  11.1388888888889 1.35576923076923  Z " fill-rule="nonzero" fill="#ffffff" stroke="none" transform="matrix(1 0 0 1 847 1223 )" />
  </g>
</svg>