<?xml version="1.0" encoding="utf-8"?>
<svg version="1.1" xmlns:xlink="http://www.w3.org/1999/xlink" width="8px" height="12px" xmlns="http://www.w3.org/2000/svg">
  <g transform="matrix(1 0 0 1 -362 -1087 )">
    <path d="M 7.86805555555556 4.75240384615385  C 7.95601851851852 4.84375  8 4.95192307692307  8 5.07692307692308  L 8 6  C 8 7.0625  7.65856481481482 7.98677884615385  6.97569444444444 8.77283653846154  C 6.29282407407407 9.55889423076923  5.44907407407407 10.0096153846154  4.44444444444444 10.125  L 4.44444444444444 11.0769230769231  L 6.22222222222222 11.0769230769231  C 6.34259259259259 11.0769230769231  6.44675925925926 11.1225961538462  6.53472222222222 11.2139423076923  C 6.62268518518519 11.3052884615385  6.66666666666667 11.4134615384615  6.66666666666667 11.5384615384615  C 6.66666666666667 11.6634615384615  6.62268518518519 11.7716346153846  6.53472222222222 11.8629807692308  C 6.44675925925926 11.9543269230769  6.34259259259259 12  6.22222222222222 12  L 1.77777777777778 12  C 1.65740740740741 12  1.55324074074074 11.9543269230769  1.46527777777778 11.8629807692308  C 1.37731481481481 11.7716346153846  1.33333333333333 11.6634615384615  1.33333333333333 11.5384615384615  C 1.33333333333333 11.4134615384615  1.37731481481481 11.3052884615385  1.46527777777778 11.2139423076923  C 1.55324074074074 11.1225961538462  1.65740740740741 11.0769230769231  1.77777777777778 11.0769230769231  L 3.55555555555556 11.0769230769231  L 3.55555555555556 10.125  C 2.55092592592593 10.0096153846154  1.70717592592593 9.55889423076923  1.02430555555556 8.77283653846154  C 0.341435185185185 7.98677884615385  0 7.0625  0 6  L 0 5.07692307692308  C 0 4.95192307692307  0.0439814814814815 4.84375  0.131944444444444 4.75240384615385  C 0.219907407407407 4.66105769230769  0.324074074074074 4.61538461538462  0.444444444444444 4.61538461538462  C 0.564814814814815 4.61538461538462  0.668981481481482 4.66105769230769  0.756944444444444 4.75240384615385  C 0.844907407407407 4.84375  0.888888888888889 4.95192307692307  0.888888888888889 5.07692307692308  L 0.888888888888889 6  C 0.888888888888889 6.88942307692308  1.19328703703704 7.65024038461538  1.80208333333333 8.28245192307692  C 2.41087962962963 8.91466346153846  3.14351851851852 9.23076923076923  4 9.23076923076923  C 4.85648148148148 9.23076923076923  5.58912037037037 8.91466346153846  6.19791666666667 8.28245192307692  C 6.80671296296296 7.65024038461538  7.11111111111111 6.88942307692308  7.11111111111111 6  L 7.11111111111111 5.07692307692308  C 7.11111111111111 4.95192307692307  7.15509259259259 4.84375  7.24305555555556 4.75240384615385  C 7.33101851851852 4.66105769230769  7.43518518518519 4.61538461538462  7.55555555555556 4.61538461538462  C 7.67592592592593 4.61538461538462  7.78009259259259 4.66105769230769  7.86805555555556 4.75240384615385  Z M 5.56944444444444 0.677884615384615  C 6.00462962962963 1.12980769230769  6.22222222222222 1.67307692307692  6.22222222222222 2.30769230769231  L 6.22222222222222 6  C 6.22222222222222 6.63461538461539  6.00462962962963 7.17788461538462  5.56944444444444 7.62980769230769  C 5.13425925925926 8.08173076923077  4.61111111111111 8.30769230769231  4 8.30769230769231  C 3.38888888888889 8.30769230769231  2.86574074074074 8.08173076923077  2.43055555555556 7.62980769230769  C 1.99537037037037 7.17788461538462  1.77777777777778 6.63461538461539  1.77777777777778 6  L 1.77777777777778 2.30769230769231  C 1.77777777777778 1.67307692307692  1.99537037037037 1.12980769230769  2.43055555555556 0.677884615384615  C 2.86574074074074 0.22596153846154  3.38888888888889 0  4 0  C 4.61111111111111 0  5.13425925925926 0.22596153846154  5.56944444444444 0.677884615384615  Z " fill-rule="nonzero" fill="#ffffff" stroke="none" transform="matrix(1 0 0 1 362 1087 )" />
  </g>
</svg>