<?xml version="1.0" encoding="utf-8"?>
<svg version="1.1" xmlns:xlink="http://www.w3.org/1999/xlink" width="19px" height="28px" xmlns="http://www.w3.org/2000/svg">
  <g transform="matrix(1 0 0 1 -568 -434 )">
    <path d="M 18.6866319444444 11.0889423076923  C 18.8955439814815 11.3020833333333  19 11.5544871794872  19 11.8461538461538  L 19 14  C 19 16.4791666666667  18.1890914351852 18.6358173076923  16.5672743055556 20.4699519230769  C 14.9454571759259 22.3040865384615  12.9415509259259 23.3557692307692  10.5555555555556 23.625  L 10.5555555555556 25.8461538461538  L 14.7777777777778 25.8461538461538  C 15.0636574074074 25.8461538461538  15.3110532407407 25.9527243589744  15.5199652777778 26.1658653846154  C 15.7288773148148 26.3790064102564  15.8333333333333 26.6314102564103  15.8333333333333 26.9230769230769  C 15.8333333333333 27.2147435897436  15.7288773148148 27.4671474358974  15.5199652777778 27.6802884615385  C 15.3110532407407 27.8934294871795  15.0636574074074 28  14.7777777777778 28  L 4.22222222222222 28  C 3.93634259259259 28  3.68894675925926 27.8934294871795  3.48003472222222 27.6802884615385  C 3.27112268518518 27.4671474358974  3.16666666666667 27.2147435897436  3.16666666666667 26.9230769230769  C 3.16666666666667 26.6314102564103  3.27112268518518 26.3790064102564  3.48003472222222 26.1658653846154  C 3.68894675925926 25.9527243589744  3.93634259259259 25.8461538461538  4.22222222222222 25.8461538461538  L 8.44444444444444 25.8461538461538  L 8.44444444444444 23.625  C 6.05844907407407 23.3557692307692  4.05454282407407 22.3040865384615  2.43272569444444 20.4699519230769  C 0.810908564814815 18.6358173076923  0 16.4791666666667  0 14  L 0 11.8461538461538  C 0 11.5544871794872  0.104456018518519 11.3020833333333  0.313368055555556 11.0889423076923  C 0.522280092592593 10.8758012820513  0.769675925925926 10.7692307692308  1.05555555555556 10.7692307692308  C 1.34143518518519 10.7692307692308  1.58883101851852 10.8758012820513  1.79774305555556 11.0889423076923  C 2.00665509259259 11.3020833333333  2.11111111111111 11.5544871794872  2.11111111111111 11.8461538461538  L 2.11111111111111 14  C 2.11111111111111 16.0753205128205  2.83405671296296 17.8505608974359  4.27994791666667 19.3257211538462  C 5.72583912037037 20.8008814102564  7.46585648148148 21.5384615384615  9.5 21.5384615384615  C 11.5341435185185 21.5384615384615  13.2741608796296 20.8008814102564  14.7200520833333 19.3257211538462  C 16.165943287037 17.8505608974359  16.8888888888889 16.0753205128205  16.8888888888889 14  L 16.8888888888889 11.8461538461538  C 16.8888888888889 11.5544871794872  16.9933449074074 11.3020833333333  17.2022569444444 11.0889423076923  C 17.4111689814815 10.8758012820513  17.6585648148148 10.7692307692308  17.9444444444444 10.7692307692308  C 18.2303240740741 10.7692307692308  18.4777199074074 10.8758012820513  18.6866319444444 11.0889423076923  Z M 13.2274305555556 1.58173076923077  C 14.2609953703704 2.63621794871795  14.7777777777778 3.90384615384615  14.7777777777778 5.38461538461538  L 14.7777777777778 14  C 14.7777777777778 15.4807692307692  14.2609953703704 16.7483974358974  13.2274305555556 17.8028846153846  C 12.1938657407407 18.8573717948718  10.9513888888889 19.3846153846154  9.5 19.3846153846154  C 8.04861111111111 19.3846153846154  6.80613425925926 18.8573717948718  5.77256944444444 17.8028846153846  C 4.73900462962963 16.7483974358974  4.22222222222222 15.4807692307692  4.22222222222222 14  L 4.22222222222222 5.38461538461538  C 4.22222222222222 3.90384615384615  4.73900462962963 2.63621794871795  5.77256944444444 1.58173076923077  C 6.80613425925926 0.527243589743593  8.04861111111111 0  9.5 0  C 10.9513888888889 0  12.1938657407407 0.527243589743593  13.2274305555556 1.58173076923077  Z " fill-rule="nonzero" fill="#01bebf" stroke="none" transform="matrix(1 0 0 1 568 434 )" />
  </g>
</svg>