<?xml version="1.0" encoding="utf-8"?>
<svg version="1.1" xmlns:xlink="http://www.w3.org/1999/xlink" width="22px" height="22px" preserveAspectRatio="xMinYMid meet" viewBox="360 1093  22 20" xmlns="http://www.w3.org/2000/svg">
  <g transform="matrix(0.945518575599319 -0.325568154457157 0.325568154457157 0.945518575599319 -338.889065913592 180.878796417557 )">
    <path d="M 366.9 1138.8  L 363 1142.5  L 366.9 1146.2  L 370.7 1142.5  L 366.9 1138.8  Z M 366.9 1144.8  L 364.4 1142.5  L 366.9 1140.2  L 369.3 1142.5  L 366.9 1144.8  Z M 603.1 1146.2  L 607 1142.5  L 603.1 1138.8  L 599.3 1142.5  L 603.1 1146.2  Z M 603.1 1140.2  L 605.6 1142.5  L 603.1 1144.8  L 600.7 1142.5  L 603.1 1140.2  Z " fill-rule="nonzero" fill="#d9001b" stroke="none" transform="matrix(0.943968867667281 0.330034508612284 -0.330034508612284 0.943968867667281 404.239525270904 -96.0511679868259 )" />
    <path d="M 369 1142.5  L 601 1142.5  " stroke-width="1" stroke="#d9001b" fill="none" transform="matrix(0.943968867667281 0.330034508612284 -0.330034508612284 0.943968867667281 404.239525270904 -96.0511679868259 )" />
  </g>
</svg>