<?xml version="1.0" encoding="utf-8"?>
<svg version="1.1" xmlns:xlink="http://www.w3.org/1999/xlink" width="21px" height="21px" xmlns="http://www.w3.org/2000/svg">
  <g transform="matrix(1 0 0 1 -1277 -355 )">
    <path d="M 1287.5 355  C 1293.38 355  1298 359.62  1298 365.5  C 1298 371.38  1293.38 376  1287.5 376  C 1281.62 376  1277 371.38  1277 365.5  C 1277 359.62  1281.62 355  1287.5 355  Z " fill-rule="nonzero" fill="#ffffff" stroke="none" />
    <path d="M 1287.5 355.5  C 1293.1 355.5  1297.5 359.9  1297.5 365.5  C 1297.5 371.1  1293.1 375.5  1287.5 375.5  C 1281.9 375.5  1277.5 371.1  1277.5 365.5  C 1277.5 359.9  1281.9 355.5  1287.5 355.5  Z " stroke-width="1" stroke="#797979" fill="none" />
  </g>
</svg>