<?xml version="1.0" encoding="utf-8"?>
<svg version="1.1" xmlns:xlink="http://www.w3.org/1999/xlink" width="24px" height="16px" xmlns="http://www.w3.org/2000/svg">
  <g transform="matrix(1 0 0 1 -1736 -1222 )">
    <path d="M 10.8028846153846 1.37271448663854  C 10.9855769230769 1.51523675574308  11.0769230769231 1.6840131270511  11 1.87904360056259  L 11 14.1209563994374  C 11.0769230769231 14.3159868729489  10.9855769230769 14.4847632442569  10.8028846153846 14.6272855133615  C 10.6201923076923 14.769807782466  10.4038461538462 14.8410689170183  10.1538461538462 14.8410689170183  C 9.90384615384616 14.8410689170183  9.6875 14.769807782466  9.50480769230769 14.6272855133615  L 4.70192307692308 10.8804500703235  L 0.923076923076923 10.8804500703235  C 0.673076923076923 10.8804500703235  0.456730769230769 10.8091889357712  0.274038461538462 10.6666666666667  C 0.0913461538461538 10.5241443975621  0 10.3553680262541  0 10.1603375527426  L 0 5.83966244725738  C 0 5.6446319737459  0.0913461538461538 5.47585560243788  0.274038461538462 5.33333333333333  C 0.456730769230769 5.19081106422878  0.673076923076923 5.11954992967651  0.923076923076923 5.11954992967651  L 4.70192307692308 5.11954992967651  L 9.50480769230769 1.37271448663854  C 9.6875 1.23019221753399  9.90384615384616 1.15893108298172  10.1538461538462 1.15893108298172  C 10.4038461538462 1.15893108298172  10.6201923076923 1.23019221753399  10.8028846153846 1.37271448663854  Z M 16.0024038461538 6.40225035161744  C 16.4110576923077 6.89732770745429  16.6153846153846 7.42991092358181  16.6153846153846 8  C 16.6153846153846 8.57008907641819  16.4110576923077 9.10079699953118  16.0024038461538 9.59212376933896  C 15.59375 10.0834505391467  15.0528846153846 10.4341303328645  14.3798076923077 10.6441631504923  C 14.2836538461539 10.6816690107829  14.1634615384615 10.7004219409283  14.0192307692308 10.7004219409283  C 13.7692307692308 10.7004219409283  13.5528846153846 10.6310360993905  13.3701923076923 10.492264416315  C 13.1875 10.3534927332396  13.0961538461538 10.182841068917  13.0961538461538 9.9803094233474  C 13.0961538461538 9.82278481012658  13.1538461538462 9.6896390060947  13.2692307692308 9.58087201125176  C 13.3846153846154 9.47210501640881  13.5240384615385 9.37834036568214  13.6875 9.29957805907173  C 13.8509615384615 9.22081575246132  14.0144230769231 9.13455227379278  14.1778846153846 9.04078762306611  C 14.3413461538462 8.94702297233943  14.4807692307692 8.81200187529301  14.5961538461538 8.63572433192686  C 14.7115384615385 8.45944678856071  14.7692307692308 8.24753867791842  14.7692307692308 8  C 14.7692307692308 7.75246132208158  14.7115384615385 7.54055321143929  14.5961538461538 7.36427566807314  C 14.4807692307692 7.18799812470698  14.3413461538462 7.05297702766057  14.1778846153846 6.9592123769339  C 14.0144230769231 6.86544772620722  13.8509615384615 6.77918424753868  13.6875 6.70042194092827  C 13.5240384615385 6.62165963431786  13.3846153846154 6.52789498359119  13.2692307692308 6.41912798874824  C 13.1538461538462 6.3103609939053  13.0961538461538 6.17721518987342  13.0961538461538 6.0196905766526  C 13.0961538461538 5.81715893108298  13.1875 5.64650726676043  13.3701923076923 5.50773558368495  C 13.5528846153846 5.36896390060947  13.7692307692308 5.29957805907173  14.0192307692308 5.29957805907173  C 14.1634615384615 5.29957805907173  14.2836538461539 5.31833098921707  14.3798076923077 5.35583684950774  C 15.0528846153846 5.55836849507736  15.59375 5.90717299578059  16.0024038461538 6.40225035161744  Z M 19.0817307692308 4.82137834036568  C 19.8990384615385 5.79278012189405  20.3076923076923 6.85232067510549  20.3076923076923 8  C 20.3076923076923 9.14767932489452  19.8990384615385 10.207219878106  19.0817307692308 11.1786216596343  C 18.2644230769231 12.1500234411627  17.1826923076923 12.8570089076418  15.8365384615385 13.2995780590717  C 15.7115384615385 13.3370839193624  15.5913461538462 13.3558368495077  15.4759615384615 13.3558368495077  C 15.2163461538462 13.3558368495077  14.9951923076923 13.2845757149555  14.8125 13.1420534458509  C 14.6298076923077 12.9995311767464  14.5384615384615 12.8307548054383  14.5384615384615 12.6357243319269  C 14.5384615384615 12.3431786216596  14.7259615384615 12.1218940459447  15.1009615384615 11.971870604782  C 15.6394230769231 11.7543366150961  16.0048076923077 11.5893108298172  16.1971153846154 11.4767932489451  C 16.9086538461539 11.0717299578059  17.4639423076923 10.5635255508673  17.8629807692308 9.95218002812939  C 18.2620192307692 9.34083450539147  18.4615384615385 8.69010782934834  18.4615384615385 8  C 18.4615384615385 7.30989217065166  18.2620192307692 6.65916549460853  17.8629807692308 6.0478199718706  C 17.4639423076923 5.43647444913268  16.9086538461539 4.92827004219409  16.1971153846154 4.52320675105485  C 16.0048076923077 4.41068917018284  15.6394230769231 4.24566338490389  15.1009615384615 4.028129395218  C 14.7259615384615 3.87810595405532  14.5384615384615 3.65682137834037  14.5384615384615 3.36427566807314  C 14.5384615384615 3.16924519456165  14.6298076923077 3.00046882325363  14.8125 2.85794655414909  C 14.9951923076923 2.71542428504454  15.2115384615385 2.64416315049226  15.4615384615385 2.64416315049226  C 15.5865384615385 2.64416315049226  15.7115384615385 2.6629160806376  15.8365384615385 2.70042194092827  C 17.1826923076923 3.14299109235818  18.2644230769231 3.84997655883732  19.0817307692308 4.82137834036568  Z M 22.1682692307692 3.24613220815752  C 23.3894230769231 4.69010782934834  24 6.27473042662916  24 8  C 24 9.72526957337084  23.3894230769231 11.3098921706517  22.1682692307692 12.7538677918425  C 20.9471153846154 14.1978434130333  19.3221153846154 15.2611345522738  17.2932692307692 15.943741209564  C 17.1682692307692 15.9812470698547  17.0432692307692 16  16.9182692307692 16  C 16.6682692307692 16  16.4519230769231 15.9287388654477  16.2692307692308 15.7862165963432  C 16.0865384615385 15.6436943272386  15.9951923076923 15.4749179559306  15.9951923076923 15.2798874824191  C 15.9951923076923 15.0098452883263  16.1826923076923 14.7885607126113  16.5576923076923 14.6160337552743  C 16.625 14.5860290670417  16.7331730769231 14.5466479137365  16.8822115384615 14.4978902953586  C 17.03125 14.4491326769808  17.1394230769231 14.4097515236756  17.2067307692308 14.379746835443  C 17.6490384615385 14.1922175339897  18.0432692307692 14.0009376465073  18.3894230769231 13.8059071729958  C 19.5721153846154 13.1233005157056  20.4951923076923 12.2719174871074  21.1586538461538 11.2517580872011  C 21.8221153846154 10.2315986872949  22.1538461538462 9.14767932489452  22.1538461538462 8  C 22.1538461538462 6.85232067510549  21.8221153846154 5.76840131270511  21.1586538461538 4.74824191279887  C 20.4951923076923 3.72808251289264  19.5721153846154 2.87669948429442  18.3894230769231 2.19409282700422  C 18.0432692307692 1.99906235349273  17.6490384615385 1.80778246601031  17.2067307692308 1.62025316455696  C 17.1394230769231 1.59024847632442  17.03125 1.55086732301922  16.8822115384615 1.50210970464135  C 16.7331730769231 1.45335208626348  16.625 1.41397093295827  16.5576923076923 1.38396624472574  C 16.1826923076923 1.21143928738865  15.9951923076923 0.990154711673698  15.9951923076923 0.720112517580873  C 15.9951923076923 0.525082044069384  16.0865384615385 0.356305672761367  16.2692307692308 0.213783403656821  C 16.4519230769231 0.0712611345522731  16.6682692307692 0  16.9182692307692 0  C 17.0432692307692 0  17.1682692307692 0.0187529301453342  17.2932692307692 0.0562587904360061  C 19.3221153846154 0.738865447726205  20.9471153846154 1.80215658696671  22.1682692307692 3.24613220815752  Z " fill-rule="nonzero" fill="#ffffff" stroke="none" transform="matrix(1 0 0 1 1736 1222 )" />
  </g>
</svg>