<?xml version="1.0" encoding="utf-8"?>
<svg version="1.1" xmlns:xlink="http://www.w3.org/1999/xlink" width="18px" height="16px" xmlns="http://www.w3.org/2000/svg">
  <g transform="matrix(1 0 0 1 -1693 -1186 )">
    <path d="M 12.83203125 2.05729166666667  C 11.6434151785714 1.57465277777778  10.3660714285714 1.33333333333333  9 1.33333333333333  C 7.63392857142857 1.33333333333333  6.35658482142857 1.57465277777778  5.16796875 2.05729166666667  C 3.97935267857143 2.53993055555556  3.03515625 3.19097222222222  2.33537946428571 4.01041666666667  C 1.63560267857143 4.82986111111111  1.28571428571429 5.71527777777778  1.28571428571429 6.66666666666667  C 1.28571428571429 7.44444444444444  1.52511160714286 8.18576388888889  2.00390625 8.890625  C 2.48270089285714 9.59548611111111  3.15736607142857 10.2048611111111  4.02790178571429 10.71875  L 4.90178571428571 11.2395833333333  L 4.63058035714286 12.2395833333333  C 4.46986607142857 12.8715277777778  4.23549107142857 13.46875  3.92745535714286 14.03125  C 4.9453125 13.59375  5.86607142857143 13  6.68973214285714 12.25  L 7.12165178571429 11.8541666666667  L 7.69419642857143 11.9166666666667  C 8.15625 11.9722222222222  8.59151785714286 12  9 12  C 10.3660714285714 12  11.6434151785714 11.7586805555556  12.83203125 11.2760416666667  C 14.0206473214286 10.7934027777778  14.96484375 10.1423611111111  15.6646205357143 9.32291666666667  C 16.3643973214286 8.50347222222222  16.7142857142857 7.61805555555556  16.7142857142857 6.66666666666667  C 16.7142857142857 5.71527777777778  16.3643973214286 4.82986111111111  15.6646205357143 4.01041666666667  C 14.96484375 3.19097222222222  14.0206473214286 2.53993055555556  12.83203125 2.05729166666667  Z M 16.7946428571429 3.31770833333333  C 17.5982142857143 4.34201388888889  18 5.45833333333333  18 6.66666666666667  C 18 7.875  17.5982142857143 8.99131944444444  16.7946428571429 10.015625  C 15.9910714285714 11.0399305555556  14.8995535714286 11.8489583333333  13.5200892857143 12.4427083333333  C 12.140625 13.0364583333333  10.6339285714286 13.3333333333333  9 13.3333333333333  C 8.53125 13.3333333333333  8.04575892857143 13.3055555555556  7.54352678571429 13.25  C 6.21763392857143 14.4652777777778  4.67745535714286 15.3055555555556  2.92299107142857 15.7708333333333  C 2.59486607142857 15.8680555555556  2.21316964285714 15.9444444444444  1.77790178571429 16  L 1.72767857142857 16  C 1.62723214285714 16  1.53683035714286 15.9635416666667  1.45647321428571 15.890625  C 1.37611607142857 15.8177083333333  1.32254464285714 15.7222222222222  1.29575892857143 15.6041666666667  L 1.29575892857143 15.59375  C 1.27566964285714 15.5659722222222  1.27399553571429 15.5243055555556  1.29073660714286 15.46875  C 1.30747767857143 15.4131944444444  1.31417410714286 15.3784722222222  1.31082589285714 15.3645833333333  C 1.30747767857143 15.3506944444444  1.32254464285714 15.3177083333333  1.35602678571429 15.265625  L 1.41629464285714 15.171875  C 1.41629464285714 15.171875  1.43973214285714 15.1423611111111  1.48660714285714 15.0833333333333  C 1.53348214285714 15.0243055555556  1.56026785714286 14.9930555555556  1.56696428571429 14.9895833333333  C 1.61383928571429 14.9340277777778  1.71763392857143 14.8142361111111  1.87834821428571 14.6302083333333  C 2.0390625 14.4461805555556  2.15457589285714 14.3142361111111  2.22488839285714 14.234375  C 2.29520089285714 14.1545138888889  2.39899553571429 14.0173611111111  2.53627232142857 13.8229166666667  C 2.67354910714286 13.6284722222222  2.78236607142857 13.4513888888889  2.86272321428571 13.2916666666667  C 2.94308035714286 13.1319444444444  3.03348214285714 12.9270833333333  3.13392857142857 12.6770833333333  C 3.234375 12.4270833333333  3.32142857142857 12.1631944444444  3.39508928571429 11.8854166666667  C 2.34375 11.2673611111111  1.51506696428571 10.5034722222222  0.909040178571429 9.59375  C 0.303013392857143 8.68402777777778  0 7.70833333333333  0 6.66666666666667  C 0 5.45833333333333  0.401785714285714 4.34201388888889  1.20535714285714 3.31770833333333  C 2.00892857142857 2.29340277777778  3.10044642857143 1.484375  4.47991071428571 0.890625  C 5.859375 0.296875  7.36607142857143 0  9 0  C 10.6339285714286 0  12.140625 0.296875  13.5200892857143 0.890625  C 14.8995535714286 1.484375  15.9910714285714 2.29340277777778  16.7946428571429 3.31770833333333  Z " fill-rule="nonzero" fill="#ffffff" stroke="none" transform="matrix(1 0 0 1 1693 1186 )" />
  </g>
</svg>