<?xml version="1.0" encoding="utf-8"?>
<svg version="1.1" xmlns:xlink="http://www.w3.org/1999/xlink" width="12px" height="12px" viewBox="628 649.5  12 12" xmlns="http://www.w3.org/2000/svg">
  <path d="M 634 649.5  C 637.36 649.5  640 652.14  640 655.5  C 640 658.86  637.36 661.5  634 661.5  C 630.64 661.5  628 658.86  628 655.5  C 628 652.14  630.64 649.5  634 649.5  Z " fill-rule="nonzero" fill="#f0f0f0" stroke="none" />
  <path d="M 634 650  C 637.08 650  639.5 652.42  639.5 655.5  C 639.5 658.58  637.08 661  634 661  C 630.92 661  628.5 658.58  628.5 655.5  C 628.5 652.42  630.92 650  634 650  Z " stroke-width="1" stroke="#797979" fill="none" />
  <path d="M 634 658.5  C 632.32 658.5  631 657.18  631 655.5  C 631 653.82  632.32 652.5  634 652.5  C 635.68 652.5  637 653.82  637 655.5  C 637 657.18  635.68 658.5  634 658.5  " fill-rule="nonzero" fill="#797979" stroke="none" />
</svg>