<?xml version="1.0" encoding="utf-8"?>
<svg version="1.1" xmlns:xlink="http://www.w3.org/1999/xlink" width="12px" height="12px" viewBox="614 754.5  12 12" xmlns="http://www.w3.org/2000/svg">
  <path d="M 620 754.5  C 623.36 754.5  626 757.14  626 760.5  C 626 763.86  623.36 766.5  620 766.5  C 616.64 766.5  614 763.86  614 760.5  C 614 757.14  616.64 754.5  620 754.5  Z " fill-rule="nonzero" fill="#f0f0f0" stroke="none" />
  <path d="M 620 755  C 623.08 755  625.5 757.42  625.5 760.5  C 625.5 763.58  623.08 766  620 766  C 616.92 766  614.5 763.58  614.5 760.5  C 614.5 757.42  616.92 755  620 755  Z " stroke-width="1" stroke="#797979" fill="none" />
  <path d="M 620 763.5  C 618.32 763.5  617 762.18  617 760.5  C 617 758.82  618.32 757.5  620 757.5  C 621.68 757.5  623 758.82  623 760.5  C 623 762.18  621.68 763.5  620 763.5  " fill-rule="nonzero" fill="#797979" stroke="none" />
</svg>