<?xml version="1.0" encoding="utf-8"?>
<svg version="1.1" xmlns:xlink="http://www.w3.org/1999/xlink" width="12px" height="12px" viewBox="949 754.5  12 12" xmlns="http://www.w3.org/2000/svg">
  <path d="M 955 754.5  C 958.36 754.5  961 757.14  961 760.5  C 961 763.86  958.36 766.5  955 766.5  C 951.64 766.5  949 763.86  949 760.5  C 949 757.14  951.64 754.5  955 754.5  Z " fill-rule="nonzero" fill="#ffffff" stroke="none" />
  <path d="M 955 755  C 958.08 755  960.5 757.42  960.5 760.5  C 960.5 763.58  958.08 766  955 766  C 951.92 766  949.5 763.58  949.5 760.5  C 949.5 757.42  951.92 755  955 755  Z " stroke-width="1" stroke="#797979" fill="none" />
  <path d="M 955 763.5  C 953.32 763.5  952 762.18  952 760.5  C 952 758.82  953.32 757.5  955 757.5  C 956.68 757.5  958 758.82  958 760.5  C 958 762.18  956.68 763.5  955 763.5  " fill-rule="nonzero" fill="#797979" stroke="none" />
</svg>