<?xml version="1.0" encoding="utf-8"?>
<svg version="1.1" xmlns:xlink="http://www.w3.org/1999/xlink" width="12px" height="12px" viewBox="862 721.5  12 12" xmlns="http://www.w3.org/2000/svg">
  <path d="M 868 721.5  C 871.36 721.5  874 724.14  874 727.5  C 874 730.86  871.36 733.5  868 733.5  C 864.64 733.5  862 730.86  862 727.5  C 862 724.14  864.64 721.5  868 721.5  Z " fill-rule="nonzero" fill="#f0f0f0" stroke="none" />
  <path d="M 868 722  C 871.08 722  873.5 724.42  873.5 727.5  C 873.5 730.58  871.08 733  868 733  C 864.92 733  862.5 730.58  862.5 727.5  C 862.5 724.42  864.92 722  868 722  Z " stroke-width="1" stroke="#797979" fill="none" />
  <path d="M 868 730.5  C 866.32 730.5  865 729.18  865 727.5  C 865 725.82  866.32 724.5  868 724.5  C 869.68 724.5  871 725.82  871 727.5  C 871 729.18  869.68 730.5  868 730.5  " fill-rule="nonzero" fill="#797979" stroke="none" />
</svg>