<?xml version="1.0" encoding="utf-8"?>
<svg version="1.1" xmlns:xlink="http://www.w3.org/1999/xlink" width="12px" height="12px" viewBox="626 723.5  12 12" xmlns="http://www.w3.org/2000/svg">
  <path d="M 632 723.5  C 635.36 723.5  638 726.14  638 729.5  C 638 732.86  635.36 735.5  632 735.5  C 628.64 735.5  626 732.86  626 729.5  C 626 726.14  628.64 723.5  632 723.5  Z " fill-rule="nonzero" fill="#ffffff" stroke="none" />
  <path d="M 632 724  C 635.08 724  637.5 726.42  637.5 729.5  C 637.5 732.58  635.08 735  632 735  C 628.92 735  626.5 732.58  626.5 729.5  C 626.5 726.42  628.92 724  632 724  Z " stroke-width="1" stroke="#797979" fill="none" />
  <path d="M 632 732.5  C 630.32 732.5  629 731.18  629 729.5  C 629 727.82  630.32 726.5  632 726.5  C 633.68 726.5  635 727.82  635 729.5  C 635 731.18  633.68 732.5  632 732.5  " fill-rule="nonzero" fill="#797979" stroke="none" />
</svg>