<?xml version="1.0" encoding="utf-8"?>
<svg version="1.1" xmlns:xlink="http://www.w3.org/1999/xlink" width="12px" height="12px" viewBox="618 690.5  12 12" xmlns="http://www.w3.org/2000/svg">
  <path d="M 624 690.5  C 627.36 690.5  630 693.14  630 696.5  C 630 699.86  627.36 702.5  624 702.5  C 620.64 702.5  618 699.86  618 696.5  C 618 693.14  620.64 690.5  624 690.5  Z " fill-rule="nonzero" fill="#ffffff" stroke="none" />
  <path d="M 624 691  C 627.08 691  629.5 693.42  629.5 696.5  C 629.5 699.58  627.08 702  624 702  C 620.92 702  618.5 699.58  618.5 696.5  C 618.5 693.42  620.92 691  624 691  Z " stroke-width="1" stroke="#797979" fill="none" />
  <path d="M 624 699.5  C 622.32 699.5  621 698.18  621 696.5  C 621 694.82  622.32 693.5  624 693.5  C 625.68 693.5  627 694.82  627 696.5  C 627 698.18  625.68 699.5  624 699.5  " fill-rule="nonzero" fill="#797979" stroke="none" />
</svg>