<?xml version="1.0" encoding="utf-8"?>
<svg version="1.1" xmlns:xlink="http://www.w3.org/1999/xlink" width="44px" height="40px" xmlns="http://www.w3.org/2000/svg">
  <g transform="matrix(1 0 0 1 -2961 -719 )">
    <path d="M 2961 719  L 3005 719  L 3005 759  L 2961 759  L 2961 719  " fill-rule="nonzero" fill="#cccccc" stroke="none" />
    <path d="M 2964 722  L 3002 722  L 3002 756  L 2964 756  L 2964 722  " fill-rule="nonzero" fill="#ffffff" stroke="none" />
    <path d="M 2986.88 731  C 2985.2 731  2983.88 729.68  2983.88 728  C 2983.88 726.32  2985.2 725  2986.88 725  C 2988.56 725  2989.88 726.32  2989.88 728  C 2989.88 729.68  2988.56 731  2986.88 731  " fill-rule="nonzero" fill="#cccccc" stroke="none" />
    <path d="M 2965 755  L 2965 737.4  L 2974 729.4  L 2986.6 737.545454545455  L 2993.8 734.2  L 3001 737.545454545455  L 3001 755  L 2965 755  " fill-rule="nonzero" fill="#169bd5" stroke="none" />
  </g>
</svg>