<?xml version="1.0" encoding="utf-8"?>
<svg version="1.1" xmlns:xlink="http://www.w3.org/1999/xlink" width="22px" height="22px" xmlns="http://www.w3.org/2000/svg">
  <g transform="matrix(1 0 0 1 -721 -179 )">
    <path d="M 732 179  C 738.16 179  743 183.84  743 190  C 743 196.16  738.16 201  732 201  C 725.84 201  721 196.16  721 190  C 721 183.84  725.84 179  732 179  Z " fill-rule="nonzero" fill="#ffffff" stroke="none" />
    <path d="M 732 179.5  C 737.88 179.5  742.5 184.12  742.5 190  C 742.5 195.88  737.88 200.5  732 200.5  C 726.12 200.5  721.5 195.88  721.5 190  C 721.5 184.12  726.12 179.5  732 179.5  Z " stroke-width="1" stroke="#797979" fill="none" />
  </g>
</svg>