<?xml version="1.0" encoding="utf-8"?>
<svg version="1.1" xmlns:xlink="http://www.w3.org/1999/xlink" width="22px" height="22px" preserveAspectRatio="xMinYMid meet" viewBox="1230 421  22 20" xmlns="http://www.w3.org/2000/svg">
  <g transform="matrix(0.994521895368267 -0.104528463267652 0.104528463267652 0.994521895368272 -38.2534398203777 132.080886011431 )">
    <path d="M 1240.9 463.8  L 1237 467.5  L 1240.9 471.2  L 1244.7 467.5  L 1240.9 463.8  Z M 1240.9 469.8  L 1238.4 467.5  L 1240.9 465.2  L 1243.3 467.5  L 1240.9 469.8  Z M 1960.1 471.2  L 1964 467.5  L 1960.1 463.8  L 1956.3 467.5  L 1960.1 471.2  Z M 1960.1 465.2  L 1962.6 467.5  L 1960.1 469.8  L 1957.7 467.5  L 1960.1 465.2  Z " fill-rule="nonzero" fill="#d9001b" stroke="none" transform="matrix(0.994833227795768 0.101522652021373 -0.101522652021373 0.994833227795768 55.7312587328645 -160.071538554729 )" />
    <path d="M 1243 467.5  L 1958 467.5  " stroke-width="1" stroke="#d9001b" fill="none" transform="matrix(0.994833227795768 0.101522652021373 -0.101522652021373 0.994833227795768 55.7312587328645 -160.071538554729 )" />
  </g>
</svg>