<?xml version="1.0" encoding="utf-8"?>
<svg version="1.1" xmlns:xlink="http://www.w3.org/1999/xlink" width="22px" height="20px" preserveAspectRatio="xMinYMid meet" viewBox="1966 239  22 18" xmlns="http://www.w3.org/2000/svg">
  <g transform="matrix(-0.999390827019105 0.034899496702503 -0.0348994967024968 -0.999390827019096 3961.45074019899 426.852620119887 )">
    <path d="M 706.9 224.8  L 703 228.5  L 706.9 232.2  L 710.7 228.5  L 706.9 224.8  Z M 706.9 230.8  L 704.4 228.5  L 706.9 226.2  L 709.3 228.5  L 706.9 230.8  Z M 1975.1 232.2  L 1979 228.5  L 1975.1 224.8  L 1971.3 228.5  L 1975.1 232.2  Z M 1975.1 226.2  L 1977.6 228.5  L 1975.1 230.8  L 1972.7 228.5  L 1975.1 226.2  Z " fill-rule="nonzero" fill="#d9001b" stroke="none" transform="matrix(0.999537907244725 0.0303969074222167 -0.0303969074222167 0.999537907244725 7.56535973079986 -40.6566646586123 )" />
    <path d="M 709 228.5  L 1973 228.5  " stroke-width="1" stroke="#d9001b" fill="none" transform="matrix(0.999537907244725 0.0303969074222167 -0.0303969074222167 0.999537907244725 7.56535973079986 -40.6566646586123 )" />
  </g>
</svg>