<?xml version="1.0" encoding="utf-8"?>
<svg version="1.1" xmlns:xlink="http://www.w3.org/1999/xlink" width="12px" height="12px" viewBox="253 142.5  12 12" xmlns="http://www.w3.org/2000/svg">
  <path d="M 259 142.5  C 262.36 142.5  265 145.14  265 148.5  C 265 151.86  262.36 154.5  259 154.5  C 255.64 154.5  253 151.86  253 148.5  C 253 145.14  255.64 142.5  259 142.5  Z " fill-rule="nonzero" fill="#f0f0f0" stroke="none" />
  <path d="M 259 143  C 262.08 143  264.5 145.42  264.5 148.5  C 264.5 151.58  262.08 154  259 154  C 255.92 154  253.5 151.58  253.5 148.5  C 253.5 145.42  255.92 143  259 143  Z " stroke-width="1" stroke="#797979" fill="none" />
  <path d="M 259 151.5  C 257.32 151.5  256 150.18  256 148.5  C 256 146.82  257.32 145.5  259 145.5  C 260.68 145.5  262 146.82  262 148.5  C 262 150.18  260.68 151.5  259 151.5  " fill-rule="nonzero" fill="#797979" stroke="none" />
</svg>