<?xml version="1.0" encoding="utf-8"?>
<svg version="1.1" xmlns:xlink="http://www.w3.org/1999/xlink" width="12px" height="12px" viewBox="1609 142.5  12 12" xmlns="http://www.w3.org/2000/svg">
  <path d="M 1615 142.5  C 1618.36 142.5  1621 145.14  1621 148.5  C 1621 151.86  1618.36 154.5  1615 154.5  C 1611.64 154.5  1609 151.86  1609 148.5  C 1609 145.14  1611.64 142.5  1615 142.5  Z " fill-rule="nonzero" fill="#f0f0f0" stroke="none" />
  <path d="M 1615 143  C 1618.08 143  1620.5 145.42  1620.5 148.5  C 1620.5 151.58  1618.08 154  1615 154  C 1611.92 154  1609.5 151.58  1609.5 148.5  C 1609.5 145.42  1611.92 143  1615 143  Z " stroke-width="1" stroke="#797979" fill="none" />
  <path d="M 1615 151.5  C 1613.32 151.5  1612 150.18  1612 148.5  C 1612 146.82  1613.32 145.5  1615 145.5  C 1616.68 145.5  1618 146.82  1618 148.5  C 1618 150.18  1616.68 151.5  1615 151.5  " fill-rule="nonzero" fill="#797979" stroke="none" />
</svg>