<?xml version="1.0" encoding="utf-8"?>
<svg version="1.1" xmlns:xlink="http://www.w3.org/1999/xlink" width="12px" height="12px" viewBox="1500 142.5  12 12" xmlns="http://www.w3.org/2000/svg">
  <path d="M 1506 142.5  C 1509.36 142.5  1512 145.14  1512 148.5  C 1512 151.86  1509.36 154.5  1506 154.5  C 1502.64 154.5  1500 151.86  1500 148.5  C 1500 145.14  1502.64 142.5  1506 142.5  Z " fill-rule="nonzero" fill="#f0f0f0" stroke="none" />
  <path d="M 1506 143  C 1509.08 143  1511.5 145.42  1511.5 148.5  C 1511.5 151.58  1509.08 154  1506 154  C 1502.92 154  1500.5 151.58  1500.5 148.5  C 1500.5 145.42  1502.92 143  1506 143  Z " stroke-width="1" stroke="#797979" fill="none" />
  <path d="M 1506 151.5  C 1504.32 151.5  1503 150.18  1503 148.5  C 1503 146.82  1504.32 145.5  1506 145.5  C 1507.68 145.5  1509 146.82  1509 148.5  C 1509 150.18  1507.68 151.5  1506 151.5  " fill-rule="nonzero" fill="#797979" stroke="none" />
</svg>