<?xml version="1.0" encoding="utf-8"?>
<svg version="1.1" xmlns:xlink="http://www.w3.org/1999/xlink" width="12px" height="12px" viewBox="702 1082.5  12 12" xmlns="http://www.w3.org/2000/svg">
  <path d="M 708 1082.5  C 711.36 1082.5  714 1085.14  714 1088.5  C 714 1091.86  711.36 1094.5  708 1094.5  C 704.64 1094.5  702 1091.86  702 1088.5  C 702 1085.14  704.64 1082.5  708 1082.5  Z " fill-rule="nonzero" fill="#f0f0f0" stroke="none" />
  <path d="M 708 1083  C 711.08 1083  713.5 1085.42  713.5 1088.5  C 713.5 1091.58  711.08 1094  708 1094  C 704.92 1094  702.5 1091.58  702.5 1088.5  C 702.5 1085.42  704.92 1083  708 1083  Z " stroke-width="1" stroke="#797979" fill="none" />
  <path d="M 708 1091.5  C 706.32 1091.5  705 1090.18  705 1088.5  C 705 1086.82  706.32 1085.5  708 1085.5  C 709.68 1085.5  711 1086.82  711 1088.5  C 711 1090.18  709.68 1091.5  708 1091.5  " fill-rule="nonzero" fill="#797979" stroke="none" />
</svg>