<?xml version="1.0" encoding="utf-8"?>
<svg version="1.1" xmlns:xlink="http://www.w3.org/1999/xlink" width="12px" height="12px" viewBox="711 1005.5  12 12" xmlns="http://www.w3.org/2000/svg">
  <path d="M 717 1005.5  C 720.36 1005.5  723 1008.14  723 1011.5  C 723 1014.86  720.36 1017.5  717 1017.5  C 713.64 1017.5  711 1014.86  711 1011.5  C 711 1008.14  713.64 1005.5  717 1005.5  Z " fill-rule="nonzero" fill="#f0f0f0" stroke="none" />
  <path d="M 717 1006  C 720.08 1006  722.5 1008.42  722.5 1011.5  C 722.5 1014.58  720.08 1017  717 1017  C 713.92 1017  711.5 1014.58  711.5 1011.5  C 711.5 1008.42  713.92 1006  717 1006  Z " stroke-width="1" stroke="#797979" fill="none" />
  <path d="M 717 1014.5  C 715.32 1014.5  714 1013.18  714 1011.5  C 714 1009.82  715.32 1008.5  717 1008.5  C 718.68 1008.5  720 1009.82  720 1011.5  C 720 1013.18  718.68 1014.5  717 1014.5  " fill-rule="nonzero" fill="#797979" stroke="none" />
</svg>