<?xml version="1.0" encoding="utf-8"?>
<svg version="1.1" xmlns:xlink="http://www.w3.org/1999/xlink" width="1666px" height="26px" preserveAspectRatio="xMinYMid meet" viewBox="474 181  1666 24" xmlns="http://www.w3.org/2000/svg">
  <g transform="matrix(0.998629534754574 -0.0523359562429439 0.0523359562429431 0.998629534754574 -8.30964147911607 68.6675946018948 )">
    <path d="M 490.9 188.8  L 487 192.5  L 490.9 196.2  L 494.7 192.5  L 490.9 188.8  Z M 490.9 194.8  L 488.4 192.5  L 490.9 190.2  L 493.3 192.5  L 490.9 194.8  Z M 2123.1 196.2  L 2127 192.5  L 2123.1 188.8  L 2119.3 192.5  L 2123.1 196.2  Z M 2123.1 190.2  L 2125.6 192.5  L 2123.1 194.8  L 2120.7 192.5  L 2123.1 190.2  Z " fill-rule="nonzero" fill="#d9001b" stroke="none" transform="matrix(0.998950022143789 0.0458132432700892 -0.0458132432700892 0.998950022143789 10.1913703875605 -59.6757882166859 )" />
    <path d="M 493 192.5  L 2121 192.5  " stroke-width="1" stroke="#d9001b" fill="none" transform="matrix(0.998950022143789 0.0458132432700892 -0.0458132432700892 0.998950022143789 10.1913703875605 -59.6757882166859 )" />
  </g>
</svg>