<?xml version="1.0" encoding="utf-8"?>
<svg version="1.1" xmlns:xlink="http://www.w3.org/1999/xlink" width="904px" height="14px" preserveAspectRatio="xMinYMid meet" viewBox="1038 361  904 12" xmlns="http://www.w3.org/2000/svg">
  <g transform="matrix(0.999847695156391 0.0174524064372835 -0.017452406437282 0.99984769515639 6.63196737945941 -25.9481897139477 )">
    <path d="M 1049 370  L 1049 365  L 1044 365  L 1044 370  L 1049 370  Z M 1048 369  L 1045 369  L 1045 366  L 1048 366  L 1048 369  Z M 1931 365  L 1931 370  L 1936 370  L 1936 365  L 1931 365  Z M 1932 366  L 1935 366  L 1935 369  L 1932 369  L 1932 366  Z " fill-rule="nonzero" fill="#d9001b" stroke="none" transform="matrix(0.999725016103839 -0.023449779874861 0.023449779874861 0.999725016103839 -8.20806809873102 35.0412285953822 )" />
    <path d="M 1049 367.5  L 1931 367.5  " stroke-width="1" stroke="#d9001b" fill="none" transform="matrix(0.999725016103839 -0.023449779874861 0.023449779874861 0.999725016103839 -8.20806809873102 35.0412285953822 )" />
  </g>
</svg>