<?xml version="1.0" encoding="utf-8"?>
<svg version="1.1" xmlns:xlink="http://www.w3.org/1999/xlink" width="21px" height="21px" xmlns="http://www.w3.org/2000/svg">
  <defs>
    <mask fill="white" id="clip189">
      <path d="M 0 10.5  C 0 7.35191683544565  1.32427968562263 4.56500085787934  3.45719989997616 2.65489122419274  C 5.30815501700198 0.997291855608637  7.76808316455435 0  10.5 0  C 16.38 0  21 4.62  21 10.5  C 21 16.38  16.38 21  10.5 21  C 4.62 21  0 16.38  0 10.5  Z " fill-rule="evenodd" />
    </mask>
  </defs>
  <g transform="matrix(1 0 0 1 -188 -1034 )">
    <path d="M 0 10.5  C 0 7.35191683544565  1.32427968562263 4.56500085787934  3.45719989997616 2.65489122419274  C 5.30815501700198 0.997291855608637  7.76808316455435 0  10.5 0  C 16.38 0  21 4.62  21 10.5  C 21 16.38  16.38 21  10.5 21  C 4.62 21  0 16.38  0 10.5  Z " fill-rule="nonzero" fill="#ffffff" stroke="none" transform="matrix(1 0 0 1 188 1034 )" />
    <path d="M 0 10.5  C 0 7.35191683544565  1.32427968562263 4.56500085787934  3.45719989997616 2.65489122419274  C 5.30815501700198 0.997291855608637  7.76808316455435 0  10.5 0  C 16.38 0  21 4.62  21 10.5  C 21 16.38  16.38 21  10.5 21  C 4.62 21  0 16.38  0 10.5  Z " stroke-width="2" stroke="#797979" fill="none" transform="matrix(1 0 0 1 188 1034 )" mask="url(#clip189)" />
  </g>
</svg>