<?xml version="1.0" encoding="utf-8"?>
<svg version="1.1" xmlns:xlink="http://www.w3.org/1999/xlink" width="12px" height="12px" viewBox="460 1310.5  12 12" xmlns="http://www.w3.org/2000/svg">
  <path d="M 466 1310.5  C 469.36 1310.5  472 1313.14  472 1316.5  C 472 1319.86  469.36 1322.5  466 1322.5  C 462.64 1322.5  460 1319.86  460 1316.5  C 460 1313.14  462.64 1310.5  466 1310.5  Z " fill-rule="nonzero" fill="#ffffff" stroke="none" />
  <path d="M 466 1311  C 469.08 1311  471.5 1313.42  471.5 1316.5  C 471.5 1319.58  469.08 1322  466 1322  C 462.92 1322  460.5 1319.58  460.5 1316.5  C 460.5 1313.42  462.92 1311  466 1311  Z " stroke-width="1" stroke="#797979" fill="none" />
  <path d="M 466 1319.5  C 464.32 1319.5  463 1318.18  463 1316.5  C 463 1314.82  464.32 1313.5  466 1313.5  C 467.68 1313.5  469 1314.82  469 1316.5  C 469 1318.18  467.68 1319.5  466 1319.5  " fill-rule="nonzero" fill="#797979" stroke="none" />
</svg>