<?xml version="1.0" encoding="utf-8"?>
<svg version="1.1" xmlns:xlink="http://www.w3.org/1999/xlink" width="12px" height="12px" viewBox="442 631.5  12 12" xmlns="http://www.w3.org/2000/svg">
  <path d="M 448 631.5  C 451.36 631.5  454 634.14  454 637.5  C 454 640.86  451.36 643.5  448 643.5  C 444.64 643.5  442 640.86  442 637.5  C 442 634.14  444.64 631.5  448 631.5  Z " fill-rule="nonzero" fill="#ffffff" stroke="none" />
  <path d="M 448 632  C 451.08 632  453.5 634.42  453.5 637.5  C 453.5 640.58  451.08 643  448 643  C 444.92 643  442.5 640.58  442.5 637.5  C 442.5 634.42  444.92 632  448 632  Z " stroke-width="1" stroke="#797979" fill="none" />
  <path d="M 448 640.5  C 446.32 640.5  445 639.18  445 637.5  C 445 635.82  446.32 634.5  448 634.5  C 449.68 634.5  451 635.82  451 637.5  C 451 639.18  449.68 640.5  448 640.5  " fill-rule="nonzero" fill="#797979" stroke="none" />
</svg>