<?xml version="1.0" encoding="utf-8"?>
<svg version="1.1" xmlns:xlink="http://www.w3.org/1999/xlink" width="242px" height="170px" xmlns="http://www.w3.org/2000/svg">
  <g transform="matrix(1 0 0 1 -32 -1070 )">
    <path d="M 32 1070  L 274 1070  L 274 1240  L 32 1240  L 32 1070  " fill-rule="nonzero" fill="#cccccc" stroke="none" />
    <path d="M 44 1082  L 262 1082  L 262 1228  L 44 1228  L 44 1082  " fill-rule="nonzero" fill="#ffffff" stroke="none" />
    <path d="M 170.59 1121  C 163.45 1121  157.84 1115.39  157.84 1108.25  C 157.84 1101.11  163.45 1095.5  170.59 1095.5  C 177.73 1095.5  183.34 1101.11  183.34 1108.25  C 183.34 1115.39  177.73 1121  170.59 1121  " fill-rule="nonzero" fill="#cccccc" stroke="none" />
    <path d="M 49 1224  L 49 1148.65  L 101.25 1114.4  L 174.4 1166.25619834711  L 216.2 1134.95  L 258 1166.25619834711  L 258 1224  L 49 1224  " fill-rule="nonzero" fill="#169bd5" stroke="none" />
  </g>
</svg>