<?xml version="1.0" encoding="utf-8"?>
<svg version="1.1" xmlns:xlink="http://www.w3.org/1999/xlink" width="60px" height="60px" xmlns="http://www.w3.org/2000/svg">
  <g transform="matrix(1 0 0 1 -580 -544 )">
    <path d="M 610 544  C 626.8 544  640 557.2  640 574  C 640 590.8  626.8 604  610 604  C 593.2 604  580 590.8  580 574  C 580 557.2  593.2 544  610 544  Z " fill-rule="nonzero" fill="#ffffff" stroke="none" />
    <path d="M 610 544.5  C 626.52 544.5  639.5 557.48  639.5 574  C 639.5 590.52  626.52 603.5  610 603.5  C 593.48 603.5  580.5 590.52  580.5 574  C 580.5 557.48  593.48 544.5  610 544.5  Z " stroke-width="1" stroke="#797979" fill="none" />
  </g>
</svg>