<?xml version="1.0" encoding="utf-8"?>
<svg version="1.1" xmlns:xlink="http://www.w3.org/1999/xlink" width="22px" height="20px" preserveAspectRatio="xMinYMid meet" viewBox="830 603  22 18" xmlns="http://www.w3.org/2000/svg">
  <g transform="matrix(-1 0 0 -1 1682 1224 )">
    <path d="M 625.9 608.8  L 622 612.5  L 625.9 616.2  L 629.7 612.5  L 625.9 608.8  Z M 625.9 614.8  L 623.4 612.5  L 625.9 610.2  L 628.3 612.5  L 625.9 614.8  Z M 838.1 616.2  L 842 612.5  L 838.1 608.8  L 834.3 612.5  L 838.1 616.2  Z M 838.1 610.2  L 840.6 612.5  L 838.1 614.8  L 835.7 612.5  L 838.1 610.2  Z " fill-rule="nonzero" fill="#d9001b" stroke="none" transform="matrix(0.999995765396169 -0.00291018723299878 0.00291018723299878 0.999995765396169 -1.77938995020702 2.13285074940188 )" />
    <path d="M 628 612.5  L 836 612.5  " stroke-width="1" stroke="#d9001b" fill="none" transform="matrix(0.999995765396169 -0.00291018723299878 0.00291018723299878 0.999995765396169 -1.77938995020702 2.13285074940188 )" />
  </g>
</svg>