<?xml version="1.0" encoding="utf-8"?>
<svg version="1.1" xmlns:xlink="http://www.w3.org/1999/xlink" width="22px" height="22px" preserveAspectRatio="xMinYMid meet" viewBox="1660 437  22 20" xmlns="http://www.w3.org/2000/svg">
  <g transform="matrix(-0.156434465040227 -0.987688340595137 0.987688340595137 -0.156434465040237 1490.90530283619 2167.35342300746 )">
    <path d="M 1448.9 635.8  L 1445 639.5  L 1448.9 643.2  L 1452.7 639.5  L 1448.9 635.8  Z M 1448.9 641.8  L 1446.4 639.5  L 1448.9 637.2  L 1451.3 639.5  L 1448.9 641.8  Z M 1833.1 643.2  L 1837 639.5  L 1833.1 635.8  L 1829.3 639.5  L 1833.1 643.2  Z M 1833.1 637.2  L 1835.6 639.5  L 1833.1 641.8  L 1830.7 639.5  L 1833.1 637.2  Z " fill-rule="nonzero" fill="#d9001b" stroke="none" transform="matrix(-0.152724581550953 0.988268790456365 -0.988268790456365 -0.152724581550953 2523.61892982196 -884.58171523706 )" />
    <path d="M 1451 639.5  L 1831 639.5  " stroke-width="1" stroke="#d9001b" fill="none" transform="matrix(-0.152724581550953 0.988268790456365 -0.988268790456365 -0.152724581550953 2523.61892982196 -884.58171523706 )" />
  </g>
</svg>