<?xml version="1.0" encoding="utf-8"?>
<svg version="1.1" xmlns:xlink="http://www.w3.org/1999/xlink" width="47px" height="47px" xmlns="http://www.w3.org/2000/svg">
  <g transform="matrix(1 0 0 1 -269 -1245 )">
    <path d="M 292.5 1245  C 305.66 1245  316 1255.34  316 1268.5  C 316 1281.66  305.66 1292  292.5 1292  C 279.34 1292  269 1281.66  269 1268.5  C 269 1255.34  279.34 1245  292.5 1245  Z " fill-rule="nonzero" fill="#ffffff" stroke="none" />
    <path d="M 292.5 1245.5  C 305.38 1245.5  315.5 1255.62  315.5 1268.5  C 315.5 1281.38  305.38 1291.5  292.5 1291.5  C 279.62 1291.5  269.5 1281.38  269.5 1268.5  C 269.5 1255.62  279.62 1245.5  292.5 1245.5  Z " stroke-width="1" stroke="#797979" fill="none" />
  </g>
</svg>