<?xml version="1.0" encoding="utf-8"?>
<svg version="1.1" xmlns:xlink="http://www.w3.org/1999/xlink" width="10px" height="146px" preserveAspectRatio="xMidYMin meet" viewBox="889 6641  8 146" xmlns="http://www.w3.org/2000/svg">
  <path d="M 916 6646.5  L 898 6646.5  A 5 5 0 0 0 893.5 6651 L 893.5 6677  A 3 3 0 0 1 896.5 6680 A 3 3 0 0 1 893.5 6683 L 893.5 6728  A 3 3 0 0 1 896.5 6731 A 3 3 0 0 1 893.5 6734 L 893.5 6777  A 5 5 0 0 1 888.5 6782.5 L 847 6782.5  " stroke-width="1" stroke="#36404b" fill="none" />
  <path d="M 915 6652.8  L 921 6646.5  L 915 6640.2  L 915 6652.8  Z " fill-rule="nonzero" fill="#36404b" stroke="none" />
</svg>