<?xml version="1.0" encoding="utf-8"?>
<svg version="1.1" xmlns:xlink="http://www.w3.org/1999/xlink" width="43px" height="40px" xmlns="http://www.w3.org/2000/svg">
  <g transform="matrix(1 0 0 1 -704 -344 )">
    <path d="M 725.5 344  C 737.54 344  747 352.8  747 364  C 747 375.2  737.54 384  725.5 384  C 713.46 384  704 375.2  704 364  C 704 352.8  713.46 344  725.5 344  Z " fill-rule="nonzero" fill="#ffffff" stroke="none" />
    <path d="M 725.5 344.5  C 737.26 344.5  746.5 353.08  746.5 364  C 746.5 374.92  737.26 383.5  725.5 383.5  C 713.74 383.5  704.5 374.92  704.5 364  C 704.5 353.08  713.74 344.5  725.5 344.5  Z " stroke-width="1" stroke="#797979" fill="none" />
  </g>
</svg>