<?xml version="1.0" encoding="utf-8"?>
<svg version="1.1" xmlns:xlink="http://www.w3.org/1999/xlink" width="24px" height="20px" preserveAspectRatio="xMinYMid meet" viewBox="750 205  24 18" xmlns="http://www.w3.org/2000/svg">
  <g transform="matrix(0.997564050259828 -0.0697564737441261 0.0697564737441271 0.997564050259823 -13.071691679232 53.675726237422 )">
    <path d="M 763.9 227.8  L 760 231.5  L 763.9 235.2  L 767.7 231.5  L 763.9 227.8  Z M 763.9 233.8  L 761.4 231.5  L 763.9 229.2  L 766.3 231.5  L 763.9 233.8  Z M 1231.1 235.2  L 1235 231.5  L 1231.1 227.8  L 1227.3 231.5  L 1231.1 235.2  Z M 1231.1 229.2  L 1233.6 231.5  L 1231.1 233.8  L 1228.7 231.5  L 1231.1 229.2  Z " fill-rule="nonzero" fill="#d9001b" stroke="none" transform="matrix(0.997250945203761 0.0740982610471087 -0.0740982610471087 0.997250945203761 19.8959295916542 -73.2766092091616 )" />
    <path d="M 766 231.5  L 1229 231.5  " stroke-width="1" stroke="#d9001b" fill="none" transform="matrix(0.997250945203761 0.0740982610471087 -0.0740982610471087 0.997250945203761 19.8959295916542 -73.2766092091616 )" />
  </g>
</svg>