<?xml version="1.0" encoding="utf-8"?>
<svg version="1.1" xmlns:xlink="http://www.w3.org/1999/xlink" width="40px" height="39px" xmlns="http://www.w3.org/2000/svg">
  <g transform="matrix(1 0 0 1 -391 -395 )">
    <path d="M 411 395  C 422.2 395  431 403.58  431 414.5  C 431 425.42  422.2 434  411 434  C 399.8 434  391 425.42  391 414.5  C 391 403.58  399.8 395  411 395  Z " fill-rule="nonzero" fill="#ffffff" stroke="none" />
    <path d="M 411 395.5  C 421.92 395.5  430.5 403.86  430.5 414.5  C 430.5 425.14  421.92 433.5  411 433.5  C 400.08 433.5  391.5 425.14  391.5 414.5  C 391.5 403.86  400.08 395.5  411 395.5  Z " stroke-width="1" stroke="#797979" fill="none" />
  </g>
</svg>