<?xml version="1.0" encoding="utf-8"?>
<svg version="1.1" xmlns:xlink="http://www.w3.org/1999/xlink" width="24px" height="22px" preserveAspectRatio="xMinYMid meet" viewBox="428 433  24 20" xmlns="http://www.w3.org/2000/svg">
  <g transform="matrix(0.992546151641321 -0.121869343405149 0.121869343405148 0.992546151641322 -50.7084258506615 56.9245659211601 )">
    <path d="M 440.9 465.8  L 437 469.5  L 440.9 473.2  L 444.7 469.5  L 440.9 465.8  Z M 440.9 471.8  L 438.4 469.5  L 440.9 467.2  L 443.3 469.5  L 440.9 471.8  Z M 891.1 473.2  L 895 469.5  L 891.1 465.8  L 887.3 469.5  L 891.1 473.2  Z M 891.1 467.2  L 893.6 469.5  L 891.1 471.8  L 888.7 469.5  L 891.1 467.2  Z " fill-rule="nonzero" fill="#d9001b" stroke="none" transform="matrix(0.993356331974026 0.115079093353694 -0.115079093353694 0.993356331974026 58.454317234858 -73.5234740353655 )" />
    <path d="M 443 469.5  L 889 469.5  " stroke-width="1" stroke="#d9001b" fill="none" transform="matrix(0.993356331974026 0.115079093353694 -0.115079093353694 0.993356331974026 58.454317234858 -73.5234740353655 )" />
  </g>
</svg>