<?xml version="1.0" encoding="utf-8"?>
<svg version="1.1" xmlns:xlink="http://www.w3.org/1999/xlink" width="32px" height="32px" xmlns="http://www.w3.org/2000/svg">
  <g transform="matrix(1 0 0 1 -921 -1536 )">
    <path d="M 937 1536  C 945.96 1536  953 1543.04  953 1552  C 953 1560.96  945.96 1568  937 1568  C 928.04 1568  921 1560.96  921 1552  C 921 1543.04  928.04 1536  937 1536  Z " fill-rule="nonzero" fill="#ffffff" stroke="none" />
    <path d="M 937 1536.5  C 945.68 1536.5  952.5 1543.32  952.5 1552  C 952.5 1560.68  945.68 1567.5  937 1567.5  C 928.32 1567.5  921.5 1560.68  921.5 1552  C 921.5 1543.32  928.32 1536.5  937 1536.5  Z " stroke-width="1" stroke="#797979" fill="none" />
  </g>
</svg>