<?xml version="1.0" encoding="utf-8"?>
<svg version="1.1" xmlns:xlink="http://www.w3.org/1999/xlink" width="214px" height="10px" preserveAspectRatio="xMinYMid meet" viewBox="740 977  214 8" xmlns="http://www.w3.org/2000/svg">
  <g transform="matrix(0.874619707139395 -0.48480962024634 0.484809620246338 0.8746197071394 -369.401129408725 533.631815644899 )">
    <path d="M 748.9 976.8  L 745 980.5  L 748.9 984.2  L 752.7 980.5  L 748.9 976.8  Z M 748.9 982.8  L 746.4 980.5  L 748.9 978.2  L 751.3 980.5  L 748.9 982.8  Z M 945.1 984.2  L 949 980.5  L 945.1 976.8  L 941.3 980.5  L 945.1 984.2  Z M 945.1 978.2  L 947.6 980.5  L 945.1 982.8  L 942.7 980.5  L 945.1 978.2  Z " fill-rule="nonzero" fill="#d9001b" stroke="none" transform="matrix(0.870921717619393 0.491421775849307 -0.491421775849307 0.870921717619393 591.16835639662 -289.672988270178 )" />
    <path d="M 751 980.5  L 943 980.5  " stroke-width="1" stroke="#d9001b" fill="none" transform="matrix(0.870921717619393 0.491421775849307 -0.491421775849307 0.870921717619393 591.16835639662 -289.672988270178 )" />
  </g>
</svg>