<?xml version="1.0" encoding="utf-8"?>
<svg version="1.1" xmlns:xlink="http://www.w3.org/1999/xlink" width="45px" height="45px" xmlns="http://www.w3.org/2000/svg">
  <g transform="matrix(1 0 0 1 -704 -404 )">
    <path d="M 726.5 404  C 739.1 404  749 413.9  749 426.5  C 749 439.1  739.1 449  726.5 449  C 713.9 449  704 439.1  704 426.5  C 704 413.9  713.9 404  726.5 404  Z " fill-rule="nonzero" fill="#ffffff" stroke="none" />
    <path d="M 726.5 404.5  C 738.82 404.5  748.5 414.18  748.5 426.5  C 748.5 438.82  738.82 448.5  726.5 448.5  C 714.18 448.5  704.5 438.82  704.5 426.5  C 704.5 414.18  714.18 404.5  726.5 404.5  Z " stroke-width="1" stroke="#797979" fill="none" />
  </g>
</svg>