<?xml version="1.0" encoding="utf-8"?>
<svg version="1.1" xmlns:xlink="http://www.w3.org/1999/xlink" width="14px" height="22px" xmlns="http://www.w3.org/2000/svg">
  <g transform="matrix(1 0 0 1 -140 -541 )">
    <path d="M 140 541  L 154 541  L 154 563  L 140 563  L 140 541  " fill-rule="nonzero" fill="#cccccc" stroke="none" />
    <path d="M 141 542  L 153 542  L 153 562  L 141 562  L 141 542  " fill-rule="nonzero" fill="#ffffff" stroke="none" />
    <path d="M 148.33 546.4  C 147.742 546.4  147.28 545.938  147.28 545.35  C 147.28 544.762  147.742 544.3  148.33 544.3  C 148.918 544.3  149.38 544.762  149.38 545.35  C 149.38 545.938  148.918 546.4  148.33 546.4  " fill-rule="nonzero" fill="#cccccc" stroke="none" />
    <path d="M 142 562  L 142 551.55  L 144.75 546.8  L 148.6 550.6  L 150.8 549.65  L 153 550.6  L 153 562  L 142 562  " fill-rule="nonzero" fill="#169bd5" stroke="none" />
  </g>
</svg>