<?xml version="1.0" encoding="utf-8"?>
<svg version="1.1" xmlns:xlink="http://www.w3.org/1999/xlink" width="1037px" height="19px" xmlns="http://www.w3.org/2000/svg">
  <g transform="matrix(1 0 0 1 -674 -857 )">
    <path d="M 686 863.5  A 3 3 0 0 0 683 866.5 A 3 3 0 0 0 686 869.5 A 3 3 0 0 0 689 866.5 A 3 3 0 0 0 686 863.5 Z M 1699 863.5  A 3 3 0 0 0 1696 866.5 A 3 3 0 0 0 1699 869.5 A 3 3 0 0 0 1702 866.5 A 3 3 0 0 0 1699 863.5 Z " fill-rule="nonzero" fill="#d9001b" stroke="none" />
    <path d="M 684 866.5  L 1701 866.5  " stroke-width="1" stroke="#d9001b" fill="none" />
  </g>
</svg>