<?xml version="1.0" encoding="utf-8"?>
<svg version="1.1" xmlns:xlink="http://www.w3.org/1999/xlink" width="1028px" height="10px" preserveAspectRatio="xMinYMid meet" viewBox="678 863  1028 8" xmlns="http://www.w3.org/2000/svg">
  <g transform="matrix(0.987688340595137 0.156434465040229 -0.156434465040238 0.987688340595124 150.304179200484 -175.795673623925 )">
    <path d="M 686 863.5  A 3 3 0 0 0 683 866.5 A 3 3 0 0 0 686 869.5 A 3 3 0 0 0 689 866.5 A 3 3 0 0 0 686 863.5 Z M 1699 863.5  A 3 3 0 0 0 1696 866.5 A 3 3 0 0 0 1699 869.5 A 3 3 0 0 0 1702 866.5 A 3 3 0 0 0 1699 863.5 Z " fill-rule="nonzero" fill="#d9001b" stroke="none" transform="matrix(0.988120335942992 -0.153682145013367 0.153682145013367 0.988120335942992 -118.9990792661 193.559686833837 )" />
    <path d="M 684 866.5  L 1701 866.5  " stroke-width="1" stroke="#d9001b" fill="none" transform="matrix(0.988120335942992 -0.153682145013367 0.153682145013367 0.988120335942992 -118.9990792661 193.559686833837 )" />
  </g>
</svg>