<?xml version="1.0" encoding="utf-8"?>
<svg version="1.1" xmlns:xlink="http://www.w3.org/1999/xlink" width="22px" height="22px" preserveAspectRatio="xMinYMid meet" viewBox="1688 311  22 20" xmlns="http://www.w3.org/2000/svg">
  <g transform="matrix(0.999390827019094 -0.0348994967024999 0.0348994967025025 0.999390827019094 -10.1677535469446 59.4897894244182 )">
    <path d="M 1700.9 320.8  L 1697 324.5  L 1700.9 328.2  L 1704.7 324.5  L 1700.9 320.8  Z M 1700.9 326.8  L 1698.4 324.5  L 1700.9 322.2  L 1703.3 324.5  L 1700.9 326.8  Z M 1935.1 328.2  L 1939 324.5  L 1935.1 320.8  L 1931.3 324.5  L 1935.1 328.2  Z M 1935.1 322.2  L 1937.6 324.5  L 1935.1 326.8  L 1932.7 324.5  L 1935.1 322.2  Z " fill-rule="nonzero" fill="#d9001b" stroke="none" transform="matrix(0.999609974024835 0.0279266867005138 -0.0279266867005138 0.999609974024835 9.7712770571668 -50.6441529925931 )" />
    <path d="M 1703 324.5  L 1933 324.5  " stroke-width="1" stroke="#d9001b" fill="none" transform="matrix(0.999609974024835 0.0279266867005138 -0.0279266867005138 0.999609974024835 9.7712770571668 -50.6441529925931 )" />
  </g>
</svg>