<?xml version="1.0" encoding="utf-8"?>
<svg version="1.1" xmlns:xlink="http://www.w3.org/1999/xlink" width="636px" height="10px" preserveAspectRatio="xMinYMid meet" viewBox="1664 695  636 8" xmlns="http://www.w3.org/2000/svg">
  <g transform="matrix(0.933580426497202 -0.3583679495453 0.3583679495453 0.933580426497202 -118.855602049619 756.712557877241 )">
    <path d="M 1672.9 694.8  L 1669 698.5  L 1672.9 702.2  L 1676.7 698.5  L 1672.9 694.8  Z M 1672.9 700.8  L 1670.4 698.5  L 1672.9 696.2  L 1675.3 698.5  L 1672.9 700.8  Z M 2291.1 702.2  L 2295 698.5  L 2291.1 694.8  L 2287.3 698.5  L 2291.1 702.2  Z M 2291.1 696.2  L 2293.6 698.5  L 2291.1 700.8  L 2288.7 698.5  L 2291.1 696.2  Z " fill-rule="nonzero" fill="#d9001b" stroke="none" transform="matrix(0.931828120005249 0.362899923901181 -0.362899923901181 0.931828120005249 388.602262994571 -671.649590995807 )" />
    <path d="M 1675 698.5  L 2289 698.5  " stroke-width="1" stroke="#d9001b" fill="none" transform="matrix(0.931828120005249 0.362899923901181 -0.362899923901181 0.931828120005249 388.602262994571 -671.649590995807 )" />
  </g>
</svg>