<?xml version="1.0" encoding="utf-8"?>
<svg version="1.1" xmlns:xlink="http://www.w3.org/1999/xlink" width="24px" height="20px" preserveAspectRatio="xMinYMid meet" viewBox="908 535  24 18" xmlns="http://www.w3.org/2000/svg">
  <g transform="matrix(0.933580426497203 0.3583679495453 -0.358367949545298 0.933580426497197 256.058172175216 -293.566265596151 )">
    <path d="M 914.9 498.8  L 911 502.5  L 914.9 506.2  L 918.7 502.5  L 914.9 498.8  Z M 914.9 504.8  L 912.4 502.5  L 914.9 500.2  L 917.3 502.5  L 914.9 504.8  Z M 1139.1 506.2  L 1143 502.5  L 1139.1 498.8  L 1135.3 502.5  L 1139.1 506.2  Z M 1139.1 500.2  L 1141.6 502.5  L 1139.1 504.8  L 1136.7 502.5  L 1139.1 500.2  Z " fill-rule="nonzero" fill="#d9001b" stroke="none" transform="matrix(0.932004671541296 -0.362446261154948 0.362446261154948 0.932004671541296 -112.298043903273 406.399962756631 )" />
    <path d="M 917 502.5  L 1137 502.5  " stroke-width="1" stroke="#d9001b" fill="none" transform="matrix(0.932004671541296 -0.362446261154948 0.362446261154948 0.932004671541296 -112.298043903273 406.399962756631 )" />
  </g>
</svg>