<?xml version="1.0" encoding="utf-8"?>
<svg version="1.1" xmlns:xlink="http://www.w3.org/1999/xlink" width="24px" height="22px" preserveAspectRatio="xMinYMid meet" viewBox="1122 451  24 20" xmlns="http://www.w3.org/2000/svg">
  <g transform="matrix(-0.933580426497204 -0.358367949545302 0.358367949545296 -0.933580426497201 2027.47257890745 1297.76983139958 )">
    <path d="M 914.9 498.8  L 911 502.5  L 914.9 506.2  L 918.7 502.5  L 914.9 498.8  Z M 914.9 504.8  L 912.4 502.5  L 914.9 500.2  L 917.3 502.5  L 914.9 504.8  Z M 1139.1 506.2  L 1143 502.5  L 1139.1 498.8  L 1135.3 502.5  L 1139.1 506.2  Z M 1139.1 500.2  L 1141.6 502.5  L 1139.1 504.8  L 1136.7 502.5  L 1139.1 500.2  Z " fill-rule="nonzero" fill="#d9001b" stroke="none" transform="matrix(0.932004671541296 -0.362446261154948 0.362446261154948 0.932004671541296 -112.298043903273 406.399962756631 )" />
    <path d="M 917 502.5  L 1137 502.5  " stroke-width="1" stroke="#d9001b" fill="none" transform="matrix(0.932004671541296 -0.362446261154948 0.362446261154948 0.932004671541296 -112.298043903273 406.399962756631 )" />
  </g>
</svg>