<?xml version="1.0" encoding="utf-8"?>
<svg version="1.1" xmlns:xlink="http://www.w3.org/1999/xlink" width="84px" height="84px" xmlns="http://www.w3.org/2000/svg">
  <g transform="matrix(1 0 0 1 -245 -904 )">
    <path d="M 287 904  C 310.52 904  329 922.48  329 946  C 329 969.52  310.52 988  287 988  C 263.48 988  245 969.52  245 946  C 245 922.48  263.48 904  287 904  Z " fill-rule="nonzero" fill="#ffffff" stroke="none" />
    <path d="M 287 904.5  C 310.24 904.5  328.5 922.76  328.5 946  C 328.5 969.24  310.24 987.5  287 987.5  C 263.76 987.5  245.5 969.24  245.5 946  C 245.5 922.76  263.76 904.5  287 904.5  Z " stroke-width="1" stroke="#797979" fill="none" />
  </g>
</svg>