<?xml version="1.0" encoding="utf-8"?>
<svg version="1.1" xmlns:xlink="http://www.w3.org/1999/xlink" width="22px" height="22px" preserveAspectRatio="xMinYMid meet" viewBox="2020 893  22 20" xmlns="http://www.w3.org/2000/svg">
  <g transform="matrix(-0.84804809615643 0.529919264233209 -0.529919264233209 -0.84804809615643 4231.9027788963 592.52140517161 )">
    <path d="M 1475.9 737.8  L 1472 741.5  L 1475.9 745.2  L 1479.7 741.5  L 1475.9 737.8  Z M 1475.9 743.8  L 1473.4 741.5  L 1475.9 739.2  L 1478.3 741.5  L 1475.9 743.8  Z M 2076.1 745.2  L 2080 741.5  L 2076.1 737.8  L 2072.3 741.5  L 2076.1 745.2  Z M 2076.1 739.2  L 2078.6 741.5  L 2076.1 743.8  L 2073.7 741.5  L 2076.1 739.2  Z " fill-rule="nonzero" fill="#d9001b" stroke="none" transform="matrix(0.844197215495739 0.536032705484694 -0.536032705484694 0.844197215495739 674.173996396468 -836.466320230907 )" />
    <path d="M 1478 741.5  L 2074 741.5  " stroke-width="1" stroke="#d9001b" fill="none" transform="matrix(0.844197215495739 0.536032705484694 -0.536032705484694 0.844197215495739 674.173996396468 -836.466320230907 )" />
  </g>
</svg>