<?xml version="1.0" encoding="utf-8"?>
<svg version="1.1" xmlns:xlink="http://www.w3.org/1999/xlink" width="60px" height="60px" xmlns="http://www.w3.org/2000/svg">
  <g transform="matrix(1 0 0 1 -114 -871 )">
    <path d="M 144 871  C 160.8 871  174 884.2  174 901  C 174 917.8  160.8 931  144 931  C 127.2 931  114 917.8  114 901  C 114 884.2  127.2 871  144 871  Z " fill-rule="nonzero" fill="#ffffff" stroke="none" />
    <path d="M 144 871.5  C 160.52 871.5  173.5 884.48  173.5 901  C 173.5 917.52  160.52 930.5  144 930.5  C 127.48 930.5  114.5 917.52  114.5 901  C 114.5 884.48  127.48 871.5  144 871.5  Z " stroke-width="1" stroke="#797979" fill="none" />
  </g>
</svg>