<?xml version="1.0" encoding="utf-8"?>
<svg version="1.1" xmlns:xlink="http://www.w3.org/1999/xlink" width="12px" height="12px" viewBox="270 572.5  12 12" xmlns="http://www.w3.org/2000/svg">
  <path d="M 276 572.5  C 279.36 572.5  282 575.14  282 578.5  C 282 581.86  279.36 584.5  276 584.5  C 272.64 584.5  270 581.86  270 578.5  C 270 575.14  272.64 572.5  276 572.5  Z " fill-rule="nonzero" fill="#ffffff" stroke="none" />
  <path d="M 276 573  C 279.08 573  281.5 575.42  281.5 578.5  C 281.5 581.58  279.08 584  276 584  C 272.92 584  270.5 581.58  270.5 578.5  C 270.5 575.42  272.92 573  276 573  Z " stroke-width="1" stroke="#797979" fill="none" />
  <path d="M 276 581.5  C 274.32 581.5  273 580.18  273 578.5  C 273 576.82  274.32 575.5  276 575.5  C 277.68 575.5  279 576.82  279 578.5  C 279 580.18  277.68 581.5  276 581.5  " fill-rule="nonzero" fill="#797979" stroke="none" />
</svg>