<?xml version="1.0" encoding="utf-8"?>
<svg version="1.1" xmlns:xlink="http://www.w3.org/1999/xlink" width="12px" height="12px" viewBox="1415 572.5  12 12" xmlns="http://www.w3.org/2000/svg">
  <path d="M 1421 572.5  C 1424.36 572.5  1427 575.14  1427 578.5  C 1427 581.86  1424.36 584.5  1421 584.5  C 1417.64 584.5  1415 581.86  1415 578.5  C 1415 575.14  1417.64 572.5  1421 572.5  Z " fill-rule="nonzero" fill="#f0f0f0" stroke="none" />
  <path d="M 1421 573  C 1424.08 573  1426.5 575.42  1426.5 578.5  C 1426.5 581.58  1424.08 584  1421 584  C 1417.92 584  1415.5 581.58  1415.5 578.5  C 1415.5 575.42  1417.92 573  1421 573  Z " stroke-width="1" stroke="#797979" fill="none" />
  <path d="M 1421 581.5  C 1419.32 581.5  1418 580.18  1418 578.5  C 1418 576.82  1419.32 575.5  1421 575.5  C 1422.68 575.5  1424 576.82  1424 578.5  C 1424 580.18  1422.68 581.5  1421 581.5  " fill-rule="nonzero" fill="#797979" stroke="none" />
</svg>