<?xml version="1.0" encoding="utf-8"?>
<svg version="1.1" xmlns:xlink="http://www.w3.org/1999/xlink" width="12px" height="12px" viewBox="2472 580.5  12 12" xmlns="http://www.w3.org/2000/svg">
  <path d="M 2478 580.5  C 2481.36 580.5  2484 583.14  2484 586.5  C 2484 589.86  2481.36 592.5  2478 592.5  C 2474.64 592.5  2472 589.86  2472 586.5  C 2472 583.14  2474.64 580.5  2478 580.5  Z " fill-rule="nonzero" fill="#ffffff" stroke="none" />
  <path d="M 2478 581  C 2481.08 581  2483.5 583.42  2483.5 586.5  C 2483.5 589.58  2481.08 592  2478 592  C 2474.92 592  2472.5 589.58  2472.5 586.5  C 2472.5 583.42  2474.92 581  2478 581  Z " stroke-width="1" stroke="#797979" fill="none" />
  <path d="M 2478 589.5  C 2476.32 589.5  2475 588.18  2475 586.5  C 2475 584.82  2476.32 583.5  2478 583.5  C 2479.68 583.5  2481 584.82  2481 586.5  C 2481 588.18  2479.68 589.5  2478 589.5  " fill-rule="nonzero" fill="#797979" stroke="none" />
</svg>