<?xml version="1.0" encoding="utf-8"?>
<svg version="1.1" xmlns:xlink="http://www.w3.org/1999/xlink" width="12px" height="12px" viewBox="2572 580.5  12 12" xmlns="http://www.w3.org/2000/svg">
  <path d="M 2578 580.5  C 2581.36 580.5  2584 583.14  2584 586.5  C 2584 589.86  2581.36 592.5  2578 592.5  C 2574.64 592.5  2572 589.86  2572 586.5  C 2572 583.14  2574.64 580.5  2578 580.5  Z " fill-rule="nonzero" fill="#f0f0f0" stroke="none" />
  <path d="M 2578 581  C 2581.08 581  2583.5 583.42  2583.5 586.5  C 2583.5 589.58  2581.08 592  2578 592  C 2574.92 592  2572.5 589.58  2572.5 586.5  C 2572.5 583.42  2574.92 581  2578 581  Z " stroke-width="1" stroke="#797979" fill="none" />
  <path d="M 2578 589.5  C 2576.32 589.5  2575 588.18  2575 586.5  C 2575 584.82  2576.32 583.5  2578 583.5  C 2579.68 583.5  2581 584.82  2581 586.5  C 2581 588.18  2579.68 589.5  2578 589.5  " fill-rule="nonzero" fill="#797979" stroke="none" />
</svg>