<?xml version="1.0" encoding="utf-8"?>
<svg version="1.1" xmlns:xlink="http://www.w3.org/1999/xlink" width="28px" height="30px" xmlns="http://www.w3.org/2000/svg">
  <g transform="matrix(1 0 0 1 -178 -564 )">
    <path d="M 178 564  L 206 564  L 206 594  L 178 594  L 178 564  " fill-rule="nonzero" fill="#cccccc" stroke="none" />
    <path d="M 180 566  L 204 566  L 204 592  L 180 592  L 180 566  " fill-rule="nonzero" fill="#ffffff" stroke="none" />
    <path d="M 194.66 572.7  C 193.484 572.7  192.56 571.776  192.56 570.6  C 192.56 569.424  193.484 568.5  194.66 568.5  C 195.836 568.5  196.76 569.424  196.76 570.6  C 196.76 571.776  195.836 572.7  194.66 572.7  " fill-rule="nonzero" fill="#cccccc" stroke="none" />
    <path d="M 181 592  L 181 578.25  L 186.75 572  L 194.8 577  L 199.4 575.75  L 204 577  L 204 592  L 181 592  " fill-rule="nonzero" fill="#169bd5" stroke="none" />
  </g>
</svg>