<?xml version="1.0" encoding="utf-8"?>
<svg version="1.1" xmlns:xlink="http://www.w3.org/1999/xlink" width="26px" height="30px" xmlns="http://www.w3.org/2000/svg">
  <g transform="matrix(1 0 0 1 -538 -564 )">
    <path d="M 538 564  L 564 564  L 564 594  L 538 594  L 538 564  " fill-rule="nonzero" fill="#cccccc" stroke="none" />
    <path d="M 540 566  L 562 566  L 562 592  L 540 592  L 540 566  " fill-rule="nonzero" fill="#ffffff" stroke="none" />
    <path d="M 553.47 572.4  C 552.378 572.4  551.52 571.542  551.52 570.45  C 551.52 569.358  552.378 568.5  553.47 568.5  C 554.562 568.5  555.42 569.358  555.42 570.45  C 555.42 571.542  554.562 572.4  553.47 572.4  " fill-rule="nonzero" fill="#cccccc" stroke="none" />
    <path d="M 541 592  L 541 578.25  L 546.25 572  L 553.6 577  L 557.8 575.75  L 562 577  L 562 592  L 541 592  " fill-rule="nonzero" fill="#169bd5" stroke="none" />
  </g>
</svg>