<?xml version="1.0" encoding="utf-8"?>
<svg version="1.1" xmlns:xlink="http://www.w3.org/1999/xlink" width="12px" height="12px" viewBox="2094 578.5  12 12" xmlns="http://www.w3.org/2000/svg">
  <path d="M 2100 578.5  C 2103.36 578.5  2106 581.14  2106 584.5  C 2106 587.86  2103.36 590.5  2100 590.5  C 2096.64 590.5  2094 587.86  2094 584.5  C 2094 581.14  2096.64 578.5  2100 578.5  Z " fill-rule="nonzero" fill="#ffffff" stroke="none" />
  <path d="M 2100 579  C 2103.08 579  2105.5 581.42  2105.5 584.5  C 2105.5 587.58  2103.08 590  2100 590  C 2096.92 590  2094.5 587.58  2094.5 584.5  C 2094.5 581.42  2096.92 579  2100 579  Z " stroke-width="1" stroke="#797979" fill="none" />
  <path d="M 2100 587.5  C 2098.32 587.5  2097 586.18  2097 584.5  C 2097 582.82  2098.32 581.5  2100 581.5  C 2101.68 581.5  2103 582.82  2103 584.5  C 2103 586.18  2101.68 587.5  2100 587.5  " fill-rule="nonzero" fill="#797979" stroke="none" />
</svg>