<?xml version="1.0" encoding="utf-8"?>
<svg version="1.1" xmlns:xlink="http://www.w3.org/1999/xlink" width="23px" height="23px" xmlns="http://www.w3.org/2000/svg">
  <g transform="matrix(1 0 0 1 -445 -377 )">
    <path d="M 456.5 377  C 462.94 377  468 382.06  468 388.5  C 468 394.94  462.94 400  456.5 400  C 450.06 400  445 394.94  445 388.5  C 445 382.06  450.06 377  456.5 377  Z " fill-rule="nonzero" fill="#ffffff" stroke="none" />
    <path d="M 456.5 377.5  C 462.66 377.5  467.5 382.34  467.5 388.5  C 467.5 394.66  462.66 399.5  456.5 399.5  C 450.34 399.5  445.5 394.66  445.5 388.5  C 445.5 382.34  450.34 377.5  456.5 377.5  Z " stroke-width="1" stroke="#797979" fill="none" />
  </g>
</svg>