<?xml version="1.0" encoding="utf-8"?>
<svg version="1.1" xmlns:xlink="http://www.w3.org/1999/xlink" width="39px" height="42px" xmlns="http://www.w3.org/2000/svg">
  <g transform="matrix(1 0 0 1 -326 -630 )">
    <path d="M 326 630  L 365 630  L 365 672  L 326 672  L 326 630  " fill-rule="nonzero" fill="#cccccc" stroke="none" />
    <path d="M 329 633  L 362 633  L 362 669  L 329 669  L 329 633  " fill-rule="nonzero" fill="#ffffff" stroke="none" />
    <path d="M 349.205 642.15  C 347.567 642.15  346.28 640.863  346.28 639.225  C 346.28 637.587  347.567 636.3  349.205 636.3  C 350.843 636.3  352.13 637.587  352.13 639.225  C 352.13 640.863  350.843 642.15  349.205 642.15  " fill-rule="nonzero" fill="#cccccc" stroke="none" />
    <path d="M 330 668  L 330 649.3  L 337.75 640.8  L 348.6 647.6  L 354.8 645.9  L 361 647.6  L 361 668  L 330 668  " fill-rule="nonzero" fill="#169bd5" stroke="none" />
  </g>
</svg>