<?xml version="1.0" encoding="utf-8"?>
<svg version="1.1" xmlns:xlink="http://www.w3.org/1999/xlink" width="38px" height="41px" xmlns="http://www.w3.org/2000/svg">
  <g transform="matrix(1 0 0 1 -525 -620 )">
    <path d="M 525 620  L 563 620  L 563 661  L 525 661  L 525 620  " fill-rule="nonzero" fill="#cccccc" stroke="none" />
    <path d="M 528 623  L 560 623  L 560 658  L 528 658  L 528 623  " fill-rule="nonzero" fill="#ffffff" stroke="none" />
    <path d="M 547.61 631.85  C 546.014 631.85  544.76 630.596  544.76 629  C 544.76 627.404  546.014 626.15  547.61 626.15  C 549.206 626.15  550.46 627.404  550.46 629  C 550.46 630.596  549.206 631.85  547.61 631.85  " fill-rule="nonzero" fill="#cccccc" stroke="none" />
    <path d="M 529 657  L 529 638.85  L 536.5 630.6  L 547 637.2  L 553 635.55  L 559 637.2  L 559 657  L 529 657  " fill-rule="nonzero" fill="#169bd5" stroke="none" />
  </g>
</svg>