<?xml version="1.0" encoding="utf-8"?>
<svg version="1.1" xmlns:xlink="http://www.w3.org/1999/xlink" width="33px" height="38px" xmlns="http://www.w3.org/2000/svg">
  <g transform="matrix(1 0 0 1 -729 -627 )">
    <path d="M 729 627  L 762 627  L 762 665  L 729 665  L 729 627  " fill-rule="nonzero" fill="#cccccc" stroke="none" />
    <path d="M 731 629  L 760 629  L 760 663  L 731 663  L 731 629  " fill-rule="nonzero" fill="#ffffff" stroke="none" />
    <path d="M 748.635 637.65  C 747.249 637.65  746.16 636.561  746.16 635.175  C 746.16 633.789  747.249 632.7  748.635 632.7  C 750.021 632.7  751.11 633.789  751.11 635.175  C 751.11 636.561  750.021 637.65  748.635 637.65  " fill-rule="nonzero" fill="#cccccc" stroke="none" />
    <path d="M 732 662  L 732 644.4  L 738.75 636.4  L 748.2 642.8  L 753.6 641.2  L 759 642.8  L 759 662  L 732 662  " fill-rule="nonzero" fill="#169bd5" stroke="none" />
  </g>
</svg>