<?xml version="1.0" encoding="utf-8"?>
<svg version="1.1" xmlns:xlink="http://www.w3.org/1999/xlink" width="39px" height="38px" xmlns="http://www.w3.org/2000/svg">
  <g transform="matrix(1 0 0 1 -528 -990 )">
    <path d="M 528 990  L 567 990  L 567 1028  L 528 1028  L 528 990  " fill-rule="nonzero" fill="#cccccc" stroke="none" />
    <path d="M 531 993  L 564 993  L 564 1025  L 531 1025  L 531 993  " fill-rule="nonzero" fill="#ffffff" stroke="none" />
    <path d="M 551.13 1001.4  C 549.534 1001.4  548.28 1000.146  548.28 998.55  C 548.28 996.954  549.534 995.7  551.13 995.7  C 552.726 995.7  553.98 996.954  553.98 998.55  C 553.98 1000.146  552.726 1001.4  551.13 1001.4  " fill-rule="nonzero" fill="#cccccc" stroke="none" />
    <path d="M 532 1024  L 532 1007.5  L 539.75 1000  L 550.6 1006.46153846154  L 556.8 1004.5  L 563 1006.46153846154  L 563 1024  L 532 1024  " fill-rule="nonzero" fill="#169bd5" stroke="none" />
  </g>
</svg>