<?xml version="1.0" encoding="utf-8"?>
<svg version="1.1" xmlns:xlink="http://www.w3.org/1999/xlink" width="37px" height="38px" xmlns="http://www.w3.org/2000/svg">
  <g transform="matrix(1 0 0 1 -331 -999 )">
    <path d="M 331 999  L 368 999  L 368 1037  L 331 1037  L 331 999  " fill-rule="nonzero" fill="#cccccc" stroke="none" />
    <path d="M 334 1002  L 365 1002  L 365 1034  L 334 1034  L 334 1002  " fill-rule="nonzero" fill="#ffffff" stroke="none" />
    <path d="M 353.015 1010.25  C 351.461 1010.25  350.24 1009.029  350.24 1007.475  C 350.24 1005.921  351.461 1004.7  353.015 1004.7  C 354.569 1004.7  355.79 1005.921  355.79 1007.475  C 355.79 1009.029  354.569 1010.25  353.015 1010.25  " fill-rule="nonzero" fill="#cccccc" stroke="none" />
    <path d="M 335 1033  L 335 1016.5  L 342.25 1009  L 352.4 1015  L 358.2 1013.5  L 364 1015  L 364 1033  L 335 1033  " fill-rule="nonzero" fill="#169bd5" stroke="none" />
  </g>
</svg>