<?xml version="1.0" encoding="utf-8"?>
<svg version="1.1" xmlns:xlink="http://www.w3.org/1999/xlink" width="36px" height="42px" xmlns="http://www.w3.org/2000/svg">
  <g transform="matrix(1 0 0 1 -324 -782 )">
    <path d="M 324 782  L 360 782  L 360 824  L 324 824  L 324 782  " fill-rule="nonzero" fill="#cccccc" stroke="none" />
    <path d="M 327 785  L 357 785  L 357 821  L 327 821  L 327 785  " fill-rule="nonzero" fill="#ffffff" stroke="none" />
    <path d="M 345.42 793.7  C 343.908 793.7  342.72 792.512  342.72 791  C 342.72 789.488  343.908 788.3  345.42 788.3  C 346.932 788.3  348.12 789.488  348.12 791  C 348.12 792.512  346.932 793.7  345.42 793.7  " fill-rule="nonzero" fill="#cccccc" stroke="none" />
    <path d="M 328 820  L 328 801.3  L 335 792.8  L 344.8 799.6  L 350.4 797.9  L 356 799.6  L 356 820  L 328 820  " fill-rule="nonzero" fill="#169bd5" stroke="none" />
  </g>
</svg>