<?xml version="1.0" encoding="utf-8"?>
<svg version="1.1" xmlns:xlink="http://www.w3.org/1999/xlink" width="36px" height="38px" xmlns="http://www.w3.org/2000/svg">
  <g transform="matrix(1 0 0 1 -1391 -1012 )">
    <path d="M 1391 1012  L 1427 1012  L 1427 1050  L 1391 1050  L 1391 1012  " fill-rule="nonzero" fill="#cccccc" stroke="none" />
    <path d="M 1394 1015  L 1424 1015  L 1424 1047  L 1394 1047  L 1394 1015  " fill-rule="nonzero" fill="#ffffff" stroke="none" />
    <path d="M 1412.42 1023.1  C 1410.908 1023.1  1409.72 1021.912  1409.72 1020.4  C 1409.72 1018.888  1410.908 1017.7  1412.42 1017.7  C 1413.932 1017.7  1415.12 1018.888  1415.12 1020.4  C 1415.12 1021.912  1413.932 1023.1  1412.42 1023.1  " fill-rule="nonzero" fill="#cccccc" stroke="none" />
    <path d="M 1395 1046  L 1395 1029.5  L 1402 1022  L 1411.8 1028  L 1417.4 1026.5  L 1423 1028  L 1423 1046  L 1395 1046  " fill-rule="nonzero" fill="#169bd5" stroke="none" />
  </g>
</svg>