<?xml version="1.0" encoding="utf-8"?>
<svg version="1.1" xmlns:xlink="http://www.w3.org/1999/xlink" width="22px" height="22px" preserveAspectRatio="xMinYMid meet" viewBox="248 221  22 20" xmlns="http://www.w3.org/2000/svg">
  <g transform="matrix(-0.997564050259824 -0.0697564737441249 0.0697564737441237 -0.997564050259824 501.255343582402 479.504222309748 )">
    <path d="M 61.9 233.8  L 58 237.5  L 61.9 241.2  L 65.7 237.5  L 61.9 233.8  Z M 61.9 239.8  L 59.4 237.5  L 61.9 235.2  L 64.3 237.5  L 61.9 239.8  Z M 257.1 241.2  L 261 237.5  L 257.1 233.8  L 253.3 237.5  L 257.1 241.2  Z M 257.1 235.2  L 259.6 237.5  L 257.1 239.8  L 254.7 237.5  L 257.1 235.2  Z " fill-rule="nonzero" fill="#d9001b" stroke="none" transform="matrix(0.998032077917513 -0.0627054339563191 0.0627054339563191 0.998032077917513 -14.5786569924692 10.4688982106235 )" />
    <path d="M 64 237.5  L 255 237.5  " stroke-width="1" stroke="#d9001b" fill="none" transform="matrix(0.998032077917513 -0.0627054339563191 0.0627054339563191 0.998032077917513 -14.5786569924692 10.4688982106235 )" />
  </g>
</svg>