<?xml version="1.0" encoding="utf-8"?>
<svg version="1.1" xmlns:xlink="http://www.w3.org/1999/xlink" width="24px" height="22px" preserveAspectRatio="xMinYMid meet" viewBox="276 349  24 20" xmlns="http://www.w3.org/2000/svg">
  <g transform="matrix(-0.981627183447661 -0.190808995376547 0.190808995376546 -0.981627183447664 502.208199492746 766.357149526157 )">
    <path d="M 94.9 373.8  L 91 377.5  L 94.9 381.2  L 98.7 377.5  L 94.9 373.8  Z M 94.9 379.8  L 92.4 377.5  L 94.9 375.2  L 97.3 377.5  L 94.9 379.8  Z M 287.1 381.2  L 291 377.5  L 287.1 373.8  L 283.3 377.5  L 287.1 381.2  Z M 287.1 375.2  L 289.6 377.5  L 287.1 379.8  L 284.7 377.5  L 287.1 375.2  Z " fill-rule="nonzero" fill="#d9001b" stroke="none" transform="matrix(0.983103124120257 -0.183052580820349 0.183052580820349 0.983103124120257 -65.875045966651 41.3416135812897 )" />
    <path d="M 97 377.5  L 285 377.5  " stroke-width="1" stroke="#d9001b" fill="none" transform="matrix(0.983103124120257 -0.183052580820349 0.183052580820349 0.983103124120257 -65.875045966651 41.3416135812897 )" />
  </g>
</svg>