<?xml version="1.0" encoding="utf-8"?>
<svg version="1.1" xmlns:xlink="http://www.w3.org/1999/xlink" width="24px" height="20px" preserveAspectRatio="xMinYMid meet" viewBox="996 369  24 18" xmlns="http://www.w3.org/2000/svg">
  <g transform="matrix(-0.874619707139386 -0.484809620246333 0.484809620246341 -0.874619707139392 1706.35862834338 1197.29434650699 )">
    <path d="M 790.9 431.8  L 787 435.5  L 790.9 439.2  L 794.7 435.5  L 790.9 431.8  Z M 790.9 437.8  L 788.4 435.5  L 790.9 433.2  L 793.3 435.5  L 790.9 437.8  Z M 1020.1 439.2  L 1024 435.5  L 1020.1 431.8  L 1016.3 435.5  L 1020.1 439.2  Z M 1020.1 433.2  L 1022.6 435.5  L 1020.1 437.8  L 1017.7 435.5  L 1020.1 433.2  Z " fill-rule="nonzero" fill="#d9001b" stroke="none" transform="matrix(0.872240229780264 -0.489077684578711 0.489077684578711 0.872240229780264 -97.3068597000573 498.499223316718 )" />
    <path d="M 793 435.5  L 1018 435.5  " stroke-width="1" stroke="#d9001b" fill="none" transform="matrix(0.872240229780264 -0.489077684578711 0.489077684578711 0.872240229780264 -97.3068597000573 498.499223316718 )" />
  </g>
</svg>