<?xml version="1.0" encoding="utf-8"?>
<svg version="1.1" xmlns:xlink="http://www.w3.org/1999/xlink" width="22px" height="22px" preserveAspectRatio="xMinYMid meet" viewBox="512 979  22 20" xmlns="http://www.w3.org/2000/svg">
  <g transform="matrix(0.857167300702107 0.515038074910056 -0.515038074910056 0.857167300702107 584.074157818843 -128.103373572343 )">
    <path d="M 468.9 782.8  L 465 786.5  L 468.9 790.2  L 472.7 786.5  L 468.9 782.8  Z M 468.9 788.8  L 466.4 786.5  L 468.9 784.2  L 471.3 786.5  L 468.9 788.8  Z M 1238.1 790.2  L 1242 786.5  L 1238.1 782.8  L 1234.3 786.5  L 1238.1 790.2  Z M 1238.1 784.2  L 1240.6 786.5  L 1238.1 788.8  L 1235.7 786.5  L 1238.1 784.2  Z " fill-rule="nonzero" fill="#d9001b" stroke="none" transform="matrix(0.85267540291892 -0.52244105625138 0.52244105625138 0.85267540291892 -285.158347133009 561.774237114823 )" />
    <path d="M 471 786.5  L 1236 786.5  " stroke-width="1" stroke="#d9001b" fill="none" transform="matrix(0.85267540291892 -0.52244105625138 0.52244105625138 0.85267540291892 -285.158347133009 561.774237114823 )" />
  </g>
</svg>