<?xml version="1.0" encoding="utf-8"?>
<svg version="1.1" xmlns:xlink="http://www.w3.org/1999/xlink" width="1066px" height="22px" preserveAspectRatio="xMinYMid meet" viewBox="914 207  1066 20" xmlns="http://www.w3.org/2000/svg">
  <g transform="matrix(0.992546151641322 -0.121869343405148 0.121869343405148 0.992546151641322 -15.6599289439099 177.962425001082 )">
    <path d="M 928.9 213.8  L 925 217.5  L 928.9 221.2  L 932.7 217.5  L 928.9 213.8  Z M 928.9 219.8  L 926.4 217.5  L 928.9 215.2  L 931.3 217.5  L 928.9 219.8  Z M 1965.1 221.2  L 1969 217.5  L 1965.1 213.8  L 1961.3 217.5  L 1965.1 221.2  Z M 1965.1 215.2  L 1967.6 217.5  L 1965.1 219.8  L 1962.7 217.5  L 1965.1 215.2  Z " fill-rule="nonzero" fill="#d9001b" stroke="none" transform="matrix(0.993467601840552 0.114114521833036 -0.114114521833036 0.993467601840552 34.2722886354068 -163.702916492724 )" />
    <path d="M 931 217.5  L 1963 217.5  " stroke-width="1" stroke="#d9001b" fill="none" transform="matrix(0.993467601840552 0.114114521833036 -0.114114521833036 0.993467601840552 34.2722886354068 -163.702916492724 )" />
  </g>
</svg>