<?xml version="1.0" encoding="utf-8"?>
<svg version="1.1" xmlns:xlink="http://www.w3.org/1999/xlink" width="12px" height="12px" viewBox="938 170.5  12 12" xmlns="http://www.w3.org/2000/svg">
  <path d="M 944 170.5  C 947.36 170.5  950 173.14  950 176.5  C 950 179.86  947.36 182.5  944 182.5  C 940.64 182.5  938 179.86  938 176.5  C 938 173.14  940.64 170.5  944 170.5  Z " fill-rule="nonzero" fill="#f0f0f0" stroke="none" />
  <path d="M 944 171  C 947.08 171  949.5 173.42  949.5 176.5  C 949.5 179.58  947.08 182  944 182  C 940.92 182  938.5 179.58  938.5 176.5  C 938.5 173.42  940.92 171  944 171  Z " stroke-width="1" stroke="#797979" fill="none" />
  <path d="M 944 179.5  C 942.32 179.5  941 178.18  941 176.5  C 941 174.82  942.32 173.5  944 173.5  C 945.68 173.5  947 174.82  947 176.5  C 947 178.18  945.68 179.5  944 179.5  " fill-rule="nonzero" fill="#797979" stroke="none" />
</svg>