<?xml version="1.0" encoding="utf-8"?>
<svg version="1.1" xmlns:xlink="http://www.w3.org/1999/xlink" width="12px" height="12px" viewBox="716 248.5  12 12" xmlns="http://www.w3.org/2000/svg">
  <path d="M 722 248.5  C 725.36 248.5  728 251.14  728 254.5  C 728 257.86  725.36 260.5  722 260.5  C 718.64 260.5  716 257.86  716 254.5  C 716 251.14  718.64 248.5  722 248.5  Z " fill-rule="nonzero" fill="#ffffff" stroke="none" />
  <path d="M 722 249  C 725.08 249  727.5 251.42  727.5 254.5  C 727.5 257.58  725.08 260  722 260  C 718.92 260  716.5 257.58  716.5 254.5  C 716.5 251.42  718.92 249  722 249  Z " stroke-width="1" stroke="#797979" fill="none" />
  <path d="M 722 257.5  C 720.32 257.5  719 256.18  719 254.5  C 719 252.82  720.32 251.5  722 251.5  C 723.68 251.5  725 252.82  725 254.5  C 725 256.18  723.68 257.5  722 257.5  " fill-rule="nonzero" fill="#797979" stroke="none" />
</svg>