<?xml version="1.0" encoding="utf-8"?>
<svg version="1.1" xmlns:xlink="http://www.w3.org/1999/xlink" width="12px" height="12px" viewBox="716 173.5  12 12" xmlns="http://www.w3.org/2000/svg">
  <path d="M 722 173.5  C 725.36 173.5  728 176.14  728 179.5  C 728 182.86  725.36 185.5  722 185.5  C 718.64 185.5  716 182.86  716 179.5  C 716 176.14  718.64 173.5  722 173.5  Z " fill-rule="nonzero" fill="#ffffff" stroke="none" />
  <path d="M 722 174  C 725.08 174  727.5 176.42  727.5 179.5  C 727.5 182.58  725.08 185  722 185  C 718.92 185  716.5 182.58  716.5 179.5  C 716.5 176.42  718.92 174  722 174  Z " stroke-width="1" stroke="#797979" fill="none" />
  <path d="M 722 182.5  C 720.32 182.5  719 181.18  719 179.5  C 719 177.82  720.32 176.5  722 176.5  C 723.68 176.5  725 177.82  725 179.5  C 725 181.18  723.68 182.5  722 182.5  " fill-rule="nonzero" fill="#797979" stroke="none" />
</svg>