<?xml version="1.0" encoding="utf-8"?>
<svg version="1.1" xmlns:xlink="http://www.w3.org/1999/xlink" width="12px" height="12px" viewBox="781 248.5  12 12" xmlns="http://www.w3.org/2000/svg">
  <path d="M 787 248.5  C 790.36 248.5  793 251.14  793 254.5  C 793 257.86  790.36 260.5  787 260.5  C 783.64 260.5  781 257.86  781 254.5  C 781 251.14  783.64 248.5  787 248.5  Z " fill-rule="nonzero" fill="#ffffff" stroke="none" />
  <path d="M 787 249  C 790.08 249  792.5 251.42  792.5 254.5  C 792.5 257.58  790.08 260  787 260  C 783.92 260  781.5 257.58  781.5 254.5  C 781.5 251.42  783.92 249  787 249  Z " stroke-width="1" stroke="#797979" fill="none" />
  <path d="M 787 257.5  C 785.32 257.5  784 256.18  784 254.5  C 784 252.82  785.32 251.5  787 251.5  C 788.68 251.5  790 252.82  790 254.5  C 790 256.18  788.68 257.5  787 257.5  " fill-rule="nonzero" fill="#797979" stroke="none" />
</svg>