<?xml version="1.0" encoding="utf-8"?>
<svg version="1.1" xmlns:xlink="http://www.w3.org/1999/xlink" width="17px" height="20px" xmlns="http://www.w3.org/2000/svg">
  <g transform="matrix(1 0 0 1 -1448 -417 )">
    <path d="M 1448 417  L 1465 417  L 1465 437  L 1448 437  L 1448 417  " fill-rule="nonzero" fill="#cccccc" stroke="none" />
    <path d="M 1449 418  L 1464 418  L 1464 436  L 1449 436  L 1449 418  " fill-rule="nonzero" fill="#ffffff" stroke="none" />
    <path d="M 1458.115 422.55  C 1457.401 422.55  1456.84 421.989  1456.84 421.275  C 1456.84 420.561  1457.401 420  1458.115 420  C 1458.829 420  1459.39 420.561  1459.39 421.275  C 1459.39 421.989  1458.829 422.55  1458.115 422.55  " fill-rule="nonzero" fill="#cccccc" stroke="none" />
    <path d="M 1450 436  L 1450 426.65  L 1453.5 422.4  L 1458.4 425.8  L 1461.2 424.95  L 1464 425.8  L 1464 436  L 1450 436  " fill-rule="nonzero" fill="#169bd5" stroke="none" />
  </g>
</svg>