<?xml version="1.0" encoding="utf-8"?>
<svg version="1.1" xmlns:xlink="http://www.w3.org/1999/xlink" width="22px" height="22px" preserveAspectRatio="xMinYMid meet" viewBox="118 91  22 20" xmlns="http://www.w3.org/2000/svg">
  <g transform="matrix(-0.981627183447665 -0.190808995376545 0.190808995376545 -0.981627183447664 236.358198131718 224.758705931788 )">
    <path d="M -129.1 120.8  L -133 124.5  L -129.1 128.2  L -125.3 124.5  L -129.1 120.8  Z M -129.1 126.8  L -131.6 124.5  L -129.1 122.2  L -126.7 124.5  L -129.1 126.8  Z M 128.1 128.2  L 132 124.5  L 128.1 120.8  L 124.3 124.5  L 128.1 128.2  Z M 128.1 122.2  L 130.6 124.5  L 128.1 126.8  L 125.7 124.5  L 128.1 122.2  Z " fill-rule="nonzero" fill="#d9001b" stroke="none" transform="matrix(0.982883028027179 -0.184230706496295 0.184230706496295 0.982883028027179 -22.9452814447751 2.03894765736808 )" />
    <path d="M -127 124.5  L 126 124.5  " stroke-width="1" stroke="#d9001b" fill="none" transform="matrix(0.982883028027179 -0.184230706496295 0.184230706496295 0.982883028027179 -22.9452814447751 2.03894765736808 )" />
  </g>
</svg>