<?xml version="1.0" encoding="utf-8"?>
<svg version="1.1" xmlns:xlink="http://www.w3.org/1999/xlink" width="12px" height="12px" viewBox="108 644  12 12" xmlns="http://www.w3.org/2000/svg">
  <path d="M 114 644  C 117.36 644  120 646.64  120 650  C 120 653.36  117.36 656  114 656  C 110.64 656  108 653.36  108 650  C 108 646.64  110.64 644  114 644  Z " fill-rule="nonzero" fill="#f0f0f0" stroke="none" />
  <path d="M 114 644.5  C 117.08 644.5  119.5 646.92  119.5 650  C 119.5 653.08  117.08 655.5  114 655.5  C 110.92 655.5  108.5 653.08  108.5 650  C 108.5 646.92  110.92 644.5  114 644.5  Z " stroke-width="1" stroke="#797979" fill="none" />
  <path d="M 114 653  C 112.32 653  111 651.68  111 650  C 111 648.32  112.32 647  114 647  C 115.68 647  117 648.32  117 650  C 117 651.68  115.68 653  114 653  " fill-rule="nonzero" fill="#797979" stroke="none" />
</svg>