<?xml version="1.0" encoding="utf-8"?>
<svg version="1.1" xmlns:xlink="http://www.w3.org/1999/xlink" width="29px" height="29px" xmlns="http://www.w3.org/2000/svg">
  <g transform="matrix(1 0 0 1 -968 -538 )">
    <path d="M 982.5 538  C 990.62 538  997 544.38  997 552.5  C 997 560.62  990.62 567  982.5 567  C 974.38 567  968 560.62  968 552.5  C 968 544.38  974.38 538  982.5 538  Z " fill-rule="nonzero" fill="#ffffff" stroke="none" />
    <path d="M 982.5 538.5  C 990.34 538.5  996.5 544.66  996.5 552.5  C 996.5 560.34  990.34 566.5  982.5 566.5  C 974.66 566.5  968.5 560.34  968.5 552.5  C 968.5 544.66  974.66 538.5  982.5 538.5  Z " stroke-width="1" stroke="#797979" fill="none" />
  </g>
</svg>