<?xml version="1.0" encoding="utf-8"?>
<svg version="1.1" xmlns:xlink="http://www.w3.org/1999/xlink" width="50px" height="50px" xmlns="http://www.w3.org/2000/svg">
  <g transform="matrix(1 0 0 1 -451 -1132 )">
    <path d="M 476 1132  C 490 1132  501 1143  501 1157  C 501 1171  490 1182  476 1182  C 462 1182  451 1171  451 1157  C 451 1143  462 1132  476 1132  Z " fill-rule="nonzero" fill="#ffffff" stroke="none" />
    <path d="M 476 1132.5  C 489.72 1132.5  500.5 1143.28  500.5 1157  C 500.5 1170.72  489.72 1181.5  476 1181.5  C 462.28 1181.5  451.5 1170.72  451.5 1157  C 451.5 1143.28  462.28 1132.5  476 1132.5  Z " stroke-width="1" stroke="#797979" fill="none" />
  </g>
</svg>