<?xml version="1.0" encoding="utf-8"?>
<svg version="1.1" xmlns:xlink="http://www.w3.org/1999/xlink" width="171px" height="156px" xmlns="http://www.w3.org/2000/svg">
  <g transform="matrix(1 0 0 1 -157 -552 )">
    <path d="M 157 552  L 328 552  L 328 708  L 157 708  L 157 552  " fill-rule="nonzero" fill="#cccccc" stroke="none" />
    <path d="M 168 563  L 317 563  L 317 697  L 168 697  L 168 563  " fill-rule="nonzero" fill="#ffffff" stroke="none" />
    <path d="M 257.62 598.8  C 251.068 598.8  245.92 593.652  245.92 587.1  C 245.92 580.548  251.068 575.4  257.62 575.4  C 264.172 575.4  269.32 580.548  269.32 587.1  C 269.32 593.652  264.172 598.8  257.62 598.8  " fill-rule="nonzero" fill="#cccccc" stroke="none" />
    <path d="M 172 693  L 172 623.7  L 207.25 592.2  L 256.6 624.031578947368  L 284.8 611.1  L 313 624.031578947368  L 313 693  L 172 693  " fill-rule="nonzero" fill="#169bd5" stroke="none" />
  </g>
</svg>