<?xml version="1.0" encoding="utf-8"?>
<svg version="1.1" xmlns:xlink="http://www.w3.org/1999/xlink" width="141px" height="141px" xmlns="http://www.w3.org/2000/svg">
  <g transform="matrix(1 0 0 1 -138 -140 )">
    <path d="M 208.5 140  C 247.98 140  279 171.02  279 210.5  C 279 249.98  247.98 281  208.5 281  C 169.02 281  138 249.98  138 210.5  C 138 171.02  169.02 140  208.5 140  Z " fill-rule="nonzero" fill="#ffffff" stroke="none" />
    <path d="M 208.5 140.5  C 247.7 140.5  278.5 171.3  278.5 210.5  C 278.5 249.7  247.7 280.5  208.5 280.5  C 169.3 280.5  138.5 249.7  138.5 210.5  C 138.5 171.3  169.3 140.5  208.5 140.5  Z " stroke-width="1" stroke="#797979" fill="none" />
  </g>
</svg>