<?xml version="1.0" encoding="utf-8"?>
<svg version="1.1" xmlns:xlink="http://www.w3.org/1999/xlink" width="26px" height="26px" xmlns="http://www.w3.org/2000/svg">
  <g transform="matrix(1 0 0 1 -1434 -471 )">
    <path d="M 1447 471  C 1454.28 471  1460 476.72  1460 484  C 1460 491.28  1454.28 497  1447 497  C 1439.72 497  1434 491.28  1434 484  C 1434 476.72  1439.72 471  1447 471  Z " fill-rule="nonzero" fill="#1e5253" stroke="none" />
    <path d="M 1447 471.5  C 1454 471.5  1459.5 477  1459.5 484  C 1459.5 491  1454 496.5  1447 496.5  C 1440 496.5  1434.5 491  1434.5 484  C 1434.5 477  1440 471.5  1447 471.5  Z " stroke-width="1" stroke="#797979" fill="none" />
  </g>
</svg>