<?xml version="1.0" encoding="utf-8"?>
<svg version="1.1" xmlns:xlink="http://www.w3.org/1999/xlink" width="38px" height="38px" xmlns="http://www.w3.org/2000/svg">
  <g transform="matrix(1 0 0 1 -502 -499 )">
    <path d="M 521 499  C 531.64 499  540 507.36  540 518  C 540 528.64  531.64 537  521 537  C 510.36 537  502 528.64  502 518  C 502 507.36  510.36 499  521 499  Z " fill-rule="nonzero" fill="#1e5253" stroke="none" />
    <path d="M 521 499.5  C 531.36 499.5  539.5 507.64  539.5 518  C 539.5 528.36  531.36 536.5  521 536.5  C 510.64 536.5  502.5 528.36  502.5 518  C 502.5 507.64  510.64 499.5  521 499.5  Z " stroke-width="1" stroke="#797979" fill="none" />
  </g>
</svg>