<?xml version="1.0" encoding="utf-8"?>
<svg version="1.1" xmlns:xlink="http://www.w3.org/1999/xlink" width="233px" height="139px" xmlns="http://www.w3.org/2000/svg">
  <g transform="matrix(1 0 0 1 -379 -603 )">
    <path d="M 379 603  L 612 603  L 612 742  L 379 742  L 379 603  " fill-rule="nonzero" fill="#cccccc" stroke="none" />
    <path d="M 389 613  L 602 613  L 602 732  L 389 732  L 389 613  " fill-rule="nonzero" fill="#ffffff" stroke="none" />
    <path d="M 510.585 644.7  C 504.747 644.7  500.16 640.113  500.16 634.275  C 500.16 628.437  504.747 623.85  510.585 623.85  C 516.423 623.85  521.01 628.437  521.01 634.275  C 521.01 640.113  516.423 644.7  510.585 644.7  " fill-rule="nonzero" fill="#cccccc" stroke="none" />
    <path d="M 393 729  L 393 667.4  L 444.5 639.4  L 516.6 688.910729613734  L 557.8 656.2  L 599 688.910729613734  L 599 729  L 393 729  " fill-rule="nonzero" fill="#169bd5" stroke="none" />
  </g>
</svg>