<?xml version="1.0" encoding="utf-8"?>
<svg version="1.1" xmlns:xlink="http://www.w3.org/1999/xlink" width="12px" height="12px" viewBox="214 470.5  12 12" xmlns="http://www.w3.org/2000/svg">
  <path d="M 220 470.5  C 223.36 470.5  226 473.14  226 476.5  C 226 479.86  223.36 482.5  220 482.5  C 216.64 482.5  214 479.86  214 476.5  C 214 473.14  216.64 470.5  220 470.5  Z " fill-rule="nonzero" fill="#f0f0f0" stroke="none" />
  <path d="M 220 471  C 223.08 471  225.5 473.42  225.5 476.5  C 225.5 479.58  223.08 482  220 482  C 216.92 482  214.5 479.58  214.5 476.5  C 214.5 473.42  216.92 471  220 471  Z " stroke-width="1" stroke="#797979" fill="none" />
  <path d="M 220 479.5  C 218.32 479.5  217 478.18  217 476.5  C 217 474.82  218.32 473.5  220 473.5  C 221.68 473.5  223 474.82  223 476.5  C 223 478.18  221.68 479.5  220 479.5  " fill-rule="nonzero" fill="#797979" stroke="none" />
</svg>