<?xml version="1.0" encoding="utf-8"?>
<svg version="1.1" xmlns:xlink="http://www.w3.org/1999/xlink" width="12px" height="12px" viewBox="344 412.5  12 12" xmlns="http://www.w3.org/2000/svg">
  <path d="M 350 412.5  C 353.36 412.5  356 415.14  356 418.5  C 356 421.86  353.36 424.5  350 424.5  C 346.64 424.5  344 421.86  344 418.5  C 344 415.14  346.64 412.5  350 412.5  Z " fill-rule="nonzero" fill="#ffffff" stroke="none" />
  <path d="M 350 413  C 353.08 413  355.5 415.42  355.5 418.5  C 355.5 421.58  353.08 424  350 424  C 346.92 424  344.5 421.58  344.5 418.5  C 344.5 415.42  346.92 413  350 413  Z " stroke-width="1" stroke="#797979" fill="none" />
  <path d="M 350 421.5  C 348.32 421.5  347 420.18  347 418.5  C 347 416.82  348.32 415.5  350 415.5  C 351.68 415.5  353 416.82  353 418.5  C 353 420.18  351.68 421.5  350 421.5  " fill-rule="nonzero" fill="#797979" stroke="none" />
</svg>