<?xml version="1.0" encoding="utf-8"?>
<svg version="1.1" xmlns:xlink="http://www.w3.org/1999/xlink" width="12px" height="12px" viewBox="211 412.5  12 12" xmlns="http://www.w3.org/2000/svg">
  <path d="M 217 412.5  C 220.36 412.5  223 415.14  223 418.5  C 223 421.86  220.36 424.5  217 424.5  C 213.64 424.5  211 421.86  211 418.5  C 211 415.14  213.64 412.5  217 412.5  Z " fill-rule="nonzero" fill="#f0f0f0" stroke="none" />
  <path d="M 217 413  C 220.08 413  222.5 415.42  222.5 418.5  C 222.5 421.58  220.08 424  217 424  C 213.92 424  211.5 421.58  211.5 418.5  C 211.5 415.42  213.92 413  217 413  Z " stroke-width="1" stroke="#797979" fill="none" />
  <path d="M 217 421.5  C 215.32 421.5  214 420.18  214 418.5  C 214 416.82  215.32 415.5  217 415.5  C 218.68 415.5  220 416.82  220 418.5  C 220 420.18  218.68 421.5  217 421.5  " fill-rule="nonzero" fill="#797979" stroke="none" />
</svg>