<?xml version="1.0" encoding="utf-8"?>
<svg version="1.1" xmlns:xlink="http://www.w3.org/1999/xlink" width="12px" height="12px" viewBox="594 937.5  12 12" xmlns="http://www.w3.org/2000/svg">
  <path d="M 600 937.5  C 603.36 937.5  606 940.14  606 943.5  C 606 946.86  603.36 949.5  600 949.5  C 596.64 949.5  594 946.86  594 943.5  C 594 940.14  596.64 937.5  600 937.5  Z " fill-rule="nonzero" fill="#f0f0f0" stroke="none" />
  <path d="M 600 938  C 603.08 938  605.5 940.42  605.5 943.5  C 605.5 946.58  603.08 949  600 949  C 596.92 949  594.5 946.58  594.5 943.5  C 594.5 940.42  596.92 938  600 938  Z " stroke-width="1" stroke="#797979" fill="none" />
  <path d="M 600 946.5  C 598.32 946.5  597 945.18  597 943.5  C 597 941.82  598.32 940.5  600 940.5  C 601.68 940.5  603 941.82  603 943.5  C 603 945.18  601.68 946.5  600 946.5  " fill-rule="nonzero" fill="#797979" stroke="none" />
</svg>