<?xml version="1.0" encoding="utf-8"?>
<svg version="1.1" xmlns:xlink="http://www.w3.org/1999/xlink" width="12px" height="12px" viewBox="712 1005.5  12 12" xmlns="http://www.w3.org/2000/svg">
  <path d="M 718 1005.5  C 721.36 1005.5  724 1008.14  724 1011.5  C 724 1014.86  721.36 1017.5  718 1017.5  C 714.64 1017.5  712 1014.86  712 1011.5  C 712 1008.14  714.64 1005.5  718 1005.5  Z " fill-rule="nonzero" fill="#f0f0f0" stroke="none" />
  <path d="M 718 1006  C 721.08 1006  723.5 1008.42  723.5 1011.5  C 723.5 1014.58  721.08 1017  718 1017  C 714.92 1017  712.5 1014.58  712.5 1011.5  C 712.5 1008.42  714.92 1006  718 1006  Z " stroke-width="1" stroke="#797979" fill="none" />
  <path d="M 718 1014.5  C 716.32 1014.5  715 1013.18  715 1011.5  C 715 1009.82  716.32 1008.5  718 1008.5  C 719.68 1008.5  721 1009.82  721 1011.5  C 721 1013.18  719.68 1014.5  718 1014.5  " fill-rule="nonzero" fill="#797979" stroke="none" />
</svg>