<?xml version="1.0" encoding="utf-8"?>
<svg version="1.1" xmlns:xlink="http://www.w3.org/1999/xlink" width="12px" height="12px" viewBox="594 971.5  12 12" xmlns="http://www.w3.org/2000/svg">
  <path d="M 600 971.5  C 603.36 971.5  606 974.14  606 977.5  C 606 980.86  603.36 983.5  600 983.5  C 596.64 983.5  594 980.86  594 977.5  C 594 974.14  596.64 971.5  600 971.5  Z " fill-rule="nonzero" fill="#f0f0f0" stroke="none" />
  <path d="M 600 972  C 603.08 972  605.5 974.42  605.5 977.5  C 605.5 980.58  603.08 983  600 983  C 596.92 983  594.5 980.58  594.5 977.5  C 594.5 974.42  596.92 972  600 972  Z " stroke-width="1" stroke="#797979" fill="none" />
  <path d="M 600 980.5  C 598.32 980.5  597 979.18  597 977.5  C 597 975.82  598.32 974.5  600 974.5  C 601.68 974.5  603 975.82  603 977.5  C 603 979.18  601.68 980.5  600 980.5  " fill-rule="nonzero" fill="#797979" stroke="none" />
</svg>