<?xml version="1.0" encoding="utf-8"?>
<svg version="1.1" xmlns:xlink="http://www.w3.org/1999/xlink" width="12px" height="12px" viewBox="711 971.5  12 12" xmlns="http://www.w3.org/2000/svg">
  <path d="M 717 971.5  C 720.36 971.5  723 974.14  723 977.5  C 723 980.86  720.36 983.5  717 983.5  C 713.64 983.5  711 980.86  711 977.5  C 711 974.14  713.64 971.5  717 971.5  Z " fill-rule="nonzero" fill="#f0f0f0" stroke="none" />
  <path d="M 717 972  C 720.08 972  722.5 974.42  722.5 977.5  C 722.5 980.58  720.08 983  717 983  C 713.92 983  711.5 980.58  711.5 977.5  C 711.5 974.42  713.92 972  717 972  Z " stroke-width="1" stroke="#797979" fill="none" />
  <path d="M 717 980.5  C 715.32 980.5  714 979.18  714 977.5  C 714 975.82  715.32 974.5  717 974.5  C 718.68 974.5  720 975.82  720 977.5  C 720 979.18  718.68 980.5  717 980.5  " fill-rule="nonzero" fill="#797979" stroke="none" />
</svg>