<?xml version="1.0" encoding="utf-8"?>
<svg version="1.1" xmlns:xlink="http://www.w3.org/1999/xlink" width="83px" height="83px" xmlns="http://www.w3.org/2000/svg">
  <g transform="matrix(1 0 0 1 -694 -267 )">
    <path d="M 735.5 267  C 758.74 267  777 285.26  777 308.5  C 777 331.74  758.74 350  735.5 350  C 712.26 350  694 331.74  694 308.5  C 694 285.26  712.26 267  735.5 267  Z " fill-rule="nonzero" fill="#ffffff" stroke="none" fill-opacity="0.627450980392157" />
    <path d="M 735.5 267.5  C 758.46 267.5  776.5 285.54  776.5 308.5  C 776.5 331.46  758.46 349.5  735.5 349.5  C 712.54 349.5  694.5 331.46  694.5 308.5  C 694.5 285.54  712.54 267.5  735.5 267.5  Z " stroke-width="1" stroke="#797979" fill="none" />
  </g>
</svg>