<?xml version="1.0" encoding="utf-8"?>
<svg version="1.1" xmlns:xlink="http://www.w3.org/1999/xlink" width="170px" height="170px" xmlns="http://www.w3.org/2000/svg">
  <g transform="matrix(1 0 0 1 -117 -2884 )">
    <path d="M 202 2884  C 249.6 2884  287 2921.4  287 2969  C 287 3016.6  249.6 3054  202 3054  C 154.4 3054  117 3016.6  117 2969  C 117 2921.4  154.4 2884  202 2884  Z " fill-rule="nonzero" fill="#ffffff" stroke="none" />
    <path d="M 202 2884.5  C 249.32 2884.5  286.5 2921.68  286.5 2969  C 286.5 3016.32  249.32 3053.5  202 3053.5  C 154.68 3053.5  117.5 3016.32  117.5 2969  C 117.5 2921.68  154.68 2884.5  202 2884.5  Z " stroke-width="1" stroke="#797979" fill="none" />
  </g>
</svg>