<?xml version="1.0" encoding="utf-8"?>
<svg version="1.1" xmlns:xlink="http://www.w3.org/1999/xlink" width="29px" height="29px" xmlns="http://www.w3.org/2000/svg">
  <defs>
    <filter x="959px" y="1497px" width="29px" height="29px" filterUnits="userSpaceOnUse" id="filter12">
      <feOffset dx="1" dy="1" in="SourceAlpha" result="shadowOffsetInner" />
      <feGaussianBlur stdDeviation="2.5" in="shadowOffsetInner" result="shadowGaussian" />
      <feComposite in2="shadowGaussian" operator="atop" in="SourceAlpha" result="shadowComposite" />
      <feColorMatrix type="matrix" values="0 0 0 0 0  0 0 0 0 0  0 0 0 0 0  0 0 0 0.698039215686274 0  " in="shadowComposite" />
    </filter>
    <g id="widget13">
      <path d="M 972.5 1501  C 977.82 1501  982 1505.18  982 1510.5  C 982 1515.82  977.82 1520  972.5 1520  C 967.18 1520  963 1515.82  963 1510.5  C 963 1505.18  967.18 1501  972.5 1501  Z " fill-rule="nonzero" fill="#009dd9" stroke="none" />
      <path d="M 972.5 1501.5  C 977.54 1501.5  981.5 1505.46  981.5 1510.5  C 981.5 1515.54  977.54 1519.5  972.5 1519.5  C 967.46 1519.5  963.5 1515.54  963.5 1510.5  C 963.5 1505.46  967.46 1501.5  972.5 1501.5  Z " stroke-width="1" stroke="#ffffff" fill="none" />
    </g>
  </defs>
  <g transform="matrix(1 0 0 1 -959 -1497 )">
    <use xlink:href="#widget13" filter="url(#filter12)" />
    <use xlink:href="#widget13" />
  </g>
</svg>