<?xml version="1.0" encoding="utf-8"?>
<svg version="1.1" xmlns:xlink="http://www.w3.org/1999/xlink" width="276px" height="6px" preserveAspectRatio="xMinYMid meet" viewBox="1794 79  276 4" xmlns="http://www.w3.org/2000/svg">
  <g transform="matrix(0.978147600733803 -0.207911690817758 0.20791169081777 0.978147600733798 25.3779884260525 403.455431000471 )">
    <path d="M 1799.9 76.8  L 1796 80.5  L 1799.9 84.2  L 1803.7 80.5  L 1799.9 76.8  Z M 1799.9 82.8  L 1797.4 80.5  L 1799.9 78.2  L 1802.3 80.5  L 1799.9 82.8  Z M 2063.1 84.2  L 2067 80.5  L 2063.1 76.8  L 2059.3 80.5  L 2063.1 84.2  Z M 2063.1 78.2  L 2065.6 80.5  L 2063.1 82.8  L 2060.7 80.5  L 2063.1 78.2  Z " fill-rule="nonzero" fill="#d9001b" stroke="none" transform="matrix(0.977551070465795 0.210698610890479 -0.210698610890479 0.977551070465795 60.3213455719995 -405.157228107456 )" />
    <path d="M 1802 80.5  L 2061 80.5  " stroke-width="1" stroke="#d9001b" fill="none" transform="matrix(0.977551070465795 0.210698610890479 -0.210698610890479 0.977551070465795 60.3213455719995 -405.157228107456 )" />
  </g>
</svg>