<?xml version="1.0" encoding="utf-8"?>
<svg version="1.1" xmlns:xlink="http://www.w3.org/1999/xlink" width="22px" height="22px" preserveAspectRatio="xMinYMid meet" viewBox="1984 901  22 20" xmlns="http://www.w3.org/2000/svg">
  <g transform="matrix(-0.994521895368267 -0.104528463267652 0.104528463267652 -0.994521895368272 3883.84575122286 2025.54373089946 )">
    <path d="M 1029.9 955.8  L 1026 959.5  L 1029.9 963.2  L 1033.7 959.5  L 1029.9 955.8  Z M 1029.9 961.8  L 1027.4 959.5  L 1029.9 957.2  L 1032.3 959.5  L 1029.9 961.8  Z M 1995.1 963.2  L 1999 959.5  L 1995.1 955.8  L 1991.3 959.5  L 1995.1 963.2  Z M 1995.1 957.2  L 1997.6 959.5  L 1995.1 961.8  L 1992.7 959.5  L 1995.1 957.2  Z " fill-rule="nonzero" fill="#d9001b" stroke="none" transform="matrix(0.995088492380555 -0.0989893546387365 0.0989893546387365 0.995088492380555 -87.5516305014576 154.433990451946 )" />
    <path d="M 1032 959.5  L 1993 959.5  " stroke-width="1" stroke="#d9001b" fill="none" transform="matrix(0.995088492380555 -0.0989893546387365 0.0989893546387365 0.995088492380555 -87.5516305014576 154.433990451946 )" />
  </g>
</svg>