<?xml version="1.0" encoding="utf-8"?>
<svg version="1.1" xmlns:xlink="http://www.w3.org/1999/xlink" width="31px" height="31px" xmlns="http://www.w3.org/2000/svg">
  <g transform="matrix(1 0 0 1 -1814 -127 )">
    <path d="M 1829.5 127  C 1838.18 127  1845 133.82  1845 142.5  C 1845 151.18  1838.18 158  1829.5 158  C 1820.82 158  1814 151.18  1814 142.5  C 1814 133.82  1820.82 127  1829.5 127  Z " fill-rule="nonzero" fill="#ffffff" stroke="none" />
    <path d="M 1829.5 127.5  C 1837.9 127.5  1844.5 134.1  1844.5 142.5  C 1844.5 150.9  1837.9 157.5  1829.5 157.5  C 1821.1 157.5  1814.5 150.9  1814.5 142.5  C 1814.5 134.1  1821.1 127.5  1829.5 127.5  Z " stroke-width="1" stroke="#797979" fill="none" />
  </g>
</svg>