<?xml version="1.0" encoding="utf-8"?>
<svg version="1.1" xmlns:xlink="http://www.w3.org/1999/xlink" width="160px" height="90px" xmlns="http://www.w3.org/2000/svg">
  <g transform="matrix(1 0 0 1 -466 -1255 )">
    <path d="M 466 1255  L 626 1255  L 626 1345  L 466 1345  L 466 1255  " fill-rule="nonzero" fill="#cccccc" stroke="none" />
    <path d="M 472 1261  L 620 1261  L 620 1339  L 472 1339  L 472 1261  " fill-rule="nonzero" fill="#ffffff" stroke="none" />
    <path d="M 555.95 1282  C 552.17 1282  549.2 1279.03  549.2 1275.25  C 549.2 1271.47  552.17 1268.5  555.95 1268.5  C 559.73 1268.5  562.7 1271.47  562.7 1275.25  C 562.7 1279.03  559.73 1282  555.95 1282  " fill-rule="nonzero" fill="#cccccc" stroke="none" />
    <path d="M 475 1337  L 475 1296.85  L 510.75 1278.6  L 560.8 1312.3625  L 589.4 1289.55  L 618 1312.3625  L 618 1337  L 475 1337  " fill-rule="nonzero" fill="#169bd5" stroke="none" />
  </g>
</svg>