<?xml version="1.0" encoding="utf-8"?>
<svg version="1.1" xmlns:xlink="http://www.w3.org/1999/xlink" width="16px" height="16px" xmlns="http://www.w3.org/2000/svg">
  <g transform="matrix(1 0 0 1 -469 -1248 )">
    <path d="M 477 1248  C 481.48 1248  485 1251.52  485 1256  C 485 1260.48  481.48 1264  477 1264  C 472.52 1264  469 1260.48  469 1256  C 469 1251.52  472.52 1248  477 1248  Z " fill-rule="nonzero" fill="#ffffff" stroke="none" />
    <path d="M 477 1248.5  C 481.2 1248.5  484.5 1251.8  484.5 1256  C 484.5 1260.2  481.2 1263.5  477 1263.5  C 472.8 1263.5  469.5 1260.2  469.5 1256  C 469.5 1251.8  472.8 1248.5  477 1248.5  Z " stroke-width="1" stroke="#797979" fill="none" />
  </g>
</svg>