<?xml version="1.0" encoding="utf-8"?>
<svg version="1.1" xmlns:xlink="http://www.w3.org/1999/xlink" width="524px" height="19px" xmlns="http://www.w3.org/2000/svg">
  <g transform="matrix(1 0 0 1 -1452 -816 )">
    <path d="M 1464 822.5  A 3 3 0 0 0 1461 825.5 A 3 3 0 0 0 1464 828.5 A 3 3 0 0 0 1467 825.5 A 3 3 0 0 0 1464 822.5 Z M 1964 822.5  A 3 3 0 0 0 1961 825.5 A 3 3 0 0 0 1964 828.5 A 3 3 0 0 0 1967 825.5 A 3 3 0 0 0 1964 822.5 Z " fill-rule="nonzero" fill="#d9001b" stroke="none" />
    <path d="M 1462 825.5  L 1966 825.5  " stroke-width="1" stroke="#d9001b" fill="none" />
  </g>
</svg>