<?xml version="1.0" encoding="utf-8"?>
<svg version="1.1" xmlns:xlink="http://www.w3.org/1999/xlink" width="956px" height="19px" xmlns="http://www.w3.org/2000/svg">
  <g transform="matrix(1 0 0 1 -1071 -1179 )">
    <path d="M 1083 1185.5  A 3 3 0 0 0 1080 1188.5 A 3 3 0 0 0 1083 1191.5 A 3 3 0 0 0 1086 1188.5 A 3 3 0 0 0 1083 1185.5 Z M 2015 1185.5  A 3 3 0 0 0 2012 1188.5 A 3 3 0 0 0 2015 1191.5 A 3 3 0 0 0 2018 1188.5 A 3 3 0 0 0 2015 1185.5 Z " fill-rule="nonzero" fill="#d9001b" stroke="none" />
    <path d="M 1081 1188.5  L 2017 1188.5  " stroke-width="1" stroke="#d9001b" fill="none" />
  </g>
</svg>