<?xml version="1.0" encoding="utf-8"?>
<svg version="1.1" xmlns:xlink="http://www.w3.org/1999/xlink" width="995px" height="19px" xmlns="http://www.w3.org/2000/svg">
  <g transform="matrix(1 0 0 1 -1036 -1330 )">
    <path d="M 1048 1336.5  A 3 3 0 0 0 1045 1339.5 A 3 3 0 0 0 1048 1342.5 A 3 3 0 0 0 1051 1339.5 A 3 3 0 0 0 1048 1336.5 Z M 2019 1336.5  A 3 3 0 0 0 2016 1339.5 A 3 3 0 0 0 2019 1342.5 A 3 3 0 0 0 2022 1339.5 A 3 3 0 0 0 2019 1336.5 Z " fill-rule="nonzero" fill="#d9001b" stroke="none" />
    <path d="M 1046 1339.5  L 2021 1339.5  " stroke-width="1" stroke="#d9001b" fill="none" />
  </g>
</svg>