<?xml version="1.0" encoding="utf-8"?>
<svg version="1.1" xmlns:xlink="http://www.w3.org/1999/xlink" width="12px" height="12px" viewBox="2177 1470.5  12 12" xmlns="http://www.w3.org/2000/svg">
  <path d="M 2183 1470.5  C 2186.36 1470.5  2189 1473.14  2189 1476.5  C 2189 1479.86  2186.36 1482.5  2183 1482.5  C 2179.64 1482.5  2177 1479.86  2177 1476.5  C 2177 1473.14  2179.64 1470.5  2183 1470.5  Z " fill-rule="nonzero" fill="#ffffff" stroke="none" />
  <path d="M 2183 1471  C 2186.08 1471  2188.5 1473.42  2188.5 1476.5  C 2188.5 1479.58  2186.08 1482  2183 1482  C 2179.92 1482  2177.5 1479.58  2177.5 1476.5  C 2177.5 1473.42  2179.92 1471  2183 1471  Z " stroke-width="1" stroke="#797979" fill="none" />
  <path d="M 2183 1479.5  C 2181.32 1479.5  2180 1478.18  2180 1476.5  C 2180 1474.82  2181.32 1473.5  2183 1473.5  C 2184.68 1473.5  2186 1474.82  2186 1476.5  C 2186 1478.18  2184.68 1479.5  2183 1479.5  " fill-rule="nonzero" fill="#797979" stroke="none" />
</svg>