<?xml version="1.0" encoding="utf-8"?>
<svg version="1.1" xmlns:xlink="http://www.w3.org/1999/xlink" width="12px" height="12px" viewBox="500 302.5  12 12" xmlns="http://www.w3.org/2000/svg">
  <path d="M 506 302.5  C 509.36 302.5  512 305.14  512 308.5  C 512 311.86  509.36 314.5  506 314.5  C 502.64 314.5  500 311.86  500 308.5  C 500 305.14  502.64 302.5  506 302.5  Z " fill-rule="nonzero" fill="#ffffff" stroke="none" />
  <path d="M 506 303  C 509.08 303  511.5 305.42  511.5 308.5  C 511.5 311.58  509.08 314  506 314  C 502.92 314  500.5 311.58  500.5 308.5  C 500.5 305.42  502.92 303  506 303  Z " stroke-width="1" stroke="#797979" fill="none" />
  <path d="M 506 311.5  C 504.32 311.5  503 310.18  503 308.5  C 503 306.82  504.32 305.5  506 305.5  C 507.68 305.5  509 306.82  509 308.5  C 509 310.18  507.68 311.5  506 311.5  " fill-rule="nonzero" fill="#797979" stroke="none" />
</svg>