<?xml version="1.0" encoding="utf-8"?>
<svg version="1.1" xmlns:xlink="http://www.w3.org/1999/xlink" width="24px" height="20px" preserveAspectRatio="xMinYMid meet" viewBox="1204 1475  24 18" xmlns="http://www.w3.org/2000/svg">
  <g transform="matrix(0.999390827019097 0.0348994967024982 -0.0348994967025077 0.99939082701909 52.5316074512989 -41.5337752865669 )">
    <path d="M 1218 1478  L 1218 1473  L 1213 1473  L 1213 1478  L 1218 1478  Z M 1217 1477  L 1214 1477  L 1214 1474  L 1217 1474  L 1217 1477  Z M 1858 1473  L 1858 1478  L 1863 1478  L 1863 1473  L 1858 1473  Z M 1859 1474  L 1862 1474  L 1862 1477  L 1859 1477  L 1859 1474  Z " fill-rule="nonzero" fill="#d9001b" stroke="none" transform="matrix(0.999655248397695 -0.0262561297784592 0.0262561297784592 0.999655248397695 -38.2106915237709 40.8906085884717 )" />
    <path d="M 1218 1475.5  L 1858 1475.5  " stroke-width="1" stroke="#d9001b" fill="none" transform="matrix(0.999655248397695 -0.0262561297784592 0.0262561297784592 0.999655248397695 -38.2106915237709 40.8906085884717 )" />
  </g>
</svg>