<?xml version="1.0" encoding="utf-8"?>
<svg version="1.1" xmlns:xlink="http://www.w3.org/1999/xlink" width="24px" height="20px" preserveAspectRatio="xMinYMid meet" viewBox="1220 2893  24 18" xmlns="http://www.w3.org/2000/svg">
  <g transform="matrix(0.999390827019098 0.0348994967025077 -0.0348994967024963 0.99939082701909 102.028840543116 -41.2283599468888 )">
    <path d="M 1234 2896  L 1234 2891  L 1229 2891  L 1229 2896  L 1234 2896  Z M 1233 2895  L 1230 2895  L 1230 2892  L 1233 2892  L 1233 2895  Z M 1874 2891  L 1874 2896  L 1879 2896  L 1879 2891  L 1874 2891  Z M 1875 2892  L 1878 2892  L 1878 2895  L 1875 2895  L 1875 2892  Z " fill-rule="nonzero" fill="#d9001b" stroke="none" transform="matrix(0.999655248397695 -0.0262561297784592 0.0262561297784592 0.999655248397695 -75.4363675239892 41.7995644369958 )" />
    <path d="M 1234 2893.5  L 1874 2893.5  " stroke-width="1" stroke="#d9001b" fill="none" transform="matrix(0.999655248397695 -0.0262561297784592 0.0262561297784592 0.999655248397695 -75.4363675239892 41.7995644369958 )" />
  </g>
</svg>