<?xml version="1.0" encoding="utf-8"?>
<svg version="1.1" xmlns:xlink="http://www.w3.org/1999/xlink" width="24px" height="22px" preserveAspectRatio="xMinYMid meet" viewBox="1890 29  24 20" xmlns="http://www.w3.org/2000/svg">
  <g transform="matrix(-0.999390827019088 -0.034899496702501 0.0348994967025024 -0.999390827019096 3801.48027261891 144.355084981902 )">
    <path d="M 1260 50  L 1260 45  L 1255 45  L 1255 50  L 1260 50  Z M 1259 49  L 1256 49  L 1256 46  L 1259 46  L 1259 49  Z M 1900 45  L 1900 50  L 1905 50  L 1905 45  L 1900 45  Z M 1901 46  L 1904 46  L 1904 49  L 1901 49  L 1901 46  Z " fill-rule="nonzero" fill="#d9001b" stroke="none" transform="matrix(0.999655248397695 -0.0262561297784592 0.0262561297784592 0.999655248397695 -0.70245863283435 41.501060751075 )" />
    <path d="M 1260 47.5  L 1900 47.5  " stroke-width="1" stroke="#d9001b" fill="none" transform="matrix(0.999655248397695 -0.0262561297784592 0.0262561297784592 0.999655248397695 -0.70245863283435 41.501060751075 )" />
  </g>
</svg>