<?xml version="1.0" encoding="utf-8"?>
<svg version="1.1" xmlns:xlink="http://www.w3.org/1999/xlink" width="386px" height="6px" preserveAspectRatio="xMinYMid meet" viewBox="1540 703  386 4" xmlns="http://www.w3.org/2000/svg">
  <g transform="matrix(0.998629534754575 0.0523359562429442 -0.052335956242928 0.998629534754578 39.2718654215862 -89.7320341709998 )">
    <path d="M 1547 707  L 1547 702  L 1542 702  L 1542 707  L 1547 707  Z M 1546 706  L 1543 706  L 1543 703  L 1546 703  L 1546 706  Z M 1918 702  L 1918 707  L 1923 707  L 1923 702  L 1918 702  Z M 1919 703  L 1922 703  L 1922 706  L 1919 706  L 1919 703  Z " fill-rule="nonzero" fill="#d9001b" stroke="none" transform="matrix(0.998532890719902 -0.0541485563109169 0.0541485563109169 0.998532890719902 -35.6058910932709 94.8459522964927 )" />
    <path d="M 1547 704.5  L 1918 704.5  " stroke-width="1" stroke="#d9001b" fill="none" transform="matrix(0.998532890719902 -0.0541485563109169 0.0541485563109169 0.998532890719902 -35.6058910932709 94.8459522964927 )" />
  </g>
</svg>