<?xml version="1.0" encoding="utf-8"?>
<svg version="1.1" xmlns:xlink="http://www.w3.org/1999/xlink" width="1418px" height="14px" preserveAspectRatio="xMinYMid meet" viewBox="528 2471  1418 12" xmlns="http://www.w3.org/2000/svg">
  <g transform="matrix(0.999847695156391 0.0174524064372837 -0.0174524064372823 0.999847695156411 43.4180118366924 -21.2113676653489 )">
    <path d="M 540 2479  L 540 2474  L 535 2474  L 535 2479  L 540 2479  Z M 539 2478  L 536 2478  L 536 2475  L 539 2475  L 539 2478  Z M 1935 2474  L 1935 2479  L 1940 2479  L 1940 2474  L 1935 2474  Z M 1936 2475  L 1939 2475  L 1939 2478  L 1936 2478  L 1936 2475  Z " fill-rule="nonzero" fill="#d9001b" stroke="none" transform="matrix(0.999898459240196 -0.0142503055785528 0.0142503055785528 0.999898459240196 -35.1652250750285 17.8862188451135 )" />
    <path d="M 540 2476.5  L 1935 2476.5  " stroke-width="1" stroke="#d9001b" fill="none" transform="matrix(0.999898459240196 -0.0142503055785528 0.0142503055785528 0.999898459240196 -35.1652250750285 17.8862188451135 )" />
  </g>
</svg>