<?xml version="1.0" encoding="utf-8"?>
<svg version="1.1" xmlns:xlink="http://www.w3.org/1999/xlink" width="22px" height="22px" preserveAspectRatio="xMinYMid meet" viewBox="1880 2001  22 20" xmlns="http://www.w3.org/2000/svg">
  <g transform="matrix(-0.999847695156399 -0.0174524064372838 0.0174524064372838 -0.999847695156399 3746.61520219537 4054.69621553242 )">
    <path d="M 494 2023  L 494 2018  L 489 2018  L 489 2023  L 494 2023  Z M 493 2022  L 490 2022  L 490 2019  L 493 2019  L 493 2022  Z M 1889 2018  L 1889 2023  L 1894 2023  L 1894 2018  L 1889 2018  Z M 1890 2019  L 1893 2019  L 1893 2022  L 1890 2022  L 1890 2019  Z " fill-rule="nonzero" fill="#d9001b" stroke="none" transform="matrix(0.999898459240196 -0.0142503055785528 0.0142503055785528 0.999898459240196 -28.6717566061593 17.1844022020298 )" />
    <path d="M 494 2020.5  L 1889 2020.5  " stroke-width="1" stroke="#d9001b" fill="none" transform="matrix(0.999898459240196 -0.0142503055785528 0.0142503055785528 0.999898459240196 -28.6717566061593 17.1844022020298 )" />
  </g>
</svg>