<?xml version="1.0" encoding="utf-8"?>
<svg version="1.1" xmlns:xlink="http://www.w3.org/1999/xlink" width="728px" height="14px" preserveAspectRatio="xMinYMid meet" viewBox="1214 1195  728 12" xmlns="http://www.w3.org/2000/svg">
  <g transform="matrix(0.997564050259824 -0.0697564737441255 0.0697564737441292 0.997564050259823 -79.9335962767016 113.001291206182 )">
    <path d="M 1226 1203  L 1226 1198  L 1221 1198  L 1221 1203  L 1226 1203  Z M 1225 1202  L 1222 1202  L 1222 1199  L 1225 1199  L 1225 1202  Z M 1930 1198  L 1930 1203  L 1935 1203  L 1935 1198  L 1930 1198  Z M 1931 1199  L 1934 1199  L 1934 1202  L 1931 1202  L 1931 1199  Z " fill-rule="nonzero" fill="#d9001b" stroke="none" transform="matrix(0.997979028780776 0.0635441430328449 -0.0635441430328449 0.997979028780776 79.4738362948656 -97.846481757151 )" />
    <path d="M 1226 1200.5  L 1930 1200.5  " stroke-width="1" stroke="#d9001b" fill="none" transform="matrix(0.997979028780776 0.0635441430328449 -0.0635441430328449 0.997979028780776 79.4738362948656 -97.846481757151 )" />
  </g>
</svg>