<?xml version="1.0" encoding="utf-8"?>
<svg version="1.1" xmlns:xlink="http://www.w3.org/1999/xlink" width="12px" height="12px" viewBox="770 683.5  12 12" xmlns="http://www.w3.org/2000/svg">
  <path d="M 776 683.5  C 779.36 683.5  782 686.14  782 689.5  C 782 692.86  779.36 695.5  776 695.5  C 772.64 695.5  770 692.86  770 689.5  C 770 686.14  772.64 683.5  776 683.5  Z " fill-rule="nonzero" fill="#f0f0f0" stroke="none" />
  <path d="M 776 684  C 779.08 684  781.5 686.42  781.5 689.5  C 781.5 692.58  779.08 695  776 695  C 772.92 695  770.5 692.58  770.5 689.5  C 770.5 686.42  772.92 684  776 684  Z " stroke-width="1" stroke="#797979" fill="none" />
  <path d="M 776 692.5  C 774.32 692.5  773 691.18  773 689.5  C 773 687.82  774.32 686.5  776 686.5  C 777.68 686.5  779 687.82  779 689.5  C 779 691.18  777.68 692.5  776 692.5  " fill-rule="nonzero" fill="#797979" stroke="none" />
</svg>