<?xml version="1.0" encoding="utf-8"?>
<svg version="1.1" xmlns:xlink="http://www.w3.org/1999/xlink" width="12px" height="12px" viewBox="614 812.5  12 12" xmlns="http://www.w3.org/2000/svg">
  <path d="M 620 812.5  C 623.36 812.5  626 815.14  626 818.5  C 626 821.86  623.36 824.5  620 824.5  C 616.64 824.5  614 821.86  614 818.5  C 614 815.14  616.64 812.5  620 812.5  Z " fill-rule="nonzero" fill="#f0f0f0" stroke="none" />
  <path d="M 620 813  C 623.08 813  625.5 815.42  625.5 818.5  C 625.5 821.58  623.08 824  620 824  C 616.92 824  614.5 821.58  614.5 818.5  C 614.5 815.42  616.92 813  620 813  Z " stroke-width="1" stroke="#797979" fill="none" />
  <path d="M 620 821.5  C 618.32 821.5  617 820.18  617 818.5  C 617 816.82  618.32 815.5  620 815.5  C 621.68 815.5  623 816.82  623 818.5  C 623 820.18  621.68 821.5  620 821.5  " fill-rule="nonzero" fill="#797979" stroke="none" />
</svg>