<?xml version="1.0" encoding="utf-8"?>
<svg version="1.1" xmlns:xlink="http://www.w3.org/1999/xlink" width="12px" height="12px" viewBox="370 280.5  12 12" xmlns="http://www.w3.org/2000/svg">
  <path d="M 376 280.5  C 379.36 280.5  382 283.14  382 286.5  C 382 289.86  379.36 292.5  376 292.5  C 372.64 292.5  370 289.86  370 286.5  C 370 283.14  372.64 280.5  376 280.5  Z " fill-rule="nonzero" fill="#ffffff" stroke="none" />
  <path d="M 376 281  C 379.08 281  381.5 283.42  381.5 286.5  C 381.5 289.58  379.08 292  376 292  C 372.92 292  370.5 289.58  370.5 286.5  C 370.5 283.42  372.92 281  376 281  Z " stroke-width="1" stroke="#797979" fill="none" />
  <path d="M 376 289.5  C 374.32 289.5  373 288.18  373 286.5  C 373 284.82  374.32 283.5  376 283.5  C 377.68 283.5  379 284.82  379 286.5  C 379 288.18  377.68 289.5  376 289.5  " fill-rule="nonzero" fill="#797979" stroke="none" />
</svg>