<?xml version="1.0" encoding="utf-8"?>
<svg version="1.1" xmlns:xlink="http://www.w3.org/1999/xlink" width="22px" height="20px" preserveAspectRatio="xMinYMid meet" viewBox="1808 307  22 18" xmlns="http://www.w3.org/2000/svg">
  <g transform="matrix(0.927183854566789 -0.374606593415915 0.374606593415913 0.927183854566791 14.0768850235825 704.419295380443 )">
    <path d="M 1813.9 348.8  L 1810 352.5  L 1813.9 356.2  L 1817.7 352.5  L 1813.9 348.8  Z M 1813.9 354.8  L 1811.4 352.5  L 1813.9 350.2  L 1816.3 352.5  L 1813.9 354.8  Z M 2004.1 356.2  L 2008 352.5  L 2004.1 348.8  L 2000.3 352.5  L 2004.1 356.2  Z M 2004.1 350.2  L 2006.6 352.5  L 2004.1 354.8  L 2001.7 352.5  L 2004.1 350.2  Z " fill-rule="nonzero" fill="#d9001b" stroke="none" transform="matrix(0.927374327424881 0.374134811041756 -0.374134811041756 0.927374327424881 270.524929838122 -688.622804695983 )" />
    <path d="M 1816 352.5  L 2002 352.5  " stroke-width="1" stroke="#d9001b" fill="none" transform="matrix(0.927374327424881 0.374134811041756 -0.374134811041756 0.927374327424881 270.524929838122 -688.622804695983 )" />
  </g>
</svg>