<?xml version="1.0" encoding="utf-8"?>
<svg version="1.1" xmlns:xlink="http://www.w3.org/1999/xlink" width="236px" height="6px" preserveAspectRatio="xMinYMid meet" viewBox="1830 425  236 4" xmlns="http://www.w3.org/2000/svg">
  <g transform="matrix(0.224951054343896 -0.974370064785239 0.974370064785228 0.224951054343866 1093.7393284748 2229.01878599681 )">
    <path d="M 1835.9 422.8  L 1832 426.5  L 1835.9 430.2  L 1839.7 426.5  L 1835.9 422.8  Z M 1835.9 428.8  L 1833.4 426.5  L 1835.9 424.2  L 1838.3 426.5  L 1835.9 428.8  Z M 2060.1 430.2  L 2064 426.5  L 2060.1 422.8  L 2056.3 426.5  L 2060.1 430.2  Z M 2060.1 424.2  L 2062.6 426.5  L 2060.1 428.8  L 2057.7 426.5  L 2060.1 424.2  Z " fill-rule="nonzero" fill="#d9001b" stroke="none" transform="matrix(0.229045213817543 0.973415784763775 -0.973415784763775 0.229045213817543 1916.98175568518 -1567.40173241302 )" />
    <path d="M 1838 426.5  L 2058 426.5  " stroke-width="1" stroke="#d9001b" fill="none" transform="matrix(0.229045213817543 0.973415784763775 -0.973415784763775 0.229045213817543 1916.98175568518 -1567.40173241302 )" />
  </g>
</svg>