<?xml version="1.0" encoding="utf-8"?>
<svg version="1.1" xmlns:xlink="http://www.w3.org/1999/xlink" width="218px" height="6px" preserveAspectRatio="xMinYMid meet" viewBox="1822 391  218 4" xmlns="http://www.w3.org/2000/svg">
  <g transform="matrix(0.656059028990513 -0.754709580222773 0.754709580222767 0.656059028990508 367.549149991772 1592.51300101691 )">
    <path d="M 1827.9 389.8  L 1824 393.5  L 1827.9 397.2  L 1831.7 393.5  L 1827.9 389.8  Z M 1827.9 395.8  L 1825.4 393.5  L 1827.9 391.2  L 1830.3 393.5  L 1827.9 395.8  Z M 2034.1 397.2  L 2038 393.5  L 2034.1 389.8  L 2030.3 393.5  L 2034.1 397.2  Z M 2034.1 391.2  L 2036.6 393.5  L 2034.1 395.8  L 2031.7 393.5  L 2034.1 391.2  Z " fill-rule="nonzero" fill="#d9001b" stroke="none" transform="matrix(0.655048788049992 0.755586583572152 -0.755586583572152 0.655048788049992 963.424110911108 -1323.2993909755 )" />
    <path d="M 1830 393.5  L 2032 393.5  " stroke-width="1" stroke="#d9001b" fill="none" transform="matrix(0.655048788049992 0.755586583572152 -0.755586583572152 0.655048788049992 963.424110911108 -1323.2993909755 )" />
  </g>
</svg>