<?xml version="1.0" encoding="utf-8"?>
<svg version="1.1" xmlns:xlink="http://www.w3.org/1999/xlink" width="597px" height="19px" xmlns="http://www.w3.org/2000/svg">
  <g transform="matrix(1 0 0 1 -1449 -1060 )">
    <path d="M 1461 1066.5  A 3 3 0 0 0 1458 1069.5 A 3 3 0 0 0 1461 1072.5 A 3 3 0 0 0 1464 1069.5 A 3 3 0 0 0 1461 1066.5 Z M 2034 1066.5  A 3 3 0 0 0 2031 1069.5 A 3 3 0 0 0 2034 1072.5 A 3 3 0 0 0 2037 1069.5 A 3 3 0 0 0 2034 1066.5 Z " fill-rule="nonzero" fill="#d9001b" stroke="none" />
    <path d="M 1459 1069.5  L 2036 1069.5  " stroke-width="1" stroke="#d9001b" fill="none" />
  </g>
</svg>