<?xml version="1.0" encoding="utf-8"?>
<svg version="1.1" xmlns:xlink="http://www.w3.org/1999/xlink" width="12px" height="12px" viewBox="591 312.5  12 12" xmlns="http://www.w3.org/2000/svg">
  <path d="M 597 312.5  C 600.36 312.5  603 315.14  603 318.5  C 603 321.86  600.36 324.5  597 324.5  C 593.64 324.5  591 321.86  591 318.5  C 591 315.14  593.64 312.5  597 312.5  Z " fill-rule="nonzero" fill="#f0f0f0" stroke="none" />
  <path d="M 597 313  C 600.08 313  602.5 315.42  602.5 318.5  C 602.5 321.58  600.08 324  597 324  C 593.92 324  591.5 321.58  591.5 318.5  C 591.5 315.42  593.92 313  597 313  Z " stroke-width="1" stroke="#797979" fill="none" />
  <path d="M 597 321.5  C 595.32 321.5  594 320.18  594 318.5  C 594 316.82  595.32 315.5  597 315.5  C 598.68 315.5  600 316.82  600 318.5  C 600 320.18  598.68 321.5  597 321.5  " fill-rule="nonzero" fill="#797979" stroke="none" />
</svg>