<?xml version="1.0" encoding="utf-8"?>
<svg version="1.1" xmlns:xlink="http://www.w3.org/1999/xlink" width="22px" height="22px" preserveAspectRatio="xMinYMid meet" viewBox="2114 565  22 20" xmlns="http://www.w3.org/2000/svg">
  <g transform="matrix(-0.999390827019104 0.0348994967025031 -0.0348994967025031 -0.999390827019099 4268.77271801954 1075.48829504316 )">
    <path d="M 1309.9 553.8  L 1306 557.5  L 1309.9 561.2  L 1313.7 557.5  L 1309.9 553.8  Z M 1309.9 559.8  L 1307.4 557.5  L 1309.9 555.2  L 1312.3 557.5  L 1309.9 559.8  Z M 2123.1 561.2  L 2127 557.5  L 2123.1 553.8  L 2119.3 557.5  L 2123.1 561.2  Z M 2123.1 555.2  L 2125.6 557.5  L 2123.1 559.8  L 2120.7 557.5  L 2123.1 555.2  Z " fill-rule="nonzero" fill="#d9001b" stroke="none" transform="matrix(0.999139404391916 0.0414783147122407 -0.0414783147122407 0.999139404391916 24.6013728133507 -70.7177451520542 )" />
    <path d="M 1312 557.5  L 2121 557.5  " stroke-width="1" stroke="#d9001b" fill="none" transform="matrix(0.999139404391916 0.0414783147122407 -0.0414783147122407 0.999139404391916 24.6013728133507 -70.7177451520542 )" />
  </g>
</svg>