<?xml version="1.0" encoding="utf-8"?>
<svg version="1.1" xmlns:xlink="http://www.w3.org/1999/xlink" width="22px" height="22px" preserveAspectRatio="xMinYMid meet" viewBox="2034 973  22 20" xmlns="http://www.w3.org/2000/svg">
  <g transform="matrix(-0.999847695156389 0.0174524064372834 -0.0174524064372731 -0.999847695156389 4106.84425212265 1930.16011317449 )">
    <path d="M 835.9 963.8  L 832 967.5  L 835.9 971.2  L 839.7 967.5  L 835.9 963.8  Z M 835.9 969.8  L 833.4 967.5  L 835.9 965.2  L 838.3 967.5  L 835.9 969.8  Z M 2043.1 971.2  L 2047 967.5  L 2043.1 963.8  L 2039.3 967.5  L 2043.1 971.2  Z M 2043.1 965.2  L 2045.6 967.5  L 2043.1 969.8  L 2040.7 967.5  L 2043.1 965.2  Z " fill-rule="nonzero" fill="#d9001b" stroke="none" transform="matrix(0.999695205174264 0.0246879880019809 -0.0246879880019809 0.999695205174264 24.3243805435632 -35.243469734952 )" />
    <path d="M 838 967.5  L 2041 967.5  " stroke-width="1" stroke="#d9001b" fill="none" transform="matrix(0.999695205174264 0.0246879880019809 -0.0246879880019809 0.999695205174264 24.3243805435632 -35.243469734952 )" />
  </g>
</svg>