<?xml version="1.0" encoding="utf-8"?>
<svg version="1.1" xmlns:xlink="http://www.w3.org/1999/xlink" width="442px" height="6px" preserveAspectRatio="xMinYMid meet" viewBox="1582 691  442 4" xmlns="http://www.w3.org/2000/svg">
  <g transform="matrix(0.998629534754575 0.0523359562429439 -0.052335956242928 0.998629534754578 38.7397665138503 -93.4119966909504 )">
    <path d="M 1590 696  L 1590 691  L 1585 691  L 1585 696  L 1590 696  Z M 1589 695  L 1586 695  L 1586 692  L 1589 692  L 1589 695  Z M 2017 691  L 2017 696  L 2022 696  L 2022 691  L 2017 691  Z M 2018 692  L 2021 692  L 2021 695  L 2018 695  L 2018 692  Z " fill-rule="nonzero" fill="#d9001b" stroke="none" transform="matrix(0.998605117141103 -0.0527998107913687 0.0527998107913687 0.998605117141103 -34.1009975477932 96.1918100248786 )" />
    <path d="M 1590 693.5  L 2017 693.5  " stroke-width="1" stroke="#d9001b" fill="none" transform="matrix(0.998605117141103 -0.0527998107913687 0.0527998107913687 0.998605117141103 -34.1009975477932 96.1918100248786 )" />
  </g>
</svg>