<?xml version="1.0" encoding="utf-8"?>
<svg version="1.1" xmlns:xlink="http://www.w3.org/1999/xlink" width="22px" height="22px" preserveAspectRatio="xMinYMid meet" viewBox="1486 2099  22 20" xmlns="http://www.w3.org/2000/svg">
  <g transform="matrix(0.156434465040237 0.987688340595136 -0.987688340595136 0.156434465040237 3345.85231614991 300.510267359222 )">
    <path d="M 1334.9 1912.8  L 1331 1916.5  L 1334.9 1920.2  L 1338.7 1916.5  L 1334.9 1912.8  Z M 1334.9 1918.8  L 1332.4 1916.5  L 1334.9 1914.2  L 1337.3 1916.5  L 1334.9 1918.8  Z M 1719.1 1920.2  L 1723 1916.5  L 1719.1 1912.8  L 1715.3 1916.5  L 1719.1 1920.2  Z M 1719.1 1914.2  L 1721.6 1916.5  L 1719.1 1918.8  L 1716.7 1916.5  L 1719.1 1914.2  Z " fill-rule="nonzero" fill="#d9001b" stroke="none" transform="matrix(-0.152724581550953 0.988268790456365 -0.988268790456365 -0.152724581550953 3654.22757293793 700.110217515532 )" />
    <path d="M 1337 1916.5  L 1717 1916.5  " stroke-width="1" stroke="#d9001b" fill="none" transform="matrix(-0.152724581550953 0.988268790456365 -0.988268790456365 -0.152724581550953 3654.22757293793 700.110217515532 )" />
  </g>
</svg>