<?xml version="1.0" encoding="utf-8"?>
<svg version="1.1" xmlns:xlink="http://www.w3.org/1999/xlink" width="122px" height="110px" xmlns="http://www.w3.org/2000/svg">
  <g transform="matrix(1 0 0 1 -398 -1083 )">
    <path d="M 398 1083  L 520 1083  L 520 1193  L 398 1193  L 398 1083  " fill-rule="nonzero" fill="#cccccc" stroke="none" />
    <path d="M 406 1091  L 512 1091  L 512 1185  L 406 1185  L 406 1091  " fill-rule="nonzero" fill="#ffffff" stroke="none" />
    <path d="M 469.69 1116  C 465.07 1116  461.44 1112.37  461.44 1107.75  C 461.44 1103.13  465.07 1099.5  469.69 1099.5  C 474.31 1099.5  477.94 1103.13  477.94 1107.75  C 477.94 1112.37  474.31 1116  469.69 1116  " fill-rule="nonzero" fill="#cccccc" stroke="none" />
    <path d="M 409 1182  L 409 1133.6  L 434 1111.6  L 469 1134.39344262295  L 489 1124.8  L 509 1134.39344262295  L 509 1182  L 409 1182  " fill-rule="nonzero" fill="#169bd5" stroke="none" />
  </g>
</svg>