<?xml version="1.0" encoding="utf-8"?>
<svg version="1.1" xmlns:xlink="http://www.w3.org/1999/xlink" width="25px" height="20px" xmlns="http://www.w3.org/2000/svg">
  <g transform="matrix(1 0 0 1 -490 -1087 )">
    <path d="M 502.5 1087  C 509.5 1087  515 1091.4  515 1097  C 515 1102.6  509.5 1107  502.5 1107  C 495.5 1107  490 1102.6  490 1097  C 490 1091.4  495.5 1087  502.5 1087  Z " fill-rule="nonzero" fill="#ffffff" stroke="none" />
    <path d="M 502.5 1087.5  C 509.22 1087.5  514.5 1091.68  514.5 1097  C 514.5 1102.32  509.22 1106.5  502.5 1106.5  C 495.78 1106.5  490.5 1102.32  490.5 1097  C 490.5 1091.68  495.78 1087.5  502.5 1087.5  Z " stroke-width="1" stroke="#797979" fill="none" />
  </g>
</svg>