<?xml version="1.0" encoding="utf-8"?>
<svg version="1.1" xmlns:xlink="http://www.w3.org/1999/xlink" width="1245px" height="19px" xmlns="http://www.w3.org/2000/svg">
  <g transform="matrix(1 0 0 1 -737 -524 )">
    <path d="M 749 530.5  A 3 3 0 0 0 746 533.5 A 3 3 0 0 0 749 536.5 A 3 3 0 0 0 752 533.5 A 3 3 0 0 0 749 530.5 Z M 1970 530.5  A 3 3 0 0 0 1967 533.5 A 3 3 0 0 0 1970 536.5 A 3 3 0 0 0 1973 533.5 A 3 3 0 0 0 1970 530.5 Z " fill-rule="nonzero" fill="#d9001b" stroke="none" />
    <path d="M 747 533.5  L 1972 533.5  " stroke-width="1" stroke="#d9001b" fill="none" />
  </g>
</svg>