<?xml version="1.0" encoding="utf-8"?>
<svg version="1.1" xmlns:xlink="http://www.w3.org/1999/xlink" width="12px" height="12px" viewBox="692 490.5  12 12" xmlns="http://www.w3.org/2000/svg">
  <path d="M 698 490.5  C 701.36 490.5  704 493.14  704 496.5  C 704 499.86  701.36 502.5  698 502.5  C 694.64 502.5  692 499.86  692 496.5  C 692 493.14  694.64 490.5  698 490.5  Z " fill-rule="nonzero" fill="#f0f0f0" stroke="none" />
  <path d="M 698 491  C 701.08 491  703.5 493.42  703.5 496.5  C 703.5 499.58  701.08 502  698 502  C 694.92 502  692.5 499.58  692.5 496.5  C 692.5 493.42  694.92 491  698 491  Z " stroke-width="1" stroke="#797979" fill="none" />
  <path d="M 698 499.5  C 696.32 499.5  695 498.18  695 496.5  C 695 494.82  696.32 493.5  698 493.5  C 699.68 493.5  701 494.82  701 496.5  C 701 498.18  699.68 499.5  698 499.5  " fill-rule="nonzero" fill="#797979" stroke="none" />
</svg>