<?xml version="1.0" encoding="utf-8"?>
<svg version="1.1" xmlns:xlink="http://www.w3.org/1999/xlink" width="24px" height="22px" preserveAspectRatio="xMinYMid meet" viewBox="1802 687  24 20" xmlns="http://www.w3.org/2000/svg">
  <g transform="matrix(-0.999390827019097 -0.0348994967025033 0.0348994967025028 -0.999390827019099 3602.570011011 1456.88309345065 )">
    <path d="M 1172 708  L 1172 703  L 1167 703  L 1167 708  L 1172 708  Z M 1171 707  L 1168 707  L 1168 704  L 1171 704  L 1171 707  Z M 1812 703  L 1812 708  L 1817 708  L 1817 703  L 1812 703  Z M 1813 704  L 1816 704  L 1816 707  L 1813 707  L 1813 704  Z " fill-rule="nonzero" fill="#d9001b" stroke="none" transform="matrix(0.999655248397695 -0.0262561297784592 0.0262561297784592 0.999655248397695 -18.0093301680633 39.4173678848875 )" />
    <path d="M 1172 705.5  L 1812 705.5  " stroke-width="1" stroke="#d9001b" fill="none" transform="matrix(0.999655248397695 -0.0262561297784592 0.0262561297784592 0.999655248397695 -18.0093301680633 39.4173678848875 )" />
  </g>
</svg>