<?xml version="1.0" encoding="utf-8"?>
<svg version="1.1" xmlns:xlink="http://www.w3.org/1999/xlink" width="12px" height="12px" viewBox="2094 655.5  12 12" xmlns="http://www.w3.org/2000/svg">
  <path d="M 2100 655.5  C 2103.36 655.5  2106 658.14  2106 661.5  C 2106 664.86  2103.36 667.5  2100 667.5  C 2096.64 667.5  2094 664.86  2094 661.5  C 2094 658.14  2096.64 655.5  2100 655.5  Z " fill-rule="nonzero" fill="#f0f0f0" stroke="none" />
  <path d="M 2100 656  C 2103.08 656  2105.5 658.42  2105.5 661.5  C 2105.5 664.58  2103.08 667  2100 667  C 2096.92 667  2094.5 664.58  2094.5 661.5  C 2094.5 658.42  2096.92 656  2100 656  Z " stroke-width="1" stroke="#797979" fill="none" />
  <path d="M 2100 664.5  C 2098.32 664.5  2097 663.18  2097 661.5  C 2097 659.82  2098.32 658.5  2100 658.5  C 2101.68 658.5  2103 659.82  2103 661.5  C 2103 663.18  2101.68 664.5  2100 664.5  " fill-rule="nonzero" fill="#797979" stroke="none" />
</svg>