<?xml version="1.0" encoding="utf-8"?>
<svg version="1.1" xmlns:xlink="http://www.w3.org/1999/xlink" width="12px" height="12px" viewBox="2102 381.5  12 12" xmlns="http://www.w3.org/2000/svg">
  <path d="M 2108 381.5  C 2111.36 381.5  2114 384.14  2114 387.5  C 2114 390.86  2111.36 393.5  2108 393.5  C 2104.64 393.5  2102 390.86  2102 387.5  C 2102 384.14  2104.64 381.5  2108 381.5  Z " fill-rule="nonzero" fill="#ffffff" stroke="none" />
  <path d="M 2108 382  C 2111.08 382  2113.5 384.42  2113.5 387.5  C 2113.5 390.58  2111.08 393  2108 393  C 2104.92 393  2102.5 390.58  2102.5 387.5  C 2102.5 384.42  2104.92 382  2108 382  Z " stroke-width="1" stroke="#797979" fill="none" />
  <path d="M 2108 390.5  C 2106.32 390.5  2105 389.18  2105 387.5  C 2105 385.82  2106.32 384.5  2108 384.5  C 2109.68 384.5  2111 385.82  2111 387.5  C 2111 389.18  2109.68 390.5  2108 390.5  " fill-rule="nonzero" fill="#797979" stroke="none" />
</svg>