<?xml version="1.0" encoding="utf-8"?>
<svg version="1.1" xmlns:xlink="http://www.w3.org/1999/xlink" width="133px" height="133px" xmlns="http://www.w3.org/2000/svg">
  <g transform="matrix(1 0 0 1 -348 -177 )">
    <path d="M 414.5 177  C 451.74 177  481 206.26  481 243.5  C 481 280.74  451.74 310  414.5 310  C 377.26 310  348 280.74  348 243.5  C 348 206.26  377.26 177  414.5 177  Z " fill-rule="nonzero" fill="#ffffff" stroke="none" />
    <path d="M 414.5 177.5  C 451.46 177.5  480.5 206.54  480.5 243.5  C 480.5 280.46  451.46 309.5  414.5 309.5  C 377.54 309.5  348.5 280.46  348.5 243.5  C 348.5 206.54  377.54 177.5  414.5 177.5  Z " stroke-width="1" stroke="#797979" fill="none" />
  </g>
</svg>