<?xml version="1.0" encoding="utf-8"?>
<svg version="1.1" xmlns:xlink="http://www.w3.org/1999/xlink" width="147px" height="36px" xmlns="http://www.w3.org/2000/svg">
  <g transform="matrix(1 0 0 1 -1025 -500 )">
    <path d="M 1025 500  L 1172 500  L 1172 536  L 1025 536  L 1025 500  " fill-rule="nonzero" fill="#cccccc" stroke="none" />
    <path d="M 1028 503  L 1169 503  L 1169 533  L 1028 533  L 1028 503  " fill-rule="nonzero" fill="#ffffff" stroke="none" />
    <path d="M 1104.14 510.8  C 1102.628 510.8  1101.44 509.612  1101.44 508.1  C 1101.44 506.588  1102.628 505.4  1104.14 505.4  C 1105.652 505.4  1106.84 506.588  1106.84 508.1  C 1106.84 509.612  1105.652 510.8  1104.14 510.8  " fill-rule="nonzero" fill="#cccccc" stroke="none" />
    <path d="M 1029 532  L 1029 516.6  L 1063.75 509.6  L 1112.4 527.885714285714  L 1140.2 513.8  L 1168 527.885714285714  L 1168 532  L 1029 532  " fill-rule="nonzero" fill="#169bd5" stroke="none" />
  </g>
</svg>