<?xml version="1.0" encoding="utf-8"?>
<svg version="1.1" xmlns:xlink="http://www.w3.org/1999/xlink" width="1634px" height="18px" preserveAspectRatio="xMinYMid meet" viewBox="408 199  1634 16" xmlns="http://www.w3.org/2000/svg">
  <path d="M 419 203.5  A 3 3 0 0 0 416 206.5 A 3 3 0 0 0 419 209.5 A 3 3 0 0 0 422 206.5 A 3 3 0 0 0 419 203.5 Z M 419 204.5  A 2 2 0 0 1 421 206.5 A 2 2 0 0 1 419 208.5 A 2 2 0 0 1 417 206.5 A 2 2 0 0 1 419 204.5 Z M 2031 203.5  A 3 3 0 0 0 2028 206.5 A 3 3 0 0 0 2031 209.5 A 3 3 0 0 0 2034 206.5 A 3 3 0 0 0 2031 203.5 Z M 2031 204.5  A 2 2 0 0 1 2033 206.5 A 2 2 0 0 1 2031 208.5 A 2 2 0 0 1 2029 206.5 A 2 2 0 0 1 2031 204.5 Z " fill-rule="nonzero" fill="#d9001b" stroke="none" transform="matrix(0.999991894747315 -0.00402621902971389 0.00402621902971389 0.999991894747315 -0.821485295096636 4.93379204607899 )" />
  <path d="M 421 206.5  L 2029 206.5  " stroke-width="1" stroke="#d9001b" fill="none" transform="matrix(0.999991894747315 -0.00402621902971389 0.00402621902971389 0.999991894747315 -0.821485295096636 4.93379204607899 )" />
</svg>