<?xml version="1.0" encoding="utf-8"?>
<svg version="1.1" xmlns:xlink="http://www.w3.org/1999/xlink" width="9px" height="6px" xmlns="http://www.w3.org/2000/svg">
  <g transform="matrix(1 0 0 1 -1333 -810 )">
    <path d="M 1337.5 810  C 1340.02 810  1342 811.32  1342 813  C 1342 814.68  1340.02 816  1337.5 816  C 1334.98 816  1333 814.68  1333 813  C 1333 811.32  1334.98 810  1337.5 810  Z " fill-rule="nonzero" fill="#d9001b" stroke="none" />
    <path d="M 1337.5 810.5  C 1339.74 810.5  1341.5 811.6  1341.5 813  C 1341.5 814.4  1339.74 815.5  1337.5 815.5  C 1335.26 815.5  1333.5 814.4  1333.5 813  C 1333.5 811.6  1335.26 810.5  1337.5 810.5  Z " stroke-width="1" stroke="#797979" fill="none" />
  </g>
</svg>