<?xml version="1.0" encoding="utf-8"?>
<svg version="1.1" xmlns:xlink="http://www.w3.org/1999/xlink" width="9px" height="6px" xmlns="http://www.w3.org/2000/svg">
  <g transform="matrix(1 0 0 1 -1333 -863 )">
    <path d="M 1337.5 863  C 1340.02 863  1342 864.32  1342 866  C 1342 867.68  1340.02 869  1337.5 869  C 1334.98 869  1333 867.68  1333 866  C 1333 864.32  1334.98 863  1337.5 863  Z " fill-rule="nonzero" fill="#027db4" stroke="none" />
    <path d="M 1337.5 863.5  C 1339.74 863.5  1341.5 864.6  1341.5 866  C 1341.5 867.4  1339.74 868.5  1337.5 868.5  C 1335.26 868.5  1333.5 867.4  1333.5 866  C 1333.5 864.6  1335.26 863.5  1337.5 863.5  Z " stroke-width="1" stroke="#797979" fill="none" />
  </g>
</svg>