<?xml version="1.0" encoding="utf-8"?>
<svg version="1.1" xmlns:xlink="http://www.w3.org/1999/xlink" width="12px" height="12px" viewBox="2209 1330.5  12 12" xmlns="http://www.w3.org/2000/svg">
  <path d="M 2215 1330.5  C 2218.36 1330.5  2221 1333.14  2221 1336.5  C 2221 1339.86  2218.36 1342.5  2215 1342.5  C 2211.64 1342.5  2209 1339.86  2209 1336.5  C 2209 1333.14  2211.64 1330.5  2215 1330.5  Z " fill-rule="nonzero" fill="#ffffff" stroke="none" />
  <path d="M 2215 1331  C 2218.08 1331  2220.5 1333.42  2220.5 1336.5  C 2220.5 1339.58  2218.08 1342  2215 1342  C 2211.92 1342  2209.5 1339.58  2209.5 1336.5  C 2209.5 1333.42  2211.92 1331  2215 1331  Z " stroke-width="1" stroke="#797979" fill="none" />
  <path d="M 2215 1339.5  C 2213.32 1339.5  2212 1338.18  2212 1336.5  C 2212 1334.82  2213.32 1333.5  2215 1333.5  C 2216.68 1333.5  2218 1334.82  2218 1336.5  C 2218 1338.18  2216.68 1339.5  2215 1339.5  " fill-rule="nonzero" fill="#797979" stroke="none" />
</svg>