<?xml version="1.0" encoding="utf-8"?>
<svg version="1.1" xmlns:xlink="http://www.w3.org/1999/xlink" width="69px" height="69px" xmlns="http://www.w3.org/2000/svg">
  <g transform="matrix(1 0 0 1 -189 -3 )">
    <path d="M 223.5 3  C 242.82 3  258 18.18  258 37.5  C 258 56.82  242.82 72  223.5 72  C 204.18 72  189 56.82  189 37.5  C 189 18.18  204.18 3  223.5 3  Z " fill-rule="nonzero" fill="#ffffff" stroke="none" />
    <path d="M 223.5 3.5  C 242.54 3.5  257.5 18.46  257.5 37.5  C 257.5 56.54  242.54 71.5  223.5 71.5  C 204.46 71.5  189.5 56.54  189.5 37.5  C 189.5 18.46  204.46 3.5  223.5 3.5  Z " stroke-width="1" stroke="#797979" fill="none" />
  </g>
</svg>