<?xml version="1.0" encoding="utf-8"?>
<svg version="1.1" xmlns:xlink="http://www.w3.org/1999/xlink" width="241px" height="280px" xmlns="http://www.w3.org/2000/svg">
  <g transform="matrix(1 0 0 1 -204 -1252 )">
    <path d="M 204 1252  L 445 1252  L 445 1532  L 204 1532  L 204 1252  " fill-rule="nonzero" fill="#cccccc" stroke="none" />
    <path d="M 221 1269  L 428 1269  L 428 1515  L 221 1515  L 221 1269  " fill-rule="nonzero" fill="#ffffff" stroke="none" />
    <path d="M 347.395 1330.15  C 337.273 1330.15  329.32 1322.197  329.32 1312.075  C 329.32 1301.953  337.273 1294  347.395 1294  C 357.517 1294  365.47 1301.953  365.47 1312.075  C 365.47 1322.197  357.517 1330.15  347.395 1330.15  " fill-rule="nonzero" fill="#cccccc" stroke="none" />
    <path d="M 227 1509  L 227 1380.3  L 275.75 1321.8  L 344 1368.6  L 383 1356.9  L 422 1368.6  L 422 1509  L 227 1509  " fill-rule="nonzero" fill="#169bd5" stroke="none" />
  </g>
</svg>