<?xml version="1.0" encoding="utf-8"?>
<svg version="1.1" xmlns:xlink="http://www.w3.org/1999/xlink" width="337px" height="220px" xmlns="http://www.w3.org/2000/svg">
  <g transform="matrix(1 0 0 1 -204 -1712 )">
    <path d="M 204 1712  L 541 1712  L 541 1932  L 204 1932  L 204 1712  " fill-rule="nonzero" fill="#cccccc" stroke="none" />
    <path d="M 219 1727  L 526 1727  L 526 1917  L 219 1917  L 219 1727  " fill-rule="nonzero" fill="#ffffff" stroke="none" />
    <path d="M 395.74 1778  C 386.5 1778  379.24 1770.74  379.24 1761.5  C 379.24 1752.26  386.5 1745  395.74 1745  C 404.98 1745  412.24 1752.26  412.24 1761.5  C 412.24 1770.74  404.98 1778  395.74 1778  " fill-rule="nonzero" fill="#cccccc" stroke="none" />
    <path d="M 225 1912  L 225 1813.55  L 299 1768.8  L 402.6 1841.88724035608  L 461.8 1795.65  L 521 1841.88724035608  L 521 1912  L 225 1912  " fill-rule="nonzero" fill="#169bd5" stroke="none" />
  </g>
</svg>