<?xml version="1.0" encoding="utf-8"?>
<svg version="1.1" xmlns:xlink="http://www.w3.org/1999/xlink" width="316px" height="220px" xmlns="http://www.w3.org/2000/svg">
  <g transform="matrix(1 0 0 1 -599 -1710 )">
    <path d="M 599 1710  L 915 1710  L 915 1930  L 599 1930  L 599 1710  " fill-rule="nonzero" fill="#cccccc" stroke="none" />
    <path d="M 614 1725  L 900 1725  L 900 1915  L 614 1915  L 614 1725  " fill-rule="nonzero" fill="#ffffff" stroke="none" />
    <path d="M 779.82 1776  C 770.58 1776  763.32 1768.74  763.32 1759.5  C 763.32 1750.26  770.58 1743  779.82 1743  C 789.06 1743  796.32 1750.26  796.32 1759.5  C 796.32 1768.74  789.06 1776  779.82 1776  " fill-rule="nonzero" fill="#cccccc" stroke="none" />
    <path d="M 620 1910  L 620 1811.55  L 688.75 1766.8  L 785 1835.22784810127  L 840 1793.65  L 895 1835.22784810127  L 895 1910  L 620 1910  " fill-rule="nonzero" fill="#169bd5" stroke="none" />
  </g>
</svg>