<?xml version="1.0" encoding="utf-8"?>
<svg version="1.1" xmlns:xlink="http://www.w3.org/1999/xlink" width="22px" height="22px" preserveAspectRatio="xMinYMid meet" viewBox="472 907  22 20" xmlns="http://www.w3.org/2000/svg">
  <g transform="matrix(0.913545457642601 0.406736643075801 -0.406736643075796 0.913545457642601 414.735045659128 -117.174983263877 )">
    <path d="M 456.9 775.8  L 453 779.5  L 456.9 783.2  L 460.7 779.5  L 456.9 775.8  Z M 456.9 781.8  L 454.4 779.5  L 456.9 777.2  L 459.3 779.5  L 456.9 781.8  Z M 1133.1 783.2  L 1137 779.5  L 1133.1 775.8  L 1129.3 779.5  L 1133.1 783.2  Z M 1133.1 777.2  L 1135.6 779.5  L 1133.1 781.8  L 1130.7 779.5  L 1133.1 777.2  Z " fill-rule="nonzero" fill="#d9001b" stroke="none" transform="matrix(0.915444814662589 -0.402443525612449 0.402443525612449 0.915444814662589 -246.483355871662 385.853369832408 )" />
    <path d="M 459 779.5  L 1131 779.5  " stroke-width="1" stroke="#d9001b" fill="none" transform="matrix(0.915444814662589 -0.402443525612449 0.402443525612449 0.915444814662589 -246.483355871662 385.853369832408 )" />
  </g>
</svg>