<?xml version="1.0" encoding="utf-8"?>
<svg version="1.1" xmlns:xlink="http://www.w3.org/1999/xlink" width="60px" height="77px" xmlns="http://www.w3.org/2000/svg">
  <defs>
    <filter x="1455px" y="438px" width="60px" height="77px" filterUnits="userSpaceOnUse" id="filter23">
      <feOffset dx="1" dy="1" in="SourceAlpha" result="shadowOffsetInner" />
      <feGaussianBlur stdDeviation="2.5" in="shadowOffsetInner" result="shadowGaussian" />
      <feComposite in2="shadowGaussian" operator="atop" in="SourceAlpha" result="shadowComposite" />
      <feColorMatrix type="matrix" values="0 0 0 0 0  0 0 0 0 0  0 0 0 0 0  0 0 0 0.698039215686274 0  " in="shadowComposite" />
    </filter>
    <g id="widget24">
      <path d="M 1484 508.033674848314  C 1474.2 491.655338368193  1459.5 481.828336480121  1459.5 465.45  C 1459.5 456.925714285714  1464.4 442.5  1484 442.5  C 1503.6 442.5  1508.5 456.925714285714  1508.5 465.45  C 1508.5 481.828336480121  1493.8 491.655338368193  1484 508.033674848314  Z " fill-rule="nonzero" fill="#009dd9" stroke="none" />
      <path d="M 1484 509  C 1474 492.25  1459 482.2  1459 465.45  C 1459 456.74  1464 442  1484 442  C 1504 442  1509 456.74  1509 465.45  C 1509 482.2  1494 492.25  1484 509  Z M 1484 507.067349696629  C 1493.6 491.060676736387  1508 481.456672960242  1508 465.45  C 1508 457.111428571429  1503.2 443  1484 443  C 1464.8 443  1460 457.111428571429  1460 465.45  C 1460 481.456672960242  1474.4 491.060676736387  1484 507.067349696629  Z " fill-rule="nonzero" fill="#ffffff" stroke="none" />
    </g>
  </defs>
  <g transform="matrix(1 0 0 1 -1455 -438 )">
    <use xlink:href="#widget24" filter="url(#filter23)" />
    <use xlink:href="#widget24" />
  </g>
</svg>