<?xml version="1.0" encoding="utf-8"?>
<svg version="1.1" xmlns:xlink="http://www.w3.org/1999/xlink" width="24px" height="20px" preserveAspectRatio="xMinYMid meet" viewBox="2058 749  24 18" xmlns="http://www.w3.org/2000/svg">
  <g transform="matrix(-0.906307787036637 0.422618261740696 -0.422618261740686 -0.906307787036648 4266.40176156528 570.161500770539 )">
    <path d="M 1447.9 615.8  L 1444 619.5  L 1447.9 623.2  L 1451.7 619.5  L 1447.9 615.8  Z M 1447.9 621.8  L 1445.4 619.5  L 1447.9 617.2  L 1450.3 619.5  L 1447.9 621.8  Z M 2098.1 623.2  L 2102 619.5  L 2098.1 615.8  L 2094.3 619.5  L 2098.1 623.2  Z M 2098.1 617.2  L 2100.6 619.5  L 2098.1 621.8  L 2095.7 619.5  L 2098.1 617.2  Z " fill-rule="nonzero" fill="#d9001b" stroke="none" transform="matrix(0.905986918992816 0.42330568459909 -0.42330568459909 0.905986918992816 428.923064234873 -692.279875110236 )" />
    <path d="M 1450 619.5  L 2096 619.5  " stroke-width="1" stroke="#d9001b" fill="none" transform="matrix(0.905986918992816 0.42330568459909 -0.42330568459909 0.905986918992816 428.923064234873 -692.279875110236 )" />
  </g>
</svg>