<?xml version="1.0" encoding="utf-8"?>
<svg version="1.1" xmlns:xlink="http://www.w3.org/1999/xlink" width="25px" height="25px" xmlns="http://www.w3.org/2000/svg">
  <g transform="matrix(1 0 0 1 -729 -1815 )">
    <path d="M 741.5 1815  C 748.5 1815  754 1820.5  754 1827.5  C 754 1834.5  748.5 1840  741.5 1840  C 734.5 1840  729 1834.5  729 1827.5  C 729 1820.5  734.5 1815  741.5 1815  Z " fill-rule="nonzero" fill="#ffffff" stroke="none" />
    <path d="M 741.5 1815.5  C 748.22 1815.5  753.5 1820.78  753.5 1827.5  C 753.5 1834.22  748.22 1839.5  741.5 1839.5  C 734.78 1839.5  729.5 1834.22  729.5 1827.5  C 729.5 1820.78  734.78 1815.5  741.5 1815.5  Z " stroke-width="1" stroke="#797979" fill="none" />
  </g>
</svg>