<?xml version="1.0" encoding="utf-8"?>
<svg version="1.1" xmlns:xlink="http://www.w3.org/1999/xlink" width="22px" height="22px" preserveAspectRatio="xMinYMid meet" viewBox="244 703  22 20" xmlns="http://www.w3.org/2000/svg">
  <g transform="matrix(-0.0697564737441262 -0.997564050259823 0.997564050259823 -0.0697564737441262 -438.475267030502 1017.11519859582 )">
    <path d="M 39.9 912.8  L 36 916.5  L 39.9 920.2  L 43.7 916.5  L 39.9 912.8  Z M 39.9 918.8  L 37.4 916.5  L 39.9 914.2  L 42.3 916.5  L 39.9 918.8  Z M 443.1 920.2  L 447 916.5  L 443.1 912.8  L 439.3 916.5  L 443.1 920.2  Z M 443.1 914.2  L 445.6 916.5  L 443.1 918.8  L 440.7 916.5  L 443.1 914.2  Z " fill-rule="nonzero" fill="#d9001b" stroke="none" transform="matrix(-0.0684894246853723 0.997651842431149 -0.997651842431149 -0.0684894246853723 1172.38810964967 738.337637777021 )" />
    <path d="M 42 916.5  L 441 916.5  " stroke-width="1" stroke="#d9001b" fill="none" transform="matrix(-0.0684894246853723 0.997651842431149 -0.997651842431149 -0.0684894246853723 1172.38810964967 738.337637777021 )" />
  </g>
</svg>