<?xml version="1.0" encoding="utf-8"?>
<svg version="1.1" xmlns:xlink="http://www.w3.org/1999/xlink" width="12px" height="12px" viewBox="460 1333.5  12 12" xmlns="http://www.w3.org/2000/svg">
  <path d="M 466 1333.5  C 469.36 1333.5  472 1336.14  472 1339.5  C 472 1342.86  469.36 1345.5  466 1345.5  C 462.64 1345.5  460 1342.86  460 1339.5  C 460 1336.14  462.64 1333.5  466 1333.5  Z " fill-rule="nonzero" fill="#ffffff" stroke="none" />
  <path d="M 466 1334  C 469.08 1334  471.5 1336.42  471.5 1339.5  C 471.5 1342.58  469.08 1345  466 1345  C 462.92 1345  460.5 1342.58  460.5 1339.5  C 460.5 1336.42  462.92 1334  466 1334  Z " stroke-width="1" stroke="#797979" fill="none" />
  <path d="M 466 1342.5  C 464.32 1342.5  463 1341.18  463 1339.5  C 463 1337.82  464.32 1336.5  466 1336.5  C 467.68 1336.5  469 1337.82  469 1339.5  C 469 1341.18  467.68 1342.5  466 1342.5  " fill-rule="nonzero" fill="#797979" stroke="none" />
</svg>