<?xml version="1.0" encoding="utf-8"?>
<svg version="1.1" xmlns:xlink="http://www.w3.org/1999/xlink" width="21px" height="21px" xmlns="http://www.w3.org/2000/svg">
  <g transform="matrix(1 0 0 1 -188 -1063 )">
    <path d="M 198.5 1063  C 204.38 1063  209 1067.62  209 1073.5  C 209 1079.38  204.38 1084  198.5 1084  C 192.62 1084  188 1079.38  188 1073.5  C 188 1067.62  192.62 1063  198.5 1063  Z " fill-rule="nonzero" fill="#ffffff" stroke="none" />
    <path d="M 198.5 1063.5  C 204.1 1063.5  208.5 1067.9  208.5 1073.5  C 208.5 1079.1  204.1 1083.5  198.5 1083.5  C 192.9 1083.5  188.5 1079.1  188.5 1073.5  C 188.5 1067.9  192.9 1063.5  198.5 1063.5  Z " stroke-width="1" stroke="#797979" fill="none" />
  </g>
</svg>