<?xml version="1.0" encoding="utf-8"?>
<svg version="1.1" xmlns:xlink="http://www.w3.org/1999/xlink" width="12px" height="12px" viewBox="2650 336.5  12 12" xmlns="http://www.w3.org/2000/svg">
  <path d="M 2656 336.5  C 2659.36 336.5  2662 339.14  2662 342.5  C 2662 345.86  2659.36 348.5  2656 348.5  C 2652.64 348.5  2650 345.86  2650 342.5  C 2650 339.14  2652.64 336.5  2656 336.5  Z " fill-rule="nonzero" fill="#ffffff" stroke="none" />
  <path d="M 2656 337  C 2659.08 337  2661.5 339.42  2661.5 342.5  C 2661.5 345.58  2659.08 348  2656 348  C 2652.92 348  2650.5 345.58  2650.5 342.5  C 2650.5 339.42  2652.92 337  2656 337  Z " stroke-width="1" stroke="#797979" fill="none" />
  <path d="M 2656 345.5  C 2654.32 345.5  2653 344.18  2653 342.5  C 2653 340.82  2654.32 339.5  2656 339.5  C 2657.68 339.5  2659 340.82  2659 342.5  C 2659 344.18  2657.68 345.5  2656 345.5  " fill-rule="nonzero" fill="#797979" stroke="none" />
</svg>