<?xml version="1.0" encoding="utf-8"?>
<svg version="1.1" xmlns:xlink="http://www.w3.org/1999/xlink" width="1221px" height="280px" xmlns="http://www.w3.org/2000/svg">
  <g transform="matrix(1 0 0 1 0 -240 )">
    <path d="M 0 240  L 1221 240  L 1221 520  L 0 520  L 0 240  " fill-rule="nonzero" fill="#cccccc" stroke="none" />
    <path d="M 20 260  L 1201 260  L 1201 500  L 20 500  L 20 260  " fill-rule="nonzero" fill="#ffffff" stroke="none" />
    <path d="M 655.92 324  C 644.16 324  634.92 314.76  634.92 303  C 634.92 291.24  644.16 282  655.92 282  C 667.68 282  676.92 291.24  676.92 303  C 676.92 314.76  667.68 324  655.92 324  " fill-rule="nonzero" fill="#cccccc" stroke="none" />
    <path d="M 27 493  L 27 368.7  L 318.75 312.2  L 727.2 461.904176904177  L 960.6 346.1  L 1194 461.904176904177  L 1194 493  L 27 493  " fill-rule="nonzero" fill="#169bd5" stroke="none" />
  </g>
</svg>