<?xml version="1.0" encoding="utf-8"?>
<svg version="1.1" xmlns:xlink="http://www.w3.org/1999/xlink" width="27px" height="26px" xmlns="http://www.w3.org/2000/svg">
  <g transform="matrix(1 0 0 1 -1881 -373 )">
    <path d="M 1894.5 373  C 1902.06 373  1908 378.72  1908 386  C 1908 393.28  1902.06 399  1894.5 399  C 1886.94 399  1881 393.28  1881 386  C 1881 378.72  1886.94 373  1894.5 373  Z " fill-rule="nonzero" fill="#ffffff" stroke="none" />
    <path d="M 1894.5 373.5  C 1901.78 373.5  1907.5 379  1907.5 386  C 1907.5 393  1901.78 398.5  1894.5 398.5  C 1887.22 398.5  1881.5 393  1881.5 386  C 1881.5 379  1887.22 373.5  1894.5 373.5  Z " stroke-width="1" stroke="#797979" fill="none" />
  </g>
</svg>