<?xml version="1.0" encoding="utf-8"?>
<svg version="1.1" xmlns:xlink="http://www.w3.org/1999/xlink" width="227px" height="227px" xmlns="http://www.w3.org/2000/svg">
  <g transform="matrix(1 0 0 1 -348 -136 )">
    <path d="M 461.5 136  C 525.06 136  575 185.94  575 249.5  C 575 313.06  525.06 363  461.5 363  C 397.94 363  348 313.06  348 249.5  C 348 185.94  397.94 136  461.5 136  Z " fill-rule="nonzero" fill="#ffffff" stroke="none" />
    <path d="M 461.5 136.5  C 524.78 136.5  574.5 186.22  574.5 249.5  C 574.5 312.78  524.78 362.5  461.5 362.5  C 398.22 362.5  348.5 312.78  348.5 249.5  C 348.5 186.22  398.22 136.5  461.5 136.5  Z " stroke-width="1" stroke="#797979" fill="none" />
  </g>
</svg>