<?xml version="1.0" encoding="utf-8"?>
<svg version="1.1" xmlns:xlink="http://www.w3.org/1999/xlink" width="22px" height="22px" preserveAspectRatio="xMinYMid meet" viewBox="1956 287  22 20" xmlns="http://www.w3.org/2000/svg">
  <g transform="matrix(-0.984807753012212 0.173648177666927 -0.173648177666927 -0.984807753012212 3955.6903589421 247.921937173781 )">
    <path d="M 1828.9 280.8  L 1825 284.5  L 1828.9 288.2  L 1832.7 284.5  L 1828.9 280.8  Z M 1828.9 286.8  L 1826.4 284.5  L 1828.9 282.2  L 1831.3 284.5  L 1828.9 286.8  Z M 1965.1 288.2  L 1969 284.5  L 1965.1 280.8  L 1961.3 284.5  L 1965.1 288.2  Z M 1965.1 282.2  L 1967.6 284.5  L 1965.1 286.8  L 1962.7 284.5  L 1965.1 282.2  Z " fill-rule="nonzero" fill="#d9001b" stroke="none" transform="matrix(0.983739555671285 0.179600909261794 -0.179600909261794 0.983739555671285 81.9425215765532 -336.076828458104 )" />
    <path d="M 1831 284.5  L 1963 284.5  " stroke-width="1" stroke="#d9001b" fill="none" transform="matrix(0.983739555671285 0.179600909261794 -0.179600909261794 0.983739555671285 81.9425215765532 -336.076828458104 )" />
  </g>
</svg>