<?xml version="1.0" encoding="utf-8"?>
<svg version="1.1" xmlns:xlink="http://www.w3.org/1999/xlink" width="15px" height="14px" xmlns="http://www.w3.org/2000/svg">
  <g transform="matrix(1 0 0 1 -1627 -468 )">
    <path d="M 1634.5 468  C 1638.7 468  1642 471.08  1642 475  C 1642 478.92  1638.7 482  1634.5 482  C 1630.3 482  1627 478.92  1627 475  C 1627 471.08  1630.3 468  1634.5 468  Z " fill-rule="nonzero" fill="#ffffff" stroke="none" />
    <path d="M 1634.5 468.5  C 1638.42 468.5  1641.5 471.36  1641.5 475  C 1641.5 478.64  1638.42 481.5  1634.5 481.5  C 1630.58 481.5  1627.5 478.64  1627.5 475  C 1627.5 471.36  1630.58 468.5  1634.5 468.5  Z " stroke-width="1" stroke="#797979" fill="none" />
  </g>
</svg>