<?xml version="1.0" encoding="utf-8"?>
<svg version="1.1" xmlns:xlink="http://www.w3.org/1999/xlink" width="12px" height="12px" viewBox="1756 802  12 12" xmlns="http://www.w3.org/2000/svg">
  <path d="M 1762 802  C 1765.36 802  1768 804.64  1768 808  C 1768 811.36  1765.36 814  1762 814  C 1758.64 814  1756 811.36  1756 808  C 1756 804.64  1758.64 802  1762 802  Z " fill-rule="nonzero" fill="#ffffff" stroke="none" />
  <path d="M 1762 802.5  C 1765.08 802.5  1767.5 804.92  1767.5 808  C 1767.5 811.08  1765.08 813.5  1762 813.5  C 1758.92 813.5  1756.5 811.08  1756.5 808  C 1756.5 804.92  1758.92 802.5  1762 802.5  Z " stroke-width="1" stroke="#797979" fill="none" />
  <path d="M 1762 811  C 1760.32 811  1759 809.68  1759 808  C 1759 806.32  1760.32 805  1762 805  C 1763.68 805  1765 806.32  1765 808  C 1765 809.68  1763.68 811  1762 811  " fill-rule="nonzero" fill="#797979" stroke="none" />
</svg>