<?xml version="1.0" encoding="utf-8"?>
<svg version="1.1" xmlns:xlink="http://www.w3.org/1999/xlink" width="45px" height="43px" xmlns="http://www.w3.org/2000/svg">
  <g transform="matrix(1 0 0 1 -72 -461 )">
    <path d="M 94.5 461  C 107.1 461  117 470.46  117 482.5  C 117 494.54  107.1 504  94.5 504  C 81.9 504  72 494.54  72 482.5  C 72 470.46  81.9 461  94.5 461  Z " fill-rule="nonzero" fill="#061320" stroke="none" />
    <path d="M 94.5 461.5  C 106.82 461.5  116.5 470.74  116.5 482.5  C 116.5 494.26  106.82 503.5  94.5 503.5  C 82.18 503.5  72.5 494.26  72.5 482.5  C 72.5 470.74  82.18 461.5  94.5 461.5  Z " stroke-width="1" stroke="#797979" fill="none" />
  </g>
</svg>