<?xml version="1.0" encoding="utf-8"?>
<svg version="1.1" xmlns:xlink="http://www.w3.org/1999/xlink" width="20px" height="25px" xmlns="http://www.w3.org/2000/svg">
  <g transform="matrix(1 0 0 1 -135 -626 )">
    <path d="M 135 626  L 155 626  L 155 651  L 135 651  L 135 626  " fill-rule="nonzero" fill="#cccccc" stroke="none" />
    <path d="M 136 627  L 154 627  L 154 650  L 136 650  L 136 627  " fill-rule="nonzero" fill="#ffffff" stroke="none" />
    <path d="M 146.9 632.75  C 146.06 632.75  145.4 632.09  145.4 631.25  C 145.4 630.41  146.06 629.75  146.9 629.75  C 147.74 629.75  148.4 630.41  148.4 631.25  C 148.4 632.09  147.74 632.75  146.9 632.75  " fill-rule="nonzero" fill="#cccccc" stroke="none" />
    <path d="M 137 650  L 137 637.9  L 141.25 632.4  L 147.2 636.8  L 150.6 635.7  L 154 636.8  L 154 650  L 137 650  " fill-rule="nonzero" fill="#169bd5" stroke="none" />
  </g>
</svg>