<?xml version="1.0" encoding="utf-8"?>
<svg version="1.1" xmlns:xlink="http://www.w3.org/1999/xlink" width="204px" height="6px" preserveAspectRatio="xMinYMid meet" viewBox="946 187  204 4" xmlns="http://www.w3.org/2000/svg">
  <path d="M 951 186.5  A 3 3 0 0 0 948 189.5 A 3 3 0 0 0 951 192.5 A 3 3 0 0 0 954 189.5 A 3 3 0 0 0 951 186.5 Z M 1145 186.5  A 3 3 0 0 0 1142 189.5 A 3 3 0 0 0 1145 192.5 A 3 3 0 0 0 1148 189.5 A 3 3 0 0 0 1145 186.5 Z " fill-rule="nonzero" fill="#d9001b" stroke="none" />
  <path d="M 949 189.5  L 1147 189.5  " stroke-width="1" stroke="#d9001b" fill="none" />
</svg>