<?xml version="1.0" encoding="utf-8"?>
<svg version="1.1" xmlns:xlink="http://www.w3.org/1999/xlink" width="320px" height="10px" preserveAspectRatio="xMinYMid meet" viewBox="842 1011  320 8" xmlns="http://www.w3.org/2000/svg">
  <g transform="matrix(0.601815023152049 -0.798635510047306 0.798635510047292 0.601815023152058 -411.633695896354 1204.39053256806 )">
    <path d="M 849.9 1010.8  L 846 1014.5  L 849.9 1018.2  L 853.7 1014.5  L 849.9 1010.8  Z M 849.9 1016.8  L 847.4 1014.5  L 849.9 1012.2  L 852.3 1014.5  L 849.9 1016.8  Z M 1153.1 1018.2  L 1157 1014.5  L 1153.1 1010.8  L 1149.3 1014.5  L 1153.1 1018.2  Z M 1153.1 1012.2  L 1155.6 1014.5  L 1153.1 1016.8  L 1150.7 1014.5  L 1153.1 1012.2  Z " fill-rule="nonzero" fill="#d9001b" stroke="none" transform="matrix(0.608146901837295 0.793824505659594 -0.793824505659594 0.608146901837295 1197.77583880161 -397.48027433202 )" />
    <path d="M 852 1014.5  L 1151 1014.5  " stroke-width="1" stroke="#d9001b" fill="none" transform="matrix(0.608146901837295 0.793824505659594 -0.793824505659594 0.608146901837295 1197.77583880161 -397.48027433202 )" />
  </g>
</svg>