<?xml version="1.0" encoding="utf-8"?>
<svg version="1.1" xmlns:xlink="http://www.w3.org/1999/xlink" width="736px" height="6px" preserveAspectRatio="xMinYMid meet" viewBox="994 287  736 4" xmlns="http://www.w3.org/2000/svg">
  <path d="M 1000 286.5  A 3 3 0 0 0 997 289.5 A 3 3 0 0 0 1000 292.5 A 3 3 0 0 0 1003 289.5 A 3 3 0 0 0 1000 286.5 Z M 1724 286.5  A 3 3 0 0 0 1721 289.5 A 3 3 0 0 0 1724 292.5 A 3 3 0 0 0 1727 289.5 A 3 3 0 0 0 1724 286.5 Z " fill-rule="nonzero" fill="#d9001b" stroke="none" transform="matrix(0.999999056576628 -0.00137362507771515 0.00137362507771515 0.999999056576628 -0.396379517365858 1.87115047691429 )" />
  <path d="M 998 289.5  L 1726 289.5  " stroke-width="1" stroke="#d9001b" fill="none" transform="matrix(0.999999056576628 -0.00137362507771515 0.00137362507771515 0.999999056576628 -0.396379517365858 1.87115047691429 )" />
</svg>