<?xml version="1.0" encoding="utf-8"?>
<svg version="1.1" xmlns:xlink="http://www.w3.org/1999/xlink" width="22px" height="22px" preserveAspectRatio="xMinYMid meet" viewBox="-142 139  22 20" xmlns="http://www.w3.org/2000/svg">
  <g transform="matrix(0.981627183447662 0.190808995376545 -0.190808995376546 0.981627183447664 26.0237013427492 27.7335280606254 )">
    <path d="M -131.1 120.8  L -135 124.5  L -131.1 128.2  L -127.3 124.5  L -131.1 120.8  Z M -131.1 126.8  L -133.6 124.5  L -131.1 122.2  L -128.7 124.5  L -131.1 126.8  Z M 126.1 128.2  L 130 124.5  L 126.1 120.8  L 122.3 124.5  L 126.1 128.2  Z M 126.1 122.2  L 128.6 124.5  L 126.1 126.8  L 123.7 124.5  L 126.1 122.2  Z " fill-rule="nonzero" fill="#d9001b" stroke="none" transform="matrix(0.982883028027179 -0.184230706496295 0.184230706496295 0.982883028027179 -22.9795153887208 1.67048624437548 )" />
    <path d="M -129 124.5  L 124 124.5  " stroke-width="1" stroke="#d9001b" fill="none" transform="matrix(0.982883028027179 -0.184230706496295 0.184230706496295 0.982883028027179 -22.9795153887208 1.67048624437548 )" />
  </g>
</svg>