<?xml version="1.0" encoding="utf-8"?>
<svg version="1.1" xmlns:xlink="http://www.w3.org/1999/xlink" width="22px" height="22px" preserveAspectRatio="xMinYMid meet" viewBox="1596 117  22 20" xmlns="http://www.w3.org/2000/svg">
  <g transform="matrix(0.999847695156389 -0.0174524064372835 0.0174524064372835 0.999847695156392 -1.97170173385143 28.0653598598527 )">
    <path d="M 1609.9 128.8  L 1606 132.5  L 1609.9 136.2  L 1613.7 132.5  L 1609.9 128.8  Z M 1609.9 134.8  L 1607.4 132.5  L 1609.9 130.2  L 1612.3 132.5  L 1609.9 134.8  Z M 2068.1 136.2  L 2072 132.5  L 2068.1 128.8  L 2064.3 132.5  L 2068.1 136.2  Z M 2068.1 130.2  L 2070.6 132.5  L 2068.1 134.8  L 2065.7 132.5  L 2068.1 130.2  Z " fill-rule="nonzero" fill="#d9001b" stroke="none" transform="matrix(0.999701874998309 0.0244164109742942 -0.0244164109742942 0.999701874998309 3.78342633220404 -44.8622782190031 )" />
    <path d="M 1612 132.5  L 2066 132.5  " stroke-width="1" stroke="#d9001b" fill="none" transform="matrix(0.999701874998309 0.0244164109742942 -0.0244164109742942 0.999701874998309 3.78342633220404 -44.8622782190031 )" />
  </g>
</svg>