<?xml version="1.0" encoding="utf-8"?>
<svg version="1.1" xmlns:xlink="http://www.w3.org/1999/xlink" width="190px" height="6px" preserveAspectRatio="xMinYMid meet" viewBox="1394 1081  190 4" xmlns="http://www.w3.org/2000/svg">
  <g transform="matrix(0.78801075360674 -0.615661475325668 0.615661475325634 0.788010753606736 -351.109389898097 1146.30429060382 )">
    <path d="M 1399.9 1078.8  L 1396 1082.5  L 1399.9 1086.2  L 1403.7 1082.5  L 1399.9 1078.8  Z M 1399.9 1084.8  L 1397.4 1082.5  L 1399.9 1080.2  L 1402.3 1082.5  L 1399.9 1084.8  Z M 1578.1 1086.2  L 1582 1082.5  L 1578.1 1078.8  L 1574.3 1082.5  L 1578.1 1086.2  Z M 1578.1 1080.2  L 1580.6 1082.5  L 1578.1 1084.8  L 1575.7 1082.5  L 1578.1 1080.2  Z " fill-rule="nonzero" fill="#d9001b" stroke="none" transform="matrix(0.787038292284275 0.616904146912834 -0.616904146912834 0.787038292284275 984.898721821857 -688.039226150938 )" />
    <path d="M 1402 1082.5  L 1576 1082.5  " stroke-width="1" stroke="#d9001b" fill="none" transform="matrix(0.787038292284275 0.616904146912834 -0.616904146912834 0.787038292284275 984.898721821857 -688.039226150938 )" />
  </g>
</svg>