<?xml version="1.0" encoding="utf-8"?>
<svg version="1.1" xmlns:xlink="http://www.w3.org/1999/xlink" width="734px" height="6px" preserveAspectRatio="xMinYMid meet" viewBox="992 455  734 4" xmlns="http://www.w3.org/2000/svg">
  <path d="M 997 454.5  A 3 3 0 0 0 994 457.5 A 3 3 0 0 0 997 460.5 A 3 3 0 0 0 1000 457.5 A 3 3 0 0 0 997 454.5 Z M 1721 454.5  A 3 3 0 0 0 1718 457.5 A 3 3 0 0 0 1721 460.5 A 3 3 0 0 0 1724 457.5 A 3 3 0 0 0 1721 454.5 Z " fill-rule="nonzero" fill="#d9001b" stroke="none" transform="matrix(0.999999056576628 -0.00137362507771515 0.00137362507771515 0.999999056576628 -0.627151360692096 1.86718809680758 )" />
  <path d="M 995 457.5  L 1723 457.5  " stroke-width="1" stroke="#d9001b" fill="none" transform="matrix(0.999999056576628 -0.00137362507771515 0.00137362507771515 0.999999056576628 -0.627151360692096 1.86718809680758 )" />
</svg>