<?xml version="1.0" encoding="utf-8"?>
<svg version="1.1" xmlns:xlink="http://www.w3.org/1999/xlink" width="22px" height="22px" preserveAspectRatio="xMinYMid meet" viewBox="1824 195  22 20" xmlns="http://www.w3.org/2000/svg">
  <g transform="matrix(-1 0 0 -1 3670 410 )">
    <path d="M 1471.9 200.8  L 1468 204.5  L 1471.9 208.2  L 1475.7 204.5  L 1471.9 200.8  Z M 1471.9 206.8  L 1469.4 204.5  L 1471.9 202.2  L 1474.3 204.5  L 1471.9 206.8  Z M 1832.1 208.2  L 1836 204.5  L 1832.1 200.8  L 1828.3 204.5  L 1832.1 208.2  Z M 1832.1 202.2  L 1834.6 204.5  L 1832.1 206.8  L 1829.7 204.5  L 1832.1 202.2  Z " fill-rule="nonzero" fill="#d9001b" stroke="none" transform="matrix(0.999998817420252 0.00153790705080793 -0.00153790705080793 0.999998817420252 0.31645561363348 -2.5403806103763 )" />
    <path d="M 1474 204.5  L 1830 204.5  " stroke-width="1" stroke="#d9001b" fill="none" transform="matrix(0.999998817420252 0.00153790705080793 -0.00153790705080793 0.999998817420252 0.31645561363348 -2.5403806103763 )" />
  </g>
</svg>