<?xml version="1.0" encoding="utf-8"?>
<svg version="1.1" xmlns:xlink="http://www.w3.org/1999/xlink" width="22px" height="22px" preserveAspectRatio="xMinYMid meet" viewBox="1696 491  22 20" xmlns="http://www.w3.org/2000/svg">
  <g transform="matrix(-1 0 0 -1 3414 1002 )">
    <path d="M 856.9 494.8  L 853 498.5  L 856.9 502.2  L 860.7 498.5  L 856.9 494.8  Z M 856.9 500.8  L 854.4 498.5  L 856.9 496.2  L 859.3 498.5  L 856.9 500.8  Z M 1704.1 502.2  L 1708 498.5  L 1704.1 494.8  L 1700.3 498.5  L 1704.1 502.2  Z M 1704.1 496.2  L 1706.6 498.5  L 1704.1 500.8  L 1701.7 498.5  L 1704.1 496.2  Z " fill-rule="nonzero" fill="#d9001b" stroke="none" transform="matrix(0.999982820886091 0.00586156401457263 -0.00586156401457263 0.999982820886091 2.94398751662538 -7.49716893237644 )" />
    <path d="M 859 498.5  L 1702 498.5  " stroke-width="1" stroke="#d9001b" fill="none" transform="matrix(0.999982820886091 0.00586156401457263 -0.00586156401457263 0.999982820886091 2.94398751662538 -7.49716893237644 )" />
  </g>
</svg>