<?xml version="1.0" encoding="utf-8"?>
<svg version="1.1" xmlns:xlink="http://www.w3.org/1999/xlink" width="12px" height="12px" viewBox="614 683.5  12 12" xmlns="http://www.w3.org/2000/svg">
  <path d="M 620 683.5  C 623.36 683.5  626 686.14  626 689.5  C 626 692.86  623.36 695.5  620 695.5  C 616.64 695.5  614 692.86  614 689.5  C 614 686.14  616.64 683.5  620 683.5  Z " fill-rule="nonzero" fill="#ffffff" stroke="none" />
  <path d="M 620 684  C 623.08 684  625.5 686.42  625.5 689.5  C 625.5 692.58  623.08 695  620 695  C 616.92 695  614.5 692.58  614.5 689.5  C 614.5 686.42  616.92 684  620 684  Z " stroke-width="1" stroke="#797979" fill="none" />
  <path d="M 620 692.5  C 618.32 692.5  617 691.18  617 689.5  C 617 687.82  618.32 686.5  620 686.5  C 621.68 686.5  623 687.82  623 689.5  C 623 691.18  621.68 692.5  620 692.5  " fill-rule="nonzero" fill="#797979" stroke="none" />
</svg>