<?xml version="1.0" encoding="utf-8"?>
<svg version="1.1" xmlns:xlink="http://www.w3.org/1999/xlink" width="20px" height="20px" xmlns="http://www.w3.org/2000/svg">
  <g transform="matrix(1 0 0 1 -540 -1015 )">
    <path d="M 550 1015  C 555.6 1015  560 1019.4  560 1025  C 560 1030.6  555.6 1035  550 1035  C 544.4 1035  540 1030.6  540 1025  C 540 1019.4  544.4 1015  550 1015  Z " fill-rule="nonzero" fill="#ffffff" stroke="none" />
    <path d="M 550 1015.5  C 555.32 1015.5  559.5 1019.68  559.5 1025  C 559.5 1030.32  555.32 1034.5  550 1034.5  C 544.68 1034.5  540.5 1030.32  540.5 1025  C 540.5 1019.68  544.68 1015.5  550 1015.5  Z " stroke-width="1" stroke="#797979" fill="none" />
  </g>
</svg>