<?xml version="1.0" encoding="utf-8"?>
<svg version="1.1" xmlns:xlink="http://www.w3.org/1999/xlink" width="1814px" height="26px" preserveAspectRatio="xMinYMid meet" viewBox="246 725  1814 24" xmlns="http://www.w3.org/2000/svg">
  <g transform="matrix(0.999390827019096 -0.034899496702501 0.0348994967025013 0.999390827019096 -25.0185526227608 40.6880801849097 )">
    <path d="M 262 734.5  A 3 3 0 0 0 259 737.5 A 3 3 0 0 0 262 740.5 A 3 3 0 0 0 265 737.5 A 3 3 0 0 0 262 734.5 Z M 2044 734.5  A 3 3 0 0 0 2041 737.5 A 3 3 0 0 0 2044 740.5 A 3 3 0 0 0 2047 737.5 A 3 3 0 0 0 2044 734.5 Z " fill-rule="nonzero" fill="#d9001b" stroke="none" transform="matrix(0.999147627035712 0.0412797697293276 -0.0412797697293276 0.999147627035712 31.4266162032036 -46.9669494367521 )" />
    <path d="M 260 737.5  L 2046 737.5  " stroke-width="1" stroke="#d9001b" fill="none" transform="matrix(0.999147627035712 0.0412797697293276 -0.0412797697293276 0.999147627035712 31.4266162032036 -46.9669494367521 )" />
  </g>
</svg>