<?xml version="1.0" encoding="utf-8"?>
<svg version="1.1" xmlns:xlink="http://www.w3.org/1999/xlink" width="1806px" height="19px" xmlns="http://www.w3.org/2000/svg">
  <g transform="matrix(1 0 0 1 -250 -728 )">
    <path d="M 262 734.5  A 3 3 0 0 0 259 737.5 A 3 3 0 0 0 262 740.5 A 3 3 0 0 0 265 737.5 A 3 3 0 0 0 262 734.5 Z M 2044 734.5  A 3 3 0 0 0 2041 737.5 A 3 3 0 0 0 2044 740.5 A 3 3 0 0 0 2047 737.5 A 3 3 0 0 0 2044 734.5 Z " fill-rule="nonzero" fill="#d9001b" stroke="none" />
    <path d="M 260 737.5  L 2046 737.5  " stroke-width="1" stroke="#d9001b" fill="none" />
  </g>
</svg>