<?xml version="1.0" encoding="utf-8"?>
<svg version="1.1" xmlns:xlink="http://www.w3.org/1999/xlink" width="12px" height="12px" viewBox="330 255.5  12 12" xmlns="http://www.w3.org/2000/svg">
  <path d="M 336 255.5  C 339.36 255.5  342 258.14  342 261.5  C 342 264.86  339.36 267.5  336 267.5  C 332.64 267.5  330 264.86  330 261.5  C 330 258.14  332.64 255.5  336 255.5  Z " fill-rule="nonzero" fill="#ffffff" stroke="none" />
  <path d="M 336 256  C 339.08 256  341.5 258.42  341.5 261.5  C 341.5 264.58  339.08 267  336 267  C 332.92 267  330.5 264.58  330.5 261.5  C 330.5 258.42  332.92 256  336 256  Z " stroke-width="1" stroke="#797979" fill="none" />
  <path d="M 336 264.5  C 334.32 264.5  333 263.18  333 261.5  C 333 259.82  334.32 258.5  336 258.5  C 337.68 258.5  339 259.82  339 261.5  C 339 263.18  337.68 264.5  336 264.5  " fill-rule="nonzero" fill="#797979" stroke="none" />
</svg>