<?xml version="1.0" encoding="utf-8"?>
<svg version="1.1" xmlns:xlink="http://www.w3.org/1999/xlink" width="12px" height="12px" viewBox="477 255.5  12 12" xmlns="http://www.w3.org/2000/svg">
  <path d="M 483 255.5  C 486.36 255.5  489 258.14  489 261.5  C 489 264.86  486.36 267.5  483 267.5  C 479.64 267.5  477 264.86  477 261.5  C 477 258.14  479.64 255.5  483 255.5  Z " fill-rule="nonzero" fill="#ffffff" stroke="none" />
  <path d="M 483 256  C 486.08 256  488.5 258.42  488.5 261.5  C 488.5 264.58  486.08 267  483 267  C 479.92 267  477.5 264.58  477.5 261.5  C 477.5 258.42  479.92 256  483 256  Z " stroke-width="1" stroke="#797979" fill="none" />
  <path d="M 483 264.5  C 481.32 264.5  480 263.18  480 261.5  C 480 259.82  481.32 258.5  483 258.5  C 484.68 258.5  486 259.82  486 261.5  C 486 263.18  484.68 264.5  483 264.5  " fill-rule="nonzero" fill="#797979" stroke="none" />
</svg>