<?xml version="1.0" encoding="utf-8"?>
<svg version="1.1" xmlns:xlink="http://www.w3.org/1999/xlink" width="12px" height="12px" viewBox="1786 1036.5  12 12" xmlns="http://www.w3.org/2000/svg">
  <path d="M 1792 1036.5  C 1795.36 1036.5  1798 1039.14  1798 1042.5  C 1798 1045.86  1795.36 1048.5  1792 1048.5  C 1788.64 1048.5  1786 1045.86  1786 1042.5  C 1786 1039.14  1788.64 1036.5  1792 1036.5  Z " fill-rule="nonzero" fill="#ffffff" stroke="none" />
  <path d="M 1792 1037  C 1795.08 1037  1797.5 1039.42  1797.5 1042.5  C 1797.5 1045.58  1795.08 1048  1792 1048  C 1788.92 1048  1786.5 1045.58  1786.5 1042.5  C 1786.5 1039.42  1788.92 1037  1792 1037  Z " stroke-width="1" stroke="#797979" fill="none" />
  <path d="M 1792 1045.5  C 1790.32 1045.5  1789 1044.18  1789 1042.5  C 1789 1040.82  1790.32 1039.5  1792 1039.5  C 1793.68 1039.5  1795 1040.82  1795 1042.5  C 1795 1044.18  1793.68 1045.5  1792 1045.5  " fill-rule="nonzero" fill="#797979" stroke="none" />
</svg>