<?xml version="1.0" encoding="utf-8"?>
<svg version="1.1" xmlns:xlink="http://www.w3.org/1999/xlink" width="12px" height="12px" viewBox="548 436.5  12 12" xmlns="http://www.w3.org/2000/svg">
  <path d="M 554 436.5  C 557.36 436.5  560 439.14  560 442.5  C 560 445.86  557.36 448.5  554 448.5  C 550.64 448.5  548 445.86  548 442.5  C 548 439.14  550.64 436.5  554 436.5  Z " fill-rule="nonzero" fill="#ffffff" stroke="none" />
  <path d="M 554 437  C 557.08 437  559.5 439.42  559.5 442.5  C 559.5 445.58  557.08 448  554 448  C 550.92 448  548.5 445.58  548.5 442.5  C 548.5 439.42  550.92 437  554 437  Z " stroke-width="1" stroke="#797979" fill="none" />
  <path d="M 554 445.5  C 552.32 445.5  551 444.18  551 442.5  C 551 440.82  552.32 439.5  554 439.5  C 555.68 439.5  557 440.82  557 442.5  C 557 444.18  555.68 445.5  554 445.5  " fill-rule="nonzero" fill="#797979" stroke="none" />
</svg>