<?xml version="1.0" encoding="utf-8"?>
<svg version="1.1" xmlns:xlink="http://www.w3.org/1999/xlink" width="12px" height="12px" viewBox="477 387.5  12 12" xmlns="http://www.w3.org/2000/svg">
  <path d="M 483 387.5  C 486.36 387.5  489 390.14  489 393.5  C 489 396.86  486.36 399.5  483 399.5  C 479.64 399.5  477 396.86  477 393.5  C 477 390.14  479.64 387.5  483 387.5  Z " fill-rule="nonzero" fill="#f0f0f0" stroke="none" />
  <path d="M 483 388  C 486.08 388  488.5 390.42  488.5 393.5  C 488.5 396.58  486.08 399  483 399  C 479.92 399  477.5 396.58  477.5 393.5  C 477.5 390.42  479.92 388  483 388  Z " stroke-width="1" stroke="#797979" fill="none" />
  <path d="M 483 396.5  C 481.32 396.5  480 395.18  480 393.5  C 480 391.82  481.32 390.5  483 390.5  C 484.68 390.5  486 391.82  486 393.5  C 486 395.18  484.68 396.5  483 396.5  " fill-rule="nonzero" fill="#797979" stroke="none" />
</svg>