<?xml version="1.0" encoding="utf-8"?>
<svg version="1.1" xmlns:xlink="http://www.w3.org/1999/xlink" width="12px" height="12px" viewBox="1314 896.5  12 12" xmlns="http://www.w3.org/2000/svg">
  <path d="M 1320 896.5  C 1323.36 896.5  1326 899.14  1326 902.5  C 1326 905.86  1323.36 908.5  1320 908.5  C 1316.64 908.5  1314 905.86  1314 902.5  C 1314 899.14  1316.64 896.5  1320 896.5  Z " fill-rule="nonzero" fill="#f0f0f0" stroke="none" />
  <path d="M 1320 897  C 1323.08 897  1325.5 899.42  1325.5 902.5  C 1325.5 905.58  1323.08 908  1320 908  C 1316.92 908  1314.5 905.58  1314.5 902.5  C 1314.5 899.42  1316.92 897  1320 897  Z " stroke-width="1" stroke="#797979" fill="none" />
  <path d="M 1320 905.5  C 1318.32 905.5  1317 904.18  1317 902.5  C 1317 900.82  1318.32 899.5  1320 899.5  C 1321.68 899.5  1323 900.82  1323 902.5  C 1323 904.18  1321.68 905.5  1320 905.5  " fill-rule="nonzero" fill="#797979" stroke="none" />
</svg>