<?xml version="1.0" encoding="utf-8"?>
<svg version="1.1" xmlns:xlink="http://www.w3.org/1999/xlink" width="12px" height="12px" viewBox="1444 896.5  12 12" xmlns="http://www.w3.org/2000/svg">
  <path d="M 1450 896.5  C 1453.36 896.5  1456 899.14  1456 902.5  C 1456 905.86  1453.36 908.5  1450 908.5  C 1446.64 908.5  1444 905.86  1444 902.5  C 1444 899.14  1446.64 896.5  1450 896.5  Z " fill-rule="nonzero" fill="#ffffff" stroke="none" />
  <path d="M 1450 897  C 1453.08 897  1455.5 899.42  1455.5 902.5  C 1455.5 905.58  1453.08 908  1450 908  C 1446.92 908  1444.5 905.58  1444.5 902.5  C 1444.5 899.42  1446.92 897  1450 897  Z " stroke-width="1" stroke="#797979" fill="none" />
  <path d="M 1450 905.5  C 1448.32 905.5  1447 904.18  1447 902.5  C 1447 900.82  1448.32 899.5  1450 899.5  C 1451.68 899.5  1453 900.82  1453 902.5  C 1453 904.18  1451.68 905.5  1450 905.5  " fill-rule="nonzero" fill="#797979" stroke="none" />
</svg>