<?xml version="1.0" encoding="utf-8"?>
<svg version="1.1" xmlns:xlink="http://www.w3.org/1999/xlink" width="12px" height="12px" viewBox="1304 1304.5  12 12" xmlns="http://www.w3.org/2000/svg">
  <path d="M 1310 1304.5  C 1313.36 1304.5  1316 1307.14  1316 1310.5  C 1316 1313.86  1313.36 1316.5  1310 1316.5  C 1306.64 1316.5  1304 1313.86  1304 1310.5  C 1304 1307.14  1306.64 1304.5  1310 1304.5  Z " fill-rule="nonzero" fill="#f0f0f0" stroke="none" />
  <path d="M 1310 1305  C 1313.08 1305  1315.5 1307.42  1315.5 1310.5  C 1315.5 1313.58  1313.08 1316  1310 1316  C 1306.92 1316  1304.5 1313.58  1304.5 1310.5  C 1304.5 1307.42  1306.92 1305  1310 1305  Z " stroke-width="1" stroke="#797979" fill="none" />
  <path d="M 1310 1313.5  C 1308.32 1313.5  1307 1312.18  1307 1310.5  C 1307 1308.82  1308.32 1307.5  1310 1307.5  C 1311.68 1307.5  1313 1308.82  1313 1310.5  C 1313 1312.18  1311.68 1313.5  1310 1313.5  " fill-rule="nonzero" fill="#797979" stroke="none" />
</svg>