<?xml version="1.0" encoding="utf-8"?>
<svg version="1.1" xmlns:xlink="http://www.w3.org/1999/xlink" width="12px" height="12px" viewBox="1472 1304.5  12 12" xmlns="http://www.w3.org/2000/svg">
  <path d="M 1478 1304.5  C 1481.36 1304.5  1484 1307.14  1484 1310.5  C 1484 1313.86  1481.36 1316.5  1478 1316.5  C 1474.64 1316.5  1472 1313.86  1472 1310.5  C 1472 1307.14  1474.64 1304.5  1478 1304.5  Z " fill-rule="nonzero" fill="#f0f0f0" stroke="none" />
  <path d="M 1478 1305  C 1481.08 1305  1483.5 1307.42  1483.5 1310.5  C 1483.5 1313.58  1481.08 1316  1478 1316  C 1474.92 1316  1472.5 1313.58  1472.5 1310.5  C 1472.5 1307.42  1474.92 1305  1478 1305  Z " stroke-width="1" stroke="#797979" fill="none" />
  <path d="M 1478 1313.5  C 1476.32 1313.5  1475 1312.18  1475 1310.5  C 1475 1308.82  1476.32 1307.5  1478 1307.5  C 1479.68 1307.5  1481 1308.82  1481 1310.5  C 1481 1312.18  1479.68 1313.5  1478 1313.5  " fill-rule="nonzero" fill="#797979" stroke="none" />
</svg>