<?xml version="1.0" encoding="utf-8"?>
<svg version="1.1" xmlns:xlink="http://www.w3.org/1999/xlink" width="12px" height="12px" viewBox="460 436.5  12 12" xmlns="http://www.w3.org/2000/svg">
  <path d="M 466 436.5  C 469.36 436.5  472 439.14  472 442.5  C 472 445.86  469.36 448.5  466 448.5  C 462.64 448.5  460 445.86  460 442.5  C 460 439.14  462.64 436.5  466 436.5  Z " fill-rule="nonzero" fill="#f0f0f0" stroke="none" />
  <path d="M 466 437  C 469.08 437  471.5 439.42  471.5 442.5  C 471.5 445.58  469.08 448  466 448  C 462.92 448  460.5 445.58  460.5 442.5  C 460.5 439.42  462.92 437  466 437  Z " stroke-width="1" stroke="#797979" fill="none" />
  <path d="M 466 445.5  C 464.32 445.5  463 444.18  463 442.5  C 463 440.82  464.32 439.5  466 439.5  C 467.68 439.5  469 440.82  469 442.5  C 469 444.18  467.68 445.5  466 445.5  " fill-rule="nonzero" fill="#797979" stroke="none" />
</svg>