<?xml version="1.0" encoding="utf-8"?>
<svg version="1.1" xmlns:xlink="http://www.w3.org/1999/xlink" width="12px" height="12px" viewBox="1585 1304.5  12 12" xmlns="http://www.w3.org/2000/svg">
  <path d="M 1591 1304.5  C 1594.36 1304.5  1597 1307.14  1597 1310.5  C 1597 1313.86  1594.36 1316.5  1591 1316.5  C 1587.64 1316.5  1585 1313.86  1585 1310.5  C 1585 1307.14  1587.64 1304.5  1591 1304.5  Z " fill-rule="nonzero" fill="#f0f0f0" stroke="none" />
  <path d="M 1591 1305  C 1594.08 1305  1596.5 1307.42  1596.5 1310.5  C 1596.5 1313.58  1594.08 1316  1591 1316  C 1587.92 1316  1585.5 1313.58  1585.5 1310.5  C 1585.5 1307.42  1587.92 1305  1591 1305  Z " stroke-width="1" stroke="#797979" fill="none" />
  <path d="M 1591 1313.5  C 1589.32 1313.5  1588 1312.18  1588 1310.5  C 1588 1308.82  1589.32 1307.5  1591 1307.5  C 1592.68 1307.5  1594 1308.82  1594 1310.5  C 1594 1312.18  1592.68 1313.5  1591 1313.5  " fill-rule="nonzero" fill="#797979" stroke="none" />
</svg>