<?xml version="1.0" encoding="utf-8"?>
<svg version="1.1" xmlns:xlink="http://www.w3.org/1999/xlink" width="12px" height="12px" viewBox="389 959.5  12 12" xmlns="http://www.w3.org/2000/svg">
  <path d="M 395 959.5  C 398.36 959.5  401 962.14  401 965.5  C 401 968.86  398.36 971.5  395 971.5  C 391.64 971.5  389 968.86  389 965.5  C 389 962.14  391.64 959.5  395 959.5  Z " fill-rule="nonzero" fill="#ffffff" stroke="none" />
  <path d="M 395 960  C 398.08 960  400.5 962.42  400.5 965.5  C 400.5 968.58  398.08 971  395 971  C 391.92 971  389.5 968.58  389.5 965.5  C 389.5 962.42  391.92 960  395 960  Z " stroke-width="1" stroke="#797979" fill="none" />
  <path d="M 395 968.5  C 393.32 968.5  392 967.18  392 965.5  C 392 963.82  393.32 962.5  395 962.5  C 396.68 962.5  398 963.82  398 965.5  C 398 967.18  396.68 968.5  395 968.5  " fill-rule="nonzero" fill="#797979" stroke="none" />
</svg>