<?xml version="1.0" encoding="utf-8"?>
<svg version="1.1" xmlns:xlink="http://www.w3.org/1999/xlink" width="12px" height="12px" viewBox="251 959.5  12 12" xmlns="http://www.w3.org/2000/svg">
  <path d="M 257 959.5  C 260.36 959.5  263 962.14  263 965.5  C 263 968.86  260.36 971.5  257 971.5  C 253.64 971.5  251 968.86  251 965.5  C 251 962.14  253.64 959.5  257 959.5  Z " fill-rule="nonzero" fill="#f0f0f0" stroke="none" />
  <path d="M 257 960  C 260.08 960  262.5 962.42  262.5 965.5  C 262.5 968.58  260.08 971  257 971  C 253.92 971  251.5 968.58  251.5 965.5  C 251.5 962.42  253.92 960  257 960  Z " stroke-width="1" stroke="#797979" fill="none" />
  <path d="M 257 968.5  C 255.32 968.5  254 967.18  254 965.5  C 254 963.82  255.32 962.5  257 962.5  C 258.68 962.5  260 963.82  260 965.5  C 260 967.18  258.68 968.5  257 968.5  " fill-rule="nonzero" fill="#797979" stroke="none" />
</svg>