<?xml version="1.0" encoding="utf-8"?>
<svg version="1.1" xmlns:xlink="http://www.w3.org/1999/xlink" width="12px" height="12px" viewBox="569 268.5  12 12" xmlns="http://www.w3.org/2000/svg">
  <path d="M 575 268.5  C 578.36 268.5  581 271.14  581 274.5  C 581 277.86  578.36 280.5  575 280.5  C 571.64 280.5  569 277.86  569 274.5  C 569 271.14  571.64 268.5  575 268.5  Z " fill-rule="nonzero" fill="#ffffff" stroke="none" />
  <path d="M 575 269  C 578.08 269  580.5 271.42  580.5 274.5  C 580.5 277.58  578.08 280  575 280  C 571.92 280  569.5 277.58  569.5 274.5  C 569.5 271.42  571.92 269  575 269  Z " stroke-width="1" stroke="#797979" fill="none" />
  <path d="M 575 277.5  C 573.32 277.5  572 276.18  572 274.5  C 572 272.82  573.32 271.5  575 271.5  C 576.68 271.5  578 272.82  578 274.5  C 578 276.18  576.68 277.5  575 277.5  " fill-rule="nonzero" fill="#797979" stroke="none" />
</svg>