<?xml version="1.0" encoding="utf-8"?>
<svg version="1.1" xmlns:xlink="http://www.w3.org/1999/xlink" width="115px" height="68px" xmlns="http://www.w3.org/2000/svg">
  <g transform="matrix(1 0 0 1 -253 -295 )">
    <path d="M 253 295  L 368 295  L 368 363  L 253 363  L 253 295  " fill-rule="nonzero" fill="#cccccc" stroke="none" />
    <path d="M 258 300  L 363 300  L 363 358  L 258 358  L 258 300  " fill-rule="nonzero" fill="#ffffff" stroke="none" />
    <path d="M 317.9 315.4  C 315.044 315.4  312.8 313.156  312.8 310.3  C 312.8 307.444  315.044 305.2  317.9 305.2  C 320.756 305.2  323 307.444  323 310.3  C 323 313.156  320.756 315.4  317.9 315.4  " fill-rule="nonzero" fill="#cccccc" stroke="none" />
    <path d="M 260 357  L 260 326.75  L 285.5 313  L 321.2 337.486956521739  L 341.6 321.25  L 362 337.486956521739  L 362 357  L 260 357  " fill-rule="nonzero" fill="#169bd5" stroke="none" />
  </g>
</svg>