<?xml version="1.0" encoding="utf-8"?>
<svg version="1.1" xmlns:xlink="http://www.w3.org/1999/xlink" width="22px" height="20px" preserveAspectRatio="xMinYMid meet" viewBox="1732 685  22 18" xmlns="http://www.w3.org/2000/svg">
  <g transform="matrix(-1 0 0 -1 3486 1388 )">
    <path d="M 1019 691.5  A 3 3 0 0 0 1016 694.5 A 3 3 0 0 0 1019 697.5 A 3 3 0 0 0 1022 694.5 A 3 3 0 0 0 1019 691.5 Z M 1743 691.5  A 3 3 0 0 0 1740 694.5 A 3 3 0 0 0 1743 697.5 A 3 3 0 0 0 1746 694.5 A 3 3 0 0 0 1743 691.5 Z " fill-rule="nonzero" fill="#d9001b" stroke="none" transform="matrix(0.999999056576628 -0.00137362507771515 0.00137362507771515 0.999999056576628 -0.952679748796299 1.89763143985658 )" />
    <path d="M 1017 694.5  L 1745 694.5  " stroke-width="1" stroke="#d9001b" fill="none" transform="matrix(0.999999056576628 -0.00137362507771515 0.00137362507771515 0.999999056576628 -0.952679748796299 1.89763143985658 )" />
  </g>
</svg>