<?xml version="1.0" encoding="utf-8"?>
<svg version="1.1" xmlns:xlink="http://www.w3.org/1999/xlink" width="19px" height="19px" xmlns="http://www.w3.org/2000/svg">
  <g transform="matrix(1 0 0 1 -465 -402 )">
    <path d="M 474.5 402  C 479.82 402  484 406.18  484 411.5  C 484 416.82  479.82 421  474.5 421  C 469.18 421  465 416.82  465 411.5  C 465 406.18  469.18 402  474.5 402  Z " fill-rule="nonzero" fill="#ffffff" stroke="none" />
    <path d="M 474.5 402.5  C 479.54 402.5  483.5 406.46  483.5 411.5  C 483.5 416.54  479.54 420.5  474.5 420.5  C 469.46 420.5  465.5 416.54  465.5 411.5  C 465.5 406.46  469.46 402.5  474.5 402.5  Z " stroke-width="1" stroke="#797979" fill="none" />
  </g>
</svg>