<?xml version="1.0" encoding="utf-8"?>
<svg version="1.1" xmlns:xlink="http://www.w3.org/1999/xlink" width="19px" height="19px" xmlns="http://www.w3.org/2000/svg">
  <defs>
    <mask fill="white" id="clip25">
      <path d="M 0 9.5  C 0 4.18000000000001  4.18000000000001 0  9.5 0  C 13.9019550181865 0  17.5234102519153 2.8618325430117  18.6421978100148 6.86332973786352  C 18.8755565389544 7.69807925995735  19 8.58207006710882  19 9.5  C 19 14.82  14.82 19  9.5 19  C 4.18000000000001 19  0 14.82  0 9.5  Z " fill-rule="evenodd" />
    </mask>
  </defs>
  <g transform="matrix(1 0 0 1 -289 -465 )">
    <path d="M 0 9.5  C 0 4.18000000000001  4.18000000000001 0  9.5 0  C 13.9019550181865 0  17.5234102519153 2.8618325430117  18.6421978100148 6.86332973786352  C 18.8755565389544 7.69807925995735  19 8.58207006710882  19 9.5  C 19 14.82  14.82 19  9.5 19  C 4.18000000000001 19  0 14.82  0 9.5  Z " fill-rule="nonzero" fill="#ffffff" stroke="none" transform="matrix(1 0 0 1 289 465 )" />
    <path d="M 0 9.5  C 0 4.18000000000001  4.18000000000001 0  9.5 0  C 13.9019550181865 0  17.5234102519153 2.8618325430117  18.6421978100148 6.86332973786352  C 18.8755565389544 7.69807925995735  19 8.58207006710882  19 9.5  C 19 14.82  14.82 19  9.5 19  C 4.18000000000001 19  0 14.82  0 9.5  Z " stroke-width="2" stroke="#797979" fill="none" transform="matrix(1 0 0 1 289 465 )" mask="url(#clip25)" />
  </g>
</svg>