<?xml version="1.0" encoding="utf-8"?>
<svg version="1.1" xmlns:xlink="http://www.w3.org/1999/xlink" width="606px" height="10px" preserveAspectRatio="xMinYMid meet" viewBox="1140 51  606 8" xmlns="http://www.w3.org/2000/svg">
  <g transform="matrix(0.994521895368273 0.104528463267653 -0.104528463267661 0.994521895368272 13.6539704633042 -150.533276740479 )">
    <path d="M 1147.9 50.8  L 1144 54.5  L 1147.9 58.2  L 1151.7 54.5  L 1147.9 50.8  Z M 1147.9 56.8  L 1145.4 54.5  L 1147.9 52.2  L 1150.3 54.5  L 1147.9 56.8  Z M 1737.1 58.2  L 1741 54.5  L 1737.1 50.8  L 1733.3 54.5  L 1737.1 58.2  Z M 1737.1 52.2  L 1739.6 54.5  L 1737.1 56.8  L 1734.7 54.5  L 1737.1 52.2  Z " fill-rule="nonzero" fill="#d9001b" stroke="none" transform="matrix(0.994803519605584 -0.101813345786995 0.101813345786995 0.994803519605584 1.94709562355388 147.148959479236 )" />
    <path d="M 1150 54.5  L 1735 54.5  " stroke-width="1" stroke="#d9001b" fill="none" transform="matrix(0.994803519605584 -0.101813345786995 0.101813345786995 0.994803519605584 1.94709562355388 147.148959479236 )" />
  </g>
</svg>