<?xml version="1.0" encoding="utf-8"?>
<svg version="1.1" xmlns:xlink="http://www.w3.org/1999/xlink" width="22px" height="22px" preserveAspectRatio="xMinYMid meet" viewBox="1654 777  22 20" xmlns="http://www.w3.org/2000/svg">
  <g transform="matrix(-0.999390827019094 -0.0348994967025025 0.0348994967025025 -0.999390827019094 3301.51982308192 1631.62824287369 )">
    <path d="M 1349.9 788.8  L 1346 792.5  L 1349.9 796.2  L 1353.7 792.5  L 1349.9 788.8  Z M 1349.9 794.8  L 1347.4 792.5  L 1349.9 790.2  L 1352.3 792.5  L 1349.9 794.8  Z M 1663.1 796.2  L 1667 792.5  L 1663.1 788.8  L 1659.3 792.5  L 1663.1 796.2  Z M 1663.1 790.2  L 1665.6 792.5  L 1663.1 794.8  L 1660.7 792.5  L 1663.1 790.2  Z " fill-rule="nonzero" fill="#d9001b" stroke="none" transform="matrix(0.999498157176026 -0.0316770232460224 0.0316770232460224 0.999498157176026 -24.3480147081552 48.1191459581325 )" />
    <path d="M 1352 792.5  L 1661 792.5  " stroke-width="1" stroke="#d9001b" fill="none" transform="matrix(0.999498157176026 -0.0316770232460224 0.0316770232460224 0.999498157176026 -24.3480147081552 48.1191459581325 )" />
  </g>
</svg>