<?xml version="1.0" encoding="utf-8"?>
<svg version="1.1" xmlns:xlink="http://www.w3.org/1999/xlink" width="1233px" height="19px" xmlns="http://www.w3.org/2000/svg">
  <g transform="matrix(1 0 0 1 -851 -797 )">
    <path d="M 6.00000004701524 0.5  L 1209.00000159908 0.5  " stroke-width="1" stroke="#d9001b" fill="none" transform="matrix(1 0 0 1 860 806 )" />
    <path d="M 3.90000025698261 -3.2  L 0 0.5  L 3.90000025698261 4.2  L 7.70000025698261 0.5  L 3.90000025698261 -3.2  Z M 3.90000025698261 2.8  L 1.40000025698261 0.5  L 3.90000025698261 -1.8  L 6.30000025698261 0.5  L 3.90000025698261 2.8  Z M 1211.09999375836 4.2  L 1214.99999375836 0.5  L 1211.09999375836 -3.2  L 1207.29999375836 0.5  L 1211.09999375836 4.2  Z M 1211.09999375836 -1.8  L 1213.59999375836 0.5  L 1211.09999375836 2.8  L 1208.69999375836 0.5  L 1211.09999375836 -1.8  Z " fill-rule="nonzero" fill="#d9001b" stroke="none" transform="matrix(1 0 0 1 860 806 )" />
  </g>
</svg>