<?xml version="1.0" encoding="utf-8"?>
<svg version="1.1" xmlns:xlink="http://www.w3.org/1999/xlink" width="22px" height="20px" preserveAspectRatio="xMinYMid meet" viewBox="332 323  22 18" xmlns="http://www.w3.org/2000/svg">
  <g transform="matrix(0.999390827019097 0.0348994967025001 -0.0348994967025022 0.999390827019096 11.7955792376806 -11.7682819392974 )">
    <path d="M 344.9 299.8  L 341 303.5  L 344.9 307.2  L 348.7 303.5  L 344.9 299.8  Z M 344.9 305.8  L 342.4 303.5  L 344.9 301.2  L 347.3 303.5  L 344.9 305.8  Z M 1963.1 307.2  L 1967 303.5  L 1963.1 299.8  L 1959.3 303.5  L 1963.1 307.2  Z M 1963.1 301.2  L 1965.6 303.5  L 1963.1 305.8  L 1960.7 303.5  L 1963.1 301.2  Z " fill-rule="nonzero" fill="#d9001b" stroke="none" transform="matrix(0.999401668583369 -0.0345876398844811 0.0345876398844811 0.999401668583369 -9.8068742501473 40.0957300116388 )" />
    <path d="M 347 303.5  L 1961 303.5  " stroke-width="1" stroke="#d9001b" fill="none" transform="matrix(0.999401668583369 -0.0345876398844811 0.0345876398844811 0.999401668583369 -9.8068742501473 40.0957300116388 )" />
  </g>
</svg>