<?xml version="1.0" encoding="utf-8"?>
<svg version="1.1" xmlns:xlink="http://www.w3.org/1999/xlink" width="406px" height="10px" preserveAspectRatio="xMinYMid meet" viewBox="1578 541  406 8" xmlns="http://www.w3.org/2000/svg">
  <g transform="matrix(0.987688340595138 0.156434465040232 -0.156434465040231 0.987688340595148 107.183848846985 -271.89992786101 )">
    <path d="M 1586.9 540.8  L 1583 544.5  L 1586.9 548.2  L 1590.7 544.5  L 1586.9 540.8  Z M 1586.9 546.8  L 1584.4 544.5  L 1586.9 542.2  L 1589.3 544.5  L 1586.9 546.8  Z M 1976.1 548.2  L 1980 544.5  L 1976.1 540.8  L 1972.3 544.5  L 1976.1 548.2  Z M 1976.1 542.2  L 1978.6 544.5  L 1976.1 546.8  L 1973.7 544.5  L 1976.1 542.2  Z " fill-rule="nonzero" fill="#d9001b" stroke="none" transform="matrix(0.986494319325074 -0.163795475942891 0.163795475942891 0.986494319325074 -65.1262665285242 299.155483519757 )" />
    <path d="M 1589 544.5  L 1974 544.5  " stroke-width="1" stroke="#d9001b" fill="none" transform="matrix(0.986494319325074 -0.163795475942891 0.163795475942891 0.986494319325074 -65.1262665285242 299.155483519757 )" />
  </g>
</svg>