<?xml version="1.0" encoding="utf-8"?>
<svg version="1.1" xmlns:xlink="http://www.w3.org/1999/xlink" width="22px" height="22px" preserveAspectRatio="xMinYMid meet" viewBox="1974 915  22 20" xmlns="http://www.w3.org/2000/svg">
  <g transform="matrix(-0.98768834059514 -0.156434465040227 0.156434465040217 -0.98768834059514 3800.85947591915 2149.13412815536 )">
    <path d="M 1595.9 953.8  L 1592 957.5  L 1595.9 961.2  L 1599.7 957.5  L 1595.9 953.8  Z M 1595.9 959.8  L 1593.4 957.5  L 1595.9 955.2  L 1598.3 957.5  L 1595.9 959.8  Z M 1985.1 961.2  L 1989 957.5  L 1985.1 953.8  L 1981.3 957.5  L 1985.1 961.2  Z M 1985.1 955.2  L 1987.6 957.5  L 1985.1 959.8  L 1982.7 957.5  L 1985.1 955.2  Z " fill-rule="nonzero" fill="#d9001b" stroke="none" transform="matrix(0.986494319325074 -0.163795475942891 0.163795475942891 0.986494319325074 -132.652246966864 306.207488921987 )" />
    <path d="M 1598 957.5  L 1983 957.5  " stroke-width="1" stroke="#d9001b" fill="none" transform="matrix(0.986494319325074 -0.163795475942891 0.163795475942891 0.986494319325074 -132.652246966864 306.207488921987 )" />
  </g>
</svg>