<?xml version="1.0" encoding="utf-8"?>
<svg version="1.1" xmlns:xlink="http://www.w3.org/1999/xlink" width="24px" height="20px" preserveAspectRatio="xMinYMid meet" viewBox="1584 981  24 18" xmlns="http://www.w3.org/2000/svg">
  <g transform="matrix(0.987688340595138 0.156434465040235 -0.156434465040229 0.987688340595136 174.519528799986 -237.480863393399 )">
    <path d="M 1595.9 953.8  L 1592 957.5  L 1595.9 961.2  L 1599.7 957.5  L 1595.9 953.8  Z M 1595.9 959.8  L 1593.4 957.5  L 1595.9 955.2  L 1598.3 957.5  L 1595.9 959.8  Z M 1985.1 961.2  L 1989 957.5  L 1985.1 953.8  L 1981.3 957.5  L 1985.1 961.2  Z M 1985.1 955.2  L 1987.6 957.5  L 1985.1 959.8  L 1982.7 957.5  L 1985.1 955.2  Z " fill-rule="nonzero" fill="#d9001b" stroke="none" transform="matrix(0.986494319325074 -0.163795475942891 0.163795475942891 0.986494319325074 -132.652246966864 306.207488921987 )" />
    <path d="M 1598 957.5  L 1983 957.5  " stroke-width="1" stroke="#d9001b" fill="none" transform="matrix(0.986494319325074 -0.163795475942891 0.163795475942891 0.986494319325074 -132.652246966864 306.207488921987 )" />
  </g>
</svg>