<?xml version="1.0" encoding="utf-8"?>
<svg version="1.1" xmlns:xlink="http://www.w3.org/1999/xlink" width="406px" height="10px" preserveAspectRatio="xMinYMid meet" viewBox="1578 751  406 8" xmlns="http://www.w3.org/2000/svg">
  <g transform="matrix(0.987688340595139 0.156434465040231 -0.156434465040229 0.987688340595137 140.035086505431 -269.314479385979 )">
    <path d="M 1586.9 751.8  L 1583 755.5  L 1586.9 759.2  L 1590.7 755.5  L 1586.9 751.8  Z M 1586.9 757.8  L 1584.4 755.5  L 1586.9 753.2  L 1589.3 755.5  L 1586.9 757.8  Z M 1976.1 759.2  L 1980 755.5  L 1976.1 751.8  L 1972.3 755.5  L 1976.1 759.2  Z M 1976.1 753.2  L 1978.6 755.5  L 1976.1 757.8  L 1973.7 755.5  L 1976.1 753.2  Z " fill-rule="nonzero" fill="#d9001b" stroke="none" transform="matrix(0.986494319325074 -0.163795475942891 0.163795475942891 0.986494319325074 -99.6871119524742 302.005182142167 )" />
    <path d="M 1589 755.5  L 1974 755.5  " stroke-width="1" stroke="#d9001b" fill="none" transform="matrix(0.986494319325074 -0.163795475942891 0.163795475942891 0.986494319325074 -99.6871119524742 302.005182142167 )" />
  </g>
</svg>