<?xml version="1.0" encoding="utf-8"?>
<svg version="1.1" xmlns:xlink="http://www.w3.org/1999/xlink" width="12px" height="12px" viewBox="51 309.5  12 12" xmlns="http://www.w3.org/2000/svg">
  <path d="M 57 309.5  C 60.36 309.5  63 312.14  63 315.5  C 63 318.86  60.36 321.5  57 321.5  C 53.64 321.5  51 318.86  51 315.5  C 51 312.14  53.64 309.5  57 309.5  Z " fill-rule="nonzero" fill="#f0f0f0" stroke="none" />
  <path d="M 57 310  C 60.08 310  62.5 312.42  62.5 315.5  C 62.5 318.58  60.08 321  57 321  C 53.92 321  51.5 318.58  51.5 315.5  C 51.5 312.42  53.92 310  57 310  Z " stroke-width="1" stroke="#797979" fill="none" />
  <path d="M 57 318.5  C 55.32 318.5  54 317.18  54 315.5  C 54 313.82  55.32 312.5  57 312.5  C 58.68 312.5  60 313.82  60 315.5  C 60 317.18  58.68 318.5  57 318.5  " fill-rule="nonzero" fill="#797979" stroke="none" />
</svg>