<?xml version="1.0" encoding="utf-8"?>
<svg version="1.1" xmlns:xlink="http://www.w3.org/1999/xlink" width="12px" height="12px" viewBox="51 277.5  12 12" xmlns="http://www.w3.org/2000/svg">
  <path d="M 57 277.5  C 60.36 277.5  63 280.14  63 283.5  C 63 286.86  60.36 289.5  57 289.5  C 53.64 289.5  51 286.86  51 283.5  C 51 280.14  53.64 277.5  57 277.5  Z " fill-rule="nonzero" fill="#f0f0f0" stroke="none" />
  <path d="M 57 278  C 60.08 278  62.5 280.42  62.5 283.5  C 62.5 286.58  60.08 289  57 289  C 53.92 289  51.5 286.58  51.5 283.5  C 51.5 280.42  53.92 278  57 278  Z " stroke-width="1" stroke="#797979" fill="none" />
  <path d="M 57 286.5  C 55.32 286.5  54 285.18  54 283.5  C 54 281.82  55.32 280.5  57 280.5  C 58.68 280.5  60 281.82  60 283.5  C 60 285.18  58.68 286.5  57 286.5  " fill-rule="nonzero" fill="#797979" stroke="none" />
</svg>