<?xml version="1.0" encoding="utf-8"?>
<svg version="1.1" xmlns:xlink="http://www.w3.org/1999/xlink" width="124px" height="114px" xmlns="http://www.w3.org/2000/svg">
  <g transform="matrix(1 0 0 1 -1062 -509 )">
    <path d="M 1124 509  C 1158.72 509  1186 534.08  1186 566  C 1186 597.92  1158.72 623  1124 623  C 1089.28 623  1062 597.92  1062 566  C 1062 534.08  1089.28 509  1124 509  Z " fill-rule="nonzero" fill="#ffffff" stroke="none" />
    <path d="M 1124 509.5  C 1158.44 509.5  1185.5 534.36  1185.5 566  C 1185.5 597.64  1158.44 622.5  1124 622.5  C 1089.56 622.5  1062.5 597.64  1062.5 566  C 1062.5 534.36  1089.56 509.5  1124 509.5  Z " stroke-width="1" stroke="#797979" fill="none" />
  </g>
</svg>