<?xml version="1.0" encoding="utf-8"?>
<svg version="1.1" xmlns:xlink="http://www.w3.org/1999/xlink" width="12px" height="12px" viewBox="240 243.5  12 12" xmlns="http://www.w3.org/2000/svg">
  <path d="M 246 243.5  C 249.36 243.5  252 246.14  252 249.5  C 252 252.86  249.36 255.5  246 255.5  C 242.64 255.5  240 252.86  240 249.5  C 240 246.14  242.64 243.5  246 243.5  Z " fill-rule="nonzero" fill="#f0f0f0" stroke="none" />
  <path d="M 246 244  C 249.08 244  251.5 246.42  251.5 249.5  C 251.5 252.58  249.08 255  246 255  C 242.92 255  240.5 252.58  240.5 249.5  C 240.5 246.42  242.92 244  246 244  Z " stroke-width="1" stroke="#797979" fill="none" />
  <path d="M 246 252.5  C 244.32 252.5  243 251.18  243 249.5  C 243 247.82  244.32 246.5  246 246.5  C 247.68 246.5  249 247.82  249 249.5  C 249 251.18  247.68 252.5  246 252.5  " fill-rule="nonzero" fill="#797979" stroke="none" />
</svg>