<?xml version="1.0" encoding="utf-8"?>
<svg version="1.1" xmlns:xlink="http://www.w3.org/1999/xlink" width="12px" height="12px" viewBox="340 255.5  12 12" xmlns="http://www.w3.org/2000/svg">
  <path d="M 346 255.5  C 349.36 255.5  352 258.14  352 261.5  C 352 264.86  349.36 267.5  346 267.5  C 342.64 267.5  340 264.86  340 261.5  C 340 258.14  342.64 255.5  346 255.5  Z " fill-rule="nonzero" fill="#ffffff" stroke="none" />
  <path d="M 346 256  C 349.08 256  351.5 258.42  351.5 261.5  C 351.5 264.58  349.08 267  346 267  C 342.92 267  340.5 264.58  340.5 261.5  C 340.5 258.42  342.92 256  346 256  Z " stroke-width="1" stroke="#797979" fill="none" />
  <path d="M 346 264.5  C 344.32 264.5  343 263.18  343 261.5  C 343 259.82  344.32 258.5  346 258.5  C 347.68 258.5  349 259.82  349 261.5  C 349 263.18  347.68 264.5  346 264.5  " fill-rule="nonzero" fill="#797979" stroke="none" />
</svg>