<?xml version="1.0" encoding="utf-8"?>
<svg version="1.1" xmlns:xlink="http://www.w3.org/1999/xlink" width="12px" height="12px" viewBox="487 255.5  12 12" xmlns="http://www.w3.org/2000/svg">
  <path d="M 493 255.5  C 496.36 255.5  499 258.14  499 261.5  C 499 264.86  496.36 267.5  493 267.5  C 489.64 267.5  487 264.86  487 261.5  C 487 258.14  489.64 255.5  493 255.5  Z " fill-rule="nonzero" fill="#f0f0f0" stroke="none" />
  <path d="M 493 256  C 496.08 256  498.5 258.42  498.5 261.5  C 498.5 264.58  496.08 267  493 267  C 489.92 267  487.5 264.58  487.5 261.5  C 487.5 258.42  489.92 256  493 256  Z " stroke-width="1" stroke="#797979" fill="none" />
  <path d="M 493 264.5  C 491.32 264.5  490 263.18  490 261.5  C 490 259.82  491.32 258.5  493 258.5  C 494.68 258.5  496 259.82  496 261.5  C 496 263.18  494.68 264.5  493 264.5  " fill-rule="nonzero" fill="#797979" stroke="none" />
</svg>