<?xml version="1.0" encoding="utf-8"?>
<svg version="1.1" xmlns:xlink="http://www.w3.org/1999/xlink" width="42px" height="43px" xmlns="http://www.w3.org/2000/svg">
  <g transform="matrix(1 0 0 1 -117 -723 )">
    <path d="M 117 723  L 159 723  L 159 766  L 117 766  L 117 723  " fill-rule="nonzero" fill="#cccccc" stroke="none" />
    <path d="M 120 726  L 156 726  L 156 763  L 120 763  L 120 726  " fill-rule="nonzero" fill="#ffffff" stroke="none" />
    <path d="M 141.99 735.75  C 140.226 735.75  138.84 734.364  138.84 732.6  C 138.84 730.836  140.226 729.45  141.99 729.45  C 143.754 729.45  145.14 730.836  145.14 732.6  C 145.14 734.364  143.754 735.75  141.99 735.75  " fill-rule="nonzero" fill="#cccccc" stroke="none" />
    <path d="M 121 762  L 121 742.75  L 129.5 734  L 141.4 741  L 148.2 739.25  L 155 741  L 155 762  L 121 762  " fill-rule="nonzero" fill="#169bd5" stroke="none" />
  </g>
</svg>