<?xml version="1.0" encoding="utf-8"?>
<svg version="1.1" xmlns:xlink="http://www.w3.org/1999/xlink" width="986px" height="14px" preserveAspectRatio="xMinYMid meet" viewBox="612 169  986 12" xmlns="http://www.w3.org/2000/svg">
  <g transform="matrix(0.999390827019096 -0.034899496702501 0.0348994967024997 0.999390827019097 -5.43427577903844 38.6705491279216 )">
    <path d="M 622.9 170.8  L 619 174.5  L 622.9 178.2  L 626.7 174.5  L 622.9 170.8  Z M 622.9 176.8  L 620.4 174.5  L 622.9 172.2  L 625.3 174.5  L 622.9 176.8  Z M 1587.1 178.2  L 1591 174.5  L 1587.1 170.8  L 1583.3 174.5  L 1587.1 178.2  Z M 1587.1 172.2  L 1589.6 174.5  L 1587.1 176.8  L 1584.7 174.5  L 1587.1 172.2  Z " fill-rule="nonzero" fill="#d9001b" stroke="none" transform="matrix(0.99955726324573 0.029753613103379 -0.029753613103379 0.99955726324573 5.68122960000733 -32.8004849156138 )" />
    <path d="M 625 174.5  L 1585 174.5  " stroke-width="1" stroke="#d9001b" fill="none" transform="matrix(0.99955726324573 0.029753613103379 -0.029753613103379 0.99955726324573 5.68122960000733 -32.8004849156138 )" />
  </g>
</svg>