<?xml version="1.0" encoding="utf-8"?>
<svg version="1.1" xmlns:xlink="http://www.w3.org/1999/xlink" width="22px" height="22px" preserveAspectRatio="xMinYMid meet" viewBox="612 647  22 20" xmlns="http://www.w3.org/2000/svg">
  <g transform="matrix(0.34202014332567 0.939692620785908 -0.939692620785908 0.34202014332567 1027.29950256445 -153.135736914586 )">
    <path d="M 509.9 487.8  L 506 491.5  L 509.9 495.2  L 513.7 491.5  L 509.9 487.8  Z M 509.9 493.8  L 507.4 491.5  L 509.9 489.2  L 512.3 491.5  L 509.9 493.8  Z M 858.1 495.2  L 862 491.5  L 858.1 487.8  L 854.3 491.5  L 858.1 495.2  Z M 858.1 489.2  L 860.6 491.5  L 858.1 493.8  L 855.7 491.5  L 858.1 489.2  Z " fill-rule="nonzero" fill="#d9001b" stroke="none" transform="matrix(0.347901540060091 -0.937531075977654 0.937531075977654 0.347901540060091 -14.761177244119 961.77764902918 )" />
    <path d="M 512 491.5  L 856 491.5  " stroke-width="1" stroke="#d9001b" fill="none" transform="matrix(0.347901540060091 -0.937531075977654 0.937531075977654 0.347901540060091 -14.761177244119 961.77764902918 )" />
  </g>
</svg>