<?xml version="1.0" encoding="utf-8"?>
<svg version="1.1" xmlns:xlink="http://www.w3.org/1999/xlink" width="22px" height="22px" preserveAspectRatio="xMinYMid meet" viewBox="620 1357  22 20" xmlns="http://www.w3.org/2000/svg">
  <g transform="matrix(0.207911690817757 0.97814760073381 -0.9781476007338 0.207911690817757 1836.9354932971 465.573582589092 )">
    <path d="M 193.9 815.8  L 190 819.5  L 193.9 823.2  L 197.7 819.5  L 193.9 815.8  Z M 193.9 821.8  L 191.4 819.5  L 193.9 817.2  L 196.3 819.5  L 193.9 821.8  Z M 1309.1 823.2  L 1313 819.5  L 1309.1 815.8  L 1305.3 819.5  L 1309.1 823.2  Z M 1309.1 817.2  L 1311.6 819.5  L 1309.1 821.8  L 1306.7 819.5  L 1309.1 817.2  Z " fill-rule="nonzero" fill="#d9001b" stroke="none" transform="matrix(0.21451217177994 -0.976721315503175 0.976721315503175 0.21451217177994 -210.129015147477 1377.71334382698 )" />
    <path d="M 196 819.5  L 1307 819.5  " stroke-width="1" stroke="#d9001b" fill="none" transform="matrix(0.21451217177994 -0.976721315503175 0.976721315503175 0.21451217177994 -210.129015147477 1377.71334382698 )" />
  </g>
</svg>