<?xml version="1.0" encoding="utf-8"?>
<svg version="1.1" xmlns:xlink="http://www.w3.org/1999/xlink" width="22px" height="22px" preserveAspectRatio="xMinYMid meet" viewBox="1578 179  22 20" xmlns="http://www.w3.org/2000/svg">
  <g transform="matrix(-0.999390827019105 0.0348994967025017 -0.034899496702503 -0.999390827019097 3183.62802901013 322.429566046334 )">
    <path d="M 622.9 170.8  L 619 174.5  L 622.9 178.2  L 626.7 174.5  L 622.9 170.8  Z M 622.9 176.8  L 620.4 174.5  L 622.9 172.2  L 625.3 174.5  L 622.9 176.8  Z M 1587.1 178.2  L 1591 174.5  L 1587.1 170.8  L 1583.3 174.5  L 1587.1 178.2  Z M 1587.1 172.2  L 1589.6 174.5  L 1587.1 176.8  L 1584.7 174.5  L 1587.1 172.2  Z " fill-rule="nonzero" fill="#d9001b" stroke="none" transform="matrix(0.99955726324573 0.029753613103379 -0.029753613103379 0.99955726324573 5.68122960000733 -32.8004849156138 )" />
    <path d="M 625 174.5  L 1585 174.5  " stroke-width="1" stroke="#d9001b" fill="none" transform="matrix(0.99955726324573 0.029753613103379 -0.029753613103379 0.99955726324573 5.68122960000733 -32.8004849156138 )" />
  </g>
</svg>