<?xml version="1.0" encoding="utf-8"?>
<svg version="1.1" xmlns:xlink="http://www.w3.org/1999/xlink" width="22px" height="22px" preserveAspectRatio="xMinYMid meet" viewBox="1102 679  22 20" xmlns="http://www.w3.org/2000/svg">
  <g transform="matrix(0.961261695938315 -0.275637355816995 0.275637355817005 0.961261695938325 -146.798405737261 333.47506852281 )">
    <path d="M 1109.9 724.8  L 1106 728.5  L 1109.9 732.2  L 1113.7 728.5  L 1109.9 724.8  Z M 1109.9 730.8  L 1107.4 728.5  L 1109.9 726.2  L 1112.3 728.5  L 1109.9 730.8  Z M 1388.1 732.2  L 1392 728.5  L 1388.1 724.8  L 1384.3 728.5  L 1388.1 732.2  Z M 1388.1 726.2  L 1390.6 728.5  L 1388.1 730.8  L 1385.7 728.5  L 1388.1 726.2  Z " fill-rule="nonzero" fill="#d9001b" stroke="none" transform="matrix(0.960641782283662 0.277790147649028 -0.277790147649028 0.960641782283662 251.528536490022 -318.287432807284 )" />
    <path d="M 1112 728.5  L 1386 728.5  " stroke-width="1" stroke="#d9001b" fill="none" transform="matrix(0.960641782283662 0.277790147649028 -0.277790147649028 0.960641782283662 251.528536490022 -318.287432807284 )" />
  </g>
</svg>