<?xml version="1.0" encoding="utf-8"?>
<svg version="1.1" xmlns:xlink="http://www.w3.org/1999/xlink" width="22px" height="22px" preserveAspectRatio="xMinYMid meet" viewBox="1800 37  22 20" xmlns="http://www.w3.org/2000/svg">
  <g transform="matrix(0.992546151641322 -0.121869343405148 0.121869343405148 0.992546151641322 7.7710602375239 221.05571177958 )">
    <path d="M 1812.9 52.8  L 1809 56.5  L 1812.9 60.2  L 1816.7 56.5  L 1812.9 52.8  Z M 1812.9 58.8  L 1810.4 56.5  L 1812.9 54.2  L 1815.3 56.5  L 1812.9 58.8  Z M 1976.1 60.2  L 1980 56.5  L 1976.1 52.8  L 1972.3 56.5  L 1976.1 60.2  Z M 1976.1 54.2  L 1978.6 56.5  L 1976.1 58.8  L 1973.7 56.5  L 1976.1 54.2  Z " fill-rule="nonzero" fill="#d9001b" stroke="none" transform="matrix(0.993437610631988 0.114375319810726 -0.114375319810726 0.993437610631988 18.8946522270039 -216.313268382127 )" />
    <path d="M 1815 56.5  L 1974 56.5  " stroke-width="1" stroke="#d9001b" fill="none" transform="matrix(0.993437610631988 0.114375319810726 -0.114375319810726 0.993437610631988 18.8946522270039 -216.313268382127 )" />
  </g>
</svg>