<?xml version="1.0" encoding="utf-8"?>
<svg version="1.1" xmlns:xlink="http://www.w3.org/1999/xlink" width="19px" height="18px" preserveAspectRatio="xMinYMid meet" viewBox="911 6804  19 16" xmlns="http://www.w3.org/2000/svg">
  <defs>
    <mask fill="white" id="clip41">
      <path d="M 869 6727  L 915 6727  L 915 6752  L 869 6752  Z M 848 6677  L 933 6677  L 933 6821  L 848 6821  Z " fill-rule="evenodd" />
    </mask>
  </defs>
  <path d="M 919 6812.5  L 897 6812.5  A 5 5 0 0 1 892.5 6807 L 892.5 6785  A 3 3 0 0 0 895.5 6782 A 3 3 0 0 0 892.5 6779 L 892.5 6734  A 3 3 0 0 0 895.5 6731 A 3 3 0 0 0 892.5 6728 L 892.5 6685  A 5 5 0 0 0 887.5 6680.5 L 848 6680.5  " stroke-width="1" stroke="#36404b" fill="none" mask="url(#clip41)" />
  <path d="M 918 6818.8  L 924 6812.5  L 918 6806.2  L 918 6818.8  Z " fill-rule="nonzero" fill="#36404b" stroke="none" mask="url(#clip41)" />
</svg>