<?xml version="1.0" encoding="utf-8"?>
<svg version="1.1" xmlns:xlink="http://www.w3.org/1999/xlink" width="29px" height="31px" xmlns="http://www.w3.org/2000/svg">
  <g transform="matrix(1 0 0 1 -523 -249 )">
    <path d="M 523 249  L 552 249  L 552 280  L 523 280  L 523 249  " fill-rule="nonzero" fill="#cccccc" stroke="none" />
    <path d="M 525 251  L 550 251  L 550 278  L 525 278  L 525 251  " fill-rule="nonzero" fill="#ffffff" stroke="none" />
    <path d="M 540.255 258  C 539.037 258  538.08 257.043  538.08 255.825  C 538.08 254.607  539.037 253.65  540.255 253.65  C 541.473 253.65  542.43 254.607  542.43 255.825  C 542.43 257.043  541.473 258  540.255 258  " fill-rule="nonzero" fill="#cccccc" stroke="none" />
    <path d="M 526 278  L 526 263.7  L 532 257.2  L 540.4 262.4  L 545.2 261.1  L 550 262.4  L 550 278  L 526 278  " fill-rule="nonzero" fill="#169bd5" stroke="none" />
  </g>
</svg>