<?xml version="1.0" encoding="utf-8"?>
<svg version="1.1" xmlns:xlink="http://www.w3.org/1999/xlink" width="1494px" height="18px" preserveAspectRatio="xMinYMid meet" viewBox="476 173  1494 16" xmlns="http://www.w3.org/2000/svg">
  <g transform="matrix(0.999847695156391 0.0174524064372835 -0.0174524064372829 0.999847695156392 3.34515438888189 -21.3167258961047 )">
    <path d="M 490 183  L 490 178  L 485 178  L 485 183  L 490 183  Z M 489 182  L 486 182  L 486 179  L 489 179  L 489 182  Z M 1957 178  L 1957 183  L 1962 183  L 1962 178  L 1957 178  Z M 1958 179  L 1961 179  L 1961 182  L 1958 182  L 1958 179  Z " fill-rule="nonzero" fill="#d9001b" stroke="none" transform="matrix(0.999908546349646 -0.0135240133443101 0.0135240133443101 0.999908546349646 -2.3291908674405 16.5631377106522 )" />
    <path d="M 490 180.5  L 1957 180.5  " stroke-width="1" stroke="#d9001b" fill="none" transform="matrix(0.999908546349646 -0.0135240133443101 0.0135240133443101 0.999908546349646 -2.3291908674405 16.5631377106522 )" />
  </g>
</svg>