<?xml version="1.0" encoding="utf-8"?>
<svg version="1.1" xmlns:xlink="http://www.w3.org/1999/xlink" width="24px" height="22px" preserveAspectRatio="xMinYMid meet" viewBox="1752 451  24 20" xmlns="http://www.w3.org/2000/svg">
  <g transform="matrix(0.978147600733811 -0.207911690817758 0.207911690817759 0.978147600733805 -57.2996571614294 376.830178664241 )">
    <path d="M 1763.9 482.8  L 1760 486.5  L 1763.9 490.2  L 1767.7 486.5  L 1763.9 482.8  Z M 1763.9 488.8  L 1761.4 486.5  L 1763.9 484.2  L 1766.3 486.5  L 1763.9 488.8  Z M 2004.1 490.2  L 2008 486.5  L 2004.1 482.8  L 2000.3 486.5  L 2004.1 490.2  Z M 2004.1 484.2  L 2006.6 486.5  L 2004.1 488.8  L 2001.7 486.5  L 2004.1 484.2  Z " fill-rule="nonzero" fill="#d9001b" stroke="none" transform="matrix(0.977390120315104 0.211443970617338 -0.211443970617338 0.977390120315104 145.464505031679 -387.360734176364 )" />
    <path d="M 1766 486.5  L 2002 486.5  " stroke-width="1" stroke="#d9001b" fill="none" transform="matrix(0.977390120315104 0.211443970617338 -0.211443970617338 0.977390120315104 145.464505031679 -387.360734176364 )" />
  </g>
</svg>