<?xml version="1.0" encoding="utf-8"?>
<svg version="1.1" xmlns:xlink="http://www.w3.org/1999/xlink" width="22px" height="22px" preserveAspectRatio="xMinYMid meet" viewBox="2076 427  22 20" xmlns="http://www.w3.org/2000/svg">
  <g transform="matrix(-0.997564050259802 0.0697564737441251 -0.0697564737441251 -0.997564050259828 4199.39975191839 727.353729259556 )">
    <path d="M 1756.9 420.8  L 1753 424.5  L 1756.9 428.2  L 1760.7 424.5  L 1756.9 420.8  Z M 1756.9 426.8  L 1754.4 424.5  L 1756.9 422.2  L 1759.3 424.5  L 1756.9 426.8  Z M 2084.1 428.2  L 2088 424.5  L 2084.1 420.8  L 2080.3 424.5  L 2084.1 428.2  Z M 2084.1 422.2  L 2086.6 424.5  L 2084.1 426.8  L 2081.7 424.5  L 2084.1 422.2  Z " fill-rule="nonzero" fill="#d9001b" stroke="none" transform="matrix(0.997335297827365 0.0729541205662926 -0.0729541205662926 0.997335297827365 36.0865847029368 -138.977222475281 )" />
    <path d="M 1759 424.5  L 2082 424.5  " stroke-width="1" stroke="#d9001b" fill="none" transform="matrix(0.997335297827365 0.0729541205662926 -0.0729541205662926 0.997335297827365 36.0865847029368 -138.977222475281 )" />
  </g>
</svg>