<?xml version="1.0" encoding="utf-8"?>
<svg version="1.1" xmlns:xlink="http://www.w3.org/1999/xlink" width="12px" height="12px" viewBox="104 243.5  12 12" xmlns="http://www.w3.org/2000/svg">
  <path d="M 110 243.5  C 113.36 243.5  116 246.14  116 249.5  C 116 252.86  113.36 255.5  110 255.5  C 106.64 255.5  104 252.86  104 249.5  C 104 246.14  106.64 243.5  110 243.5  Z " fill-rule="nonzero" fill="#ffffff" stroke="none" />
  <path d="M 110 244  C 113.08 244  115.5 246.42  115.5 249.5  C 115.5 252.58  113.08 255  110 255  C 106.92 255  104.5 252.58  104.5 249.5  C 104.5 246.42  106.92 244  110 244  Z " stroke-width="1" stroke="#797979" fill="none" />
  <path d="M 110 252.5  C 108.32 252.5  107 251.18  107 249.5  C 107 247.82  108.32 246.5  110 246.5  C 111.68 246.5  113 247.82  113 249.5  C 113 251.18  111.68 252.5  110 252.5  " fill-rule="nonzero" fill="#797979" stroke="none" />
</svg>