<?xml version="1.0" encoding="utf-8"?>
<svg version="1.1" xmlns:xlink="http://www.w3.org/1999/xlink" width="12px" height="12px" viewBox="53 244.5  12 12" xmlns="http://www.w3.org/2000/svg">
  <path d="M 59 244.5  C 62.36 244.5  65 247.14  65 250.5  C 65 253.86  62.36 256.5  59 256.5  C 55.64 256.5  53 253.86  53 250.5  C 53 247.14  55.64 244.5  59 244.5  Z " fill-rule="nonzero" fill="#ffffff" stroke="none" />
  <path d="M 59 245  C 62.08 245  64.5 247.42  64.5 250.5  C 64.5 253.58  62.08 256  59 256  C 55.92 256  53.5 253.58  53.5 250.5  C 53.5 247.42  55.92 245  59 245  Z " stroke-width="1" stroke="#797979" fill="none" />
  <path d="M 59 253.5  C 57.32 253.5  56 252.18  56 250.5  C 56 248.82  57.32 247.5  59 247.5  C 60.68 247.5  62 248.82  62 250.5  C 62 252.18  60.68 253.5  59 253.5  " fill-rule="nonzero" fill="#797979" stroke="none" />
</svg>