<?xml version="1.0" encoding="utf-8"?>
<svg version="1.1" xmlns:xlink="http://www.w3.org/1999/xlink" width="22px" height="20px" preserveAspectRatio="xMinYMid meet" viewBox="1404 523  22 18" xmlns="http://www.w3.org/2000/svg">
  <g transform="matrix(0.998629534754572 -0.0523359562429433 0.0523359562429392 0.998629534754577 -25.9035203989636 74.7844655943296 )">
    <path d="M 1416.9 536.8  L 1413 540.5  L 1416.9 544.2  L 1420.7 540.5  L 1416.9 536.8  Z M 1416.9 542.8  L 1414.4 540.5  L 1416.9 538.2  L 1419.3 540.5  L 1416.9 542.8  Z M 1777.1 544.2  L 1781 540.5  L 1777.1 536.8  L 1773.3 540.5  L 1777.1 544.2  Z M 1777.1 538.2  L 1779.6 540.5  L 1777.1 542.8  L 1774.7 540.5  L 1777.1 538.2  Z " fill-rule="nonzero" fill="#d9001b" stroke="none" transform="matrix(0.998970664743534 0.0453608970574979 -0.0453608970574979 0.998970664743534 26.161413264153 -71.8849968947046 )" />
    <path d="M 1419 540.5  L 1775 540.5  " stroke-width="1" stroke="#d9001b" fill="none" transform="matrix(0.998970664743534 0.0453608970574979 -0.0453608970574979 0.998970664743534 26.161413264153 -71.8849968947046 )" />
  </g>
</svg>