<?xml version="1.0" encoding="utf-8"?>
<svg version="1.1" xmlns:xlink="http://www.w3.org/1999/xlink" width="352px" height="10px" preserveAspectRatio="xMinYMid meet" viewBox="736 485  352 8" xmlns="http://www.w3.org/2000/svg">
  <g transform="matrix(0.992546151641322 0.121869343405147 -0.121869343405148 0.992546151641315 66.3920186282314 -107.499909338097 )">
    <path d="M 743.9 484.8  L 740 488.5  L 743.9 492.2  L 747.7 488.5  L 743.9 484.8  Z M 743.9 490.8  L 741.4 488.5  L 743.9 486.2  L 746.3 488.5  L 743.9 490.8  Z M 1080.1 492.2  L 1084 488.5  L 1080.1 484.8  L 1076.3 488.5  L 1080.1 492.2  Z M 1080.1 486.2  L 1082.6 488.5  L 1080.1 490.8  L 1077.7 488.5  L 1080.1 486.2  Z " fill-rule="nonzero" fill="#d9001b" stroke="none" transform="matrix(0.991569454736434 -0.129576295801704 0.129576295801704 0.991569454736434 -55.6093632187602 122.291903132406 )" />
    <path d="M 746 488.5  L 1078 488.5  " stroke-width="1" stroke="#d9001b" fill="none" transform="matrix(0.991569454736434 -0.129576295801704 0.129576295801704 0.991569454736434 -55.6093632187602 122.291903132406 )" />
  </g>
</svg>