<?xml version="1.0" encoding="utf-8"?>
<svg version="1.1" xmlns:xlink="http://www.w3.org/1999/xlink" width="14px" height="14px" xmlns="http://www.w3.org/2000/svg">
  <g transform="matrix(1 0 0 1 -142 -198 )">
    <path d="M 149 198  C 152.92 198  156 201.08  156 205  C 156 208.92  152.92 212  149 212  C 145.08 212  142 208.92  142 205  C 142 201.08  145.08 198  149 198  Z " fill-rule="nonzero" fill="#ffffff" stroke="none" />
    <path d="M 149 198.5  C 152.64 198.5  155.5 201.36  155.5 205  C 155.5 208.64  152.64 211.5  149 211.5  C 145.36 211.5  142.5 208.64  142.5 205  C 142.5 201.36  145.36 198.5  149 198.5  Z " stroke-width="1" stroke="#797979" fill="none" />
  </g>
</svg>