<?xml version="1.0" encoding="utf-8"?>
<svg version="1.1" xmlns:xlink="http://www.w3.org/1999/xlink" width="18px" height="18px" xmlns="http://www.w3.org/2000/svg">
  <g transform="matrix(1 0 0 1 -138 -496 )">
    <path d="M 147 496  C 152.04 496  156 499.96  156 505  C 156 510.04  152.04 514  147 514  C 141.96 514  138 510.04  138 505  C 138 499.96  141.96 496  147 496  Z " fill-rule="nonzero" fill="#ffffff" stroke="none" />
    <path d="M 147 496.5  C 151.76 496.5  155.5 500.24  155.5 505  C 155.5 509.76  151.76 513.5  147 513.5  C 142.24 513.5  138.5 509.76  138.5 505  C 138.5 500.24  142.24 496.5  147 496.5  Z " stroke-width="1" stroke="#797979" fill="none" />
  </g>
</svg>