<?xml version="1.0" encoding="utf-8"?>
<svg version="1.1" xmlns:xlink="http://www.w3.org/1999/xlink" width="170px" height="170px" xmlns="http://www.w3.org/2000/svg">
  <g transform="matrix(1 0 0 1 -539 -620 )">
    <path d="M 624 620  C 671.6 620  709 657.4  709 705  C 709 752.6  671.6 790  624 790  C 576.4 790  539 752.6  539 705  C 539 657.4  576.4 620  624 620  Z " fill-rule="nonzero" fill="#ffffff" stroke="none" fill-opacity="0.207843137254902" />
    <path d="M 624 620.5  C 671.32 620.5  708.5 657.68  708.5 705  C 708.5 752.32  671.32 789.5  624 789.5  C 576.68 789.5  539.5 752.32  539.5 705  C 539.5 657.68  576.68 620.5  624 620.5  Z " stroke-width="1" stroke="#797979" fill="none" />
  </g>
</svg>