<?xml version="1.0" encoding="utf-8"?>
<svg version="1.1" xmlns:xlink="http://www.w3.org/1999/xlink" width="89px" height="79px" xmlns="http://www.w3.org/2000/svg">
  <g transform="matrix(1 0 0 1 -163 -14 )">
    <path d="M 207.5 14  C 232.42 14  252 31.38  252 53.5  C 252 75.62  232.42 93  207.5 93  C 182.58 93  163 75.62  163 53.5  C 163 31.38  182.58 14  207.5 14  Z " fill-rule="nonzero" fill="#ffffff" stroke="none" />
    <path d="M 207.5 14.5  C 232.14 14.5  251.5 31.66  251.5 53.5  C 251.5 75.34  232.14 92.5  207.5 92.5  C 182.86 92.5  163.5 75.34  163.5 53.5  C 163.5 31.66  182.86 14.5  207.5 14.5  Z " stroke-width="1" stroke="#797979" fill="none" />
  </g>
</svg>