<?xml version="1.0" encoding="utf-8"?>
<svg version="1.1" xmlns:xlink="http://www.w3.org/1999/xlink" width="1418px" height="14px" preserveAspectRatio="xMinYMid meet" viewBox="486 949  1418 12" xmlns="http://www.w3.org/2000/svg">
  <g transform="matrix(0.999847695156391 0.0174524064372835 -0.0174524064372861 0.999847695156394 16.8490524357208 -20.7101745669104 )">
    <path d="M 498 958  L 498 953  L 493 953  L 493 958  L 498 958  Z M 497 957  L 494 957  L 494 954  L 497 954  L 497 957  Z M 1893 953  L 1893 958  L 1898 958  L 1898 953  L 1893 953  Z M 1894 954  L 1897 954  L 1897 957  L 1894 957  L 1894 954  Z " fill-rule="nonzero" fill="#d9001b" stroke="none" transform="matrix(0.999898459240196 -0.0142503055785528 0.0142503055785528 0.999898459240196 -13.4947750019614 17.1332625151526 )" />
    <path d="M 498 955.5  L 1893 955.5  " stroke-width="1" stroke="#d9001b" fill="none" transform="matrix(0.999898459240196 -0.0142503055785528 0.0142503055785528 0.999898459240196 -13.4947750019614 17.1332625151526 )" />
  </g>
</svg>