<?xml version="1.0" encoding="utf-8"?>
<svg version="1.1" xmlns:xlink="http://www.w3.org/1999/xlink" width="668px" height="18px" preserveAspectRatio="xMinYMid meet" viewBox="1246 303  668 16" xmlns="http://www.w3.org/2000/svg">
  <g transform="matrix(0.999390827019095 0.034899496702501 -0.0348994967025015 0.999390827019098 11.8162367843076 -54.951751992891 )">
    <path d="M 1260 314  L 1260 309  L 1255 309  L 1255 314  L 1260 314  Z M 1259 313  L 1256 313  L 1256 310  L 1259 310  L 1259 313  Z M 1900 309  L 1900 314  L 1905 314  L 1905 309  L 1900 309  Z M 1901 310  L 1904 310  L 1904 313  L 1901 313  L 1901 310  Z " fill-rule="nonzero" fill="#d9001b" stroke="none" transform="matrix(0.999655248397695 -0.0262561297784592 0.0262561297784592 0.999655248397695 -7.63407689434757 41.5920751740837 )" />
    <path d="M 1260 311.5  L 1900 311.5  " stroke-width="1" stroke="#d9001b" fill="none" transform="matrix(0.999655248397695 -0.0262561297784592 0.0262561297784592 0.999655248397695 -7.63407689434757 41.5920751740837 )" />
  </g>
</svg>