<?xml version="1.0" encoding="utf-8"?>
<svg version="1.1" xmlns:xlink="http://www.w3.org/1999/xlink" width="24px" height="20px" preserveAspectRatio="xMinYMid meet" viewBox="1978 3059  24 18" xmlns="http://www.w3.org/2000/svg">
  <g transform="matrix(-0.999390827019098 -0.0348994967024895 0.0348994967024971 -0.999390827019113 3871.71608988474 6203.58105573259 )">
    <path d="M 1348 3079  L 1348 3074  L 1343 3074  L 1343 3079  L 1348 3079  Z M 1347 3078  L 1344 3078  L 1344 3075  L 1347 3075  L 1347 3078  Z M 1988 3074  L 1988 3079  L 1993 3079  L 1993 3074  L 1988 3074  Z M 1989 3075  L 1992 3075  L 1992 3078  L 1989 3078  L 1989 3075  Z " fill-rule="nonzero" fill="#d9001b" stroke="none" transform="matrix(0.999655248397695 -0.0262561297784592 0.0262561297784592 0.999655248397695 -80.2019375907844 44.8558527749619 )" />
    <path d="M 1348 3076.5  L 1988 3076.5  " stroke-width="1" stroke="#d9001b" fill="none" transform="matrix(0.999655248397695 -0.0262561297784592 0.0262561297784592 0.999655248397695 -80.2019375907844 44.8558527749619 )" />
  </g>
</svg>