<?xml version="1.0" encoding="utf-8"?>
<svg version="1.1" xmlns:xlink="http://www.w3.org/1999/xlink" width="24px" height="22px" preserveAspectRatio="xMinYMid meet" viewBox="2026 589  24 20" xmlns="http://www.w3.org/2000/svg">
  <g transform="matrix(-0.999847695156397 -0.0174524064372814 0.0174524064372732 -0.999847695156389 4065.23561127281 1233.47677371786 )">
    <path d="M 641 612  L 641 607  L 636 607  L 636 612  L 641 612  Z M 640 611  L 637 611  L 637 608  L 640 608  L 640 611  Z M 2036 607  L 2036 612  L 2041 612  L 2041 607  L 2036 607  Z M 2037 608  L 2040 608  L 2040 611  L 2037 611  L 2037 608  Z " fill-rule="nonzero" fill="#d9001b" stroke="none" transform="matrix(0.999898459240196 -0.0142503055785528 0.0142503055785528 0.999898459240196 -8.54964894313002 19.1359231099935 )" />
    <path d="M 641 609.5  L 2036 609.5  " stroke-width="1" stroke="#d9001b" fill="none" transform="matrix(0.999898459240196 -0.0142503055785528 0.0142503055785528 0.999898459240196 -8.54964894313002 19.1359231099935 )" />
  </g>
</svg>