<?xml version="1.0" encoding="utf-8"?>
<svg version="1.1" xmlns:xlink="http://www.w3.org/1999/xlink" width="22px" height="22px" preserveAspectRatio="xMinYMid meet" viewBox="1866 469  22 20" xmlns="http://www.w3.org/2000/svg">
  <g transform="matrix(-0.999847695156389 -0.0174524064372835 0.0174524064372835 -0.999847695156394 3745.35442112508 990.685212862694 )">
    <path d="M 617 492  L 617 487  L 612 487  L 612 492  L 617 492  Z M 616 491  L 613 491  L 613 488  L 616 488  L 616 491  Z M 1876 487  L 1876 492  L 1881 492  L 1881 487  L 1876 487  Z M 1877 488  L 1880 488  L 1880 491  L 1877 491  L 1877 488  Z " fill-rule="nonzero" fill="#d9001b" stroke="none" transform="matrix(0.999875197223204 -0.0157984169415618 0.0157984169415618 0.999875197223204 -7.57775843161812 19.7538176768986 )" />
    <path d="M 617 489.5  L 1876 489.5  " stroke-width="1" stroke="#d9001b" fill="none" transform="matrix(0.999875197223204 -0.0157984169415618 0.0157984169415618 0.999875197223204 -7.57775843161812 19.7538176768986 )" />
  </g>
</svg>