<?xml version="1.0" encoding="utf-8"?>
<svg version="1.1" xmlns:xlink="http://www.w3.org/1999/xlink" width="22px" height="22px" preserveAspectRatio="xMinYMid meet" viewBox="1918 1139  22 20" xmlns="http://www.w3.org/2000/svg">
  <g transform="matrix(-0.997564050259823 0.0697564737441262 -0.0697564737441262 -0.997564050259823 3933.4512412832 2160.64085589612 )">
    <path d="M 1079 1121  L 1079 1116  L 1074 1116  L 1074 1121  L 1079 1121  Z M 1078 1120  L 1075 1120  L 1075 1117  L 1078 1117  L 1078 1120  Z M 1928 1116  L 1928 1121  L 1933 1121  L 1933 1116  L 1928 1116  Z M 1929 1117  L 1932 1117  L 1932 1120  L 1929 1120  L 1929 1117  Z " fill-rule="nonzero" fill="#d9001b" stroke="none" transform="matrix(0.99746568426648 0.0711492003525133 -0.0711492003525133 0.99746568426648 83.3907242996327 -104.138190582062 )" />
    <path d="M 1079 1118.5  L 1928 1118.5  " stroke-width="1" stroke="#d9001b" fill="none" transform="matrix(0.99746568426648 0.0711492003525133 -0.0711492003525133 0.99746568426648 83.3907242996327 -104.138190582062 )" />
  </g>
</svg>