<?xml version="1.0" encoding="utf-8"?>
<svg version="1.1" xmlns:xlink="http://www.w3.org/1999/xlink" width="1117px" height="19px" xmlns="http://www.w3.org/2000/svg">
  <g transform="matrix(1 0 0 1 -898 -469 )">
    <path d="M 910 475.5  A 3 3 0 0 0 907 478.5 A 3 3 0 0 0 910 481.5 A 3 3 0 0 0 913 478.5 A 3 3 0 0 0 910 475.5 Z M 2003 475.5  A 3 3 0 0 0 2000 478.5 A 3 3 0 0 0 2003 481.5 A 3 3 0 0 0 2006 478.5 A 3 3 0 0 0 2003 475.5 Z " fill-rule="nonzero" fill="#d9001b" stroke="none" />
    <path d="M 908 478.5  L 2005 478.5  " stroke-width="1" stroke="#d9001b" fill="none" />
  </g>
</svg>