<?xml version="1.0" encoding="utf-8"?>
<svg version="1.1" xmlns:xlink="http://www.w3.org/1999/xlink" width="117px" height="63px" xmlns="http://www.w3.org/2000/svg">
  <g transform="matrix(1 0 0 1 -260 -385 )">
    <path d="M 260 385  L 377 385  L 377 448  L 260 448  L 260 385  " fill-rule="nonzero" fill="#cccccc" stroke="none" />
    <path d="M 264 389  L 373 389  L 373 444  L 264 444  L 264 389  " fill-rule="nonzero" fill="#ffffff" stroke="none" />
    <path d="M 325.565 403.9  C 322.919 403.9  320.84 401.821  320.84 399.175  C 320.84 396.529  322.919 394.45  325.565 394.45  C 328.211 394.45  330.29 396.529  330.29 399.175  C 330.29 401.821  328.211 403.9  325.565 403.9  " fill-rule="nonzero" fill="#cccccc" stroke="none" />
    <path d="M 266 443  L 266 414.4  L 292.5 401.4  L 329.6 426.2  L 350.8 409.2  L 372 426.2  L 372 443  L 266 443  " fill-rule="nonzero" fill="#169bd5" stroke="none" />
  </g>
</svg>