<?xml version="1.0" encoding="utf-8"?>
<svg version="1.1" xmlns:xlink="http://www.w3.org/1999/xlink" width="22px" height="20px" preserveAspectRatio="xMinYMid meet" viewBox="1156 769  22 18" xmlns="http://www.w3.org/2000/svg">
  <g transform="matrix(-0.342020143325664 -0.939692620785894 0.939692620785908 -0.342020143325669 835.056648289613 2140.71295996451 )">
    <path d="M 1113.9 812.8  L 1110 816.5  L 1113.9 820.2  L 1117.7 816.5  L 1113.9 812.8  Z M 1113.9 818.8  L 1111.4 816.5  L 1113.9 814.2  L 1116.3 816.5  L 1113.9 818.8  Z M 1191.1 820.2  L 1195 816.5  L 1191.1 812.8  L 1187.3 816.5  L 1191.1 820.2  Z M 1191.1 814.2  L 1193.6 816.5  L 1191.1 818.8  L 1188.7 816.5  L 1191.1 814.2  Z " fill-rule="nonzero" fill="#d9001b" stroke="none" transform="matrix(0.343103712379259 -0.939297526107447 0.939297526107447 0.343103712379259 -9.8634585838272 1618.89621768117 )" />
    <path d="M 1116 816.5  L 1189 816.5  " stroke-width="1" stroke="#d9001b" fill="none" transform="matrix(0.343103712379259 -0.939297526107447 0.939297526107447 0.343103712379259 -9.8634585838272 1618.89621768117 )" />
  </g>
</svg>