<?xml version="1.0" encoding="utf-8"?>
<svg version="1.1" xmlns:xlink="http://www.w3.org/1999/xlink" width="90px" height="6px" preserveAspectRatio="xMinYMid meet" viewBox="1108 815  90 4" xmlns="http://www.w3.org/2000/svg">
  <g transform="matrix(0.34202014332565 0.939692620785909 -0.939692620785914 0.342020143325668 1526.37964592762 -545.896048863224 )">
    <path d="M 1113.9 812.8  L 1110 816.5  L 1113.9 820.2  L 1117.7 816.5  L 1113.9 812.8  Z M 1113.9 818.8  L 1111.4 816.5  L 1113.9 814.2  L 1116.3 816.5  L 1113.9 818.8  Z M 1191.1 820.2  L 1195 816.5  L 1191.1 812.8  L 1187.3 816.5  L 1191.1 820.2  Z M 1191.1 814.2  L 1193.6 816.5  L 1191.1 818.8  L 1188.7 816.5  L 1191.1 814.2  Z " fill-rule="nonzero" fill="#d9001b" stroke="none" transform="matrix(0.343103712379259 -0.939297526107447 0.939297526107447 0.343103712379259 -9.8634585838272 1618.89621768117 )" />
    <path d="M 1116 816.5  L 1189 816.5  " stroke-width="1" stroke="#d9001b" fill="none" transform="matrix(0.343103712379259 -0.939297526107447 0.939297526107447 0.343103712379259 -9.8634585838272 1618.89621768117 )" />
  </g>
</svg>