<?xml version="1.0" encoding="utf-8"?>
<svg version="1.1" xmlns:xlink="http://www.w3.org/1999/xlink" width="31px" height="31px" xmlns="http://www.w3.org/2000/svg">
  <g transform="matrix(1 0 0 1 -1092 -391 )">
    <path d="M 1092 391  L 1123 391  L 1123 422  L 1092 422  L 1092 391  " fill-rule="nonzero" fill="#cccccc" stroke="none" />
    <path d="M 1094 393  L 1121 393  L 1121 420  L 1094 420  L 1094 393  " fill-rule="nonzero" fill="#ffffff" stroke="none" />
    <path d="M 1110.445 400.3  C 1109.143 400.3  1108.12 399.277  1108.12 397.975  C 1108.12 396.673  1109.143 395.65  1110.445 395.65  C 1111.747 395.65  1112.77 396.673  1112.77 397.975  C 1112.77 399.277  1111.747 400.3  1110.445 400.3  " fill-rule="nonzero" fill="#cccccc" stroke="none" />
    <path d="M 1095 419  L 1095 405.25  L 1101.25 399  L 1110 404  L 1115 402.75  L 1120 404  L 1120 419  L 1095 419  " fill-rule="nonzero" fill="#169bd5" stroke="none" />
  </g>
</svg>