<?xml version="1.0" encoding="utf-8"?>
<svg version="1.1" xmlns:xlink="http://www.w3.org/1999/xlink" width="93px" height="73px" xmlns="http://www.w3.org/2000/svg">
  <g transform="matrix(1 0 0 1 -1092 -475 )">
    <path d="M 1092 475  L 1185 475  L 1185 548  L 1092 548  L 1092 475  " fill-rule="nonzero" fill="#cccccc" stroke="none" />
    <path d="M 1097 480  L 1180 480  L 1180 543  L 1097 543  L 1097 480  " fill-rule="nonzero" fill="#ffffff" stroke="none" />
    <path d="M 1145.835 496.9  C 1142.769 496.9  1140.36 494.491  1140.36 491.425  C 1140.36 488.359  1142.769 485.95  1145.835 485.95  C 1148.901 485.95  1151.31 488.359  1151.31 491.425  C 1151.31 494.491  1148.901 496.9  1145.835 496.9  " fill-rule="nonzero" fill="#cccccc" stroke="none" />
    <path d="M 1099 541  L 1099 508.55  L 1118.75 493.8  L 1146.4 513.212903225806  L 1162.2 502.65  L 1178 513.212903225806  L 1178 541  L 1099 541  " fill-rule="nonzero" fill="#169bd5" stroke="none" />
  </g>
</svg>