<?xml version="1.0" encoding="utf-8"?>
<svg version="1.1" xmlns:xlink="http://www.w3.org/1999/xlink" width="172px" height="160px" xmlns="http://www.w3.org/2000/svg">
  <g transform="matrix(1 0 0 1 -631 -8354 )">
    <path d="M 717 8354  C 765.16 8354  803 8389.2  803 8434  C 803 8478.8  765.16 8514  717 8514  C 668.84 8514  631 8478.8  631 8434  C 631 8389.2  668.84 8354  717 8354  Z " fill-rule="nonzero" fill="#ffffff" stroke="none" />
    <path d="M 717 8354.5  C 764.88 8354.5  802.5 8389.48  802.5 8434  C 802.5 8478.52  764.88 8513.5  717 8513.5  C 669.12 8513.5  631.5 8478.52  631.5 8434  C 631.5 8389.48  669.12 8354.5  717 8354.5  Z " stroke-width="1" stroke="#797979" fill="none" />
  </g>
</svg>