<?xml version="1.0" encoding="utf-8"?>
<svg version="1.1" xmlns:xlink="http://www.w3.org/1999/xlink" width="171px" height="160px" xmlns="http://www.w3.org/2000/svg">
  <g transform="matrix(1 0 0 1 -229 -8354 )">
    <path d="M 314.5 8354  C 362.38 8354  400 8389.2  400 8434  C 400 8478.8  362.38 8514  314.5 8514  C 266.62 8514  229 8478.8  229 8434  C 229 8389.2  266.62 8354  314.5 8354  Z " fill-rule="nonzero" fill="#ffffff" stroke="none" />
    <path d="M 314.5 8354.5  C 362.1 8354.5  399.5 8389.48  399.5 8434  C 399.5 8478.52  362.1 8513.5  314.5 8513.5  C 266.9 8513.5  229.5 8478.52  229.5 8434  C 229.5 8389.48  266.9 8354.5  314.5 8354.5  Z " stroke-width="1" stroke="#797979" fill="none" />
  </g>
</svg>